<svg xmlns="http://www.w3.org/2000/svg" viewBox="0 0 100 100">
  <polygon points="25.798224591409372,22.7185538850582 28.16630675471361,26.545064941861813 26.036492053311754,30.509139781933904 21.538595188605672,30.646703565202372 19.17051302530143,26.82019250839876 21.300327726703287,22.856117668326668" fill="hsl(0 50% 50%)" />
  <polygon points="37.5326080928541,16.786169201506866 36.873937870299486,21.23770304254636 32.68946136687585,22.89304481761746 29.163655086006838,20.09685275164907 29.82232530856145,15.645318910609571 34.006801811985085,13.98997713553847" fill="hsl(4 50% 50%)" />
  <polygon points="78.6838714585,7.833616084329146 81.63589714267177,4.437214406083454 86.05328011957452,5.295542802077504 87.51863741230551,9.55027287631725 84.56661172813374,12.94667455456294 80.14922875123098,12.088346158568891" fill="hsl(7 50% 50%)" />
  <polygon points="38.645470730270304,16.634340949215616 36.86680599393622,12.500776899183055 39.557245101267455,8.893626027685906 44.02634894493279,9.420039206221313 45.805013681266885,13.553603256253867 43.11457457393564,17.160754127751026" fill="hsl(11 50% 50%)" />
  <polygon points="53.56566783786542,96.44332200123932 54.63193942008706,92.07147286009246 58.95120762894423,90.80896656705639 62.20420425557978,93.91830941516719 61.13793267335815,98.29015855631404 56.81866446450097,99.55266484935012" fill="hsl(14 50% 50%)" />
  <polygon points="90.03182684439751,35.998498469147336 85.59905878765376,36.77346127800477 82.7115372798232,33.32205293620921 84.2567838287364,29.095681785556224 88.68955188548016,28.320718976698792 91.57707339331071,31.772127318494345" fill="hsl(18 50% 50%)" />
  <polygon points="16.181779733376004,87.34845369842934 18.89447092813121,83.75800714098031 23.360234455190053,84.31204334953617 25.1133067874937,88.45652611554105 22.400615592738497,92.04697267299008 17.93485206567965,91.49293646443422" fill="hsl(22 50% 50%)" />
  <polygon points="78.83912984377388,78.45911887551964 83.00172457107392,76.74949753257442 86.56359744856658,79.49959964060282 85.96287559875917,83.95932309157644 81.80028087145912,85.66894443452165 78.23840799396646,82.91884232649325" fill="hsl(25 50% 50%)" />
  <polygon points="85.71980663690378,40.017854079435736 89.42735750331022,42.56816123211536 89.07250215483973,47.05414804458616 85.0100959399628,48.98982770437732 81.30254507355636,46.4395205516977 81.65740042202685,41.9535337392269" fill="hsl(29 50% 50%)" />
  <polygon points="7.792659618309041,31.558676739285975 7.964574899768962,36.05539166643007 4.156263180015441,38.45263213104516 0.17603617880200062,36.35315766851616 0.0041208973420787665,31.856442741372064 3.812432617095596,29.45920227675697" fill="hsl(32 50% 50%)" />
  <polygon points="18.436800010232023,27.46734362242472 13.936800010424582,27.467385252337955 11.686763957958444,23.570291750431366 13.936727905299744,19.673156618611536 18.436727905107176,19.673114988698295 20.686763957573323,23.57020849060488" fill="hsl(36 50% 50%)" />
  <polygon points="41.912043136721316,71.64110965523278 46.402762141943555,71.35224495310425 48.89828581485462,75.09688934182 46.90309048254344,79.13039843266432 42.4123714773212,79.41926313479286 39.91684780441014,75.6746187460771" fill="hsl(40 50% 50%)" />
  <polygon points="20.855263332088654,99.69705435621324 16.355692742581937,99.63488917266018 14.15974407601646,95.70706414424951 16.4633659989577,91.84140429939191 20.96293658846441,91.90356948294497 23.158885255029894,95.83139451135564" fill="hsl(43 50% 50%)" />
  <polygon points="65.05758419513305,42.56564024439387 67.54850378692267,46.313348822610514 65.548352748101,50.34440275699301 61.05728211748971,50.627748113158866 58.56636252570009,46.88003953494222 60.566513564521756,42.84898560055972" fill="hsl(47 50% 50%)" />
  <polygon points="22.952235994559246,46.763138932163194 22.637854521767828,51.2521437538988 18.59307157203825,53.224383822850065 14.862670095100091,50.707619070065725 15.17705156789151,46.21861424833013 19.221834517621087,44.246374179378854" fill="hsl(50 50% 50%)" />
  <polygon points="27.67519442555929,61.79903193543634 28.502840294349262,66.22226630814087 25.086029895089595,69.15064584220251 20.841573627039956,67.6557910035596 20.013927758249984,63.23255663085506 23.43073815750965,60.30417709679343" fill="hsl(54 50% 50%)" />
  <polygon points="7.856646447866258,79.10155877621233 3.845152042015248,81.14065480921963 0.07349587374936206,78.68614676311714 0.31333411133447786,74.19254268400735 4.3248285171854794,72.15344665100005 8.096484685451378,74.60795469710256" fill="hsl(58 50% 50%)" />
  <polygon points="8.251021083680293,56.011501320576755 12.130861929895136,58.29115809475195 12.096541674657551,62.79102721730212 8.18238057320512,65.01123956567709 4.302539726990277,62.73158279150189 4.33685998222786,58.23171366895172" fill="hsl(61 50% 50%)" />
  <polygon points="57.20196549978551,18.134262338238386 59.45338874082518,22.03055460008251 57.204812282019276,25.928490452415623 52.704812582173695,25.930134042904616 50.45338934113402,22.033841781060495 52.70196579993993,18.135905928727375" fill="hsl(65 50% 50%)" />
  <polygon points="81.72441407199281,21.64948395541888 86.12957480923492,20.730485109358334 89.12803152459298,24.085966792533508 87.72132750270896,28.36044732176923 83.31616676546685,29.279446167829775 80.31771005010879,25.9239644846546" fill="hsl(68 50% 50%)" />
  <polygon points="3.8965563325257113,58.44828754547283 0.03110272519470847,56.144319574868256 0.09367071357844825,51.64475456846712 4.021692309293183,49.44915753267056 7.887145916624183,51.75312550327513 7.824577928240447,56.25269050967627" fill="hsl(72 50% 50%)" />
  <polygon points="96.10795923360689,42.417778746785814 92.04751977113905,44.35758063657609 88.3373823250377,41.81103785644523 88.68768434140418,37.32469318652413 92.74812380387202,35.384891296733855 96.45826124997338,37.93143407686471" fill="hsl(76 50% 50%)" />
  <polygon points="30.695466807496924,49.18760205854222 32.79789255147911,45.20893318679115 37.29473373965301,45.04035285477459 39.689149183844705,48.8504413945091 37.586723439862524,52.829110266260166 33.08988225168862,52.997690598276726" fill="hsl(79 50% 50%)" />
  <polygon points="44.06189188195438,57.251488422046066 39.563122542537435,57.3567235431895 37.22260158454842,53.51329257005962 39.38084996597634,49.564626475786284 43.87961930539328,49.45939135464285 46.2201402633823,53.30282232777273" fill="hsl(83 50% 50%)" />
  <polygon points="83.35876587460986,99.72383896670364 79.6082725450555,97.23711425637315 79.88659265164303,92.74572940108975 83.91540608778492,90.74106925613684 87.66589941733926,93.22779396646732 87.38757931075175,97.71917882175073" fill="hsl(86 50% 50%)" />
  <polygon points="48.27507051884773,8.256536277428095 52.774874019376526,8.298589299064 54.988356784598345,12.21655995337805 52.70203604929135,16.09247758605618 48.20223254876255,16.050424564420275 45.98874978354073,12.132453910106227" fill="hsl(90 50% 50%)" />
  <polygon points="81.13586899606054,13.35686739600345 82.5455848035418,17.63035558975542 79.54949336872033,20.987949388026664 75.14368612641763,20.072054992545933 73.73397031893637,15.798566798793962 76.73006175375784,12.44097300052272" fill="hsl(94 50% 50%)" />
  <polygon points="52.37107975553687,8.107089806169988 47.8759564707988,7.8976461263759905 45.80977837579346,3.900033328752875 48.238723565526186,0.11186421092375687 52.73384685026425,0.321307890717752 54.8000249452696,4.318920688340864" fill="hsl(97 50% 50%)" />
  <polygon points="47.3487624359857,59.42894399074216 51.1670850484757,57.04768121083997 55.13848041520235,59.16381420314978 55.291553169439005,63.66120997536178 51.473230556949005,66.04247275526397 47.50183519022235,63.92633976295417" fill="hsl(101 50% 50%)" />
  <polygon points="83.73725077788332,40.598206901069226 79.32621981536842,41.488603356438865 76.34959838432124,38.11373671370606 77.78400791578896,33.8484736156036 82.19503887830386,32.958077160233955 85.17166030935104,36.33294380296677" fill="hsl(104 50% 50%)" />
  <polygon points="72.0877007004414,26.30253255961643 68.35970384027921,28.822857818510776 64.31303971019602,26.854480461828864 63.99437244027503,22.365777846252612 67.72236930043722,19.845452587358267 71.76903343052041,21.813829944040176" fill="hsl(108 50% 50%)" />
  <polygon points="65.85073143690587,49.76755378604027 67.93005150572814,45.77676087592918 72.42583958153831,45.582108423072526 74.84230758852621,49.378248880326964 72.76298751970394,53.369041790438054 68.26719944389377,53.563694243294705" fill="hsl(112 50% 50%)" />
  <polygon points="58.55501562160145,32.65790578748164 55.97939955856183,28.967891980486833 57.88723722421484,24.89233613600186 62.37069095290749,24.506794098511683 64.94630701594711,28.19680790550649 63.03846935029409,32.27236374999146" fill="hsl(115 50% 50%)" />
  <polygon points="29.867087767765128,43.07278394150171 31.71801044796362,47.17450129304202 29.09128036248554,50.828306030304844 24.61362759680896,50.380393416027374 22.762704916610463,46.27867606448707 25.389435002088547,42.62487132722424" fill="hsl(119 50% 50%)" />
  <polygon points="13.962743279057335,37.13104250540901 13.997396034675063,41.63090907971187 10.1177236454972,43.910852533539384 6.203398500701608,41.69092941306404 6.1687457450838785,37.19106283876119 10.04841813426174,34.91111938493367" fill="hsl(122 50% 50%)" />
  <polygon points="8.545668923672949,43.02834226237406 8.630533457388891,47.527541970201796 4.77654448056852,49.85063666619399 0.8376909700322059,47.674531654358454 0.7528264363162629,43.17533194653072 4.606815413136632,40.85223725053852" fill="hsl(126 50% 50%)" />
  <polygon points="50.53531788617561,44.38213114163379 54.25306587315182,41.846712062796065 58.30767719815314,43.79866672496705 58.64454053617825,48.28604046597577 54.92679254920204,50.8214595448135 50.87218122420072,48.86950488264252" fill="hsl(130 50% 50%)" />
  <polygon points="78.49747604419085,58.70419577118575 82.97283578069789,59.17446721285696 84.80324863378983,63.285378156581714 82.1583017503747,66.92601765863525 77.68294201386766,66.45574621696403 75.85252916077572,62.34483527323928" fill="hsl(133 50% 50%)" />
  <polygon points="93.26774644628216,59.97946440562314 97.76769336781345,60.001320832621694 99.99873860756237,63.90931739584863 97.72983692578003,67.79545753207702 93.22989000424876,67.77360110507848 90.99884476449982,63.86560454185154" fill="hsl(137 50% 50%)" />
  <polygon points="99.92630474951358,13.052842854078829 99.44442831431186,17.526967919518697 95.32878413033137,19.346713217868857 91.69501638155259,16.69233345077915 92.1768928167543,12.218208385339288 96.29253700073481,10.398463086989125" fill="hsl(140 50% 50%)" />
  <polygon points="17.320741425817516,57.07735755207706 13.27335432554308,59.04424790502815 9.546283763291674,56.522553033716605 9.866600301314705,52.033967809453955 13.913987401589141,50.067077456502865 17.641057963840545,52.58877232781441" fill="hsl(144 50% 50%)" />
  <polygon points="84.64349426868887,48.8800581608168 84.30703224509408,53.367462010113016 80.2525955027661,55.31977927491932 76.53462078403288,52.78469269042941 76.87108280762766,48.2972888411332 80.92551954995565,46.34497157632689" fill="hsl(148 50% 50%)" />
  <polygon points="9.01354899198087,30.890023837322612 4.769524118428082,29.393944670745768 3.9431542459798923,24.970471732667587 7.360809247084482,22.043077961166265 11.604834120637264,23.539157127743106 12.431203993085465,27.962630065821273" fill="hsl(151 50% 50%)" />
  <polygon points="17.538982279957278,19.539250509849413 13.931465417047171,16.84930216762809 14.457270584823618,12.380126748656538 18.59059261551017,10.600899671906301 22.198109478420278,13.29084801412762 21.67230431064383,17.760023433099175" fill="hsl(155 50% 50%)" />
  <polygon points="30.698749861085744,78.7299035083271 30.410442081583806,83.22065830282196 26.377180457633514,85.21635383891204 22.63222661318516,82.72129458050723 22.920534392687095,78.23053978601237 26.953796016637387,76.23484424992229" fill="hsl(158 50% 50%)" />
  <polygon points="76.74577192408928,96.95138019160744 72.28784097185502,96.33749777199294 70.5905132660607,92.16987510923389 73.35111651250064,88.6161348660893 77.8090474647349,89.2300172857038 79.50637517052922,93.39763994846285" fill="hsl(162 50% 50%)" />
  <polygon points="94.10137287906242,52.1040027145464 91.09402883585298,48.75648396093609 92.48939309451961,44.478288244791756 96.89210139639569,43.54761128225773 99.89944543960512,46.895130035868036 98.5040811809385,51.173325752012374" fill="hsl(166 50% 50%)" />
  <polygon points="40.68674101129084,68.04131979914243 42.155799734138505,63.787866323573994 46.573927859219815,62.93338175942698 49.52299726145346,66.3323506708484 48.0539385386058,70.58580414641683 43.63581041352449,71.44028871056385" fill="hsl(169 50% 50%)" />
  <polygon points="78.80139388968708,46.60089631148662 74.43108744199051,47.673473373157215 71.31705523521904,44.424965497964365 72.57332947614411,40.10388056110092 76.94363592384067,39.03130349943033 80.05766813061214,42.27981137462317" fill="hsl(173 50% 50%)" />
  <polygon points="7.278540836746639,69.65888554047692 11.035052046669586,67.18126096646995 15.058993473761694,69.19568281686074 15.326423690930863,73.68772924125852 11.569912481007925,76.16535381526549 7.5459710539158085,74.1509319648747" fill="hsl(176 50% 50%)" />
  <polygon points="86.79631481432094,11.956764992119025 90.75415871943436,14.098136427147638 90.87859861031795,18.59641551070358 87.04519459608812,20.953323159230905 83.0873506909747,18.811951724202295 82.96291080009111,14.313672640646352" fill="hsl(180 50% 50%)" />
  <polygon points="19.436440361926568,66.77527707393669 15.236648619448502,68.39136782628107 11.737177101858123,65.56228686286315 12.437497326745808,61.11711514710084 16.637289069223872,59.50102439475645 20.136760586814255,62.33010535817437" fill="hsl(184 50% 50%)" />
  <polygon points="41.79484001106036,92.32527601302465 37.71359561808138,90.42963780788696 37.31464426362547,85.94735738194551 40.99693730214854,83.36071516114177 45.07818169512752,85.25635336627946 45.47713304958343,89.7386337922209" fill="hsl(187 50% 50%)" />
  <polygon points="84.99086057872648,69.65516429532957 83.19198729952569,65.53035461179539 85.86474063164194,61.91007981205139 90.336367242959,62.41461469584157 92.13524052215979,66.53942437937575 89.46248719004355,70.15969917911976" fill="hsl(191 50% 50%)" />
  <polygon points="76.33414063094546,61.25510447531874 71.90046569064405,60.48534703057182 70.35025772239638,56.26079317777489 73.2337246944501,52.80599676972488 77.6673996347515,53.57575421447179 79.2176076029992,57.80030806726872" fill="hsl(194 50% 50%)" />
  <polygon points="30.576814418074818,68.1832709185545 33.0791897387286,71.9233401364411 31.0913824444535,75.9604953428738 26.601199829524617,76.2575813314199 24.098824508870834,72.5175121135333 26.086631803145934,68.4803569071006" fill="hsl(198 50% 50%)" />
  <polygon points="70.5158543077362,88.73264515284025 67.60416082044176,85.3016043433996 69.11968257919126,81.06448341064859 73.5468978252352,80.25840328733823 76.45859131252965,83.68944409677887 74.94306955378015,87.92656502952988" fill="hsl(202 50% 50%)" />
  <polygon points="9.014797163114029,84.51480160378605 7.186516873022047,88.6266614239722 2.7114016668943477,89.09925415760722 0.06456675085862784,85.4599870710561 1.8928470409506124,81.34812725086996 6.367962247078308,80.87553451723494" fill="hsl(205 50% 50%)" />
  <polygon points="54.235825632846314,50.965283667682854 54.10263368934035,55.46331211425643 50.1406308159096,57.59697873088764 46.311819885984804,55.232616900945274 46.44501182949077,50.734588454371696 50.40701470292151,48.600921837740486" fill="hsl(209 50% 50%)" />
  <polygon points="29.421476604429323,4.769965379349074 32.8844609838259,1.8963371521674128 37.10458821929557,3.4585554840427197 37.86173107536863,7.894402043099681 34.39874669597205,10.768030270281342 30.178619460502397,9.205811938406049" fill="hsl(212 50% 50%)" />
  <polygon points="51.132422308277285,29.108293924968088 55.62764950265076,29.315495447561773 57.69582131756855,33.3120771549687 55.268765938112864,37.10145733978194 50.77353874373939,36.89425581718825 48.7053669288216,32.89767410978133" fill="hsl(216 50% 50%)" />
  <polygon points="90.6608585341415,56.088015297609 92.89121754724715,52.17962705273639 97.39116056171213,52.15698049520918 99.66074456307145,56.04272218255457 97.43038554996579,59.95111042742718 92.93044253550082,59.97375698495439" fill="hsl(220 50% 50%)" />
  <polygon points="70.3387430383655,90.30365661471797 69.96015871562889,94.7877032146741 65.88756828694534,96.70186287368772 62.193562180998406,94.13197593274523 62.57214650373501,89.6479293327891 66.64473693241855,87.73376967377547" fill="hsl(223 50% 50%)" />
  <polygon points="99.98143397297277,30.51551261782099 99.67788383356019,35.00526286843211 95.63787099017712,36.987255861684055 91.90140828620663,34.47949860432489 92.20495842561921,29.989748353713768 96.24497126900228,28.00775536046182" fill="hsl(227 50% 50%)" />
  <polygon points="34.26940214624863,56.57265877130294 38.33484438124101,58.501953832702355 38.696746964169456,62.987377616523645 34.99320731210552,65.54350633894553 30.927765077113136,63.61421127754612 30.565862494184692,59.12878749372483" fill="hsl(230 50% 50%)" />
  <polygon points="64.22767915792318,1.7450140241829528 68.61582036000475,0.7479098217075029 71.67340853060948,4.049599476865588 70.34285549913267,8.34839333449913 65.95471429705111,9.345497536974584 62.897126126446366,6.043807881816496" fill="hsl(234 50% 50%)" />
  <polygon points="62.520695083092285,42.59139569833552 58.58926431608359,40.40190897213291 58.51970005871953,35.902446691582334 62.38156656836415,33.59247113723437 66.31299733537286,35.78195786343698 66.38256159273692,40.28142014398755" fill="hsl(238 50% 50%)" />
  <polygon points="83.72863829299571,60.73123942279325 82.02878197670444,56.56464746965401 84.7872282971812,53.00923274039271 89.24553093394924,53.62040996427065 90.94538725024051,57.78700191740989 88.18694092976375,61.34241664667119" fill="hsl(241 50% 50%)" />
  <polygon points="61.99927732513437,8.324276912774488 57.5744190501613,9.143196473172434 54.65278476971417,5.7206165790989445 56.1560087642401,1.4791171246274981 60.58086703921317,0.6601975642295583 63.502501319660304,4.082777458303046" fill="hsl(245 50% 50%)" />
  <polygon points="94.47321222976517,5.740198956157777 91.2083810011401,8.837113073241836 86.8939590880941,7.558143348725796 85.84436840367319,3.1822595071257025 89.10919963229826,0.08534539004164365 93.42362154534423,1.3643151145576713" fill="hsl(248 50% 50%)" />
  <polygon points="33.50452993124648,91.50357942580595 29.054950492781952,92.17532552426408 26.24841158739187,88.65774974362597 27.89145212046631,84.46842786452973 32.34103155893084,83.7966817660716 35.14757046432092,87.31425754670971" fill="hsl(252 50% 50%)" />
  <polygon points="45.008644668445676,34.80011385378612 47.170651881746885,38.74672313386865 44.833791593034604,42.59238094379396 40.334924091021115,42.49142947363675 38.172916877719906,38.54482019355422 40.50977716643219,34.69916238362891" fill="hsl(256 50% 50%)" />
  <polygon points="75.29973271495311,66.18795595468265 79.69189963908605,67.16717488349919 81.03995463293082,71.46051248186834 77.99584270264265,74.77463115142095 73.60367577850971,73.79541222260441 72.25562078466494,69.50207462423526" fill="hsl(259 50% 50%)" />
  <polygon points="37.23650087441159,95.19145403657588 35.40408892366981,99.3014742850392 30.928501003061232,99.7695691097303 28.285325033194436,96.12764368595803 30.11773698393622,92.0176234374947 34.5933249045448,91.54952861280361" fill="hsl(263 50% 50%)" />
  <polygon points="23.264949479311376,9.323043542821118 19.23606487086475,7.318526440918044 18.95758529920986,2.82715147013561 22.707990336001593,0.3402936012562483 26.736874944448218,2.344810703159321 27.01535451610311,6.836185673941753" fill="hsl(266 50% 50%)" />
  <polygon points="32.84442118783615,35.68094154353585 36.58642612099457,38.18042130544992 36.29281561751111,42.67083251960885 32.25720018086923,44.66176397185369 28.515195247710814,42.16228420993962 28.80880575119427,37.671872995780696" fill="hsl(270 50% 50%)" />
  <polygon points="17.477941696806692,77.88737559626334 16.93480581989778,82.35447794781231 12.794613763696713,84.11765965647695 9.197557584404546,81.4137390135926 9.740693461313452,76.94663666204363 13.880885517514532,75.183454953379" fill="hsl(274 50% 50%)" />
  <polygon points="57.577669798813034,17.52097250458903 54.84568514335038,13.94518450160051 56.57641606475474,9.791322385726318 61.03913164162175,9.213248272840643 63.771116297084404,12.789036275829158 62.040385375680046,16.942898391703352" fill="hsl(277 50% 50%)" />
  <polygon points="70.94321320695704,58.29764646585668 67.85090134591508,61.56683709261114 63.47354328281077,60.5234117779021 62.18849708074842,56.2107958364386 65.28080894179037,52.94160520968414 69.6581670048947,53.985030524393174" fill="hsl(281 50% 50%)" />
  <polygon points="55.24708719239732,60.51818226192469 58.5134345518781,57.4228672654804 62.827229651254186,58.70394955815283 63.8746773911495,63.080346847269546 60.60833003166872,66.17566184371384 56.29453493229264,64.89457955104143" fill="hsl(284 50% 50%)" />
  <polygon points="23.272267655511445,9.367803368589481 27.289158821735064,7.339359295238024 31.05428850252522,9.803867052749249 30.80252701709176,14.296818883611934 26.78563585086814,16.325262956963392 23.020506170077983,13.860755199452168" fill="hsl(288 50% 50%)" />
  <polygon points="95.70807207792217,19.900353310672646 99.05961655689788,22.903210217927366 98.13483843077357,27.307161332261177 93.85851582567356,28.708255539340268 90.50697134669784,25.70539863208555 91.43174947282213,21.30144751775174" fill="hsl(292 50% 50%)" />
  <polygon points="8.654666786143867,5.996867860010211 9.650930532350447,1.608535768201937 13.949469477202223,0.27715943538214916 17.2517446758474,3.3341151943706415 16.25548092964082,7.722447286178916 11.956941984789061,9.053823618998708" fill="hsl(295 50% 50%)" />
  <polygon points="21.48983339152758,57.951584708011445 22.039189326779066,53.48524302197757 26.18183265649157,51.72782837460817 29.77512005095259,54.43675541327266 29.225764115701107,58.903097099306535 25.0831207859886,60.66051174667593" fill="hsl(299 50% 50%)" />
  <polygon points="74.72351560007206,0.37039362248245666 79.0919508414243,1.4505665448017067 80.34071127089189,5.773828899759584 77.22103645900722,9.016918332398216 72.85260121765498,7.9367454100789665 71.6038407881874,3.6134830551210895" fill="hsl(302 50% 50%)" />
  <polygon points="33.13129890825153,81.66714511548251 30.68764853117419,77.8884452286683 32.738273437894016,73.88283198074478 37.23254872169118,73.6559186196355 39.67619909876852,77.43461850644971 37.6255741920487,81.44023175437322" fill="hsl(306 50% 50%)" />
  <polygon points="86.20570335008124,83.20217973380336 90.0344721785957,80.83774972684695 93.99651304434741,82.97134579408026 94.12978508158464,87.46937186826999 90.30101625307017,89.8338018752264 86.33897538731847,87.70020580799309" fill="hsl(310 50% 50%)" />
  <polygon points="70.10437767961564,78.44069957442538 67.32524642523033,81.97996919835893 62.870583392868625,81.34280574357672 61.19505161489222,77.16637266486096 63.97418286927752,73.62710304092741 68.42884590163922,74.2642664957096" fill="hsl(313 50% 50%)" />
  <polygon points="45.47805554875723,90.48555168696085 45.84118410554201,86.00022698843038 49.90715351708356,84.07204319418035 53.60999437184033,86.62918409846078 53.24686581505556,91.11450879699125 49.18089640351401,93.04269259124128" fill="hsl(317 50% 50%)" />
  <polygon points="89.63341015420234,70.4112882129273 91.3295284908158,74.57940320512743 88.56789418998244,78.13234226855937 84.11014155253561,77.51716633979117 82.41402321592214,73.34905134759104 85.17565751675549,69.79611228415911" fill="hsl(320 50% 50%)" />
  <polygon points="42.19043334353767,0.07908259628408931 45.905955480729304,2.6177624201372005 45.56515532979333,7.10483889119517 41.50883304166571,9.05323553840002 37.79331090447407,6.51455571454691 38.134111055410045,2.0274792434889415" fill="hsl(324 50% 50%)" />
  <polygon points="18.850016030162163,67.23721232114332 22.873682502596107,69.25218331810852 23.14049966755236,73.74426619807464 19.383650360074657,76.22137808107556 15.359983887640714,74.20640708411035 15.093166722684462,69.71432420414423" fill="hsl(328 50% 50%)" />
  <polygon points="0.043286787250158554,95.39675288809205 0.37794177927102446,90.90921391485566 4.43159202657691,88.95526415283081 8.150587281861924,91.48885336404236 7.81593228984106,95.97639233727875 3.7622820425351793,97.9303420993036" fill="hsl(331 50% 50%)" />
  <polygon points="98.71392330242259,69.22649748780732 99.60470605702417,73.63745045560289 96.23010010931567,76.61436743423872 91.96471140700555,75.180331445079 91.07392865240396,70.76937847728345 94.44853460011247,67.79246149864761" fill="hsl(335 50% 50%)" />
  <polygon points="40.620721078860164,23.71223128696104 42.31215324697641,19.54221243560538 46.76921159056854,18.9220262362944 49.534837766044426,22.471858888339092 47.84340559792818,26.64187773969475 43.38634725433606,27.262063939005728" fill="hsl(338 50% 50%)" />
  <polygon points="28.167840523118805,30.548084910940666 30.456297306312187,34.4227417410943 28.244974452048943,38.3419318658794 23.745194814592317,38.38646516051087 21.456738031398935,34.51180833035723 23.668060885662175,30.592618205572137" fill="hsl(342 50% 50%)" />
  <polygon points="69.06237439245535,8.945699478640726 73.19406473978893,10.728712342798076 73.715775477821,15.198367576238569 70.1057958685195,17.885009945521723 65.97410552118592,16.10199708136438 65.45239478315385,11.63234184792388" fill="hsl(346 50% 50%)" />
  <polygon points="9.527589976367004,94.3474598008852 7.619719405016381,90.27191936028419 10.195305675052364,86.58188475806132 14.678762516438972,86.96739059643944 16.586633087789597,91.04293103704046 14.011046817753614,94.73296563926333" fill="hsl(349 50% 50%)" />
  <polygon points="7.797566769934707,64.79441576911461 7.821346610422332,69.29435293747444 3.936176627432708,71.56491546761458 0.027226803955460177,69.33554082939489 0.0034469634678364613,64.83560366103505 3.8886169464574523,62.565041130894905" fill="hsl(353 50% 50%)" />
  <polygon points="41.48891128264047,70.22135763147288 38.634921715081646,73.70054482796941 34.19486243461466,72.96851095857596 32.608792721706536,68.75728989268599 35.46278228926536,65.27810269618946 39.90284156973234,66.01013656558291" fill="hsl(356 50% 50%)" />
</svg>
