<svg xmlns="http://www.w3.org/2000/svg" viewBox="0 0 100 100">
  <polygon points="23.0418141515623,21.715595196627 26.91381329092712,22.221841865237664 28.9321656837125,25.5647323275859 27.577010811265396,29.227001882985142 23.868807932660133,30.450886859535196 20.59990944904007,28.3147769071901 20.23186259194817,24.42720638876782" fill="hsl(0 50% 50%)" />
  <polygon points="37.13035195393961,19.3697580038786 35.30996689257369,22.824444856992365 31.473992427523307,23.555172527333866 28.510995570590374,21.011688175007933 28.652173389166432,17.109287394941465 31.79121610636103,14.786557568993373 35.564360531324496,15.792561631156355" fill="hsl(4 50% 50%)" />
  <polygon points="78.59139866657775,9.723402123461753 79.11244610432463,5.853366904973594 82.46302924011853,3.847810704101909 86.12009063326633,5.216958245993984 87.32978846427034,8.929813506084995 85.1811955930458,12.190520745081521 81.29224627493203,12.543700905713075" fill="hsl(7 50% 50%)" />
  <polygon points="52.90832141992477,11.2683349738094 52.634160849506486,15.163652548327455 49.41774261580969,17.37799596583615 45.68109525178311,16.243919468577474 44.23799043625412,12.615405789931858 46.1751155292896,9.224799738109617 50.03377582568312,8.62529682589189" fill="hsl(11 50% 50%)" />
  <polygon points="54.81456918416856,99.31214525041067 52.20371693141283,96.40833507427973 52.84616739246993,92.55659255565146 56.25814226656275,90.6573583722816 59.87035488189587,92.14079460156466 60.96273546341438,95.88984350626605 58.712699152731865,99.08139479448491" fill="hsl(14 50% 50%)" />
  <polygon points="93.20941954434608,29.47309635718998 93.65746833540778,33.35226061067931 90.90396944832735,36.12117861299864 87.02236370621759,35.69479863276762 84.93557940321455,32.39419349166676 86.21500768212175,28.704786181019994 89.89721295334142,27.404775655938217" fill="hsl(18 50% 50%)" />
  <polygon points="16.17304096605109,85.86620470773599 18.93657146854139,83.10729873135205 22.816604103475797,83.54776414039716 24.891395158506835,86.85592149800343 23.598584651171585,90.5406608397812 19.911685262021855,91.82729828638713 16.607007430129006,89.74696959790609" fill="hsl(22 50% 50%)" />
  <polygon points="87.17995277014434,74.98138535638954 91.00411785400465,74.19118004376189 94.00625317544159,76.68834774668095 93.92568960501292,80.59247025191065 90.82309315444877,82.96366368342738 87.03478223245774,82.01637102376786 85.41343223075897,78.46392296690445" fill="hsl(25 50% 50%)" />
  <polygon points="82.00917814079617,46.75082203002547 80.39527543968394,43.19498442180093 82.16908935300198,39.71615599463746 85.99490182481203,38.93396550935663 88.99179803148907,41.437418355153035 88.9030540038635,45.341363478010436 85.79549580478566,47.70605057444949" fill="hsl(29 50% 50%)" />
  <polygon points="6.759467158363998,37.178986721092144 2.8951904881539594,37.741151146142066 0.04633554688980723,35.07044177439153 0.35814821139372777,31.17795723531161 3.595827185475064,28.994817779043892 7.321334165035465,30.164971944087128 8.729286407973014,33.80726977736881" fill="hsl(32 50% 50%)" />
  <polygon points="13.169031318296987,19.532985577494948 16.513913883262965,17.517936284969352 20.174843026555777,18.876708095285807 21.395064433930795,22.586118121382277 19.255726497654052,25.8529049554332 15.36779431828292,26.21711148109099 12.658960126247056,23.40448275607613" fill="hsl(36 50% 50%)" />
  <polygon points="42.94227330033283,80.59832948013224 40.16726603898922,77.85096752287004 40.585051383380105,73.96842731950659 43.881028447911234,71.8743408325615 47.57325927731123,73.14559789828404 48.88141874925873,76.82491601726687 46.820436099787074,80.14169360150403" fill="hsl(40 50% 50%)" />
  <polygon points="21.088935335264555,99.34433819580022 17.233507635441693,99.96429002954206 14.344989921565306,97.3365289214229 14.598494947207708,93.43981258241446 17.80312825750005,91.20844789431749 21.545735607185776,92.32269797881364 23.00805732667463,95.94350979571774" fill="hsl(43 50% 50%)" />
  <polygon points="64.81164765118866,49.38570157349313 61.4247981070847,51.329387039386226 57.79349746665521,49.89330950542865 56.65218917717743,46.15886464533356 58.86030165907445,42.938165607545045 62.75508117619177,42.65646445780538 65.40367931311661,45.52588790752477" fill="hsl(47 50% 50%)" />
  <polygon points="25.90985821281385,53.31723765261052 23.716595819199227,56.54806774679331 19.82315440184298,56.84769577341346 17.161374759745545,53.99049571712813 17.735631253815903,50.12799749657976 21.11349703132138,48.16874105244627 24.751370265895595,49.58808644870817" fill="hsl(50 50% 50%)" />
  <polygon points="23.907118265278097,70.10436067405121 20.411268358563213,68.36433295747806 19.59205004208153,64.54627790619053 22.066351417151992,61.525268847937696 25.97097308179663,61.576187220938216 28.365655282771375,64.66069045177719 27.447153480127497,68.45608469523349" fill="hsl(54 50% 50%)" />
  <polygon points="0.28450606395871336,79.61257071552224 0.26188175768959,75.70768260374655 3.300740194758037,73.25533629374479 7.112758990636255,74.10219857569652 8.827410241015563,77.61056487844968 7.153526581848997,81.13856381840084 3.3515765494930174,82.02954023570359" fill="hsl(58 50% 50%)" />
  <polygon points="8.770121710607496,56.38622110485775 12.117031155137223,58.39790204249151 12.630999571823313,62.268883764402695 9.924998259856102,65.0842380803553 6.036701399514192,64.72394576767498 3.8940758334363776,61.459314286433795 5.11056231447566,57.748677728352426" fill="hsl(61 50% 50%)" />
  <polygon points="56.86909650964588,26.241548866503088 53.06521666455405,27.124249919422727 50.00341290086306,24.70061200558968 49.98928590204686,20.795683907323884 53.033473586352294,18.349956128636244 56.84364053738529,19.205111570633324 58.55065332777637,22.717200743499323" fill="hsl(65 50% 50%)" />
  <polygon points="81.26704607449345,24.361979128512996 82.35281219370297,20.61100925938608 85.96240262970626,19.1212039335012 89.37772216196646,21.014416947740017 90.02696552286953,24.86502028787317 87.42123921950444,27.77343110078674 83.52270830543499,27.549556723588157" fill="hsl(68 50% 50%)" />
  <polygon points="6.803141817114872,49.70315120835477 8.62644285474974,53.156299967224115 7.063472044104069,56.734817155919856 3.291178284388293,57.744006342906474 0.15017571743771319,55.42392748667526 0.0057033409419071646,51.52164728695216 2.966551801101626,48.97566232613815" fill="hsl(72 50% 50%)" />
  <polygon points="88.82279251529658,47.18733518874542 89.06509441889126,43.28990618846387 92.2632998778575,41.049338209812085 96.00909495009162,42.152824639972394 97.4818195459067,45.76941769001308 95.57248200654705,49.17574902819985 91.71885244253838,49.806781680381704" fill="hsl(76 50% 50%)" />
  <polygon points="37.752677292718836,52.20090898149813 33.929405167265706,52.995423474414636 30.924457543475665,50.50164064445533 31.000621271823345,46.59742982647874 34.10054351140602,44.22274139780814 37.889919588928116,45.165764180048626 39.51527202883038,48.716382784014" fill="hsl(79 50% 50%)" />
  <polygon points="38.8479701322296,50.44606377521567 40.33839691148932,46.83672989756085 44.08955366506387,45.75160961167852 47.27674284785863,48.00782062525799 47.49994599841809,51.906390026756654 44.59108659185646,54.51161554052302 40.74059509123295,53.86170921777537" fill="hsl(83 50% 50%)" />
  <polygon points="77.23752561259614,93.96518314139172 79.80776225435756,91.02536229139622 83.70872308220184,91.20190589605433 86.00290502766306,94.36187302022525 84.96274229302577,98.12574396782603 81.37149863292487,99.659247146338 77.93345377143666,97.80762338457757" fill="hsl(86 50% 50%)" />
  <polygon points="40.91290230198568,22.346616617954098 41.14143272032518,18.448355868258812 44.33170208655556,16.196502321597023 48.08137249827001,17.28674762804622 49.566865656110416,20.89811483489886 47.66957491368481,24.311170776929018 43.8181988977177,24.955814716134697" fill="hsl(90 50% 50%)" />
  <polygon points="74.84602756393222,17.664614080019227 75.40415513039584,13.799752291510526 78.77381259786594,11.826412083476365 82.41757916485179,13.230558881370888 83.59162428712065,16.95484150700471 81.41186804144807,20.1947991817549 77.51971133974973,20.510677693442435" fill="hsl(94 50% 50%)" />
  <polygon points="48.972826957024076,0.11754224796502655 52.877094881714775,0.19072009264939727 55.254153373690194,3.288825312045415 54.31402890533624,7.078921486118507 50.76465437636771,8.70698889191924 47.27878120114362,6.947059566356873 46.481342979461864,3.1243961875956296" fill="hsl(97 50% 50%)" />
  <polygon points="51.1181788000388,67.980109652718 48.677599645163255,64.93179267223381 49.53919361535376,61.123076503332186 53.05416287774283,59.422002104847124 56.57566388544532,61.10951319443191 57.45193455413177,64.91487950267624 55.023125197617134,67.97258258414578" fill="hsl(101 50% 50%)" />
  <polygon points="83.38809607584047,38.468144593100526 79.48767099188034,38.65615307465363 76.90880477926798,35.723899319916896 77.59343629538438,31.87943021328313 81.02602404465605,30.01770940492564 84.62175943985189,31.54065063572122 85.67298038875438,35.30144809654118" fill="hsl(104 50% 50%)" />
  <polygon points="72.78951157204824,30.328531775446095 69.17842812418047,31.814714589657278 65.7650099079208,29.918075692653435 65.11963046115511,26.06682285826127 67.7282736706395,23.161028022018996 71.6265779930083,23.388813963029502 73.87904076260143,26.578653221725475" fill="hsl(108 50% 50%)" />
  <polygon points="68.90988385612401,43.32630345768784 72.5283156984779,44.79450440679555 73.63648532630461,48.53891665716058 71.39991840730981,51.73992141216789 67.50279544914737,51.987096802699604 64.87972952613453,49.094314718226244 65.50594277909362,45.23989907035694" fill="hsl(112 50% 50%)" />
  <polygon points="61.55990033762226,22.88695245988575 64.85383515330592,24.984249876741156 65.26783677027568,28.867195367714178 62.49015352685935,31.611851780448838 58.612437559761666,31.15143685536828 56.55468808319762,27.83265242181107 57.86643242345964,24.15461084911075" fill="hsl(115 50% 50%)" />
  <polygon points="19.899067766972813,40.039198322328666 22.538879161932798,42.916707457633144 21.935047412450423,46.77469271460839 18.54227014180889,48.708012506194734 14.915377834845048,47.260837596790964 13.785494373822885,43.52292021016645 16.003445050314387,40.30898837806854" fill="hsl(119 50% 50%)" />
  <polygon points="10.532329639938412,43.03927090452419 7.247615886755955,40.92756103231748 6.850631619551315,37.04283883937841 9.640314088532863,34.31037937088152 13.515975495405678,34.787780338620294 15.559163751709477,38.11554907668241 14.231316427002552,41.787807851195716" fill="hsl(122 50% 50%)" />
  <polygon points="3.8859516176485434,49.11904445377328 1.9318390042779416,45.73820034039165 3.356720083316322,42.10249175260306 7.087630339970722,40.94968141195188 10.315118254280677,43.14785901799386 10.60881959801542,47.04175199872788 7.7475712689271035,49.699179518719845" fill="hsl(126 50% 50%)" />
  <polygon points="57.494018947955524,44.52585329566875 55.27955072998007,47.742185606904314 51.38422252052897,48.01619503261034 48.74129591153361,45.141546886456524 49.340948545445336,41.28290985463246 52.73162975824407,39.345916323952764 56.360087439400374,40.78916193048656" fill="hsl(130 50% 50%)" />
  <polygon points="81.65841776003275,57.686071751936886 85.19233742535307,59.347419043680425 86.09680668127022,63.14618178828846 83.6907417302681,66.22181415843292 79.78595855523183,66.25830224792824 77.32283853002461,63.22816978116307 78.1561612721194,59.41316830904947" fill="hsl(133 50% 50%)" />
  <polygon points="99.99152499462632,62.38854342175046 99.99473194988207,66.29349575694731 96.94371678058509,68.73070101326879 93.13595613858344,67.86489392277784 91.43877145146621,64.34804488386018 93.13017740489107,60.82841295346743 96.9365108175354,59.95635276259259" fill="hsl(137 50% 50%)" />
  <polygon points="92.73243546352828,14.216459208270479 96.47853594625778,13.11401002666841 99.67612087197531,15.355463498758624 99.91734357277001,19.252959442738888 97.0205584348971,21.87160391836362 93.16710375082299,21.239504224874814 91.25870949380595,17.83264432395348" fill="hsl(140 50% 50%)" />
  <polygon points="15.338694746897282,49.131919005398075 17.270868009375732,52.52534935071013 15.822467656427841,56.15175245051877 12.084168695806193,57.280372805525886 8.870986492260682,55.0613362687515 8.602512782033129,51.165622612482856 11.48091374479053,48.52678367796666" fill="hsl(144 50% 50%)" />
  <polygon points="73.76943408063535,46.00195963302511 76.89831616573447,43.66556071112264 80.67581246975999,44.65509832930343 82.25739122889878,48.22543047818849 80.45209137919214,51.688024228164146 76.61934052887493,52.43547586145829 73.64527824210526,49.904939052965744" fill="hsl(148 50% 50%)" />
  <polygon points="6.2511118899306135,27.362713477089375 8.178572907877724,23.9666043726854 12.035510211767335,23.35611468515085 14.917571344587607,25.990955600919396 14.654505489991735,29.887038169457572 11.444406602055903,32.110532751055295 7.704544617479671,30.98710257474578" fill="hsl(151 50% 50%)" />
  <polygon points="8.65892628719439,21.695240467123476 5.595766100139041,19.273317121276143 5.579452881958091,15.368397544174218 8.622270818670803,12.920965823218413 12.432915941758168,13.773987962797309 14.141894750540843,17.28512089332743 12.462311345190841,20.810409904060336" fill="hsl(155 50% 50%)" />
  <polygon points="30.170222266609464,84.90677881717897 26.274986407243123,85.18209794951053 23.631093407711163,82.30833859428485 24.229448622249762,78.44950015999459 27.619478370089347,76.51136669361927 31.248421107102175,77.95339222605728 32.38360893537622,81.68970211942262" fill="hsl(158 50% 50%)" />
  <polygon points="76.04955900061016,84.97212227038798 79.42968403249068,86.92747845113254 80.00839849733107,90.78931125343067 77.34991859948279,93.64958181011895 73.45613392513269,93.3544480531247 71.25914375279874,90.12615172109611 72.41332649268067,86.39566579729477" fill="hsl(162 50% 50%)" />
  <polygon points="88.62916276797255,54.40303092301209 92.43021457740149,55.29783155262648 94.10054831415236,58.82751259099143 92.38236860585296,62.33415222384644 88.5694998173315,63.17717928523898 85.53310991469371,60.72177720332235 85.55966242569218,56.81691382685436" fill="hsl(166 50% 50%)" />
  <polygon points="49.13683588865807,70.80911867304758 45.546149087954035,72.34392528105106 42.10743236040922,70.4935495644938 41.4101095389028,66.65136217872933 43.97927893082239,63.71060859157776 47.88030358254775,63.88573623460525 50.17563236492871,67.04487042065921" fill="hsl(169 50% 50%)" />
  <polygon points="74.23422046860854,36.01581419148136 76.848032021475,38.916960894222036 76.20950904120681,42.769356438346584 72.79947235544101,44.67206840458128 69.18574914063095,43.19231587410056 68.08954668404829,39.444382683807085 70.33632779395478,36.25053896989611" fill="hsl(173 50% 50%)" />
  <polygon points="8.768269033544378,70.5579955553439 8.968011753280745,66.65815378026717 12.141568378430888,64.38280735132784 15.899186041499188,65.44533853812587 17.411302000763712,69.04563968531603 15.53926209735394,72.47261059630475 11.69275056119222,73.14567227765058" fill="hsl(176 50% 50%)" />
  <polygon points="83.42765936246185,14.085737974525946 86.08536372416616,11.224746791299536 89.97922826815412,11.518824906423136 92.17709357244144,14.746525501108353 91.02392223461804,18.477324194463957 87.38807579247336,19.901853475968956 84.00742077469363,17.947413741548385" fill="hsl(180 50% 50%)" />
  <polygon points="12.29315837447755,59.53543599410299 14.998404994226963,56.71935649397241 18.88679828348845,57.07860661957787 21.03029878667998,60.34266369897139 19.814806905456464,64.05362617673926 16.15561281789503,65.41706361728309 12.808164305885894,63.40627981881815" fill="hsl(184 50% 50%)" />
  <polygon points="44.961108003326615,88.88528814436596 42.34749633704913,91.78661492406856 38.449587499807016,91.5521586994313 36.202586348893526,88.35846978964145 37.29853058141684,84.61046108315207 40.9121518370987,83.13045958139419 44.32231960597056,85.03293660172027" fill="hsl(187 50% 50%)" />
  <polygon points="92.44912300389215,66.55891229145358 91.53479127779961,70.35531328705217 87.99656895263307,72.00747726269574 84.49880960582514,70.27129104672147 83.67539736681007,66.45413827150256 86.14637844611487,63.43041283250532 90.0510536921948,63.47704165805304" fill="hsl(191 50% 50%)" />
  <polygon points="73.98837678978944,64.00256403959439 70.46201866807726,62.32522644025551 69.57476568337849,58.522405754782106 71.99473742983385,55.45770352274077 75.89964582393497,55.438903033391234 78.34901519930887,58.48016143867379 77.49842045826918,62.29134912904499" fill="hsl(194 50% 50%)" />
  <polygon points="24.76337417013824,73.07689150414691 25.681176877169218,69.28132814468526 29.22090843325062,67.63240014880344 32.71707877928824,69.37178392940174 33.53700033583759,73.18968802272664 31.063255447465284,76.2111527754539 27.158624470315328,76.16095360213114" fill="hsl(198 50% 50%)" />
  <polygon points="71.61797385516334,78.23945953748175 74.57455554579997,80.79039813558903 74.42354997243102,84.69243098290501 71.27866741175565,87.00724775843634 67.50806857587567,85.99174421655096 65.95109129440786,82.41061523678572 67.78017121684601,78.9605239826223" fill="hsl(202 50% 50%)" />
  <polygon points="9.07282928209018,87.4606241047533 6.3844679431644416,90.29282754661453 2.493996249031517,89.95683197838218 0.331018736533359,86.70564891599572 1.5243015892815435,82.98748551748047 5.1752784806224765,81.6021946586296 8.534689345020237,83.59292861094156" fill="hsl(205 50% 50%)" />
  <polygon points="50.207248840575225,53.32603912463938 52.35925008233092,56.5844979137302 51.15343524451706,60.29861605962019 47.49780749414761,61.67158684425111 44.145129088467186,59.66953526329585 43.620035249129145,55.800046991623425 46.31793234711735,52.976925620979195" fill="hsl(209 50% 50%)" />
  <polygon points="29.645987655980527,8.875146919344685 29.714353052873392,4.970791761674091 32.809525961639416,2.589916357634192 36.60077805195665,3.525368447474449 38.23321917236743,7.072733527800028 36.47758786347212,10.560773340065342 32.65591030922109,11.362922762589111" fill="hsl(212 50% 50%)" />
  <polygon points="53.843043524442805,30.31156832332305 57.63094109779745,31.260512472625482 59.25074219424103,34.81366704746197 57.48270355023072,38.29543418183605 53.658194326122,39.08397220845785 50.657147973439415,36.58549591003678 50.73941360594226,32.68140889891239" fill="hsl(216 50% 50%)" />
  <polygon points="96.94834196322091,57.63641488516832 93.14079431099715,56.76967161247066 91.44447435755689,53.252405395608235 93.13674562646166,49.733189435033964 96.94329333618326,48.862065127983286 99.99770942187877,51.29500684536286 99.999956272286,55.19995985101921" fill="hsl(220 50% 50%)" />
  <polygon points="63.313629543186394,96.78015814560642 62.68540760534793,92.92606937891463 65.30696556782775,90.03192064844482 69.20421681484164,90.27706497811594 71.44245166795064,93.47690368765264 70.33623363109321,97.22189296395939 66.71856744875863,98.69197949811786" fill="hsl(223 50% 50%)" />
  <polygon points="92.50275330289513,40.80680262191333 91.24246228971721,37.11081431202594 93.34632371513034,33.82106810184802 97.23008701484638,33.41480998623672 99.96919920984561,36.197960612402646 99.50105294958739,40.07475079291636 96.17817191648955,42.12587844974318" fill="hsl(227 50% 50%)" />
  <polygon points="32.03216306596339,57.375518065313564 35.35262915157735,55.32048327266191 39.029596791837655,56.63523495917911 40.29423435715745,60.32973828887084 38.19424396694584,63.62195690034551 34.31096121702948,64.03278303014173 31.568577222627518,61.25285622319712" fill="hsl(230 50% 50%)" />
  <polygon points="68.83471131563434,0.5610168092588066 71.14988785574708,3.7056345305141085 70.13481568320569,7.476349516992587 66.55386484763265,9.033736475307734 63.10356436629946,7.2050512609438275 62.382060874953424,3.3673311386971854 64.93266121856719,0.4104576358434251" fill="hsl(234 50% 50%)" />
  <polygon points="61.04522972241314,33.34461836790962 64.95017589493727,33.35226129996831 67.37889452541151,36.410036445185604 66.50251094825737,40.21537675196709 62.98095987203898,41.902783354510284 59.46604108369948,40.20160466427834 58.6045601221352,36.392862932737124" fill="hsl(238 50% 50%)" />
  <polygon points="81.99252706762356,48.73843088060685 85.80576310891385,47.897066561107884 88.84108200594811,50.353792475414984 88.81282672003772,54.25864390197905 85.742274057776,56.67118807214439 81.94161280170566,55.774730018844 80.27281839700846,52.24432094062479" fill="hsl(241 50% 50%)" />
  <polygon points="63.09063495953924,7.253705145555783 60.596251560074805,10.258154259985504 56.69205604344866,10.181210171989015 54.31798726475511,7.080813349201032 55.26176743652797,3.291625835750464 58.81271083981523,1.6669831146046867 62.296884665896684,3.4302742914584234" fill="hsl(245 50% 50%)" />
  <polygon points="95.68437161108756,5.416430898171049 93.53691543425784,8.677886860362962 89.64808945814126,9.032422545735075 86.94625896034694,6.2130653519921815 87.46595741301219,2.342848750428564 90.8158412813636,0.3361247800528959 94.47337968735474,1.7039975202671203" fill="hsl(248 50% 50%)" />
  <polygon points="30.547279623565654,85.58049580484385 33.17455929137678,88.4694514244108 32.55396491605744,92.32477574877618 29.1528167200413,94.24333092740865 25.53224866570807,92.7804057794045 24.41862234409963,89.0376127794455 26.650521089224227,85.83335139556425" fill="hsl(252 50% 50%)" />
  <polygon points="45.54238769100181,33.09513038999522 45.306628712645114,36.992960649106756 42.11218898405316,39.23889427348542 38.364546775550934,38.14169743527732 36.885753108109924,34.527581732389876 38.78936977520666,31.1180500036223 42.64193459981392,30.48054918250903" fill="hsl(256 50% 50%)" />
  <polygon points="70.36973040883218,66.99157164379636 73.75882086851614,65.051796172047 77.38846174043874,66.49206356582853 78.52545941686155,70.22782310152276 76.31363145691235,73.44597165314498 72.41852942750086,73.72317772305657 69.77324460237543,70.85069948664078" fill="hsl(259 50% 50%)" />
  <polygon points="39.176596056106554,96.88226470795456 36.72890177442719,99.92487144037258 32.82398361955858,99.90822126022805 30.40232460793075,96.84485209277156 31.287483368140844,93.04154340244092 34.81291729980251,91.36226420641368 38.32390274662799,93.07154599035131" fill="hsl(263 50% 50%)" />
  <polygon points="21.100199984439747,6.615862186900215 20.869051900283605,2.7177557763577536 23.772595740865608,0.10660733351893281 27.624403772726993,0.74866489356276 29.52398598531125,4.1604460181888365 28.040918228126937,7.772809932901969 24.291980771402834,8.865572931128153" fill="hsl(266 50% 50%)" />
  <polygon points="27.033313532006552,40.4869935532146 28.976760279118032,37.100007021522586 32.83653220756959,36.50770331137157 35.70614233023843,39.15609919729909 35.4247156953761,43.05089855977097 32.20417229909109,45.25923803941768 28.469647005899034,44.118192966149294" fill="hsl(270 50% 50%)" />
  <polygon points="12.860886688507513,82.16275278823258 9.489758139481015,80.19192673536547 8.928747723007877,76.32748235908963 11.600307725219333,73.47942509504011 15.492698974557545,73.79240015282683 17.674871469959193,77.03073093040868 16.50360481418008,80.75588830235705" fill="hsl(274 50% 50%)" />
  <polygon points="56.27215781323404,18.977949122526127 53.49463412822087,16.233131240787497 53.90886146977854,12.350209823320055 57.20291820101624,10.253103894639075 60.8963124168002,11.520976992206352 62.20784294113318,15.199094813655817 60.149900538845316,18.517759619505746" fill="hsl(277 50% 50%)" />
  <polygon points="64.95823243459003,60.19583791820407 62.161172461935344,57.47093084931268 62.54765222705685,53.585149535873526 65.82664458406757,51.464566562399824 69.5290014088839,52.706024159926734 70.8667724981033,56.374679436396576 68.83258893598646,59.70796014169803" fill="hsl(281 50% 50%)" />
  <polygon points="58.26640157367989,65.78580357110523 56.82481606035245,62.15668601548848 58.76336055284409,58.766891290825704 62.62227150920745,58.169003963998904 65.49571027186279,60.81324538678751 65.21991884506177,64.70844783513655 62.00257379830545,66.92144441778954" fill="hsl(284 50% 50%)" />
  <polygon points="24.51395185688242,16.139459816061 22.92929179863087,12.570494206181369 24.731602086547774,9.106343422686198 28.563706313401852,8.355583661345472 31.539951835691483,10.88355233515696 31.41916507078801,14.786637471577308 28.292300916264736,17.1257363544548" fill="hsl(288 50% 50%)" />
  <polygon points="99.7090476875452,25.88500275822253 97.99655118078508,29.394421333863757 94.18505314550701,30.24362434362808 91.1446893426662,27.79314460057845 91.16491572792087,23.88824333190842 94.23050142063121,21.46939083839606 98.0329978676344,22.35803238325504" fill="hsl(292 50% 50%)" />
  <polygon points="12.80508541234899,2.9941695059518696 16.68198134112816,2.526899795680805 19.464512585883245,5.266641187980998 19.057376366020247,9.150312533910899 15.76715455916137,11.253430097527254 12.071451294164918,9.992303457646923 10.753206508181169,6.31658669639505" fill="hsl(295 50% 50%)" />
  <polygon points="29.485925451705608,53.53050038820672 32.1558892505473,56.380054096701464 31.592713650172367,60.24418352878104 28.220481364351812,62.21312040821388 24.57855208531097,60.804215105794185 23.40937284198614,57.07840205067458 25.593359451511095,53.841294466095874" fill="hsl(299 50% 50%)" />
  <polygon points="72.3409066042598,3.7641861884435754 76.21975221470178,3.3133871699483537 78.99062176072212,6.0649221931051205 78.56699395872938,9.9468292643911 75.26786918405644,12.035953182654557 71.57755568191303,10.759141027081428 70.27493478808996,7.077858393039743" fill="hsl(302 50% 50%)" />
  <polygon points="33.03760130505178,80.35040494637184 31.593334929093267,76.72235345004535 33.52937445235896,73.33112741967308 37.38784262582068,72.73038922452962 40.26323421645475,75.37250697838392 39.99032070921444,79.26791212320353 36.774611541472694,81.48328513315536" fill="hsl(306 50% 50%)" />
  <polygon points="87.73684078522189,90.68840347252485 86.06721165247197,87.1583890839148 87.78609129789665,83.65209249217216 91.59912828973623,82.80982654629508 94.63502800135572,85.2658346826232 94.6076960288374,89.17069268106559 91.53771390495818,91.58396282420816" fill="hsl(310 50% 50%)" />
  <polygon points="62.59208570867714,73.53460669269998 66.38561937710338,74.46076290589397 68.02675084721646,78.0041159115266 66.2796746490401,81.49644862512748 62.45997479366083,82.30796328275042 59.44396317985669,79.82757279532312 59.502758068247196,75.9230617906235" fill="hsl(313 50% 50%)" />
  <polygon points="46.30624097356947,90.85740535519349 46.153895761957415,86.95542458112244 49.10960148930901,84.40347107879873 52.947651457519406,85.12321788583675 54.77791575857466,88.57268097637767 53.222168043192355,92.15434428702036 49.45191807252533,93.17114229223408" fill="hsl(317 50% 50%)" />
  <polygon points="77.5667036400128,74.81624339876382 78.29408064823397,70.97963217104834 81.74717623878468,69.15623044152173 85.32573900166695,70.7190969031344 86.33503818705327,74.49136123362608 84.01505092239638,77.63243145196745 80.11277493709866,77.77701761759185" fill="hsl(320 50% 50%)" />
  <polygon points="44.38469984191624,8.622373576895555 40.48948634988584,8.898008981416865 37.845360024604766,6.02446430616351 38.44340191935726,2.1655773012303325 41.83327428956323,0.22716858828163122 45.462334099662975,1.6688994644995518 46.59782529332217,5.405117174141712" fill="hsl(324 50% 50%)" />
  <polygon points="16.041047812930366,73.85053788698062 17.486287615917696,70.22287404690634 21.223601692301557,69.09099661573973 24.43871631525109,71.30723238524111 24.710584597299064,75.20271061800504 21.83448417696107,77.84405675148564 17.97617733250838,77.24228327353" fill="hsl(328 50% 50%)" />
  <polygon points="0.12369140180397942,94.19800446880922 2.1478246450677516,90.8586111648937 6.020693897190036,90.35906458980077 8.82594961918727,93.07553350346848 8.451177035607259,96.9624614080376 5.1785875458532455,99.09291231248784 1.4725077843698533,97.86261323248961" fill="hsl(331 50% 50%)" />
  <polygon points="98.26511519531219,69.02814050604454 99.96994097357958,72.54129181085284 98.28619016750243,76.06459228736003 94.48176147631395,76.94492481452423 91.42146730068157,74.51938104387983 91.40977157348108,70.61444490679814 94.45548141584383,68.17061296068236" fill="hsl(335 50% 50%)" />
  <polygon points="52.10447509217154,27.234536252765558 51.78563640933585,31.126451580602083 48.54402181174725,33.30374297713627 44.820633208277144,32.12686561212739 43.419258160624466,28.482032145350377 45.395160662513085,25.113876518341492 49.260445828955184,24.558688616092216" fill="hsl(338 50% 50%)" />
  <polygon points="30.14782079587152,35.61748480864148 27.387074387157966,38.379176734164034 23.506599463555652,37.94262502816015 21.428472789800026,34.636562029282686 22.717566137287847,30.950520607081366 26.403165922648665,29.66016513401606 29.709940334971257,31.73715959975974" fill="hsl(342 50% 50%)" />
  <polygon points="68.91580040568594,10.028687376740367 72.56069895279168,11.429893145365277 73.73774924239507,15.153227086937788 71.56060839897447,18.394942801282763 67.66870788320537,18.713962236548834 64.9927281637644,15.870057251170119 65.54773654942903,12.004746304226362" fill="hsl(346 50% 50%)" />
  <polygon points="13.488546238101994,85.72604711764669 16.435611666079947,88.2879738121363 16.270081960307415,92.1894175117465 13.116604365421768,94.49251153572284 9.349811829591879,93.46297910945471 7.806175960862461,89.87607914855627 9.648086052820071,86.43282048300905" fill="hsl(349 50% 50%)" />
  <polygon points="3.8612561700835855,64.49710795518652 7.532525926855477,65.8276873018372 8.781236356941907,69.52760423151476 6.667083037437055,72.81074583162096 2.7820665387965002,73.20483951339216 0.05168352439073054,70.41312469640857 0.5319680937306757,66.53781957846299" fill="hsl(353 50% 50%)" />
  <polygon points="33.88236690113575,65.36606576394502 37.43167793692882,63.73785994282816 40.91761974225732,65.49765332688901 41.71520703745494,69.32028560468669 39.223840321422045,72.32723670355158 35.31956954595084,72.25421111541425 32.94239023758097,69.15619859759263" fill="hsl(356 50% 50%)" />
</svg>
