<svg xmlns="http://www.w3.org/2000/svg" viewBox="0 0 100 100">
  <polygon points="24.266615710142446,23.046913242091005 27.50173152124853,28.52724404312222 22.021400720217315,31.762359854228304 18.78628490911123,26.28202905319709" fill="hsl(0 50% 50%)" />
  <polygon points="30.794482780984573,14.89813724976789 36.90333958060229,13.114357946781007 38.68711888358917,19.223214746398725 32.57826208397145,21.006994049385607" fill="hsl(4 50% 50%)" />
  <polygon points="84.13394121269471,12.94647900512351 83.61316825668672,6.603861601536037 89.95578566027419,6.083088645528049 90.47655861628218,12.425706049115522" fill="hsl(7 50% 50%)" />
  <polygon points="46.22770284225095,15.74729807530162 39.90046413716519,16.429976893535063 39.217785318931746,10.102738188449301 45.54502402401751,9.420059370215855" fill="hsl(11 50% 50%)" />
  <polygon points="60.65829789736385,91.75672728846375 61.401673385639576,98.07712228272091 55.081278391382426,98.82049777099662 54.3379029031067,92.50010277673947" fill="hsl(14 50% 50%)" />
  <polygon points="89.37148827724722,36.22342975804359 88.59625146163492,29.906863611811982 94.91281760786653,29.13162679619968 95.68805442347883,35.44819294243129" fill="hsl(18 50% 50%)" />
  <polygon points="19.584685036461924,82.91799974306474 21.991216178168898,88.80940092308929 16.09981499814436,91.21593206479625 13.693283856437386,85.3245308847717" fill="hsl(22 50% 50%)" />
  <polygon points="83.57558296134785,75.9478892208114 82.70994566399682,82.25270262561845 76.40513225918976,81.38706532826741 77.2707695565408,75.08225192346035" fill="hsl(25 50% 50%)" />
  <polygon points="88.41434670767596,38.37515669198377 88.66153638289092,44.734315226292146 82.30237784858254,44.9815049015071 82.05518817336758,38.62234636719872" fill="hsl(29 50% 50%)" />
  <polygon points="4.149192073988139,34.5342343964268 7.150368400325956,28.92237724765426 12.762225549098495,31.923553573992077 9.761049222760679,37.53541072276462" fill="hsl(32 50% 50%)" />
  <polygon points="14.075685389035081,18.892342381157256 17.149377929085468,24.46481168741984 11.576908622822886,27.538504227470227 8.503216082772498,21.966034921207644" fill="hsl(36 50% 50%)" />
  <polygon points="46.50685396476666,71.13238888731034 44.494594150076935,77.16983954451533 38.45714349287196,75.1575797298256 40.46940330756168,69.12012907262061" fill="hsl(40 50% 50%)" />
  <polygon points="14.535015951998396,97.90671616085824 16.145924121494424,91.75001453828054 22.30262574407213,93.36092270777657 20.691717574576103,99.51762433035427" fill="hsl(43 50% 50%)" />
  <polygon points="65.93415669981877,47.08735422598811 62.18642752239331,52.230750575937606 57.04303117244381,48.483021398512136 60.79076034986928,43.33962504856264" fill="hsl(47 50% 50%)" />
  <polygon points="25.855299186038543,53.60460410934387 23.442531992303923,59.49345412176887 17.55368197987892,57.080686928034254 19.96644917361354,51.19183691560925" fill="hsl(50 50% 50%)" />
  <polygon points="23.797618821715155,69.02889984818177 19.813370918745758,73.99133560571899 14.850935161208545,70.0070877027496 18.835183064177926,65.04465194521238" fill="hsl(54 50% 50%)" />
  <polygon points="8.628108094428718,79.12798254817258 2.4339954158425248,80.58845100896787 0.9735269550472445,74.39433833038166 7.167639633633436,72.93386986958637" fill="hsl(58 50% 50%)" />
  <polygon points="6.125168370494901,61.43708043527988 6.844212140670395,55.1138711190725 13.167421456877776,55.83291488924799 12.448377686702282,62.15612420545537" fill="hsl(61 50% 50%)" />
  <polygon points="55.62752155291758,16.138880881663976 60.21249027419133,20.55227660660653 55.79909454924878,25.137245327880297 51.21412582797501,20.72384960293773" fill="hsl(65 50% 50%)" />
  <polygon points="83.79054032055676,27.233675424992843 81.74919073084996,21.205998272672566 87.77686788317023,19.164648682965765 89.81821747287702,25.19232583528604" fill="hsl(68 50% 50%)" />
  <polygon points="6.457914575766903,58.123424211226364 0.09515025915009767,58.00001330738128 0.21856116299517758,51.637248990764476 6.581325479611984,51.76065989460956" fill="hsl(72 50% 50%)" />
  <polygon points="93.69153924263229,51.20203241353362 92.19328754872882,45.01695021022255 98.37836975203987,43.51869851631907 99.87662144594336,49.703780719630146" fill="hsl(76 50% 50%)" />
  <polygon points="34.392973419615075,44.569011005926214 36.921592174671304,50.40905271738495 31.08155046321257,52.93767147244118 28.552931708156336,47.09762976098244" fill="hsl(79 50% 50%)" />
  <polygon points="52.20990020784312,53.080521536930085 45.93582825006986,54.14636442811205 44.86998535888789,47.872292470338785 51.14405731666116,46.806449579156826" fill="hsl(83 50% 50%)" />
  <polygon points="84.17875036374052,93.30815148694822 84.25506121406303,99.6716549759174 77.89155772509385,99.74796582623992 77.81524687477133,93.38446233727072" fill="hsl(86 50% 50%)" />
  <polygon points="47.06548266937566,14.243599937286625 47.00769758079436,7.879901257781314 53.37139626029967,7.822116169200005 53.429181348880974,14.185814848705316" fill="hsl(90 50% 50%)" />
  <polygon points="77.17018866169147,13.345564438232564 83.44482187975058,12.283030684025565 84.50735563395759,18.55766390208467 78.23272241589848,19.620197656291673" fill="hsl(94 50% 50%)" />
  <polygon points="53.44983055003701,0.5545991083073507 53.96729160052501,6.8974875718724995 47.624403136959856,7.414948622360504 47.106942086471854,1.0720601587953555" fill="hsl(97 50% 50%)" />
  <polygon points="49.487664548647835,60.05971859194533 55.73457857864859,58.84478439546399 56.949512775129925,65.09169842546474 50.70259874512917,66.30663262194608" fill="hsl(101 50% 50%)" />
  <polygon points="82.40521727882485,38.05025942159793 81.27585618287732,31.78730935673551 87.53880624773974,30.65794826078799 88.66816734368727,36.92089832565041" fill="hsl(104 50% 50%)" />
  <polygon points="72.71865048505117,22.376624525177125 72.26211984290342,28.724189394698357 65.91455497338217,28.267658752550606 66.37108561552994,21.920093883029363" fill="hsl(108 50% 50%)" />
  <polygon points="68.39610818195001,44.730692159236156 73.25734054431844,48.83781036048895 69.15022234306565,53.69904272285737 64.28898998069722,49.591924521604575" fill="hsl(112 50% 50%)" />
  <polygon points="55.71966960387039,25.28130673136515 61.98960884959117,24.1914159776791 63.07949960327722,30.461355223399877 56.80956035755644,31.55124597708593" fill="hsl(115 50% 50%)" />
  <polygon points="24.632769920367334,50.10341596534961 18.467644767034038,48.52505230518216 20.046008427201475,42.359927151848886 26.211133580534774,43.93829081201632" fill="hsl(119 50% 50%)" />
  <polygon points="3.625624600760986,35.57913214563097 9.217685547107887,38.6170351020043 6.179782590734558,44.209096048351206 0.5877216443876572,41.17119309197788" fill="hsl(122 50% 50%)" />
  <polygon points="2.856360065105255,51.079824265677146 3.140402195927164,44.72220520914992 9.498021252454391,45.00624733997182 9.213979121632484,51.36386639649905" fill="hsl(126 50% 50%)" />
  <polygon points="53.15495750827626,49.3477440462429 49.857931319943205,43.90443454618267 55.301240820003436,40.607408357849614 58.59826700833649,46.050717857909845" fill="hsl(130 50% 50%)" />
  <polygon points="84.52174969187942,67.54609322479865 78.20123614750395,66.80372637790532 78.94360299439728,60.483212833529855 85.26411653877275,61.22557968042319" fill="hsl(133 50% 50%)" />
  <polygon points="93.63600867350226,62.65308096669437 99.99996970207991,62.653244505284704 99.99980616348958,69.01720553386235 93.63584513491192,69.01704199527201" fill="hsl(137 50% 50%)" />
  <polygon points="90.42402643363585,12.453887250917061 90.93801286626027,18.797058220320142 84.59484189685719,19.311044652944563 84.08085546423276,12.967873683541487" fill="hsl(140 50% 50%)" />
  <polygon points="10.167968810936852,54.92948902172638 11.948826959353468,48.819780006133406 18.058535974946448,50.600638154550026 16.277677826529832,56.710347170143" fill="hsl(144 50% 50%)" />
  <polygon points="81.36232593638023,55.60920065168521 77.03732290815118,50.9407588553457 81.70576470449068,46.615755827116665 86.03076773271972,51.28419762345616" fill="hsl(148 50% 50%)" />
  <polygon points="6.0249297358075316,29.719043460545844 0.634976057593442,26.33549512385751 4.018524394281778,20.945541445643418 9.408478072495868,24.329089782331753" fill="hsl(151 50% 50%)" />
  <polygon points="21.47779898847673,21.282190057043355 15.15757475914355,20.537364110294845 15.90240070589206,14.217139880961664 22.22262493522524,14.961965827710173" fill="hsl(155 50% 50%)" />
  <polygon points="28.13733238073599,84.2881389320556 22.06876873820284,86.20452493610718 20.152382734151264,80.13596129357403 26.220946376684417,78.21957528952244" fill="hsl(158 50% 50%)" />
  <polygon points="75.48744965614956,92.0416499425381 76.63107473912852,85.78128879723815 82.89143588442847,86.9249138802171 81.74781080144952,93.18527502551706" fill="hsl(162 50% 50%)" />
  <polygon points="85.38696841848429,60.9305698952018 80.93481977380699,56.3832220477529 85.48216762125588,51.9310734030756 89.93431626593318,56.4784212505245" fill="hsl(166 50% 50%)" />
  <polygon points="50.431548386291986,69.91409855660686 44.08045025014608,70.31851475935339 43.67603404739955,63.96741662320748 50.027132183545454,63.563000420460945" fill="hsl(169 50% 50%)" />
  <polygon points="72.05328246972613,46.404233410907864 76.13194458091542,41.519101336669856 81.01707665515343,45.59776344785914 76.93841454396414,50.482895522097145" fill="hsl(173 50% 50%)" />
  <polygon points="0.4378494734521152,64.61797516083914 6.794616088360208,64.3154554034845 7.097135845714849,70.67222201839259 0.7403692308067567,70.97474177574723" fill="hsl(176 50% 50%)" />
  <polygon points="90.43721720072071,20.008109486541994 92.91491650533118,14.146283307275603 98.77674268459756,16.623982611886067 96.2990433799871,22.485808791152458" fill="hsl(180 50% 50%)" />
  <polygon points="19.696140364344092,58.181305495311264 19.881572908918876,64.5425643936279 13.520314010602245,64.72799693820268 13.334881466027461,58.366738039886044" fill="hsl(184 50% 50%)" />
  <polygon points="41.37783775729419,92.34526817477371 37.011306419543146,87.71564571970913 41.640928874607724,83.34911438195809 46.007460212358765,87.97873683702267" fill="hsl(187 50% 50%)" />
  <polygon points="92.92545399134387,51.26052265238865 99.27748781569589,50.87107908229433 99.66693138579022,57.22311290664636 93.31489756143819,57.612556476740664" fill="hsl(191 50% 50%)" />
  <polygon points="74.54502824260771,59.4421571970239 70.54740858051893,54.49048707096732 75.49907870657552,50.49286740887854 79.4966983686643,55.44453753493513" fill="hsl(194 50% 50%)" />
  <polygon points="27.97680333745508,78.56290612369119 22.09459232571755,76.13399821819257 24.523500231216172,70.25178720645503 30.4057112429537,72.68069511195367" fill="hsl(198 50% 50%)" />
  <polygon points="68.32421807002369,83.63979699771225 73.48580924973582,79.91716667850007 77.20843956894801,85.0787578582122 72.04684838923588,88.80138817742439" fill="hsl(202 50% 50%)" />
  <polygon points="2.833136497597555,87.83316512810794 0.7935080221396067,81.80490537241549 6.821767777832048,79.76527689695754 8.861396253289996,85.79353665264999" fill="hsl(205 50% 50%)" />
  <polygon points="45.992818589433504,54.13730446479401 50.87163400971147,58.22352032973041 46.78541814477507,63.10233575000838 41.906602724497105,59.01611988507199" fill="hsl(209 50% 50%)" />
  <polygon points="37.74136424289721,7.72046965525018 31.402046758602523,7.160957516583238 31.961558897269462,0.8216400322885482 38.30087638156415,1.3811521709554904" fill="hsl(212 50% 50%)" />
  <polygon points="43.58064592787031,33.614173724224614 48.33834229170264,37.840794751662095 44.11172126426516,42.598491115494426 39.354024900432826,38.371870088056944" fill="hsl(216 50% 50%)" />
  <polygon points="95.15799353300483,60.273445584035215 90.80414344708059,64.91499591008981 86.16259312102599,60.56114582416558 90.51644320695023,55.91959549811098" fill="hsl(220 50% 50%)" />
  <polygon points="63.16938046247075,95.08936396508437 66.99293640690964,90.00208375462357 72.08021661737044,93.82563969906246 68.25666067293155,98.91291990952327" fill="hsl(223 50% 50%)" />
  <polygon points="99.37300306998496,42.395617608484365 93.01167693963761,42.578729222971205 92.82856532515078,36.21740309262385 99.18989145549811,36.03429147813701" fill="hsl(227 50% 50%)" />
  <polygon points="37.977093669580725,60.90975951296816 33.33302167636915,56.558599285871495 37.68418190346581,51.91452729265992 42.32825389667739,56.26568751975658" fill="hsl(230 50% 50%)" />
  <polygon points="60.61230395396043,5.573294014186077 64.63746540676898,0.6439862251730908 69.56677319578198,4.669147677981648 65.54161174297342,9.598455466994634" fill="hsl(234 50% 50%)" />
  <polygon points="67.40095020058706,39.4310592925149 61.61442402578355,42.079854269162546 58.965629049135906,36.293328094359026 64.75215522393943,33.64453311771138" fill="hsl(238 50% 50%)" />
  <polygon points="90.06767490859443,44.218167505524164 93.0017215792583,49.86541197821757 87.3544771065649,52.799458648881455 84.42043043590101,47.15221417618806" fill="hsl(241 50% 50%)" />
  <polygon points="60.45728176289653,6.94388511567003 54.0938285359715,7.024278080146647 54.01343557149488,0.6608248532216101 60.37688879841991,0.5804318887449931" fill="hsl(245 50% 50%)" />
  <polygon points="86.20598714747125,0 86.7050369316404,6.344363586122783 80.36067334551761,6.843413370291924 79.86162356134847,0.4990497841691419" fill="hsl(248 50% 50%)" />
  <polygon points="36.438714044842435,87.40255145013778 32.426746322033566,92.34260357447208 27.486694197699265,88.33063585166322 31.498661920508134,83.39058372732892" fill="hsl(252 50% 50%)" />
  <polygon points="51.526344730046254,36.51059813974937 45.33949636208858,35.01965639980797 46.83043810202998,28.8328080318503 53.01728646998765,30.323749771791697" fill="hsl(256 50% 50%)" />
  <polygon points="74.0092061061008,74.44170957657457 70.75215643901063,68.97438596569256 76.21948004989264,65.71733629860239 79.47652971698281,71.1846599094844" fill="hsl(259 50% 50%)" />
  <polygon points="34.887769579450335,91.41047301011307 37.19939220541519,97.33975634244989 31.270108873078357,99.65137896841475 28.958486247113505,93.72209563607792" fill="hsl(263 50% 50%)" />
  <polygon points="20.989131976010746,0.5560091644564573 21.101770390355938,6.918973299795725 14.738806255016671,7.03161171414092 14.626167840671476,0.6686475788016515" fill="hsl(266 50% 50%)" />
  <polygon points="31.95446864280638,45.53803807601462 25.97918864929956,43.348054286303565 28.169172439010612,37.372774292796755 34.144452432517426,39.5627580825078" fill="hsl(270 50% 50%)" />
  <polygon points="21.814878313072924,76.85001378537407 17.86575494896334,81.84044709872911 12.875321635608296,77.89132373461955 16.824444999717873,72.90089042126449" fill="hsl(274 50% 50%)" />
  <polygon points="61.69044208568977,9.805942505044058 59.98107470425057,15.93603737831247 53.850979830982155,14.226669996873268 55.560347212421355,8.096575123604854" fill="hsl(277 50% 50%)" />
  <polygon points="65.95987340408236,51.189292853436385 70.6168386311505,55.52665090573944 66.27948057884744,60.183616132807586 61.6225153517793,55.84625808050453" fill="hsl(281 50% 50%)" />
  <polygon points="62.25023463181861,65.21831923591455 56.49565306697541,62.500822039307565 59.2131502635824,56.74624047446437 64.9677318284256,59.46373767107136" fill="hsl(284 50% 50%)" />
  <polygon points="22.465934488572408,10.088822495718768 27.464207851385023,6.149626716045224 31.403403631058566,11.147900078857841 26.40513026824595,15.087095858531384" fill="hsl(288 50% 50%)" />
  <polygon points="93.58125947143199,21.982442693868908 99.73716983374848,23.59637193987833 98.12324058773905,29.75228230219481 91.96733022542257,28.1383530561854" fill="hsl(292 50% 50%)" />
  <polygon points="20.72684483857253,13.279970473092588 14.381790344353915,13.770157646931573 13.89160317051492,7.425103152712982 20.23665766473353,6.934915978873975" fill="hsl(295 50% 50%)" />
  <polygon points="31.68071902774757,64.07149763265193 29.873306893535638,70.17340400501651 23.771400521171064,68.36599187080458 25.578812655382986,62.26408549844" fill="hsl(299 50% 50%)" />
  <polygon points="78.61172491936023,7.771086729675335 72.38424727307043,6.460162565216973 73.69517143752878,0.23268491892716847 79.92264908381858,1.5436090833855314" fill="hsl(302 50% 50%)" />
  <polygon points="31.30274361174269,73.30999021295683 37.457823046790686,71.69289493182796 39.074918327919555,77.84797436687596 32.91983889287156,79.46506964800483" fill="hsl(306 50% 50%)" />
  <polygon points="89.89939763666095,80.19529070360534 94.06746022826128,85.0043710972463 89.25837983462031,89.17243368884664 85.09031724301998,84.36335329520567" fill="hsl(310 50% 50%)" />
  <polygon points="69.88340746360802,79.72758078335953 65.30097866909261,84.14361365724035 60.88494579521179,79.56118486272494 65.4673745897272,75.14515198884412" fill="hsl(313 50% 50%)" />
  <polygon points="45.735764416821326,91.12196667772669 46.861735824653714,84.85840631729717 53.12529618508323,85.98437772512956 51.99932477725084,92.24793808555908" fill="hsl(317 50% 50%)" />
  <polygon points="87.93087304228636,67.3419684404214 90.27506427433738,73.25845113435155 84.3585815804072,75.60264236640256 82.0143903483562,69.6861596724724" fill="hsl(320 50% 50%)" />
  <polygon points="47.22038367772641,4.966055810154484 42.374614486934,9.091406819410189 38.24926347767829,4.245637628617777 43.0950326684707,0.12028661936207197" fill="hsl(324 50% 50%)" />
  <polygon points="8.005623569738109,69.05629998069692 14.364377048249857,68.79890106944292 14.62177595950386,75.15765454795466 8.263022480992113,75.41505345920866" fill="hsl(328 50% 50%)" />
  <polygon points="6.208474656334257,95.7551217844483 0.046022991041029915,94.1663519858542 1.6347927896351289,88.00390032056097 7.7972444549283555,89.59267011915507" fill="hsl(331 50% 50%)" />
  <polygon points="96.73221949416397,69.57219488926958 96.66703562047678,75.93582208314346 90.3034084266029,75.87063820945627 90.36859230029009,69.50701101558239" fill="hsl(335 50% 50%)" />
  <polygon points="44.59752761447853,25.947430160520675 48.15656491752434,20.671707131823247 53.43228794622177,24.23074443486906 49.87325064317596,29.506467463566487" fill="hsl(338 50% 50%)" />
  <polygon points="22.595820296209812,31.889775824169366 28.616155469935567,29.82687388854555 30.679057405559384,35.847209062271304 24.658722231833632,37.91011099789512" fill="hsl(342 50% 50%)" />
  <polygon points="74.25032417779943,9.921174998606887 76.89638841493054,15.70895039619928 71.10861301733814,18.355014633330388 68.46254878020703,12.567239235737995" fill="hsl(346 50% 50%)" />
  <polygon points="15.347042010542525,90.15118948487778 13.16979866840908,96.13112355049552 7.189864602791332,93.95388020836207 9.367107944924774,87.97394614274432" fill="hsl(349 50% 50%)" />
  <polygon points="13.10187490438043,62.20803890309032 13.553651711152401,68.55594388952979 7.205746724712945,69.00772069630175 6.753969917940979,62.659815709862286" fill="hsl(353 50% 50%)" />
  <polygon points="40.559117184416166,66.5111266066541 35.29465676549381,70.08680227673379 31.718981095414122,64.82234185781144 36.98344151433648,61.24666618773175" fill="hsl(356 50% 50%)" />
</svg>
