<svg xmlns="http://www.w3.org/2000/svg" viewBox="0 0 100 100">
  <polygon points="19.91716070818676,23.08651522460434 21.819050873653772,21.05732190549586 24.550442245973546,20.533573016206603 27.068036157498142,21.715322830875046 28.410197303894964,24.151183086496744 28.06426574561995,26.910737957269212 26.162375580152933,28.93993127637769 23.43098420783316,29.46368016566695 20.913390296308567,28.281930350998508 19.57122914991174,25.846070095376813" fill="hsl(0 50% 50%)" />
  <polygon points="35.125726053219694,17.664643025195296 36.129500344917155,20.258337089486975 35.41703568546791,22.946683390998462 33.26046935899844,24.702825016082446 30.483536403226587,24.855975553015316 28.146930822777488,23.347636702084017 27.143156531080024,20.75394263779234 27.85562119052927,18.06559633628085 30.01218751699874,16.309454711196867 32.78912047277059,16.156304174263997" fill="hsl(4 50% 50%)" />
  <polygon points="81.50354039950683,5.260678938856463 83.88728763851505,3.8280028315888908 86.65788555233071,4.070074985656407 88.75705990703581,5.894432065935121 89.3829974474451,8.604231675375086 88.29661130795678,11.164422465871423 85.91286406894856,12.597098573138997 83.1422661551329,12.35502641907148 81.0430918004278,10.530669338792766 80.4171542600185,7.820869729352801" fill="hsl(7 50% 50%)" />
  <polygon points="46.684523783112745,7.295966322304011 46.169602948976824,10.029035707150907 44.14656536549807,11.937472413894696 41.38814262904692,12.292318485937162 38.947958469607215,10.958034784532483 37.75808029727583,8.444272332982226 38.27300113141175,5.711202948135329 40.29603871489051,3.8027662413915406 43.05446145134166,3.4479201693490724 45.49464561078136,4.782203870753753" fill="hsl(11 50% 50%)" />
  <polygon points="59.30831313664728,90.58828448059994 60.97835394745117,92.81219441988796 61.02226387995108,95.59300071404843 59.42327083237576,97.86852987484168 56.792135801124196,98.7696071052362 54.13386293914398,97.95205152970993 52.463822128340084,95.7281415904219 52.41991219584017,92.94733529626143 54.01890524341549,90.67180613546817 56.65004027466705,89.77072890507365" fill="hsl(14 50% 50%)" />
  <polygon points="85.58392532013403,33.165707965754095 83.96910735412052,30.901381429131202 83.99362992139504,28.120336594629446 85.64812623475012,25.884838064791175 88.30063493674552,25.04877029621419 90.93798785867386,25.931482759596616 92.55280582468737,28.195809296219515 92.52828325741285,30.976854130721268 90.87378694405777,33.21235266055954 88.22127824206237,34.04842042913653" fill="hsl(18 50% 50%)" />
  <polygon points="18.01959395488794,82.78014577654454 20.700330567742068,82.03956293828942 23.304395715411452,83.01611628271472 24.837125020405406,85.33679562407737 24.71306798376924,88.11518033096655 22.97961017695438,90.29002187917351 20.29887356410025,91.03060471742863 17.694808416430867,90.05405137300333 16.162079111436913,87.73337203164068 16.28613614807308,84.9549873247515" fill="hsl(22 50% 50%)" />
  <polygon points="82.38870704610561,82.78379372848741 82.10100372959552,80.01756189990114 83.49419713046588,77.6105255737137 86.03613472248625,76.48209081437301 88.75588274278594,77.06328134586042 90.61458988844568,79.13210213908732 90.90229320495577,81.8983339676736 89.50909980408541,84.30537029386103 86.96716221206503,85.43380505320172 84.24741419176536,84.85261452171432" fill="hsl(25 50% 50%)" />
  <polygon points="77.75719350598166,44.27060078007323 77.29851648785527,41.52753185624771 78.5397744447082,39.03873889331088 81.00684902582891,37.754856212143046 83.75740159401019,38.16628335938299 85.74081455605011,40.115869148679444 86.1994915741765,42.85893807250496 84.95823361732357,45.3477310354418 82.49115903620286,46.63161371660963 79.74060646802158,46.22018656936969" fill="hsl(29 50% 50%)" />
  <polygon points="9.184209174932251,34.159380913458996 8.021742750627777,36.68593658080128 5.596215497615419,38.046682432424184 2.834096385906731,37.721859803058194 0.790421035198765,35.835539896806 0.24580396749160194,33.10823280420042 1.4082703917960755,30.581677136858136 3.8337976448084334,29.220931285235228 6.595916756517122,29.545753914601224 8.639592107225088,31.43207382085342" fill="hsl(32 50% 50%)" />
  <polygon points="3.939781447843367,22.432290008352073 4.528226573503727,19.71410236547287 6.601999289868095,17.860921735130166 9.368988904227477,17.58060013082192 11.772299430414552,18.98021087761298 12.893947932946254,21.525150241248785 12.305502807285894,24.243337884127985 10.231730090921527,26.09651851447069 7.464740476562144,26.376840118778937 5.061429950375069,24.977229371987878" fill="hsl(36 50% 50%)" />
  <polygon points="46.474429833845996,71.85522180757536 49.06482761887739,72.86747229195117 50.565517542817,75.20899775198802 50.40328706129438,77.98541504747506 48.640102704239915,80.1362271384893 45.94944096761628,80.83989690967755 43.359043182584884,79.82764642530174 41.85835325864527,77.48612096526489 42.02058374016789,74.70970366977785 43.78376809722236,72.5588915787636" fill="hsl(40 50% 50%)" />
  <polygon points="20.370082435180326,91.02458052946582 23.071376745683164,91.68626079655833 24.867843846958394,93.80935233529387 25.073294365989877,96.58290633910275 23.609253187513893,98.94751944816336 21.034934280778817,99.9999898250581 18.333639970275982,99.33830955796559 16.53717286900075,97.21521801923006 16.33172234996926,94.44166401542117 17.795763528445246,92.07705090636055" fill="hsl(43 50% 50%)" />
  <polygon points="62.374734082324274,42.559116156551255 64.93635002539884,43.64213761894286 66.37215681289796,46.02400046066698 66.13372505327476,48.794914032725416 64.31212757470786,50.89648353048022 61.60315270018872,51.5259808355091 59.04153675711416,50.442959373117496 57.60572996961504,48.061096531393375 57.844161729238245,45.29018295933494 59.66575920780513,43.18861346158014" fill="hsl(47 50% 50%)" />
  <polygon points="17.608552169486437,52.76203516932593 18.898837700800392,50.298303248946496 21.390845911630734,49.06351306232822 24.132714365684077,49.529312491784445 26.077142506193184,51.5177819872032 26.481424872165327,54.269393786926884 25.19113934085137,56.73312570730631 22.699131130021033,57.96791589392459 19.957262675967687,57.502116464468365 18.01283453545858,55.51364696904961" fill="hsl(50 50% 50%)" />
  <polygon points="16.578700600418525,61.54811596104529 19.199830207812333,60.618335713321024 21.866879722138428,61.40678901945118 23.561126878603137,63.61231351503628 23.6354268487798,66.39247380578327 22.061399569424044,68.68534315479958 19.440269962030236,69.61512340252386 16.77322044770414,68.8266700963937 15.078973291239432,66.6211456008086 15.004673321062766,63.84098531006162" fill="hsl(54 50% 50%)" />
  <polygon points="0.00008964146520984428,77.07111956203532 1.6086377391253812,74.80233470107373 4.243538768299601,73.91233004138297 6.898350092835394,74.74105711281912 8.559024020478217,76.97197034149073 8.591239555099293,79.75293669999702 6.982691457439122,82.02172156095861 4.347790428264903,82.91172622064937 1.6929791037291095,82.08299914921322 0.03230517608628691,79.85208592054161" fill="hsl(58 50% 50%)" />
  <polygon points="17.900393137788935,56.83125733929379 16.353952568352607,59.1428224569178 13.744151981034642,60.10394296041849 11.067846496331065,59.34750348474303 9.347293845120877,57.16243819916728 9.23968666073263,54.38336777514369 10.786127230168951,52.07180265751969 13.39592781748693,51.11068215401899 16.072233302190494,51.867121629694445 17.792785953400692,54.052186915270205" fill="hsl(61 50% 50%)" />
  <polygon points="56.78377523790757,19.451262243826008 58.832766701835,21.33180623654917 59.385079592271616,24.057565249901632 58.22974915749532,26.587391985924132 55.80807235535348,27.954978617104285 53.04504741449711,27.63795353289124 50.99605595056968,25.757409540168076 50.443743060133066,23.031650526815614 51.599073494909355,20.501823790793114 54.0207502970512,19.13423715961296" fill="hsl(65 50% 50%)" />
  <polygon points="80.92556889864433,20.647870484271497 83.55767163929417,21.546117048683673 85.15911140393689,23.819924957904608 85.11819263341462,26.600776874500234 83.45054490728903,28.826481884011315 80.79315297567858,29.64689632173552 78.16105023502874,28.748649757323346 76.55961047038602,26.47484184810241 76.60052924090827,23.693989931506785 78.26817696703388,21.468284921995703" fill="hsl(68 50% 50%)" />
  <polygon points="4.270418252711055,60.78544031144718 1.6917458786749822,59.743681934856056 0.2178863153670152,57.38517611220896 0.4118038213267248,54.61079190509254 2.199428500291111,52.48024978277435 4.897948484023899,51.807344421516596 7.476620858059976,52.84910279810772 8.950480421367942,55.20760862075482 8.756562915408235,57.98199282787124 6.968938236443847,60.11253495018943" fill="hsl(72 50% 50%)" />
  <polygon points="87.58466867250591,38.394453495631986 90.14814099958873,37.31583337895732 92.85603067421597,37.94998260261198 94.67401587846493,40.05467771709923 94.90768805535693,42.8259967246408 93.46779237554439,45.20538995802443 90.90432004846157,46.2840100746991 88.19643037383433,45.64986085104444 86.37844516958538,43.54516573655719 86.14477299269338,40.773846729015624" fill="hsl(76 50% 50%)" />
  <polygon points="37.14369992313851,41.88910637399334 39.50884754129953,43.35228389983288 40.56225798742296,45.92621827347426 39.901564275193834,48.62775404899816 37.77912894653035,50.42499638197826 35.00565015805839,50.63145978723631 32.64050253989737,49.168282261396776 31.58709209377394,46.59434788775539 32.247785806003066,43.89281211223149 34.37022113466655,42.09556977925139" fill="hsl(79 50% 50%)" />
  <polygon points="41.370929541032304,56.47689599405432 39.06827728983425,54.91721514918023 38.12214988537935,52.301941805463734 38.89393583848166,49.63002149033294 41.088839147095825,47.9220369489365 43.86848134935084,47.83038022382844 46.17113360054889,49.39006106870253 47.11726100500379,52.005334412419025 46.34547505190148,54.67725472754981 44.150571743287315,56.38523926894626" fill="hsl(83 50% 50%)" />
  <polygon points="85.09259032397895,85.98020176518858 87.28123526253084,87.69619857776306 88.04324859305987,90.37092237881443 87.08756712318444,92.98271958685937 84.77922869197852,94.53397244014681 81.99994012262513,94.43215507386617 79.81129518407324,92.7161582612917 79.04928185354422,90.04143446024032 80.00496332341964,87.42963725219538 82.31330175462557,85.87838439890794" fill="hsl(86 50% 50%)" />
  <polygon points="52.464570187815504,10.213086023583912 54.492997827376755,12.11579278997715 55.01564728291862,14.847394751178015 53.83288422662574,17.36451280174365 51.39648394536428,18.70569340005386 48.637068536376326,18.358651142606064 46.608640896815075,16.455944376212827 46.08599144127321,13.724342415011963 47.26875449756609,11.207224364446326 49.70515477882755,9.866043766136116" fill="hsl(90 50% 50%)" />
  <polygon points="75.9132203291208,17.782670291596247 73.50024418865391,16.399790009955005 72.36094211922972,13.862704571421181 72.93048878791517,11.140494381152264 74.99133672545167,9.27295120730966 77.75631206534544,8.97341306684339 80.16928820581234,10.356293348484632 81.30859027523653,12.893378787018456 80.73904360655108,15.615588977287375 78.67819566901457,17.48313215112998" fill="hsl(94 50% 50%)" />
  <polygon points="46.10277611071895,5.161194969028661 46.73346849208411,2.4524980779198433 48.835841432355565,0.6318279409018839 51.60685992537767,0.3946186680137167 53.98808909027049,1.8314761390519698 55.06998032104751,4.39356963706925 54.43928793968235,7.102266528178069 52.336914999410894,8.922936665196026 49.56589650638879,9.160145938084195 47.18466734149597,7.7232884670459425" fill="hsl(97 50% 50%)" />
  <polygon points="53.08860629179625,59.66392806646303 55.815548989543025,60.21036676478169 57.70050336655322,62.25530165968782 58.02348091805184,65.01763712610796 56.66111519696961,67.44225490419892 54.133783603652205,68.6030334124572 51.40684090590543,68.05659471413854 49.52188652889524,66.0116598192324 49.19890897739662,63.249324352812266 50.56127469847885,60.824706574721304" fill="hsl(101 50% 50%)" />
  <polygon points="79.36252550659604,29.265096432167987 82.0074985216466,30.12470650508999 83.64206051690005,32.37482179357806 83.64186436688838,35.15597473603552 82.0069849942492,37.405859436355406 79.36189075182453,38.2650964097839 76.71691773677398,37.4054863368619 75.08235574152054,35.15537104837384 75.08255189153219,32.37421810591637 76.71743126417138,30.12433340559648" fill="hsl(104 50% 50%)" />
  <polygon points="67.02623220725502,30.212794110839823 66.37256637424517,27.509549263148415 67.43266706150655,24.938363104838874 69.80161183800246,23.48134135698218 72.57454431658297,23.695016804911813 74.69229853893884,25.497772690080005 75.3459643719487,28.201017537771413 74.28586368468731,30.772203696080954 71.9169189081914,32.22922544393765 69.14398642961089,32.01554999600802" fill="hsl(108 50% 50%)" />
  <polygon points="75.52089574293505,46.87633829358711 75.09683935449715,49.624972119188406 73.13816410303694,51.59940950414948 70.39301736168898,52.04548247607365 67.90995188154216,50.792806321148575 66.637414279721,48.31986075365909 67.0614706681589,45.57122692805779 69.02014591961911,43.59678954309672 71.76529266096708,43.150716571172545 74.2483581411139,44.40339272609762" fill="hsl(112 50% 50%)" />
  <polygon points="58.717818929908745,32.36782303002882 57.75129688504076,29.760018040272335 58.50219343913812,27.082152081554582 60.683691630570806,25.357078932789427 63.462533296607965,25.243717903725347 65.77729537017778,26.785369054465164 66.74381741504577,29.393174044221652 65.99292086094842,32.071040002939405 63.81142266951572,33.79611315170456 61.03258100347856,33.90947418076864" fill="hsl(115 50% 50%)" />
  <polygon points="26.677535902201253,42.67803011292593 27.242807987557168,45.40113113883959 26.099524087521317,47.93642474150841 23.68437979311686,49.315514936173074 20.91987813707092,49.0116361420234 18.861964790037668,47.14085972996422 18.29669270468175,44.41775870405056 19.439976604717597,41.88246510138174 21.855120899122053,40.50337490671707 24.619622555167997,40.807253700866745" fill="hsl(119 50% 50%)" />
  <polygon points="14.468770836653057,43.52835791518826 11.77542148988062,42.83504627959059 10.003974451200136,40.691034358689784 9.8310622801172,37.91526183398499 11.322731548916959,35.56797946487534 13.909215296891606,34.54576933516734 16.602564643664046,35.23908097076501 18.374011682344527,37.38309289166581 18.546923853427465,40.15886541637061 17.055254584627704,42.50614778548026" fill="hsl(122 50% 50%)" />
  <polygon points="0.000008010282607884278,41.040704021116774 1.6335038875803938,38.789814653185566 4.278069387567609,37.928951688427524 6.923570374724496,38.786935519724224 8.559515389228523,41.03604548531818 8.561029039265092,43.81719802278861 6.927533161967307,46.06808739071982 4.282967661980092,46.92895035547786 1.6374666748232047,46.07096652418116 0.0015216603191765543,43.8218565585872" fill="hsl(126 50% 50%)" />
  <polygon points="49.17451763862357,45.05808156114234 49.61622095367419,42.31222834050436 51.58753847007267,40.35041311542451 54.33549389917284,39.92198262223625 56.81046166662823,41.19058274752063 58.06708820633132,43.671651361551376 57.6253848912807,46.417504582189345 55.65406737488222,48.379319807269205 52.90611194578205,48.807750300457464 50.43114417832666,47.539150175173084" fill="hsl(130 50% 50%)" />
  <polygon points="80.10341158837718,61.41611867383402 82.16811820055733,63.279394910314856 82.74329464545895,66.00042114779309 81.60924307065793,68.5398578478323 79.19913263273293,69.92772650329634 76.43354360233039,69.6339084597186 74.36883699015024,67.77063222323777 73.79366054524863,65.04960598575953 74.92771212004965,62.51016928572033 77.33782255797465,61.12230063025628" fill="hsl(133 50% 50%)" />
  <polygon points="95.5709504894396,71.48859347773542 92.93869389895514,70.59079786086836 91.33686460686502,68.31726434521113 91.3773069585725,65.53640545918276 93.0445733503103,63.310414779328894 95.70182468873497,62.48954508671325 98.33408127921945,63.38734070358031 99.93591057130956,65.66087421923754 99.89546821960208,68.44173310526591 98.22820182786428,70.66772378511978" fill="hsl(137 50% 50%)" />
  <polygon points="99.8377997662788,15.79407824611101 98.4454650816414,18.201611393083304 95.90393018171648,19.330952829619736 93.18397501468125,18.75073251186702 91.32453000646731,16.682574880243433 91.03583995000105,13.916445855936697 92.42817463463844,11.508912708964402 94.96970953456338,10.37957127242797 97.6896647015986,10.959791590180686 99.54910970981254,13.027949221804274" fill="hsl(140 50% 50%)" />
  <polygon points="11.311348739519245,42.78224673055031 13.962771601370463,43.62175166529896 15.614369136010348,45.859392680159495 15.635287220941995,48.640466962076005 14.017535858701073,50.90269866059459 11.379041084317171,51.78199215730855 8.727618222465953,50.942487222559905 7.076020687826069,48.70484620769937 7.05510260289442,45.92377192578286 8.672853965135342,43.661540227264275" fill="hsl(144 50% 50%)" />
  <polygon points="75.5865216289155,48.15757745540054 77.8212959985484,46.5021031292189 80.60232983665334,46.47636368225797 82.86736274093784,48.09019070840518 83.75122912760209,50.72715713563548 82.9163220784539,53.38003141593926 80.68154770882101,55.0355057421209 77.90051387071607,55.06124518908183 75.63548096643157,53.44741816293462 74.75161457976732,50.81045173570432" fill="hsl(148 50% 50%)" />
  <polygon points="11.397510932699767,30.650472137554843 12.113859735677185,27.96315821464084 14.272961583355148,26.210134843670495 17.050112955093375,26.060997369281566 19.38453641879126,27.572711237694303 20.384561555451462,30.16785313243963 19.668212752474044,32.85516705535363 17.50911090479608,34.60819042632398 14.731959533057854,34.75732790071291 12.39753606935997,33.24561403230017" fill="hsl(151 50% 50%)" />
  <polygon points="20.591316547109738,12.978289412413499 22.91064761900399,14.51305815941107 23.884911436583728,17.117980757410784 23.141972335542725,19.798065312039427 20.96560780090735,21.529610616152485 18.187115112998466,21.651225216639038 15.867784041104217,20.116456469641466 14.893520223524476,17.511533871641753 15.636459324565479,14.83144931701311 17.812823859200854,13.099904012900051" fill="hsl(155 50% 50%)" />
  <polygon points="32.80475430980411,80.98129342918037 33.36782191681875,83.70485113882145 32.22248612438113,86.23921844652882 29.806226276670618,87.61635318073482 27.041971509860993,87.31023668006081 24.985573191309616,85.43779504324706 24.42250558429498,82.71423733360598 25.567841376732606,80.17987002589861 27.984101224443112,78.80273529169261 30.748355991252737,79.10885179236662" fill="hsl(158 50% 50%)" />
  <polygon points="75.39631945025043,99.81376625229237 72.79205635777251,98.8377409078612 71.25885656145473,96.51737237842762 71.38235027194608,93.73896257580964 73.11536708923569,91.56376960993143 75.7959534921941,90.82264326166879 78.40021658467202,91.79866860609995 79.9334163809898,94.11903713553353 79.80992267049845,96.89744693815152 78.07690585320884,99.07263990402973" fill="hsl(162 50% 50%)" />
  <polygon points="90.25896726071913,48.3640466234973 91.7029803583379,45.987149927862404 94.26831631832839,44.9129697101176 96.97510399653657,45.551806303398635 98.78944250021635,47.65964584232935 99.01831618805967,50.43136526586912 97.5743030904409,52.808261961504016 95.00896713045042,53.88244217924882 92.30217945224223,53.243605585967785 90.48784094856245,51.13576604703707" fill="hsl(166 50% 50%)" />
  <polygon points="42.044205350281175,69.47698870727541 40.39933245016673,67.23439983048952 40.38676298911723,64.45327528519071 42.0112980740333,62.19591012073651 44.6524205183937,61.32454110492842 47.30131131690297,62.1720015850616 48.94618421701741,64.41459046184748 48.95875367806691,67.19571500714629 47.334218593150844,69.4530801716005 44.693096148790445,70.32444918740859" fill="hsl(169 50% 50%)" />
  <polygon points="71.34410094740778,43.089556962354486 68.59595478349482,42.66235163749882 66.62376282351387,40.70141548331094 66.18083536383841,37.9557594609221 67.4363556395138,35.47413084946901 69.9107575787967,34.20442743107254 72.65890374270967,34.6316327559282 74.63109570269062,36.592568910116086 75.07402316236607,39.33822493250492 73.81850288669068,41.81985354395801" fill="hsl(173 50% 50%)" />
  <polygon points="24.554109092234487,62.29008507528473 26.86413895055322,60.741352115252376 29.64331475709291,60.846202313912606 31.8300858144668,62.56458645910439 32.589179904372614,65.24014021309341 31.630648885125492,67.85089298058321 29.32061902680676,69.39962594061556 26.54144322026707,69.29477574195533 24.35467216289318,67.57639159676356 23.59557807298737,64.90083784277454" fill="hsl(176 50% 50%)" />
  <polygon points="90.25883987239453,17.76688679058544 88.99470155883543,20.244136485712396 86.51590134288399,21.505231730812348 83.76925665571306,21.068477005307994 81.80389241280264,19.100697769594866 81.37051095467078,16.353518809359088 82.63464926822988,13.87626911423213 85.11344948418132,12.615173869132178 87.86009417135224,13.05192859463653 89.82545841426267,15.01970783034966" fill="hsl(180 50% 50%)" />
  <polygon points="6.485806000075337,65.34048774072363 6.33017064723726,62.563692940101596 7.836418034313768,60.22573859137282 10.429212854907355,59.21964379160606 13.118195613405955,59.92970255840772 14.876266291225553,62.08469657686938 15.03190164406363,64.86149137749142 13.525654256987123,67.1994457262202 10.932859436393537,68.20554052598696 8.243876677894937,67.49548175918531" fill="hsl(184 50% 50%)" />
  <polygon points="37.510119133976374,90.97926924014557 36.100307788875924,88.58192827586021 36.36886811535061,85.81377237727746 38.21321919671687,83.73214301149743 40.92888160708042,83.13215184426821 43.47856460765284,84.24297510852163 44.88837595275329,86.64031607280701 44.61981562627861,89.40847197138974 42.775464544912346,91.49010133716978 40.0598021345488,92.090092504399" fill="hsl(187 50% 50%)" />
  <polygon points="89.78700704713651,62.85788190920386 91.3465657550645,65.16061688404153 91.25476159535602,67.94025422083114 89.54666063671108,70.1350669333173 86.87469938911578,70.90671116427066 84.25947623252895,69.96044504468979 82.69991752460096,67.65771006985213 82.79172168430945,64.87807273306252 84.49982264295438,62.683260020576355 87.17178389054968,61.911615789623" fill="hsl(191 50% 50%)" />
  <polygon points="77.6221243814882,60.838309932628846 75.2523624142863,62.2940021894668 72.47955026975085,62.078770828063845 70.36280794267591,60.27482691303099 69.71065905657858,57.57121570611225 70.77220232022263,55.000624795985445 73.14196428742454,53.54493253914749 75.91477643196,53.760163900550445 78.03151875903492,55.5641078155833 78.68366764513226,58.26771902250204" fill="hsl(194 50% 50%)" />
  <polygon points="27.276446572526147,70.50440155951975 30.005615678897126,69.9691934535975 32.52814729804282,71.14036635211626 33.880520089145875,73.5705720145446 33.5461736114655,76.33155447748733 31.652816855456777,78.36871228244274 28.923647749085802,78.903920388365 26.401116129940107,77.73274748984623 25.048743338837046,75.3025418274179 25.383089816517426,72.54155936447516" fill="hsl(198 50% 50%)" />
  <polygon points="72.66165812083216,87.34455598219378 70.10221383764554,86.25641229265734 68.6711747294764,83.87168195177914 68.915149096415,81.10125089577151 70.74094702267456,79.00332962454112 73.45117575701298,78.37925275797659 76.0106200401996,79.46739644751302 77.44165914836873,81.85212678839123 77.19768478143013,84.62255784439886 75.37188685517057,86.72047911562925" fill="hsl(202 50% 50%)" />
  <polygon points="8.167491185642751,83.19454201845663 9.966037471829676,85.3158724934788 10.174205214068216,88.08922388104331 8.71248141018458,90.45527021384717 6.139194871097528,91.51026221171635 3.4372535919457317,90.851228789324 1.6387073057588077,88.7298983143018 1.4305395635202665,85.95654692673732 2.8922633674039036,83.59050059393346 5.4655499064909545,82.53550859606428" fill="hsl(205 50% 50%)" />
  <polygon points="48.60189962454135,59.585659690768075 46.66842110621124,57.58654174853189 46.27925617066298,54.83275120080421 47.58305259604636,52.3761424389188 50.081804462275535,51.1550565128551 52.82107348590319,51.635906743185295 54.75455200423331,53.63502468542148 55.14371693978156,56.38881523314916 53.83992051439819,58.84542399503457 51.34116864816901,60.06650992109827" fill="hsl(209 50% 50%)" />
  <polygon points="43.14504452993105,19.279696120811465 40.914769155250035,20.94122658424152 38.13381537235828,20.974509992039543 35.86441300517783,19.366833213688118 34.97339662382216,16.732274135593556 35.80110420143619,14.07714478021839 38.03137957611721,12.415614316788336 40.81233335900897,12.382330908990312 43.081735726189414,13.990007687341738 43.972752107545084,16.6245667654363" fill="hsl(212 50% 50%)" />
  <polygon points="56.97151915514094,32.2680366758131 56.008083702863054,34.87698356241481 53.695147545028085,36.42137278071253 50.9161736801204,36.311300141175415 48.732635670687074,34.58880965087523 47.97857082060435,31.91183413180817 48.94200627288223,29.302887245206463 51.2549424307172,27.758498026908743 54.033916295624884,27.868570666445855 56.21745430505821,29.59106115674604" fill="hsl(216 50% 50%)" />
  <polygon points="92.0073291021441,61.388228558134685 90.73983879058108,58.91269224494748 91.16950132472691,56.16492918482639 93.1322002202303,54.19449147370626 95.87825120869084,53.754019344520415 98.35875614735684,55.011758179520825 99.62624645891987,57.48729449270803 99.19658392477403,60.23505755282912 97.23388502927064,62.20549526394925 94.4878340408101,62.645967393135095" fill="hsl(220 50% 50%)" />
  <polygon points="66.70497799592323,96.66262268338767 64.09212310333983,95.70983674829122 62.53831261264551,93.40321916255601 62.63704931920937,90.62381944488467 64.35061915706122,88.43327381910578 67.0244966902383,87.66829626035948 69.6373515828217,88.62108219545593 71.19116207351601,90.92769978119114 71.09242536695216,93.70709949886248 69.3788555291003,95.89764512464137" fill="hsl(223 50% 50%)" />
  <polygon points="91.22126054078802,32.98337508519372 92.7599116829837,30.666617784474766 95.36646237993794,29.69671820615649 98.04529885881395,30.44414502348228 99.7731966349842,32.62340659633685 99.89015748703699,35.402099074266296 98.35150634484131,37.71885637498525 95.74495564788707,38.68875595330353 93.06611916901106,37.94132913597774 91.33822139284081,35.76206756312317" fill="hsl(227 50% 50%)" />
  <polygon points="41.12969872421148,63.30588246436798 38.60032739411579,64.46220958171176 35.87435097658307,63.910970705297814 33.992999810580145,61.86272034999598 33.674886096745894,59.099820534062516 35.04151846147754,56.67760507967316 37.57088979157323,55.521277962329386 40.29686620910595,56.072516838743326 42.17821737510887,58.12076719404515 42.49633108894312,60.88366700997862" fill="hsl(230 50% 50%)" />
  <polygon points="68.52653418436282,1.7734219739328871 71.05609310699504,2.929338659834753 72.42311848282539,5.351332332338987 72.10545308177025,8.114283729086152 70.22443428998285,10.162839325782828 67.4985473524487,10.714520512334706 64.96898842981648,9.55860382643284 63.60196305398613,7.136610153928608 63.91962845504126,4.373658757181442 65.80064724682866,2.325103160484767" fill="hsl(234 50% 50%)" />
  <polygon points="65.30705190632281,37.52459408154028 65.02561884829649,40.29147086984593 63.171605350497856,42.36449901191133 60.45318155348492,42.95185221710254 57.90869295189007,41.82918152443772 56.510047707535854,39.425308980341434 56.79148076556217,36.65843219203578 58.6454942633608,34.585404049970386 61.36391806037374,33.99805084477917 63.90840666196859,35.12072153744399" fill="hsl(238 50% 50%)" />
  <polygon points="90.1011497067042,56.891983731731074 89.23247315909559,59.533992964010444 86.9767650063109,61.16082806852328 84.19562909401364,61.151093329437174 81.9513648133684,59.508507086211395 81.10120483984434,56.8604814543052 81.96988138745296,54.21847222202583 84.22558954023765,52.591637117512995 87.00672545253491,52.6013718565991 89.25098973318015,54.24395809982488" fill="hsl(241 50% 50%)" />
  <polygon points="60.39300140656895,1.3098559526727271 62.734819914752634,2.8100885354887994 63.747576298427084,5.400288573157951 63.044432041352096,8.091087688951825 60.89396435073601,9.854692077535324 58.1175787926857,10.01746480517803 55.77576028450201,8.517232222361958 54.76300390082756,5.927032184692806 55.46614815790255,3.2362330688989323 57.61661584851863,1.4726286803154327" fill="hsl(245 50% 50%)" />
  <polygon points="91.39690127919553,8.147900044301032 89.9598527296883,5.766786188523919 90.19683963985011,2.9957486694299282 92.01734106488802,0.8932296352117786 94.72598733700512,0.26231989494719965 97.28816764375341,1.344005525583893 98.72521619326065,3.725119381361006 98.48822928309883,6.496156900454997 96.66772785806093,8.598675934673148 93.95908158594382,9.229585674937727" fill="hsl(248 50% 50%)" />
  <polygon points="27.585900121440616,96.36132895555718 25.263149715494897,94.83174003055359 24.283074975580504,92.22899816244674 25.020031140829527,89.54726228091103 27.19252600433562,87.81086434384295 29.97074036862402,87.68304934520731 32.29349077456974,89.2126382702109 33.27356551448413,91.81538013831775 32.53660934923511,94.49711601985346 30.36411448572902,96.23351395692154" fill="hsl(252 50% 50%)" />
  <polygon points="46.80689806540521,40.60896233157376 44.676010653971865,42.396175404379996 41.90158903812282,42.589556958113114 39.543367975990016,41.11524181204432 38.5021077603223,38.53636824184313 39.175534402371696,35.8379782986376 41.30642181380504,34.05076522583136 44.080843429654074,33.857383672098244 46.43906449178688,35.331698818167034 47.4803247074546,37.91057238836823" fill="hsl(256 50% 50%)" />
  <polygon points="71.5269099089046,75.72790399421794 68.88844910471823,74.84850856974334 67.27078513657891,72.58621437711535 67.29181065793983,69.80514090536633 68.94349463427233,67.56756369549376 71.59494992529093,66.72816118921679 74.2334107294773,67.60755661369137 75.85107469761662,69.86985080631938 75.8300491762557,72.6509242780684 74.1783651999232,74.88850148794097" fill="hsl(259 50% 50%)" />
  <polygon points="40.33287455161114,98.34827609965093 38.036198447429655,99.91674369584041 35.256226326833186,99.83570829295371 33.054813052112465,98.13612266060152 32.2728236709256,95.46717074355138 33.20895154804447,92.84830145977726 35.505627652225954,91.27983386358778 38.28559977282242,91.36086926647448 40.487013047543144,93.06045489882668 41.26900242873001,95.72940681587681" fill="hsl(263 50% 50%)" />
  <polygon points="26.29442003577626,2.688279395380234 26.96864739256233,5.386469381125473 25.928152500770473,7.9656518306566575 23.57036904394453,9.440666711440084 20.795890164479797,9.24810847292836 18.664472493263073,7.461527817419153 17.990245136477,4.763337831673913 19.03074002826886,2.1841553821427286 21.3885234850948,0.7091405013593013 24.163002364559535,0.9016987398710263" fill="hsl(266 50% 50%)" />
  <polygon points="33.632341849576044,36.962302970173795 34.72743289571834,39.518782449550386 34.110719226669396,42.23069616097684 32.017764502679256,44.06218524124513 29.248006291397502,44.313683111717054 26.859398088914645,42.88912613397055 25.76430704277235,40.33264665459396 26.381020711821293,37.6207329431675 28.47397543581143,35.78924386289921 31.243733647093187,35.53774599242729" fill="hsl(270 50% 50%)" />
  <polygon points="14.157203244778854,78.2600652194822 11.405740613921788,78.6653615540471 8.941533377905376,77.37598401981634 7.705824945564452,74.88443101053555 8.170613937868401,72.1423910909779 10.158366757353926,70.19723031190539 12.909829388210992,69.79193397734049 15.374036624227404,71.08131151157124 16.60974505656833,73.57286452085204 16.14495606426438,76.31490444040969" fill="hsl(274 50% 50%)" />
  <polygon points="61.899872681184085,11.067245898276479 64.02981537263952,12.855584752892746 64.70181600222662,15.554330180243973 63.659193169904455,18.132653154065355 61.3001933601734,19.605721932331825 58.525874320896186,19.41087430951188 56.39593162944075,17.622535454895612 55.72393099985365,14.923790027544381 56.766553832175816,12.345467053723 59.125553641906876,10.872398275456531" fill="hsl(277 50% 50%)" />
  <polygon points="62.17921558906254,52.48615712283156 64.40929288052823,50.82436080501649 67.19024267601924,50.790745886110265 69.4598366746651,52.39815212260598 70.35116710964586,55.03260496589083 69.5237760500061,57.687832971588804 67.29369875854042,59.34962928940387 64.5127489630494,59.383244208310096 62.24315496440354,57.77583797181438 61.35182452942278,55.14138512852953" fill="hsl(281 50% 50%)" />
  <polygon points="61.610341481572156,59.06146977200291 64.3642792956437,59.449591201508504 66.36412973631731,61.38231206670145 66.84601790767212,64.12139868784415 65.62587890702713,66.6206130737902 63.1697643616294,67.9253402742809 60.415826547557856,67.53721884477531 58.415976106884244,65.60449797958235 57.934087935529426,62.86541135843965 59.15422693617442,60.366196972493604" fill="hsl(284 50% 50%)" />
  <polygon points="27.110847370018295,8.204415226809335 29.720565883779507,9.165758561288019 31.26680907755102,11.477455711333826 31.1589646061853,14.256516937325523 29.43822539224529,16.441435307751235 26.7618553296813,17.197646267752372 24.152136815920088,16.236302933273688 22.605893622148574,13.924605783227882 22.713738093514294,11.145544557236184 24.434477307454305,8.960626186810472" fill="hsl(288 50% 50%)" />
  <polygon points="93.63126937266134,19.65753748426606 96.39848504563697,19.379456296386333 98.80066157335065,20.781012452063333 99.92024916919294,23.326859136970086 99.32960342493487,26.044569447618457 97.25433093957255,27.8960704169168 94.48711526659692,28.17415160479653 92.08493873888324,26.77259544911953 90.96535114304095,24.22674876421278 91.55599688729902,21.50903845356441" fill="hsl(292 50% 50%)" />
  <polygon points="16.164954353915345,7.3483538574010705 13.960623158977308,9.044153288595005 11.18051586453984,9.120410479929447 8.886538964706544,7.547997776201242 7.954913665806624,4.927523385892444 8.74148916724057,2.2599194594523575 10.945820362178607,0.5641200282584213 13.725927656616074,0.4878628369239797 16.01990455644937,2.060275540652186 16.95152985534929,4.6807499309609835" fill="hsl(295 50% 50%)" />
  <polygon points="34.8243559452935,56.63573189117845 33.647089614025504,59.15542546641284 31.21362242130538,60.501920601855026 28.453456124244433,60.160901921452506 26.420880433717997,58.26262697032039 25.892270178800388,55.532172259798614 27.06953651006838,53.012478684564236 29.503003702788504,51.66598354912204 32.26316999984945,52.00700222952456 34.29574569037589,53.90527718065667" fill="hsl(299 50% 50%)" />
  <polygon points="78.42560740545551,0.43657508496874176 80.58137728856235,2.1936943008741694 81.29262299832857,4.882363352310918 80.287672847976,7.475602046130089 77.95038363793999,8.982881342234142 75.17352040491593,8.828471780050346 73.01775052180909,7.071352564144922 72.30650481204287,4.382683512708175 73.31145496239544,1.7894448188890015 75.64874417243144,0.282165522784946" fill="hsl(302 50% 50%)" />
  <polygon points="39.89671683383994,83.13688598094375 37.20505220924518,83.83670972769701 34.61610370724452,82.82075826143341 33.11876166047909,80.47709051134532 33.284959838028946,77.70090789962941 35.05121618493833,75.55261782498472 37.74288080953309,74.85279407823145 40.33182931153375,75.86874554449506 41.829171358299185,78.21241329458314 41.662973180749326,80.98859590629904" fill="hsl(306 50% 50%)" />
  <polygon points="88.37205725046513,85.40962671278912 90.53136123864853,83.65685233642749 93.308529790132,83.50803511811651 95.64277891073617,85.02001817713975 96.6425047745998,87.61527537536438 95.92584608115934,90.3025066726164 93.76654209297594,92.05528104897803 90.98937354149247,92.20409826728903 88.6551244208883,90.69211520826579 87.65539855702467,88.09685801004116" fill="hsl(310 50% 50%)" />
  <polygon points="61.73863519929627,83.40382913387094 59.602660005956345,81.6226998007648 58.92154132940635,78.92624118319446 59.95544335371603,76.34440882381422 62.309450646636414,74.863374930653 65.08441243203704,75.0488441124078 67.22038762537696,76.82997344551393 67.90150630192696,79.52643206308429 66.86760427761727,82.10826442246453 64.5135969846969,83.58929831562575" fill="hsl(313 50% 50%)" />
  <polygon points="46.95852358250617,91.24490831933187 45.58297336220411,88.82774607421021 45.89090217744421,86.06369260646407 47.76469168692025,84.00852239405047 50.48861798577537,83.44724060544506 53.02223381069661,84.59423780662877 54.39778403099867,87.01140005175043 54.08985521575857,89.77545351949657 52.21606570628253,91.83062373191017 49.49213940742741,92.39190552051558" fill="hsl(317 50% 50%)" />
  <polygon points="79.46551750129252,78.15392301767261 77.32334316172026,76.38025426993734 76.63282404846322,73.68618762598784 77.65771499290415,71.10076497585544 80.0065424890286,69.61152989660691 82.78213426702733,69.78731957127653 84.9243086065996,71.5609883190118 85.61482771985663,74.2550549629613 84.58993677541571,76.8404776130937 82.24110927929125,78.32971269234223" fill="hsl(320 50% 50%)" />
  <polygon points="35.982197151054955,10.299878372379093 33.35039118071067,11.198994083661475 30.692728469608465,10.37945723773479 29.02434584275617,8.154303054710148 28.98250875737154,5.373464802293955 30.583197558081267,3.0991281756933375 33.21500352842555,2.2000124644109533 35.87266623952776,3.019549310337637 37.54104886638006,5.244703493362279 37.58288595176469,8.025541745778472" fill="hsl(324 50% 50%)" />
  <polygon points="22.452070524379486,72.14521755748503 24.569639956314134,73.94819049925387 25.223028708064064,76.65150233233959 24.16266448432767,79.22257981869323 21.79357037811786,80.67935874623734 19.020659815459727,80.46539907874468 16.90309038352508,78.66242613697584 16.249701631775146,75.95911430389012 17.310065855511535,73.38803681753649 19.679159961721346,71.93125788999237" fill="hsl(328 50% 50%)" />
  <polygon points="7.3644972235152695,98.88674908202044 4.809931969947002,99.98629812279867 2.0969465562287453,99.37431620087071 0.26180919941818726,97.28455960991258 0.005479995792312842,94.51524433945615 1.4258679888270134,92.12415469725168 3.980433242395282,91.02460565647345 6.6934186561135345,91.63658757840142 8.528556012924092,93.72634416935955 8.784885216549966,96.49565943981598" fill="hsl(331 50% 50%)" />
  <polygon points="97.398355716263,77.19579546181261 95.54283028001606,79.26747040814352 92.82397868760019,79.85284015986655 90.28030983695146,78.72831336780956 88.88341877289331,76.32342104527844 89.16687040331495,73.5567503201964 91.02239583956188,71.48507537386547 93.74124743197775,70.89970562214246 96.2849162826265,72.02423241419945 97.68180734668464,74.42912473673057" fill="hsl(335 50% 50%)" />
  <polygon points="48.32050104034131,27.466948651155775 45.88686164955389,28.813132532883106 43.12673899167341,28.47176082745127 41.09440610889152,26.573225923537702 40.56614508597685,23.84270362560938 41.743733678751006,21.32316064443545 44.177373069538426,19.97697676270812 46.9374957274189,20.31834846813996 48.96982861020079,22.216883372053523 49.49808963311546,24.947405669981848" fill="hsl(338 50% 50%)" />
  <polygon points="28.432184185871723,33.80511120763488 27.566802032147685,36.44820134151805 25.313123761979874,38.07784730993821 22.531977874865326,38.07157974258808 20.285667572009828,36.431792637168634 19.432207039825105,33.784828933636305 20.297589193549147,31.14173879975313 22.551267463716957,29.51209283133298 25.3324133508315,29.518360398683107 27.578723653687,31.15814750410255" fill="hsl(342 50% 50%)" />
  <polygon points="65.25621706820498,20.943894393008534 64.52997617593533,18.259236892653966 65.52043703824395,15.660429664703136 67.84927727025548,14.140128740024362 70.6269590577097,14.279037398717044 72.79250236773065,16.024097254492236 73.51874326000029,18.7087547548468 72.52828239769167,21.307561982797633 70.19944216568014,22.827862907476405 67.42176037822593,22.688954248783723" fill="hsl(346 50% 50%)" />
  <polygon points="16.052916706299918,94.86573777608052 13.479594273315055,95.9206422190096 10.7776754188925,95.26151686527895 8.979201310577492,93.14012519716692 8.771127929859706,90.36676672844145 10.232932236019236,88.00077013116831 12.806254669004101,86.94586568823924 15.508173523426656,87.60499104196988 17.30664763174166,89.72638271008191 17.51472101245945,92.49974117880738" fill="hsl(349 50% 50%)" />
  <polygon points="1.502557725032057,66.05550124827899 4.089186472522343,65.03365808493568 6.782437428949855,65.72735183113564 8.553580269192445,67.87161505361371 8.726098627208469,70.64741208220966 7.234096353919129,72.99448279787079 4.647467606428842,74.0163259612141 1.9542166500013303,73.32263221501414 0.18307380975873944,71.17836899253608 0.010555451742715327,68.40257196394013" fill="hsl(353 50% 50%)" />
  <polygon points="32.995793574067825,68.71786259750054 34.74572322579741,66.55625256287074 37.43200855257009,65.83605615147978 40.02857986303882,66.83236391390328 41.5436351708174,69.16462014815083 41.398474843170355,71.9419822432137 39.64854519144077,74.1035922778435 36.96225986466809,74.82378868923446 34.36568855419936,73.82748092681096 32.85063324642078,71.49522469256341" fill="hsl(356 50% 50%)" />
</svg>
