<svg xmlns="http://www.w3.org/2000/svg" viewBox="0 0 100 100">
  <polygon points="24.266615710142446,23.046913242091005 26.35660355341756,30.55570481031037 18.80880538197964,28.611291592077585" fill="hsl(0 50% 50%)" />
  <polygon points="37.01527000725096,20.530024155851834 36.55013486590459,12.749686804535715 43.520672232830464,16.237036631594943" fill="hsl(4 50% 50%)" />
  <polygon points="88.65035662766522,6.588513762074445 91.5547667770727,13.82138329525551 83.83871294437567,12.720241501061208" fill="hsl(7 50% 50%)" />
  <polygon points="42.71899714058993,12.305300505115179 48.35647566049217,6.923029986306148 50.19891939986972,14.496364857235095" fill="hsl(11 50% 50%)" />
  <polygon points="62.546297556147074,98.17435346766328 54.752121200944956,98.20290069183923 58.62448675720211,91.43867235457022" fill="hsl(14 50% 50%)" />
  <polygon points="88.53774958656747,30.416293766536143 96.22378285852295,31.710470161929454 91.25997658715643,37.71968203207868" fill="hsl(18 50% 50%)" />
  <polygon points="17.11724158144109,88.71226569316435 18.536004393582736,81.04825159591194 24.46385389069458,86.10894328179747" fill="hsl(22 50% 50%)" />
  <polygon points="78.88990189101641,82.6516625446889 84.77600875024827,77.54248002282657 86.25763717713657,85.19458935324236" fill="hsl(25 50% 50%)" />
  <polygon points="87.41715564262266,45.83221168864251 95.19132385443974,46.39105747629122 90.82026509962951,52.844261747193904" fill="hsl(29 50% 50%)" />
  <polygon points="5.082993940336619,36.35085027049416 5.3832654417834185,28.562407741630075 11.978118776971439,32.716671754347544" fill="hsl(32 50% 50%)" />
  <polygon points="16.13036884569415,28.6767991328856 8.351103764237713,29.1595359063269 11.822673995824827,22.18112633629175" fill="hsl(36 50% 50%)" />
  <polygon points="39.93140451023083,69.32000258959187 47.70809433061101,68.79741724958016 44.27232160051637,75.79352086138711" fill="hsl(40 50% 50%)" />
  <polygon points="16.11621120418045,92.01793307571943 22.608962335911013,96.33003033127981 15.628201003141278,99.79686912402846" fill="hsl(43 50% 50%)" />
  <polygon points="59.24744695505803,44.12181813107845 65.74204205969711,48.431137616426234 58.76276436004311,51.900962221663846" fill="hsl(47 50% 50%)" />
  <polygon points="12.823963872421341,52.031439179864044 20.558594368147524,51.0694147027417 17.524416756534823,58.24881343948758" fill="hsl(50 50% 50%)" />
  <polygon points="12.112858362380065,65.93164058682984 13.569194073003246,58.27467733120665 19.472150912905338,63.36438268085637" fill="hsl(54 50% 50%)" />
  <polygon points="3.1280709073851787,74.51503561341696 10.694123086191745,72.6429099692423 8.532405363720027,80.13136618453471" fill="hsl(58 50% 50%)" />
  <polygon points="8.943127730395132,57.36353376966858 9.582986225026875,65.13145376841004 2.535840924235708,61.80162748021766" fill="hsl(61 50% 50%)" />
  <polygon points="52.61700024053097,19.689003244389188 46.058267531883885,23.90006311768983 45.69074905907179,16.114504038719208" fill="hsl(65 50% 50%)" />
  <polygon points="85.08991207160992,15.524954735501359 90.20785961881009,21.403442032766502 82.55796650995426,22.896470975245546" fill="hsl(68 50% 50%)" />
  <polygon points="2.2681475681994767,60.20737553862763 0.7707127990051417,52.558343631777724 8.143686129292053,55.086043034570295" fill="hsl(72 50% 50%)" />
  <polygon points="92.06877133716279,43.51245280471838 99.50915514329239,41.190667108861774 97.79968863498274,48.79512134680467" fill="hsl(76 50% 50%)" />
  <polygon points="30.439063498148375,55.893912009215306 27.246220819212187,48.783654937381435 35.000305410326376,49.57370060305247" fill="hsl(79 50% 50%)" />
  <polygon points="47.42277728282494,59.2485766907891 40.65516601905085,63.11502697269344 40.69052748433923,55.32087855437521" fill="hsl(83 50% 50%)" />
  <polygon points="83.35794515130164,98.20003067919032 75.57586994022398,98.63512309366192 79.0901064618365,91.67810205947173" fill="hsl(86 50% 50%)" />
  <polygon points="51.63122614544475,8.220187335210294 59.420973298201325,7.955916080396697 55.7549653419816,14.834170631148197" fill="hsl(90 50% 50%)" />
  <polygon points="79.13632680149313,19.118879965574823 77.68432102560217,11.461094435359232 85.04216071944724,14.032513312103726" fill="hsl(94 50% 50%)" />
  <polygon points="49.618428509462404,7.780835956820301 45.72855192694768,1.026662419458117 53.522776083129294,1.0350172500952635" fill="hsl(97 50% 50%)" />
  <polygon points="53.0153564174664,58.13360136081302 54.508222201421106,65.783526311497 47.136759965107004,63.25142352950035" fill="hsl(101 50% 50%)" />
  <polygon points="82.74935135174373,39.797810055144964 90.52066732517179,39.20060988674078 87.15219985544013,46.22936702476736" fill="hsl(104 50% 50%)" />
  <polygon points="65.80379075125089,17.892238039095602 68.47729577071524,25.213602045269514 60.80005604128345,23.868243306183906" fill="hsl(108 50% 50%)" />
  <polygon points="68.76323111650619,52.290022281433615 68.83360648514056,44.496111369222106 75.54814364563128,48.45401368236592" fill="hsl(112 50% 50%)" />
  <polygon points="53.83077755037716,28.881249425623732 58.0082173252801,22.301052093699802 61.618115489189336,29.208919727507265" fill="hsl(115 50% 50%)" />
  <polygon points="25.423593411229415,54.953740952657014 19.801450353037215,49.55545349891567 27.287575954004136,47.38567851368156" fill="hsl(119 50% 50%)" />
  <polygon points="8.158042470038694,38.871425402054136 0.873531395368746,41.643770691337366 2.114865484122329,33.94902640188249" fill="hsl(122 50% 50%)" />
  <polygon points="3.7296459628839247,45.197883494692285 9.840493209231308,50.036018045509216 2.5951221581229413,52.909099724083774" fill="hsl(126 50% 50%)" />
  <polygon points="57.91106670416984,46.46640643175051 57.08227537741867,54.21644545982656 50.78494036215953,49.62367160238581" fill="hsl(130 50% 50%)" />
  <polygon points="79.32155484354715,59.71161685740107 77.79268031653825,52.06880698925288 85.17598508215343,54.56616774373836" fill="hsl(133 50% 50%)" />
  <polygon points="94.62883647218149,58.613082112221385 99.89565187240363,64.35857212961614 92.2865038600388,66.04702305455426" fill="hsl(137 50% 50%)" />
  <polygon points="93.17484398838232,13.003520785825593 93.21032010552649,20.7976686831337 86.44265196703252,16.93131795315413" fill="hsl(140 50% 50%)" />
  <polygon points="9.559124873890386,60.754973724598045 8.766808440027294,53.00112083273645 15.87800023851842,56.191881119105915" fill="hsl(144 50% 50%)" />
  <polygon points="79.87867960129225,59.322752822204265 87.12166679393307,56.44366676457404 85.99353486320203,64.15582070150145" fill="hsl(148 50% 50%)" />
  <polygon points="8.04552835205491,27.894332662887006 0.25771537288748814,27.578153913583062 4.4254406915052105,20.99179940835387" fill="hsl(151 50% 50%)" />
  <polygon points="24.375733175852886,10.987077560658307 18.537481694455302,16.15087651491271 16.98462636073426,8.512902941213067" fill="hsl(155 50% 50%)" />
  <polygon points="24.132737094276276,79.20056706444647 31.132811402537726,82.62824261484765 24.664320145828782,86.97664701898026" fill="hsl(158 50% 50%)" />
  <polygon points="71.0029172040732,96.42013869678772 70.56943959952469,88.63797337045631 77.52573127085236,92.15365341611137" fill="hsl(162 50% 50%)" />
  <polygon points="82.07153670711648,52.3768264362857 84.33167661984135,44.917485475121104 89.66158543133729,50.604494536230284" fill="hsl(166 50% 50%)" />
  <polygon points="50.12302131799255,67.22720866590974 42.4134622458562,68.37293939921496 45.27600986098548,61.12340002411549" fill="hsl(169 50% 50%)" />
  <polygon points="79.97919711664733,42.249077723216594 81.31271594149342,49.92838287041455 73.99548318818435,47.24359147555707" fill="hsl(173 50% 50%)" />
  <polygon points="1.2964682493528479,69.68893204003724 0.22838798355081336,61.96823229546718 7.448750230241533,64.90359752428681" fill="hsl(176 50% 50%)" />
  <polygon points="93.24962145222688,16.635404236830535 99.99983453565108,12.738659014421362 99.99940834862097,20.532887636829393" fill="hsl(180 50% 50%)" />
  <polygon points="23.84248104601347,60.462011989776414 26.456290666996946,67.80489965507908 18.790258601217683,66.39708135485562" fill="hsl(184 50% 50%)" />
  <polygon points="41.37783775729419,92.34526817477371 37.679707234814316,85.48423103461022 45.47060495574436,85.71207462571377" fill="hsl(187 50% 50%)" />
  <polygon points="99.99306507582813,53.92144457937746 99.93198199533232,61.715433856844875 93.21273082446992,57.76553971866039" fill="hsl(191 50% 50%)" />
  <polygon points="77.58891204958965,57.93546937583517 69.80977989296537,57.45059527900801 74.11925925676685,50.95610626038853" fill="hsl(194 50% 50%)" />
  <polygon points="27.125078007497994,71.48284067146217 29.652988701852586,78.85574156062158 22.00391388507836,77.35852599585131" fill="hsl(198 50% 50%)" />
  <polygon points="77.67066145302283,88.53698914842658 70.03324830194114,86.98137982739367 75.19915206786035,81.14499067987603" fill="hsl(202 50% 50%)" />
  <polygon points="7.974068167771308,83.10570042916655 0.22087616532175325,83.90445807273076 3.4057277557529226,76.790618016409" fill="hsl(205 50% 50%)" />
  <polygon points="47.81071059088292,50.75709180941255 54.74466370779109,54.316627477518644 48.19503883508032,58.54183919135836" fill="hsl(209 50% 50%)" />
  <polygon points="30.425351504986036,0.7685691760046538 36.57077855381761,5.562703757708555 29.346222692484773,8.487732408248785" fill="hsl(212 50% 50%)" />
  <polygon points="48.012457784959885,34.883138133229416 47.04214649024354,42.616733415589735 40.82981216049018,37.90962154360625" fill="hsl(216 50% 50%)" />
  <polygon points="87.6838818194959,53.91533062905506 94.04430529345663,58.420329322938244 86.9626502435577,61.67611828327353" fill="hsl(220 50% 50%)" />
  <polygon points="70.5122513313738,96.68985094448355 62.840003792363085,98.06339297155951 65.4866052732551,90.7322606851156" fill="hsl(223 50% 50%)" />
  <polygon points="98.59453621863831,41.23729565413441 91.85213062981232,37.32705693050538 98.60969949374969,33.4430817697784" fill="hsl(227 50% 50%)" />
  <polygon points="39.54656650314187,52.61829809338909 43.37784079857455,45.83071109408243 47.340426422654765,52.5424854624468" fill="hsl(230 50% 50%)" />
  <polygon points="73.1449752241724,7.378841323908984 68.07510238941198,1.458842215855141 75.73690842474804,0.028203101022912236" fill="hsl(234 50% 50%)" />
  <polygon points="62.4659182546945,36.345226075435356 67.7942011856913,42.03375848786372 60.203646140778766,43.80392065844378" fill="hsl(238 50% 50%)" />
  <polygon points="91.26395394504492,56.20978429976632 93.58723467943972,48.76986718805129 98.86875153303808,54.501845880017655" fill="hsl(241 50% 50%)" />
  <polygon points="54.5744689757725,2.7506337521419724 62.12306168349426,0.8093073671850637 60.03000329604307,8.317243607372525" fill="hsl(245 50% 50%)" />
  <polygon points="78.73973276138761,7.958102418224177 79.53777478965094,0.20483672426493094 85.85327882877837,4.772594241008243" fill="hsl(248 50% 50%)" />
  <polygon points="31.52478715823306,83.98041160468367 31.259906016401196,91.77013804280085 24.646245603376375,87.64588102593244" fill="hsl(252 50% 50%)" />
  <polygon points="44.583318317614214,34.49052906129747 45.86494980422446,26.80239399923403 51.88225433239212,31.756386955960235" fill="hsl(256 50% 50%)" />
  <polygon points="84.12799215405926,64.7708764236316 77.69304975886108,69.1687755096136 77.1018286247194,61.3970023804915" fill="hsl(259 50% 50%)" />
  <polygon points="29.507857216671294,98.31877082589813 32.11852744398661,90.97476640295493 37.17328672610304,96.90767535218528" fill="hsl(263 50% 50%)" />
  <polygon points="21.131439621360254,8.31651318338925 21.86748262416547,0.5571162546310964 28.219295981114378,5.074246657717272" fill="hsl(266 50% 50%)" />
  <polygon points="30.24773361005914,47.85762156927063 28.585743325715217,40.24265024333995 36.011497085233216,42.61081009922053" fill="hsl(270 50% 50%)" />
  <polygon points="17.51702493082662,78.63657346362787 12.724337856782535,72.49001746776393 20.443755032006294,71.41270670718441" fill="hsl(274 50% 50%)" />
  <polygon points="56.09410659625181,22.329163083143825 50.56445492594472,16.836171875698653 58.08635068951035,14.793848658856243" fill="hsl(277 50% 50%)" />
  <polygon points="68.23496285713341,52.95784910746409 65.87824779312054,60.38724303342164 60.622561450525936,54.63157095552626" fill="hsl(281 50% 50%)" />
  <polygon points="57.812734957438884,53.06590465557686 62.06215607006549,59.599848350433994 54.27888428710875,60.012983137918" fill="hsl(284 50% 50%)" />
  <polygon points="28.348675098123117,6.263282482512146 31.07944777173218,13.563479781563043 23.391905121311027,12.278299639343397" fill="hsl(288 50% 50%)" />
  <polygon points="98.3740146205346,21.00083272762063 94.51366433880047,27.771925379646245 90.5799012316352,21.04321764214527" fill="hsl(292 50% 50%)" />
  <polygon points="14.236990964488431,8.135585817875015 14.221450684042097,0.3413726760829787 20.979207407567685,4.225020969330529" fill="hsl(295 50% 50%)" />
  <polygon points="25.668970790881062,62.297651640506096 21.857888411889626,55.49870678850583 29.651488562147005,55.597685058384144" fill="hsl(299 50% 50%)" />
  <polygon points="72.9668810214011,9.036839961713872 65.50330602004186,11.282958435678585 67.2898978623585,3.6962536444686567" fill="hsl(302 50% 50%)" />
  <polygon points="38.74757069174491,74.69691294051852 34.340582782255524,81.12563424149388 30.976640776505405,74.09471010721751" fill="hsl(306 50% 50%)" />
  <polygon points="89.89939763666095,80.19529070360534 93.30585122444259,87.20571679295894 85.53141734581835,86.65057909211369" fill="hsl(310 50% 50%)" />
  <polygon points="73.33912246622288,80.34077723343326 67.64991926371832,85.6683439313369 65.88071276423005,78.07756608172437" fill="hsl(313 50% 50%)" />
  <polygon points="45.735764416821326,91.12196667772669 49.05327196944206,84.06901384658536 53.502554516593456,90.46853607997232" fill="hsl(317 50% 50%)" />
  <polygon points="87.44548884412691,72.30653417235558 80.56561399298964,75.96950046112879 80.83332955927469,68.17987092079962" fill="hsl(320 50% 50%)" />
  <polygon points="44.37668681186799,2.449252982686694 39.85271057483551,8.796192324350947 36.61808798719162,1.7048443061315677" fill="hsl(324 50% 50%)" />
  <polygon points="9.722448063777062,66.21173387432296 16.999594766233006,69.0033527363696 10.943408562788838,73.90973721673929" fill="hsl(328 50% 50%)" />
  <polygon points="0.19316625343682148,89.19886241964879 7.971896146960164,88.70757712208095 4.5079967483980345,95.68979746783351" fill="hsl(331 50% 50%)" />
  <polygon points="97.76703906909489,65.52712258767434 95.40633251148218,72.95524917173606 90.15373946596456,67.19675402993208" fill="hsl(335 50% 50%)" />
  <polygon points="55.24239375151281,24.093491612251373 52.40409889639982,31.3525605825422 47.53670818786111,25.264990649438264" fill="hsl(338 50% 50%)" />
  <polygon points="29.13078345079621,30.945459144641575 28.721379574788063,38.7289280670636 22.18539969640797,34.48263944882172" fill="hsl(342 50% 50%)" />
  <polygon points="71.7726116883004,12.089203032602748 74.85079718201693,4.928562414175296 79.51300111808756,11.174669558508286" fill="hsl(346 50% 50%)" />
  <polygon points="7.575950111132821,89.63884233314795 15.312158446357849,90.58809498339171 10.62197736902454,96.81322160554363" fill="hsl(349 50% 50%)" />
  <polygon points="9.78989720421001,72.85403614444947 2.0497605568968016,71.93736571244075 6.713688761570996,65.69254596310896" fill="hsl(353 50% 50%)" />
  <polygon points="31.52352571523298,60.55914868444756 38.24003525491316,64.51370297075913 31.457036012482614,68.3530937137269" fill="hsl(356 50% 50%)" />
</svg>
