<svg xmlns="http://www.w3.org/2000/svg" viewBox="0 0 100 100">
  <polygon points="19.917693172278987,22.4962851499872 22.72963382827968,21.244011297823956 25.688651458294313,22.092194484962192 27.410188827421212,24.643960371633817 27.088719467889234,27.70530933974632 24.874662465757357,29.843802184015896 21.80399969882576,30.05881433590821 19.31352840235704,28.24973921995895 18.56856777447429,25.263063188551133" fill="hsl(0 50% 50%)" />
  <polygon points="37.73450616940789,20.396735661313958 36.128150134588985,23.02253465268445 33.20977896326497,24.001467622844437 30.344930960581095,22.87548095542798 28.874100346232147,20.171436326067127 29.48550511113345,17.154586268948382 31.893062170780617,15.236548454351269 34.970248819948466,15.314794092341632 37.27721522637118,17.352711179300385" fill="hsl(4 50% 50%)" />
  <polygon points="81.11705623290635,13.0644799660934 78.94095673894826,10.88737384877236 78.67338465111436,7.8208440133568295 80.43953992303469,5.299753850520625 83.41301887434825,4.50374946625097 86.20249765719797,5.805290158550948 87.50274814748501,8.595370572479851 86.70536869012953,11.56848107407055 84.18346199511372,13.333470217186102" fill="hsl(7 50% 50%)" />
  <polygon points="47.516034116354845,4.653075446886763 46.76337208337027,7.637819978297269 44.268242712585476,9.440465111630083 41.19814476686477,9.217533154829717 38.98961119534887,7.073336448095784 38.676039401266664,4.0111684606010645 40.404153112031516,1.4638516259006913 43.365348716531976,0.6233038012241163 46.17404988139898,1.882826655386022" fill="hsl(11 50% 50%)" />
  <polygon points="55.332821956979416,89.66218514111222 58.39386228200438,89.98658024319059 60.53023806089389,92.20268010218963 60.742315323533504,95.27354696487721 58.93086076175791,97.76228809731823 55.94347409709687,98.50439386436679 53.177986751049794,97.15262473003398 51.928400987800416,94.33948849551459 52.77941187357195,91.38128286946699" fill="hsl(14 50% 50%)" />
  <polygon points="88.26992116409072,35.06979812930664 85.5008201124546,33.72544720060195 84.24369775945581,30.915670796104223 85.08677562542115,27.955194522664307 87.63556820709869,26.229258130653573 90.69746712884721,26.54544643954021 92.83977585596459,28.755811425554537 93.06008432592319,31.826098746269956 91.25530775717344,34.31968684188105" fill="hsl(18 50% 50%)" />
  <polygon points="18.47949065338171,90.92884158483243 16.282538579151716,88.77277998153397 15.985465335210261,85.70896739891481 17.727274793998895,83.17099579486644 20.692954951694563,82.34641028933558 23.494831102647893,83.62104360460721 24.821874256443003,86.39848064649438 24.05314617297733,89.3791277553237 21.548343265965453,91.16830702267123" fill="hsl(22 50% 50%)" />
  <polygon points="91.57750717389936,74.669970222769 94.35173169073555,76.00371621952642 95.61959556463763,78.80866207478554 94.78785119826945,81.77234244936986 92.24568102446362,83.50801835837288 89.18259472061831,83.20354775408308 87.03184441071501,81.00139581606149 86.79979006768465,77.93197391030102 88.59501249762788,75.43149865933171" fill="hsl(25 50% 50%)" />
  <polygon points="84.37914943140325,47.186667076772586 81.34622834779714,46.66074906576809 79.36092958646697,44.30834840220283 79.35219650197715,41.23017950058019 81.32411540161787,38.86655180000613 84.35400351680985,38.32343297037505 87.0241425249992,39.85495434816478 88.08514470896458,42.74450005974335 87.04055535510278,45.640019552939684" fill="hsl(29 50% 50%)" />
  <polygon points="5.11114766880044,28.85948010876354 7.7791279892543646,30.39475893143777 8.836061283459753,33.28579543506091 7.7873967165527755,36.17984150929594 5.123816093997668,37.722740832268876 2.0916383914891883,37.19255366334474 0.10965325493251576,34.83736047123718 0.10525355703369765,31.75918232559002 2.0804979653367885,29.39833299089101" fill="hsl(32 50% 50%)" />
  <polygon points="11.10478762226882,25.50121618513249 9.804871198204644,22.7109801119427 10.602606620978015,19.73796510206905 13.124724620431602,17.97327792001281 16.19109815440179,18.242635310571504 18.366936967398125,20.420001957128783 18.63414189706481,23.486563807025696 16.8676847871588,26.007442489656796 13.894110551389094,26.803090852973163" fill="hsl(36 50% 50%)" />
  <polygon points="49.23523210060337,77.55662305557527 47.10380893750404,79.77748670593408 44.04350043022286,80.10871456397723 41.48625894085723,78.39532143373874 40.62864618285474,75.43902300310074 41.871948696988845,72.62310416335603 44.63441141912793,71.26516463507309 47.62344734022977,72.00059941535228 49.44045333337682,74.48529039705384" fill="hsl(40 50% 50%)" />
  <polygon points="22.159390887594675,92.28663467123866 23.683519402194506,94.96100045113211 23.132020394317696,97.98937442044176 20.762946378978555,99.95474674229995 17.684813417279123,99.93749786462891 15.337914131635857,97.94569872899086 14.820388780681434,94.91133428733245 16.374393227781027,92.25421738511004 19.2727915213011,91.21764255143844" fill="hsl(43 50% 50%)" />
  <polygon points="66.36946293564037,49.08834418756191 64.32012736014332,51.385173252312605 61.2738719660581,51.82735887813969 58.656073507634765,50.20799749637285 57.69162897715874,47.284806294737855 58.83181268904677,44.42557892413113 61.54312001277599,42.968179648032205 64.55690011874907,43.59454178491651 66.46297180094626,46.01158352969614" fill="hsl(47 50% 50%)" />
  <polygon points="19.85575276348451,48.18647247977569 22.93111059243182,48.318284002845125 25.202244554056406,50.39605939543134 25.606465826871712,53.44758445944194 23.954634784908407,56.04501670350296 21.019661530758274,56.97298871337434 18.174852668632496,55.79729207237717 16.751325881648487,53.06804830524673 17.41516517417404,50.062300902789126" fill="hsl(50 50% 50%)" />
  <polygon points="24.589445427345925,62.3136415928003 27.06182167223834,64.1473688782419 27.777074577311545,67.14129829215028 26.40052935913119,69.89453698793862 23.576286823879872,71.11881398100782 20.625841441761168,70.24127645997764 18.929739397616316,67.6725339836813 19.28160568797522,64.6145297051705 21.516798165020727,62.498137812292285" fill="hsl(54 50% 50%)" />
  <polygon points="8.812624137987338,74.94150686071133 8.83848821120009,78.01957948873658 6.879754293751229,80.39414502674913 3.852935754517748,80.95411786915656 1.1743146273479792,79.43748049959153 0.09724750720247854,76.55388439882033 1.125706069865,73.6525962299947 3.778463123822015,72.09116097153449 6.814264161416377,72.60019153429315" fill="hsl(58 50% 50%)" />
  <polygon points="4.536372513175082,60.92380545810576 5.458716631449727,57.98705872384938 8.052977631464902,56.330251578318666 11.105271959314091,56.72862249826782 13.187397176523781,58.99576930285301 13.32510375371737,62.070868805678735 11.45395725298783,64.5150477734487 8.44948791750349,65.18464770311988 5.717520340294726,63.76635534582487" fill="hsl(61 50% 50%)" />
  <polygon points="54.31669124987828,26.95794328622558 51.238674097084036,26.98973103206882 48.8603433921932,25.035570569912533 48.29454650422572,22.00983529807402 49.80602608519355,19.32830037754833 52.687544040937446,18.24568579959046 55.59080609545995,19.2685589571477 57.157343667286376,21.91830613183014 56.65415641643331,24.955081171944304" fill="hsl(65 50% 50%)" />
  <polygon points="79.21289267582809,22.64710124476715 81.01608872924353,20.152369987371213 84.00099938756836,19.400367051538957 86.77095178018556,20.74296296852798 88.02985439799781,23.551942187487576 87.18865271498662,26.51295211353992 84.64095434754826,28.2405032943254 81.57885567632054,27.92625533276174 79.43514670100693,25.71724834254165" fill="hsl(68 50% 50%)" />
  <polygon points="4.95619940300055,49.23043296662752 7.661389522991433,50.69915570029276 8.789608606725848,53.56312527987612 7.812950406166034,56.48225850961413 5.188404147700766,58.09066050876028 2.1440241942485327,57.63574210651701 0.10430976054400976,55.330364679148815 0.02366589901839422,52.25323994633741 1.9398267687362107,49.84418876899733" fill="hsl(72 50% 50%)" />
  <polygon points="96.83713307729592,48.04467150451472 93.81013693531405,48.60368349911615 91.13199737761029,47.08619591658253 90.05584566744001,44.202258061777236 91.08522515008589,41.30129650836274 93.73847772533932,39.74070340777807 96.77411702562144,40.25069761584718 98.77173368495743,42.59264717466025 98.79662066740775,45.67072785777853" fill="hsl(76 50% 50%)" />
  <polygon points="34.6084484911748,52.15703155655596 31.94801566141691,50.60871078487205 30.9052472837483,47.71253500218624 31.96806627115972,44.823657044625705 34.639167807524046,43.29381501483521 37.66871379798955,43.83883900085401 39.639146003964164,46.20370622235702 39.62847729735772,49.281869023831426 37.64169968456084,51.63302082049843" fill="hsl(79 50% 50%)" />
  <polygon points="43.42309713831903,57.12416990165097 40.36170427342147,56.80311884584255 38.222908921813044,54.589354066644106 38.00747719857393,51.51872070749755 39.81621200126462,49.028002243436056 42.80278621385794,48.28263352504631 45.56974857020636,49.631380859513456 46.82240663241323,52.443150379383376 45.97462777142833,55.402283876971566" fill="hsl(83 50% 50%)" />
  <polygon points="78.45252906564653,88.82439895331517 80.33103915908161,86.38587483357718 83.33751446758981,85.72533999497146 86.06519178106899,87.15186602950865 87.23776056978564,89.99796555155791 86.30656286584875,92.93191696387953 83.70731642404006,94.58089179341039 80.65623754188834,94.17331639109914 78.58095993731703,91.89989981738323" fill="hsl(86 50% 50%)" />
  <polygon points="44.780954708359275,18.848722836927745 43.243580177294945,16.18194957980292 43.78005176830373,13.150877445108353 46.139348461735,11.173778771282068 49.21752911407023,11.175760000811582 51.574278787914466,13.155894094381123 52.106848118520915,16.187654302870374 50.56604199725001,18.852446330465682 47.672820732397,19.90338437159071" fill="hsl(90 50% 50%)" />
  <polygon points="74.06460177131613,15.859409782383679 75.6752676477111,13.23625224073693 78.59524245807116,12.262113051224395 81.45823753672362,13.39280276697014 82.92462566772095,16.099259103760282 82.30826754748077,19.11510106269901 79.89756399052091,21.029182673848993 76.8205099831286,20.945883878705597 74.51689329300874,18.904181109279406" fill="hsl(94 50% 50%)" />
  <polygon points="56.550065762644195,3.668120222905439 56.07708099570309,6.709745687015552 53.75963448167088,8.73573722408607 50.682085200012345,8.798110877533851 48.28445266276591,6.867681321704736 47.68861578082666,3.8477180001058944 49.173373253243305,1.1512953140671636 52.043990557430845,0.040099405786163445 54.9572739534023,1.0340711903144864" fill="hsl(97 50% 50%)" />
  <polygon points="53.98759054116528,71.51683679131379 51.14440421652852,70.33722177908315 49.72463904585075,67.60601931243741 50.392618931424366,64.60118937945444 52.835788661019976,62.72872530074182 55.91096196535278,62.86477382884939 58.17923107858112,64.94567634546465 58.57924767362227,67.99775543640791 56.92383953996723,70.59290937494607" fill="hsl(101 50% 50%)" />
  <polygon points="83.23916958683652,30.726855761135347 85.21519445558904,33.087051891068825 85.21181249701046,36.165231323141874 83.23060616710598,38.52107969093378 80.1986039262936,39.05226936081654 77.53451332000088,37.510250782736414 76.48489195098122,34.61655158700465 77.54086932304108,31.72516578718841 80.20834188791238,30.189004933195484" fill="hsl(104 50% 50%)" />
  <polygon points="68.02839487552878,22.33656348020008 71.10439486061428,22.220700865714623 73.53522260924022,24.10915963153174 74.18346680218337,27.118308933244244 72.74580677713391,29.840134369611572 69.8949396376239,31.001063569237218 66.9648178020891,30.05788485732547 65.32647784205307,27.4519220354436 65.74651723293712,24.40253407000084" fill="hsl(108 50% 50%)" />
  <polygon points="67.42522789876463,49.88439442297134 67.42375053917667,46.80621348756647 69.40123538172539,44.447240458646576 72.43239529128626,43.91126503350821 75.09891685858582,45.44907607027693 76.1531050071984,48.34111469398274 75.10169338639196,51.234163891164584 72.43664917868038,52.774533789800735 69.40497618751907,52.24146819501482" fill="hsl(112 50% 50%)" />
  <polygon points="64.01639284987948,29.98025025525777 61.398912485095806,31.60012574234106 58.352570304348156,31.158538410685118 56.30278367033044,28.862111880468277 56.208670529940456,25.785369647117015 58.11426746751772,23.36795359579743 61.1279244976189,22.74099956350872 63.83951800279256,24.197866309776693 64.98026324596296,27.056869692752215" fill="hsl(115 50% 50%)" />
  <polygon points="20.248368060167103,39.32884840316582 23.270736664243167,39.912361963228236 25.210930051960695,42.30210037400431 25.16111017435903,45.379878474107876 23.144588305854253,47.70556968480706 20.104917439863957,48.19095724143699 17.464393356763694,46.60892291176874 16.458546621192404,43.699718141007146 17.55802409946517,40.82459217360114" fill="hsl(119 50% 50%)" />
  <polygon points="16.41396385737616,37.09644603103515 17.638372113753153,39.92063166151294 16.760971723933853,42.87111782647395 14.192308081533863,44.56733925833177 11.134287452348627,44.21561509771876 9.017791674887517,41.980520988364376 8.833152645655023,38.90788230433961 10.666765018463265,36.435420834474826 13.660661185743672,35.7200287788682" fill="hsl(122 50% 50%)" />
  <polygon points="2.404530118075798,42.33340812936855 4.968294293007388,40.62979041725743 8.027315949668802,40.97269938149989 10.150244857669385,43.201684106718275 10.343738987228948,46.27377786757704 8.517260284678853,48.75151385085135 5.525438433991973,49.475531852999026 2.7681801295008217,48.10705580425138 1.5356371753895006,45.286410856734605" fill="hsl(126 50% 50%)" />
  <polygon points="55.087305287906716,50.16802551259894 52.03422511245262,50.5603283241241 49.44326262315572,48.8983676047514 48.526757964098614,45.95979324571129 49.713553851068816,43.119596848214805 52.448335298785885,41.706737871917476 55.451467674152745,42.38230873400728 57.31775196263665,44.8302023199786 57.17393300421648,47.90502201564863" fill="hsl(130 50% 50%)" />
  <polygon points="82.24537522954417,68.39434162305908 79.21875503310974,68.95538550745368 76.53959739282021,67.43969609594498 75.46150994408755,64.55648130918931 76.48894178578114,61.65482938927274 79.14114614053953,60.0924555177932 82.1771271148032,60.60041179306739 84.17631546954404,62.94101982858935 84.20326875507517,66.01908311157761" fill="hsl(133 50% 50%)" />
  <polygon points="99.45824967748233,64.10594667963264 97.73062268761205,66.65359364056603 94.76958773189601,67.49470721476935 91.96064597435164,66.23572101293674 90.61813248124423,63.46572867097874 91.37022423637426,60.480840390733256 93.86500914894756,58.67771857186523 96.93514963192524,58.90006395288982 99.14409283251126,61.04383865893199" fill="hsl(137 50% 50%)" />
  <polygon points="91.20408414624139,13.70987514883493 92.3836420502494,10.866665131130716 95.11481599906874,9.446845102052372 98.11965934842944,10.114764632747601 99.99217250005168,12.557896751705384 99.85618573962583,15.63307278807635 97.77532878367963,17.901383697667825 94.72325772804936,18.30146159641426 92.1280705396559,16.64610558912164" fill="hsl(140 50% 50%)" />
  <polygon points="16.723877060904,53.19940542929125 14.644784447462968,55.46933361282841 11.593025392950787,55.8717845127955 8.996551875497664,54.218446880354385 8.070282710508733,51.28293576852529 9.247629534617408,48.438809451105016 11.977698684070793,47.016866240957626 14.98306046250076,47.682449169249566 16.85747269290426,50.12412458670274" fill="hsl(144 50% 50%)" />
  <polygon points="82.00676763141097,46.89355107181343 83.98867382185101,49.24881069783702 83.99297034061779,52.32698898923079 82.01764679882984,54.68777211331053 78.98697903496556,55.22652340913746 76.31905017785738,53.69115515784045 75.2622137904727,50.80008322791876 76.31097536389694,47.90607230606824 78.97460770223834,46.363262265971485" fill="hsl(148 50% 50%)" />
  <polygon points="16.930518030061464,27.60093174453453 19.063101457802702,29.82068127486556 19.269927647407204,32.89190627166652 17.45422032614196,35.37754642607045 14.465569128966099,36.114543085018546 11.70239716619643,34.75804732098349 10.457623308448575,31.942778577728443 11.313691077883202,28.986032388449317 13.870036851048365,27.271303155683405" fill="hsl(151 50% 50%)" />
  <polygon points="14.677563202622569,9.8316951897073 16.45467696036367,12.345072747044977 16.200457126950646,15.412738362782918 14.033855987776192,17.59929720201166 10.968650294949539,17.88163408296144 8.439083858110958,16.127640441210943 7.62876892605668,13.158029395203194 8.916860861142235,10.362314956915737 11.700647131393834,9.048642982928289" fill="hsl(155 50% 50%)" />
  <polygon points="27.515562747437183,77.33412273958173 30.569635670602285,77.71862063771793 32.66204077740057,79.97628335006578 32.81371846386866,83.05072540239155 30.953697054798425,85.50338118979462 27.95230123932917,86.1866258111163 25.21391747631784,84.78076151462204 24.019865962222973,81.94360782908277 24.928856670893946,79.00270049541324" fill="hsl(158 50% 50%)" />
  <polygon points="77.84310698431064,93.01739341110064 78.4790533910503,96.02916568360669 77.03028670209034,98.74509556757671 74.17470095244335,99.89436928610264 71.24845645066968,98.93922889353159 69.62077552073431,96.3265951947506 70.05326815941254,93.2789485336085 72.34356625444654,91.22231665367349 75.42001387334187,91.11902046848449" fill="hsl(162 50% 50%)" />
  <polygon points="91.66564465439615,47.42353886543694 92.7201108847333,50.31547610935492 91.66897745255817,53.2086263926007 89.00408137283235,54.74925254385976 85.97235713828043,54.216478464805554 83.99238221211101,51.859595068151876 83.99060886724892,48.78141428903422 85.96786687146368,46.422251124170444 88.99897522980824,45.88598423757834" fill="hsl(166 50% 50%)" />
  <polygon points="47.481750308817396,59.76948641567586 49.67781221287914,61.92645469713251 49.973620745423716,64.9903896451618 48.230763806527875,67.52764204573687 45.26474352759827,68.35100330220925 42.46339376078967,67.0752135320344 41.13749719552652,64.29722894750108 41.907455570394376,61.31689940957205 44.4129968046584,59.52875423171761" fill="hsl(169 50% 50%)" />
  <polygon points="71.06802330400674,35.28878016012451 74.08277561610609,35.9104461076985 75.99261070370528,38.324515284805145 75.90389550386395,41.40141789408587 73.85814084454749,43.701437008694775 70.81257806688053,44.14836812304123 68.19225984219348,42.53308720163647 67.2232621894106,39.611402139453574 68.35898987947836,36.75040184800047" fill="hsl(173 50% 50%)" />
  <polygon points="9.876788668406679,70.59399749980757 9.511533910314839,67.53756346397877 11.196370460610787,64.96141792219193 14.142944572538546,64.07096800411765 16.972521471603596,65.28286512267135 18.361110679489055,68.03004914734561 17.658975873375287,71.02708214144577 15.19465373240208,72.87161905872084 12.12122797422067,72.70058057583343" fill="hsl(176 50% 50%)" />
  <polygon points="89.29303641257762,12.260532563482347 91.43741914156057,14.468885516549637 91.66060969897192,17.538964673308275 89.85817474251219,20.034245876181675 86.87349362014204,20.787159318383864 84.10313180005429,19.445408432607596 82.84337236701,16.63681337020765 83.68367076039718,13.675546974938175 86.23084202307358,11.94721870395581" fill="hsl(180 50% 50%)" />
  <polygon points="14.855459400716569,56.56383681855964 17.791606768172105,55.63958647895174 20.63492280973837,56.81888879025845 22.05498834962861,59.54993509453409 21.387338939457678,62.55483847380933 18.94437515834123,64.42757124114019 15.869186909981806,64.29186092158616 13.600688952697197,62.211207881918824 13.200336692247378,59.15917280328128" fill="hsl(184 50% 50%)" />
  <polygon points="37.055153018474,90.92831489064149 35.97150362435202,88.04718593755722 36.99333402064734,85.14355670935187 39.642518408553514,83.57606759214704 42.67947397056434,84.07816416458392 44.683175447213515,86.41490986023746 44.716068648915446,89.49291539807575 42.762762481026606,91.87194777872314 39.737230608082115,92.43883131127494" fill="hsl(187 50% 50%)" />
  <polygon points="86.2939264888446,72.11283481593573 84.02312057482462,70.03470090433781 83.61938105263246,66.98311206376616 85.2716221317668,64.38594062735648 88.20674184868652,63.45843197455019 91.05136506762275,64.63457771210581 92.47446096996968,67.36404617801722 91.81014716706996,70.36968874242142 89.36926347032589,72.24513184543746" fill="hsl(191 50% 50%)" />
  <polygon points="79.30139097003732,57.727679159687135 78.23290124367249,60.61446452724292 75.55880076017174,62.13905845935154 72.5303308550815,61.58808651120519 70.56454625468741,59.219354580712675 70.58125942077612,56.14121866367446 72.57265007718857,53.79397276534285 75.60692440394749,53.27591932827958 78.26431172135953,54.82946131320917" fill="hsl(194 50% 50%)" />
  <polygon points="31.2185256195845,76.63897128234174 28.159408049170565,76.29691902892694 26.03585498386775,74.06852893010573 25.841500503594688,70.99648947891386 27.66728522968059,68.51824207647948 30.658904197452884,67.79338622505352 33.416545643749565,69.16109003339365 34.6498784880776,71.98138968924286 33.78181258560812,74.93463563949003" fill="hsl(198 50% 50%)" />
  <polygon points="76.22213677426352,85.43392553780481 74.91462749215286,88.22061165771065 72.12176996230458,89.51488630849045 69.15037326208869,88.71114399678382 67.39078693093207,86.18546468283913 67.66634096880668,83.11964178744996 69.84810057894899,80.94820791619506 72.91519619221626,80.68720111023391 75.43249968418993,82.45874935484329" fill="hsl(202 50% 50%)" />
  <polygon points="8.326214654976267,81.58606417280782 10.001106120160468,84.16868660621432 9.62406971920003,87.22368965138992 7.3715249743971825,89.32160343092006 4.297462606091472,89.48079077164807 1.840270560810799,87.62676614767707 1.1496963051896874,84.6270482857516 2.548867208311198,81.8852385116171 5.383095654552309,80.6842600904125" fill="hsl(205 50% 50%)" />
  <polygon points="49.290035166000635,52.10545051460794 52.35267104960299,52.414418956609076 54.50018516323087,54.61972691366416 54.72773178615694,57.68948628339924 52.928839324615076,60.18732254014011 49.94522955382347,60.944470338999935 47.17296664466455,59.60665181013173 45.909223222604055,56.799847111389724 46.74531887976778,53.837391355474814" fill="hsl(209 50% 50%)" />
  <polygon points="36.91070328395201,9.315516675776411 39.90954703023242,8.62115636651596 42.653120821303354,10.016865113579627 43.85767598889647,12.849575282641421 42.95958778295543,15.793830303530582 40.379081656178684,17.47198053022336 37.323605104416096,17.09880082108792 35.22284956407672,14.848906109459215 35.059781899782536,11.775047135702769" fill="hsl(212 50% 50%)" />
  <polygon points="58.69528765611025,34.30947043223707 57.054221488006554,36.913717326367276 54.12311423302861,37.85382918859275 51.27346355140915,36.689917230398656 49.83865266741753,33.96658879246456 50.490045539820144,30.958119517324057 52.92284820419444,29.07220561422702 55.99872525628977,29.191287158030903 58.27843963886511,31.259644570945948" fill="hsl(216 50% 50%)" />
  <polygon points="98.00269491836572,58.22777911544583 94.9694849336678,58.75202833329001 92.30893037845885,57.2039167376877 91.26593429789139,54.30782294956511 92.32852614967317,51.418861438882004 94.9995073969625,49.888809403717815 98.0290962295027,50.43359519596008 99.99971436241886,52.798307488799004 99.98928767033846,55.87647111956551" fill="hsl(220 50% 50%)" />
  <polygon points="67.92044379560036,97.28061551294165 64.99482059316321,98.23765727328589 62.138488610774424,97.09023945049233 60.687957327587675,94.37525159597475 61.32194645186557,91.36306670059088 63.74380542635422,89.46311955359698 66.82031952092603,89.56441654063202 69.11195359908528,91.61955967567167 69.54642660698543,94.6669246454591" fill="hsl(223 50% 50%)" />
  <polygon points="93.56118482994253,39.71722537670126 91.41134408549429,37.514185470755024 91.18055728480617,34.44466799950493 92.97681213682975,31.944934301635673 95.9596210331542,31.18463755582576 98.733294540961,32.51952905919676 100,35.32499824165487 99.16703184812381,38.288334893411026 96.62414514100512,40.02296086129011" fill="hsl(227 50% 50%)" />
  <polygon points="39.82906459221668,58.07288372896627 40.22353600116112,61.12568446946781 38.563416141116036,63.7178268467236 35.62549354477361,64.63641863396208 32.784454846335116,63.45164052492383 31.369653627427958,60.71786336416983 32.04309110214289,57.71425186776572 34.48965839163695,55.84622923630242 37.564579470589194,55.98786401980063" fill="hsl(230 50% 50%)" />
  <polygon points="65.58445205958327,5.88509078011572 68.39457105605022,4.628734429641486 71.35481739323266,5.47261930145719 73.08005891048953,8.021882285304608 72.76303592797264,11.083694899139338 70.55208702251964,13.225400992691307 67.48173975895203,13.444872482375647 64.98864374500197,11.639416219015146 64.23934631327252,8.65382525364748" fill="hsl(234 50% 50%)" />
  <polygon points="61.06264094424593,41.58890156753476 58.830224438781705,39.46958172385559 58.48236671652353,36.41111886504126 60.18183427172396,33.84460175375942 63.1334273478267,32.970932270039306 65.95606274122018,34.198910075068305 67.32899798123748,36.95395070642022 66.60982141059897,39.946940033819516 64.13504373946367,41.77742508760485" fill="hsl(238 50% 50%)" />
  <polygon points="90.99277860411051,61.23794477574931 88.7762445030261,63.373870016110345 85.70533459218586,63.58532302078174 83.21696174823394,61.773362578839375 82.4754632800391,58.78582511876526 83.82779456170724,56.02061262090851 86.64118475705777,54.77159874492999 89.59921732633701,55.623210964643064 91.31779595550911,58.176970457828425" fill="hsl(241 50% 50%)" />
  <polygon points="60.27778037139812,9.972183648240353 57.50851401054397,8.628173277624507 56.251046116817406,5.8185514970411685 57.093759892892045,2.8579715630931943 59.64234019722219,1.1317217300557303 62.70427798109671,1.4475334799368849 64.84685852579278,3.657634985110624 65.06754458231681,6.727895188763934 63.26307469216885,9.221705219466116" fill="hsl(245 50% 50%)" />
  <polygon points="94.55638753911659,1.46151639497121 95.92987136130395,4.216283580028951 95.21129079687823,7.209416057235897 92.7368776780676,9.040393875544801 89.66443740320216,8.852482164717149 87.43159892326156,6.733606902655232 87.08313217824555,3.675213373153295 88.78208863092361,1.10835789892321 91.73350767528994,0.2341006837781734" fill="hsl(248 50% 50%)" />
  <polygon points="23.655598645246663,91.2332213067174 24.457482718916715,88.26132258938605 26.982061230321175,86.50015723842203 30.048055836409063,86.77379409471403 32.22085358625737,88.95419543206812 32.48377826475492,92.0211272322747 30.713804492750395,94.53953802086687 27.73912266923203,95.33103540084413 24.95161947933002,94.02526895160157" fill="hsl(252 50% 50%)" />
  <polygon points="38.11957065075462,36.28221160792013 39.52955984753395,33.545949464292995 42.36850963936241,32.35617463973224 45.308043867231,33.26959599752412 46.972721796636094,35.85881353281021 46.583622123574656,38.91230358488257 44.32280890943332,41.001304222614706 41.24814178324889,41.148348830955754 38.79829166448187,39.28463360344415" fill="hsl(256 50% 50%)" />
  <polygon points="75.4615172084262,66.62446368005725 77.91024130162373,68.48965813884038 78.58714889818745,71.4924894959758 77.17550741069526,74.22789958670666 74.33583957979232,75.41595962888316 71.39685754295068,74.5007631249543 69.73374365835556,71.91054069038458 70.12468739606098,68.85728618942494 72.38676183633888,66.76965133621837" fill="hsl(259 50% 50%)" />
  <polygon points="30.845805629154935,94.79304767503983 32.42016039368251,92.1479376340225 35.32643007317014,91.13364152155225 38.20473878499591,92.22475976129955 39.708293894058436,94.91074600245815 39.133565254673655,97.93479743137803 36.749474784607045,99.88192677587956 33.67156491101695,99.84105057573828 31.340023870914102,97.83129525928867" fill="hsl(263 50% 50%)" />
  <polygon points="24.782144523374786,9.19384182367923 21.709328389347988,9.01217988450107 19.472184708805763,6.897850627670099 19.117497872956353,3.8401722106097793 20.811229794198788,1.2698663469729574 23.760864482850184,0.3896077161230611 26.586235086552517,1.6112791144197085 27.96531929933689,4.363246917234682 27.252828291227708,7.35783480491556" fill="hsl(266 50% 50%)" />
  <polygon points="36.524571328179576,38.91103647448306 35.90184442333812,41.92556981410098 33.48710325861026,43.83455518886165 30.410232061830865,43.744757125905345 28.11093306158733,41.69819313688363 27.665073813955566,38.652473257284946 29.28127681607606,36.03272366817951 32.203302721161045,35.06475431758331 35.06390313352067,36.201488822421325" fill="hsl(270 50% 50%)" />
  <polygon points="8.897030006139424,76.00782908119449 10.924313944551116,73.69151306503016 13.966202775504668,73.22022504926757 16.599362908168267,74.81448593426487 17.59170945215349,77.72832333369573 16.47891243082629,80.59832034467094 13.781661937826966,82.08157346929137 10.762031455430048,81.48405208602485 8.8329396458037,79.08534309081222" fill="hsl(274 50% 50%)" />
  <polygon points="55.59804333055243,11.072572969986291 58.29220760891797,9.583721434452782 61.31307250291326,10.174970405621622 63.247141755464305,12.569667918882539 63.18944286851703,15.647308393682419 61.16697379252575,17.967829647698505 58.12607028538686,18.445433996455638 55.4896048939686,16.856645057189265 54.491209075964576,13.944874832004343" fill="hsl(277 50% 50%)" />
  <polygon points="68.60536176569268,58.99309954903978 65.58086026929038,59.56545499100011 62.896054718337595,58.059792609436926 61.80719546841517,55.18062856625707 62.82377186388442,52.275155715608456 65.4701165113171,50.70287709504347 68.50797533933478,51.19947934505491 70.51590044026786,53.53259675374319 70.55436134378795,56.61053775587138" fill="hsl(281 50% 50%)" />
  <polygon points="59.59841947275698,55.337409394306945 62.33210927484408,56.75237940093125 63.516711968607744,59.59349124519385 62.597938788243496,62.53135711972331 60.00569391587027,64.19131693108505 56.95291753686416,63.796657035144555 54.86803764679239,61.53204318336857 54.72659271707851,58.45711336538254 56.59476640232096,56.01066141706042" fill="hsl(284 50% 50%)" />
  <polygon points="24.5436762815488,15.378181434898785 23.312617755575708,12.556888298886443 24.18306448372219,9.604343202339997 26.747724767950704,7.902074809817154 29.806565558246604,8.2465934207852 31.928321253601762,10.476694948274323 32.120198783471594,13.548890102754656 30.292416519148787,16.025664627798953 27.300214095647142,16.748108196856272" fill="hsl(288 50% 50%)" />
  <polygon points="97.88372773526133,28.14476520118403 94.88498082685214,28.839543606855752 92.14121247070152,27.444217386408397 90.93626237424094,24.611675185712876 91.83394007913297,21.66729498067461 94.41421221068222,19.988784992371976 97.46974076200631,20.361538698892375 99.57080996552347,22.611140498258916 99.73430619012484,25.684976707008904" fill="hsl(292 50% 50%)" />
  <polygon points="10.214334828022915,1.4404873253232409 13.021075325829406,0.17660132110674365 15.983573551017662,1.0125464864362894 17.71564365952176,3.557174787958533 17.406830797757607,6.619826362997791 15.201631935817312,8.767452502012354 12.131884129258154,8.995155066351453 9.633956493215809,7.196389495528695 8.87665712996785,4.21281819118458" fill="hsl(295 50% 50%)" />
  <polygon points="27.751297131509318,53.88591386836765 30.591280539852026,55.07321934465399 32.003648799293224,57.80825425364591 31.327539104515616,60.81126536489893 28.87931069582791,62.677110404706866 25.804516854683055,62.53273974238579 23.5418877918798,60.44570601533693 23.150132792224795,57.39255549924266 24.812558373928457,54.80189125257182" fill="hsl(299 50% 50%)" />
  <polygon points="77.61049927816886,0.13482913056105783 79.88418542988906,2.2098113804025323 80.29215719129328,5.260837289105718 78.64352004111943,7.860297925612468 75.70968962449483,8.791876768314292 72.86343779925126,7.619677723365446 71.43655742698567,4.892185751438742 72.09670169189008,1.8856246588954368 74.53498175572943,0.006797795141088692" fill="hsl(302 50% 50%)" />
  <polygon points="33.314056204214715,75.43195595577582 36.0079769607807,73.94266383835078 39.028938506835594,74.53341877141445 40.96339936073253,76.92779995627657 40.906203789795526,80.00544982595743 38.88411423732398,82.32630180216503 35.843288877941426,82.80440345183527 33.20656369231244,81.21604569957944 32.20769169872911,78.30443879030815" fill="hsl(306 50% 50%)" />
  <polygon points="89.93805012239349,83.35981813330781 92.99083891735485,83.75438197736828 95.07579005955851,86.01893022995753 95.21733173791652,89.09385559603862 93.34923502806464,91.54036632283342 90.34560314212486,92.21371285133655 87.61186882117846,90.79882885744833 86.42717673606899,87.95775428659307 87.3458574798051,85.01985950550069" fill="hsl(310 50% 50%)" />
  <polygon points="63.37424272356271,73.58235817232399 66.45137748615649,73.50209792987276 68.86018976116777,75.41855911587062 69.47356951415236,78.4350082422956 68.00450954173213,81.14001523879561 65.14039933178549,82.26787726890424 62.221387882585795,81.29085515394344 60.61331309241224,78.66610839989464 61.0686110273476,75.62178518378815" fill="hsl(313 50% 50%)" />
  <polygon points="46.841777733092556,84.89008752178911 49.6127214430671,83.54953874989236 52.597075615044325,84.30374709636136 54.398427764553965,86.7998100937912 54.173905201041315,89.86979212503424 52.02856452726428,92.07721447862208 48.966234487288894,92.38919970254422 46.419813340827005,90.65976644319794 45.58079984262681,87.69813574314108" fill="hsl(317 50% 50%)" />
  <polygon points="83.4676545795345,79.50032198739682 80.49206194980188,78.71225564782739 78.71918502949568,76.19588773372442 78.97857263295937,73.12865475841087 81.1488544177602,70.9457491195334 84.21453141679454,70.6685766258166 86.74113929100955,72.42682936749969 87.54645013594133,75.39780134594659 86.25365005721319,78.19134175376637" fill="hsl(320 50% 50%)" />
  <polygon points="35.57364293150206,9.743889026563462 32.51077619126725,10.05056048797573 29.967359529256154,8.316711666109832 29.13348586855134,5.3536296943000545 30.399333962470028,2.5477735581441316 33.17259941953316,1.2120345273668578 36.15564051096852,1.9714197395546513 37.95265915728465,4.470604414298304 37.72281036223261,7.540192266941479" fill="hsl(324 50% 50%)" />
  <polygon points="17.724225224540806,78.06776310617563 16.740609207735872,75.1509669896865 17.86199602756067,72.28431534464752 20.5636763281929,70.80914633505671 23.58150387113477,71.41570793517896 25.503403609626567,73.82018323113576 25.43009729649162,76.89749150918264 23.39588577035469,79.20772602554956 20.352599212038086,79.66990237463173" fill="hsl(328 50% 50%)" />
  <polygon points="0.10472474114287511,95.60915071049644 0.10671261779778707,92.53097006244671 2.0868518006061287,90.17422466457522 5.1186131591361885,89.64166188085356 7.783401859457436,91.18247375656117 8.83433365286205,94.0756972908379 7.779665873410131,96.96756103739777 5.112889296433975,98.50492980973989 2.0818183202210157,97.96845167333466" fill="hsl(331 50% 50%)" />
  <polygon points="99.99907586966441,70.35177167452034 99.988604014898,73.42993515197554 98.00197676484721,75.78121400039761 94.96875908871333,76.30541871505623 92.30822724761887,74.75726808407619 91.26527365852974,71.86115899347075 92.32790789691873,68.97221307340149 94.99891159277959,67.44220022692633 98.02849243191952,67.9870304691097" fill="hsl(335 50% 50%)" />
  <polygon points="43.47878116399481,22.58855562778879 46.55347966721405,22.73494267633719 48.8147395888459,24.823459762813364 49.204492280454126,27.876866531173178 47.54036812601655,30.466440019664837 44.60102931207441,31.38049001311954 41.76182513678335,30.191322361065716 40.351250788001664,27.455361824025655 41.029329680311974,24.452794744094774" fill="hsl(338 50% 50%)" />
  <polygon points="29.454452350449454,35.13169567003724 27.942880675615285,37.813178678657735 25.061325540206287,38.89569429299289 22.158098616998423,37.87272142627434 20.591652049133828,35.222920451916714 21.094943594830767,32.18616269507944 23.432477546395152,30.183380859989764 26.510495789093916,30.151698825726896 28.88875937880598,32.10594096822902" fill="hsl(342 50% 50%)" />
  <polygon points="72.77204209306178,20.85590263744779 69.94546806662578,22.074787097418785 66.99670291210123,21.19162000272879 65.30550661716441,18.61964505229219 65.66320872376944,15.56231790973585 67.90243644081976,13.450195923468236 70.97543023326348,13.27156444448513 73.44430215309444,15.110007127070473 74.1538395905687,18.10529620802808" fill="hsl(346 50% 50%)" />
  <polygon points="7.972557636825862,91.63853908612019 8.25900012239936,88.57371433482692 10.448459172738069,86.41004404557967 13.51646256506162,86.15993359323394 16.02745741504217,87.94041243811039 16.80652132577456,90.91837474087309 15.489121635096193,93.70039884369498 12.691684299542144,94.98474475011182 9.723161338471044,94.17045273659636" fill="hsl(349 50% 50%)" />
  <polygon points="7.762874672874004,64.92987448525123 8.872998297952696,67.80090663253269 7.87793844083507,70.71381856639447 5.243294667524932,72.30562641957259 2.201846080358064,71.83150560659128 0.1767202752057102,69.5133025251104 0.11549612306496382,66.43573016091229 2.0468210851531365,64.03881882661214 5.067006747423117,63.44410997423122" fill="hsl(353 50% 50%)" />
  <polygon points="35.83213297560392,65.30197217011956 38.78308114385429,64.42612688584774 41.606621086806925,65.65202339217787 42.981587085003234,68.40605108947604 42.26461726684225,71.39956981056793 39.791189778473445,73.2318788765999 36.71864883078912,73.04562051172864 34.484670480699734,70.92794707490859 34.13455802611591,67.86974150254646" fill="hsl(356 50% 50%)" />
</svg>
