<svg xmlns="http://www.w3.org/2000/svg" viewBox="0 0 100 100">
  <polygon points="28.65152703803666,27.843670868349868 26.670898455500424,30.661344692621462 23.277986285462877,31.25322505921247 20.46031246119128,29.27259647667623 19.868432094600273,25.879684306638676 21.84906067713651,23.062010482367086 25.241972847174058,22.47013011577608 28.059646671445655,24.450758698312317" fill="hsl(0 50% 50%)" />
  <polygon points="29.156736103735934,24.681978182623528 27.633436367939144,21.593008568518158 28.740532155990653,18.331641634543477 31.829501770096016,16.808341898746686 35.0908687040707,17.915437686798196 36.6141684398675,21.004407300903566 35.50707265181599,24.265774234878247 32.41810303771062,25.789073970675037" fill="hsl(4 50% 50%)" />
  <polygon points="92.26355329510848,13.377533876566954 90.02519723057017,15.995154454551741 86.5915032173586,16.263334963873167 83.97388263937381,14.02497889933486 83.70570213005239,10.591284886123297 85.9440581945907,7.97366430813851 89.37775220780226,7.7054837988170855 91.99537278578705,9.94383986335539" fill="hsl(7 50% 50%)" />
  <polygon points="40.38369486774363,13.218784496415678 38.85811105110875,10.130942308031269 39.962794539738304,6.86875749537977 43.0506367281227,5.3431736787449005 46.312821540774195,6.447857167374446 47.83840535740907,9.535699355758855 46.73372186877953,12.797884168410341 43.645879680395126,14.323467985045223" fill="hsl(11 50% 50%)" />
  <polygon points="54.46749200515454,98.95340453465587 52.038953432135855,96.51119738510752 52.048618575289154,93.06706005524498 54.49082572483753,90.63852148222628 57.93496305470006,90.6481866253796 60.36350162771875,93.09039377492795 60.35383648456545,96.53453110479049 57.911629335017075,98.96306967780919" fill="hsl(14 50% 50%)" />
  <polygon points="91.57431157941171,34.70838092754674 89.39077329824244,37.371900391829506 85.96338589763052,37.711298341251 83.29986643334774,35.52776006008173 82.96046848392625,32.10037265946981 85.14400676509553,29.436853195187044 88.57139416570745,29.097455245765552 91.23491362999022,31.280993526934825" fill="hsl(18 50% 50%)" />
  <polygon points="20.34220301210253,81.86385216133228 23.553461027651107,83.10884104462396 24.94382326470774,86.25988344543542 23.698834381416063,89.471141460984 20.547791980604593,90.86150369804064 17.336533965056017,89.61651481474895 15.946171727999383,86.46547241393749 17.19116061129106,83.25421439838891" fill="hsl(22 50% 50%)" />
  <polygon points="90.72103548716727,79.8223322157457 88.62614246912275,82.55612054056041 85.21174914739805,83.00788774444588 82.47796082258334,80.91299472640138 82.02619361869786,77.49860140467665 84.12108663674238,74.76481307986194 87.53547995846709,74.31304587597648 90.26926828328179,76.40793889402097" fill="hsl(25 50% 50%)" />
  <polygon points="83.81128754756583,48.62733596436497 80.83844751941268,46.88825645814475 79.96604708799363,43.55642620298398 81.70512659421385,40.58358617483081 85.03695684937463,39.71118574341178 88.00979687752778,41.450265249632 88.88219730894683,44.78209550479277 87.14311780272661,47.754935532945936" fill="hsl(29 50% 50%)" />
  <polygon points="1.9222909164229858,37.341263031177604 0.17002849890537597,34.37617419910188 1.0276262810415844,31.040503141275604 3.9927151131173066,29.288240723757994 7.328386170943585,30.145838505894204 9.080648588461194,33.110927337969926 8.223050806324986,36.4465983957962 5.257961974249264,38.198860813313814" fill="hsl(32 50% 50%)" />
  <polygon points="20.22344797851392,15.315321313452017 22.936345737791612,17.437198102912447 23.354260673372842,20.855899971833306 21.232383883912412,23.568797731110994 17.813682014991553,23.986712666692227 15.100784255713863,21.864835877231798 14.68286932013263,18.446134008310942 16.80474610959306,15.73323624903325" fill="hsl(36 50% 50%)" />
  <polygon points="44.760576513313445,80.79274833667256 41.973770893164534,78.76891786021183 41.43426599518584,75.36728445447837 43.45809647164657,72.58047883432945 46.859729877380026,72.04097393635075 49.64653549752894,74.06480441281148 50.18604039550763,77.46643781854495 48.1622099190469,80.25324343869386" fill="hsl(40 50% 50%)" />
  <polygon points="24.195423788183078,96.35561935468162 22.242579264981295,99.19262017071 18.855647144776874,99.81781308099643 16.018646328748506,97.86496855779464 15.393453418462073,94.47803643759023 17.346297941663853,91.64103562156187 20.733230061868273,91.01584271127543 23.570230877896645,92.96868723447722" fill="hsl(43 50% 50%)" />
  <polygon points="66.48346588186719,43.34176282021875 67.4685008963241,46.642047865822946 65.83137189915749,49.67222673984689 62.53108685355329,50.6572617543038 59.50090797952934,49.02013275713719 58.515872965072425,45.71984771153299 60.15300196223904,42.68966883750904 63.45328700784323,41.704633823052134" fill="hsl(47 50% 50%)" />
  <polygon points="17.34661223807978,52.67548831673257 19.414073609871583,49.9208959987854 22.823780473131624,49.435021047195804 25.5783727910788,51.502482418987604 26.064247742668393,54.91218928224765 23.99678637087659,57.666781600194824 20.587079507616544,58.15265655178442 17.832487189669372,56.08519517999262" fill="hsl(50 50% 50%)" />
  <polygon points="23.996736924599315,73.01564774666004 20.5880903598268,72.52238923592826 18.526599697024338,69.76332569749296 19.019858207756116,66.35467913272043 21.77892174619142,64.29318846991798 25.187568310963925,64.78644698064976 27.249058973766388,67.54551051908506 26.75580046303461,70.95415708385758" fill="hsl(54 50% 50%)" />
  <polygon points="8.322498687326863,76.59660969423574 8.314895532026348,80.0407521933165 5.874142772882147,82.47075246711788 2.4300002738013813,82.46314931181736 -1.7763568394002505e-15,80.02239655267317 0.007603155300512476,76.5782540535924 2.4483559144447122,74.14825377979102 5.8924984135254785,74.15585693509153" fill="hsl(58 50% 50%)" />
  <polygon points="8.884664289982084,50.66126358193215 8.724377917753971,54.10168269024189 6.178294655410101,56.42108679111718 2.7378755471003586,56.260800418889076 0.41847144622505184,53.7147171565452 0.5787578184531643,50.27429804823545 3.1248410807970415,47.954893947360155 6.565260189106777,48.11518031958826" fill="hsl(61 50% 50%)" />
  <polygon points="58.85382218089364,25.00522404598498 56.48838359775496,27.50859690501811 53.045614010676616,27.606131166861132 50.54224115164349,25.24069258372245 50.444706889800464,21.79792299664411 52.81014547293914,19.294550137610983 56.252915060017486,19.19701587576796 58.756287919050614,21.56245445890664" fill="hsl(65 50% 50%)" />
  <polygon points="86.0144900453894,27.82135855753586 82.61063931041109,27.296024819867604 80.57522042185242,24.517671834726332 81.10055415952067,21.113821099748034 83.87890714466194,19.078402211189363 87.28275787964024,19.603735948857615 89.31817676819891,22.38208893399889 88.79284303053066,25.785939668977186" fill="hsl(68 50% 50%)" />
  <polygon points="0.5244476284706394,61.987384618753765 0.8361393555289709,58.55736659704773 3.481927692112074,56.352376928150015 6.911945713818118,56.66406865520835 9.116935382715829,59.30985699179145 8.805243655657497,62.73987501349748 6.159455319074395,64.9448646823952 2.7294372973683507,64.63317295533686" fill="hsl(72 50% 50%)" />
  <polygon points="94.91130083394377,44.58948383035737 91.5797652758907,45.4630089801801 88.60633833405062,43.7249331522933 87.7328131842279,40.393397594240234 89.47088901211468,37.419970652400146 92.80242457016776,36.54644550257742 95.77585151200785,38.28452133046422 96.64937666183056,41.616056888517285" fill="hsl(76 50% 50%)" />
  <polygon points="36.978955480067796,51.55126122243218 33.56851020137229,52.031925723896926 30.81708008947968,49.96025786892706 30.336415588014937,46.549812590231554 32.408083442984804,43.798382478338944 35.81852872168031,43.3177179768742 38.56995883357292,45.38938583184406 39.05062333503766,48.79983111053957" fill="hsl(79 50% 50%)" />
  <polygon points="37.0830679676483,52.24908171146113 38.947709138846406,49.35334542087496 42.313804323081676,48.6242510699073 45.20954061366785,50.48889224110541 45.938634964635504,53.85498742534068 44.073993793437396,56.75072371592685 40.707898609202125,57.47981806689451 37.812162318615954,55.6151768956964" fill="hsl(83 50% 50%)" />
  <polygon points="80.34605755578465,89.31502076873488 83.24999573170744,87.46317886609765 86.61284007508911,88.20712327539897 88.46468197772634,91.11106145132175 87.72073756842502,94.47390579470343 84.81679939250225,96.32574769734066 81.45395504912057,95.58180328803934 79.60211314648333,92.67786511211656" fill="hsl(86 50% 50%)" />
  <polygon points="53.694967890631006,10.833808797229844 55.70655578641092,13.62946426589843 55.15213628871286,17.028698647714 52.356480820044276,19.04028654349391 48.95724643822871,18.48586704579585 46.9456585424488,15.690211577127265 47.50007804014685,12.290977195311703 50.29573350881544,10.279389299531786" fill="hsl(90 50% 50%)" />
  <polygon points="78.89297202978426,19.59835725231928 79.65429861473086,22.957309052062524 77.81750021036699,25.870785838253063 74.45854841062373,26.632112423199654 71.54507162443319,24.795314018835775 70.7837450394866,21.436362219092533 72.62054344385048,18.522885432901997 75.97949524359373,17.761558847955403" fill="hsl(94 50% 50%)" />
  <polygon points="45.87980648323496,5.955998585436399 46.04322147201286,2.515726662551881 48.591412924522565,0.19863890346693136 52.031684847407085,0.3620538922448313 54.348772606492034,2.910245344754535 54.18535761771413,6.350517267639054 51.63716616520443,8.667605026724004 48.19689424231991,8.504190037946103" fill="hsl(97 50% 50%)" />
  <polygon points="50.07137769765999,61.36782473074398 53.00716887611482,59.56690676524649 56.356528032311836,60.3693833099156 58.157445997809326,63.30517448837043 57.35496945314022,66.65453364456744 54.419178274685386,68.45545161006493 51.069819118488375,67.65297506539582 49.268901152990885,64.717183886941" fill="hsl(101 50% 50%)" />
  <polygon points="74.1737463858131,31.641829242259824 75.99563763649935,28.719007381006953 79.35065645273625,27.940531880659456 82.2734783139891,29.762423131345717 83.0519538143366,33.1174419475826 81.23006256365035,36.04026380883547 77.87504374741346,36.818739309182966 74.95222188616059,34.9968480584967" fill="hsl(104 50% 50%)" />
  <polygon points="75.2116799612478,29.973411651652157 73.39121878603392,32.89712444046772 70.03658120494003,33.67724113780048 67.11286841612446,31.856779962586597 66.33275171879171,28.50214238149271 68.15321289400558,25.578429592677143 71.50785047509947,24.798312895344385 74.43156326391505,26.61877407055827" fill="hsl(108 50% 50%)" />
  <polygon points="75.49090327134638,50.336947284643365 73.34099766485934,53.02768719127508 69.91814439721284,53.41011479240566 67.22740449058114,51.26020918591862 66.84497688945055,47.83735591827212 68.99488249593759,45.146616011640404 72.41773576358409,44.764188410509824 75.1084756702158,46.91409401699686" fill="hsl(112 50% 50%)" />
  <polygon points="66.21913577482428,29.80121081527023 63.593195759798455,32.02980104216952 60.16052450625805,31.7488323124822 57.93193427935876,29.122892297456378 58.21290300904607,25.690221043915958 60.8388430240719,23.46163081701668 64.27151427761231,23.74259954670399 66.5001045045116,26.368539561729815" fill="hsl(115 50% 50%)" />
  <polygon points="24.335838139202096,41.1434868622239 26.640447795951133,43.70296917159115 26.46022561494579,47.142401585146985 23.90074330557854,49.44701124189602 20.46131089202271,49.26678906089068 18.156701235273673,46.70730675152343 18.336923416279014,43.2678743379676 20.896405725646265,40.96326468121856" fill="hsl(119 50% 50%)" />
  <polygon points="13.569865040539337,43.99399635453503 10.263193068329466,43.03061905038753 8.606233518224283,40.011238251074516 9.569610822371784,36.70456627886465 12.58899162168479,35.04760672875946 15.895663593894662,36.01098403290696 17.552623143999845,39.03036483221997 16.589245839852346,42.33703680442984" fill="hsl(122 50% 50%)" />
  <polygon points="3.3517173119912234,47.399631897956375 0.8364935484239924,45.04679854620119 0.72166618703202,41.60456234875329 3.0744995387871983,39.08933858518606 6.516735736235103,38.97451122379409 9.031959499802333,41.327344575549276 9.146786861194308,44.76958077299717 6.793953509439128,47.2848045365644" fill="hsl(126 50% 50%)" />
  <polygon points="51.067631876468184,42.02124436837559 54.3313671881635,40.92115020097994 57.41706060477048,42.451075526168445 58.51715477216613,45.71481083786376 56.98722944697762,48.80050425447074 53.72349413528231,49.90059842186639 50.63780071867533,48.37067309667788 49.537706551279676,45.10693778498257" fill="hsl(130 50% 50%)" />
  <polygon points="78.2051438905657,67.88550759384934 75.65689670089957,65.56848113256248 75.49339895591169,62.128213141645396 77.81042541719854,59.57996595197927 81.25069340811564,59.4164682069914 83.79894059778177,61.733494668278254 83.96243834276964,65.17376265919535 81.64541188148279,67.72200984886148" fill="hsl(133 50% 50%)" />
  <polygon points="98.58437087832759,67.15307370767684 96.36508438103624,69.7868813705264 92.93342859066377,70.07999209763797 90.2996209278142,67.86070560034662 90.00651020070264,64.42904980997415 92.22579669799397,61.79524214712458 95.65745248836646,61.50213142001301 98.29126015121602,63.721417917304365" fill="hsl(137 50% 50%)" />
  <polygon points="91.0519169318813,18.54878311836432 90.78085418418121,15.11531543266316 93.0170121606996,12.495816842093191 96.45047984640075,12.224754094393102 99.06997843697073,14.460912070911483 99.34104118467081,17.894379756612643 97.10488320815243,20.51387834718261 93.67141552245127,20.7849410948827" fill="hsl(140 50% 50%)" />
  <polygon points="14.027451670808455,53.73948496674686 10.868552899268234,52.36706596618381 9.605320938757679,49.16294044181846 10.977739939320731,46.004041670278234 14.181865463686082,44.74080970976769 17.340764235226295,46.11322871033073 18.60399619573685,49.31735423469608 17.2315771951738,52.47625300623631" fill="hsl(144 50% 50%)" />
  <polygon points="78.5035272259591,55.647640658558636 75.82720938530271,53.4798080594567 75.46765602286627,50.054476434415776 77.6354886219682,47.37815859375937 81.06082024700912,47.01860523132293 83.73713808766553,49.186437830424865 84.09669145010196,52.61176945546579 81.92885885100003,55.28808729612219" fill="hsl(148 50% 50%)" />
  <polygon points="8.42344128064742,28.4052469678688 10.543101053071714,25.690616641081927 13.961460364446923,25.26990892748583 16.676090691233796,27.389568699910132 17.09679840482989,30.807928011285334 14.977138632405596,33.5225583380722 11.558779321030388,33.9432660516683 8.844148994243513,31.823606279244" fill="hsl(151 50% 50%)" />
  <polygon points="12.761147558526927,18.079815584731968 11.5455008913321,21.30229576969555 8.40727129840478,22.721341358822293 5.184791113441197,21.505694691627465 3.7657455243144557,18.367465098700144 4.981392191509284,15.144984913736561 8.119621784436601,13.72593932460982 11.342101969400186,14.941585991804647" fill="hsl(155 50% 50%)" />
  <polygon points="24.476169939567463,84.71341271492189 23.614207798034286,81.37886677454134 25.36258856925125,78.411487452516 28.69713450963179,77.54952531098282 31.66451383165714,79.29790608219979 32.526475973190315,82.63245202258034 30.77809520197335,85.59983134460568 27.44354926159281,86.46179348613886" fill="hsl(158 50% 50%)" />
  <polygon points="76.75333472404596,99.51429806861628 73.31545577489476,99.30653933130797 71.03141586905295,96.72868420146322 71.23917460636126,93.29080525231204 73.81702973620601,91.00676534647022 77.25490868535721,91.21452408377853 79.53894859119902,93.79237921362328 79.3311898538907,97.23025816277448" fill="hsl(162 50% 50%)" />
  <polygon points="99.91948313430413,49.375762998275945 98.17116314787125,52.343178133875305 94.83663486480268,53.205208580762545 91.86921972920332,51.456888594329655 91.00718928231609,48.12236031126109 92.75550926874897,45.15494517566173 96.09003755181753,44.29291472877449 99.0574526874169,46.04123471520738" fill="hsl(166 50% 50%)" />
  <polygon points="43.414631585134515,66.31537418185708 41.02066506891602,63.83926843266753 41.0787462775513,60.39560730892898 43.554852026740846,58.00164079271048 46.9985131504794,58.05972200134577 49.392479666697895,60.53582775053531 49.33439845806261,63.97948887427386 46.858292708873066,66.37345539049237" fill="hsl(169 50% 50%)" />
  <polygon points="69.52262324037106,44.562724533250694 66.62754569050891,42.69706075265439 65.89964023361422,39.330708274412125 67.76530401421054,36.435630724549966 71.13165649245279,35.707725267655285 74.02673404231494,37.57338904825159 74.75463949920963,40.93974152649385 72.88897571861331,43.83481907635601" fill="hsl(173 50% 50%)" />
  <polygon points="10.871290196563761,64.7083045394829 13.784463126063553,62.8710242547211 17.143540807577363,63.63179523964406 18.980821092339163,66.54496816914386 18.2200501074162,69.90404585065767 15.306877177916409,71.74132613541947 11.947799496402599,70.9805551504965 10.1105192116408,68.0673822209967" fill="hsl(176 50% 50%)" />
  <polygon points="80.7159140961359,10.796020054443897 83.63340051132845,12.626443059957037 84.40207041989252,15.983722007797525 82.57164741437937,18.901208422990074 79.2143684665389,19.66987833155415 76.29688205134634,17.83945532604101 75.52821214278227,14.48217637820052 77.35863514829542,11.564689963007972" fill="hsl(180 50% 50%)" />
  <polygon points="11.797201419775304,62.44695237910362 9.30206610217333,60.07282620115938 9.216499718935797,56.6297383782881 11.590625896880036,54.13460306068613 15.033713719751313,54.0490366774486 17.528849037353286,56.42316285539284 17.61441542059082,59.866250678264116 15.240289242646583,62.36138599586609" fill="hsl(184 50% 50%)" />
  <polygon points="35.8255186866681,88.83475563308637 36.61992307142165,85.4834727391144 39.551366658887275,83.67548660657592 42.90264955285925,84.46989099132948 44.71063568539774,87.4013345787951 43.916231300644185,90.75261747276707 40.98478771317856,92.56060360530556 37.63350481920659,91.76619922055201" fill="hsl(187 50% 50%)" />
  <polygon points="89.34622094343496,66.46925480703298 90.76550009795575,69.6073787758219 89.55009327397943,72.82994942891496 86.41196930519051,74.24922858343575 83.18939865209745,73.03382175945943 81.77011949757666,69.89569779067051 82.98552632155298,66.67312713757745 86.1236502903419,65.25384798305666" fill="hsl(191 50% 50%)" />
  <polygon points="76.66917124598768,58.186940697978464 75.7121334558754,61.49545305706703 72.69593401988419,63.15819667057788 69.38742166079562,62.2011588804656 67.72467804728478,59.18495944447438 68.68171583739706,55.87644708538581 71.69791527338828,54.213703471874965 75.00642763247684,55.170741261987246" fill="hsl(194 50% 50%)" />
  <polygon points="28.2845223038692,72.56630798453244 27.13881846219018,69.31830273990818 28.625370040310763,66.21148125042217 31.87337528493503,65.06577740874314 34.98019677442104,66.55232898686373 36.125900616100054,69.800334231488 34.63934903797947,72.907155720974 31.391343793355205,74.05285956265303" fill="hsl(198 50% 50%)" />
  <polygon points="71.4225890169129,87.18032635437302 68.98199446168186,84.75016718696826 68.9746155281856,81.30602420020286 71.40477469559036,78.86542964497181 74.84891768235576,78.85805071147556 77.28951223758679,81.28820987888032 77.29689117108306,84.73235286564572 74.8667320036783,87.17294742087677" fill="hsl(202 50% 50%)" />
  <polygon points="9.45271764066397,85.071361762177 9.374117474611747,88.51461565578424 6.883790586677173,90.89378512288297 3.4405366930699373,90.81518495683076 1.0613672259711944,88.32485806889619 1.1399673920234141,84.88160417528894 3.630294279957991,82.50243470819021 7.073548173565223,82.58103487424242" fill="hsl(205 50% 50%)" />
  <polygon points="47.37289657402484,57.94646477601389 45.937347132188336,54.81575029494288 47.13600982666141,51.58691411036749 50.26672430773242,50.15136466853098 53.49556049230781,51.35002736300405 54.93110993414432,54.48074184407506 53.732447239671245,57.709578028650455 50.601732758600235,59.14512747048696" fill="hsl(209 50% 50%)" />
  <polygon points="32.58852202284348,0.1999404413939052 36.01267418885458,0.5705579071808256 38.171849281971525,3.2538652468659732 37.80123181618461,6.678017412877077 35.117924476499454,8.837192505994032 31.69377231048835,8.466575040207111 29.5345972173714,5.783267700521948 29.90521468315832,2.35911553451086" fill="hsl(212 50% 50%)" />
  <polygon points="58.314801735814946,35.24039163883815 55.494386353022506,37.21711428768208 52.10229752056454,36.62053343426928 50.1255748717206,33.80011805147684 50.72215572513341,30.40802921901886 53.54257110792585,28.431306570174925 56.934659940383824,29.02788742358773 58.911382589227756,31.848302806380172" fill="hsl(216 50% 50%)" />
  <polygon points="94.37241816967432,61.61144714860678 91.70298486316935,59.435142669893665 91.35429012503916,56.00868862211407 93.53059460375226,53.33925531560911 96.95704865153186,52.99056057747891 99.62648195803683,55.16686505619202 99.97517669616703,58.593319103971616 97.79887221745392,61.26275241047659" fill="hsl(220 50% 50%)" />
  <polygon points="70.5556627332318,88.8406995100769 71.54370711992627,92.1400848546322 69.90934225498866,95.17175549145975 66.60995691043335,96.15979987815422 63.57828627360581,94.52543501321661 62.59024188691134,91.2260496686613 64.22460675184895,88.19437903183376 67.52399209640426,87.2063346451393" fill="hsl(223 50% 50%)" />
  <polygon points="99.67313284146114,31.05912735983942 99.99411382634965,34.48828856475307 97.79629851561998,37.140039537575944 94.36713731070633,37.46102052246445 91.71538633788346,35.26320521173478 91.39440535299495,31.834044006821127 93.59222066372462,29.182293033998253 97.02138186863827,28.861312049109745" fill="hsl(227 50% 50%)" />
  <polygon points="37.64806148188481,65.50485952997255 34.203992876216745,65.52866712112466 31.75183410112979,63.11017736433245 31.728026509977678,59.666108758664386 34.14651626676989,57.21394998357742 37.59058487243796,57.190142392425315 40.042743647524915,59.608632149217534 40.06655123867702,63.052700754885585" fill="hsl(230 50% 50%)" />
  <polygon points="68.76425345812994,1.2860343662713136 71.07226881478651,3.842446006712313 70.89662611810101,7.282115322946926 68.34021447766,9.5901306796035 64.9005451614254,9.41448798291799 62.59252980476882,6.8580763424769895 62.76817250145433,3.418407026242377 65.32458414189534,1.1103916695858027" fill="hsl(234 50% 50%)" />
  <polygon points="66.22204765105334,38.0586418230095 64.69719808286716,41.14684666666014 61.435276026274835,42.252305783344816 58.3470711826242,40.72745621515864 57.24161206593952,37.46553415856631 58.7664616341257,34.37732931491567 62.02838369071803,33.27187019823099 65.11658853436866,34.79671976641717" fill="hsl(238 50% 50%)" />
  <polygon points="86.51216398583117,61.79203905043504 83.49423294293695,60.13244042959917 82.53374687619394,56.824927485174406 84.19334549702981,53.8069964422802 87.50085844145457,52.84651037553719 90.51878948434879,54.50610899637306 91.47927555109179,57.81362194079782 89.81967693025592,60.83155298369203" fill="hsl(241 50% 50%)" />
  <polygon points="56.51769820064671,9.766638355633203 54.184574439007804,7.233121259811515 54.326273924513025,3.79188650790162 56.859791020334704,1.4587627462627148 60.30102577224461,1.6004622317679367 62.634149533883516,4.133979327589625 62.492450048378295,7.575214079499519 59.958932952556616,9.908337841138426" fill="hsl(245 50% 50%)" />
  <polygon points="97.07467875793371,7.781180494462491 94.06429428399902,9.45442903578494 90.75246561832148,8.508931150466616 89.07921707699903,5.498546676531909 90.02471496231736,2.1867180108543773 93.03509943625205,0.5134694695319348 96.34692810192959,1.4589673548502584 98.02017664325204,4.469351828784966" fill="hsl(248 50% 50%)" />
  <polygon points="25.194764900312105,87.54523903725273 28.4466104645033,86.41048100639554 31.548407612939297,87.90748795758151 32.68316564379649,91.15933352177271 31.186158692610515,94.26113067020871 27.93431312841932,95.3958887010659 24.832515979983324,93.89888174987993 23.69775794912613,90.64703618568873" fill="hsl(252 50% 50%)" />
  <polygon points="38.81481929294182,39.62427619051476 37.35881340756654,36.50302288075322 38.53632115370348,33.26641186462349 41.657574463465025,31.81040597924821 44.89418547959475,32.987913725385155 46.35019136497004,36.1091670351467 45.17268361883309,39.345778051276426 42.05143030907155,40.80178393665171" fill="hsl(256 50% 50%)" />
  <polygon points="75.49252892945245,69.43767690553551 73.67661431520983,72.3642157273735 70.3231933310958,73.14954563591415 67.3966545092578,71.33363102167154 66.61132460071715,67.9802100375575 68.42723921495977,65.0536712157195 71.7806601990738,64.26834130717886 74.7071990209118,66.08425592142147" fill="hsl(259 50% 50%)" />
  <polygon points="36.88642315671223,91.36156574779872 39.51518025773564,93.58683235334597 39.800491123231154,97.01914543230235 37.57522451768389,99.64790253332576 34.142911438727516,99.93321339882128 31.514154337704102,97.70794679327402 31.228843472208595,94.27563371431764 33.45411007775586,91.64687661329422" fill="hsl(263 50% 50%)" />
  <polygon points="23.466336227079637,8.743392629542457 21.00434238548747,6.3349155825463495 20.96650029712123,2.890972589653918 23.37497734411733,0.42897874806175373 26.81892033700977,0.39113665969551015 29.280914178601936,2.7996137066916136 29.31875626696818,6.243556699584049 26.910279219972075,8.705550541176216" fill="hsl(266 50% 50%)" />
  <polygon points="30.46267315290282,42.17872820045474 29.255020696618573,38.95324360015428 30.68184348894863,35.81854232551386 33.9073280892491,34.61088986922961 37.04202936388951,36.03771266155967 38.24968182017376,39.26319726186013 36.822859027843705,42.39789853650055 33.59737442754324,43.6055509927848" fill="hsl(270 50% 50%)" />
  <polygon points="15.81122781238947,72.73275680026643 16.915756738282337,75.99499394888251 15.390026622172785,79.08276385202313 12.127789473556703,80.18729277791601 9.040019570416062,78.66156266180644 7.935490644523195,75.39932551319036 9.46122076063276,72.31155561004972 12.723457909248829,71.20702668415686" fill="hsl(274 50% 50%)" />
  <polygon points="59.52180243943675,18.468725733400692 56.73628803104487,16.443118455919173 56.19895254570615,13.04114168672444 58.22455982318767,10.255627278332568 61.6265365923824,9.718291792993842 64.41205100077427,11.74389907047536 64.949386486113,15.145875839670094 62.92377920863148,17.931390248061966" fill="hsl(277 50% 50%)" />
  <polygon points="68.98983193392993,55.152952511441065 67.63919083950364,58.32122396382512 64.44383713406508,59.606482715627585 61.27556568168102,58.2558416212013 59.99030692987856,55.06048791576273 61.34094802430484,51.89221646337867 64.53630172974341,50.60695771157621 67.70457318212748,51.957598806002494" fill="hsl(281 50% 50%)" />
  <polygon points="62.5856829671985,68.3760939368587 59.459561423379604,66.93056999889842 58.271199459831095,63.697928477551535 59.71672339779137,60.57180693373263 62.94936491913827,59.38344497018412 66.07548646295716,60.828968908144404 67.26384842650567,64.0616104294913 65.8183244885454,67.18773197331019" fill="hsl(284 50% 50%)" />
  <polygon points="22.634518325719185,14.610133832522251 22.67617796601577,11.166234903065234 25.140840066911426,8.7604884304806 28.584738996368447,8.802148070777186 30.990485468953082,11.26681017167284 30.948825828656496,14.710709101129861 28.48416372776084,17.116455573714497 25.04026479830382,17.07479593341791" fill="hsl(288 50% 50%)" />
  <polygon points="99.66729423031263,26.20952030679171 97.43108503990467,28.82897517730958 93.9976120552602,29.099970796575747 91.37815718474234,26.86376160616778 91.10716156547618,23.430288621523317 93.34337075588414,20.810833751005447 96.7768437405286,20.53983813173928 99.39629861104648,22.776047322147246" fill="hsl(292 50% 50%)" />
  <polygon points="17.478049418004122,2.975384601692453 18.39561512992607,6.2950605687485774 16.697066679362955,9.291242893480234 13.37739071230683,10.208808605402188 10.381208387575162,8.510260154839067 9.463642675653213,5.1905841877829415 11.16219112621634,2.1944018630512754 14.48186709327245,1.2768361511293307" fill="hsl(295 50% 50%)" />
  <polygon points="22.991339516381235,62.57291647897296 22.929550443372232,59.12931988930083 25.32084947107237,56.6506379165449 28.764446060744497,56.58884884353591 31.243128033500422,58.98014787123604 31.304917106509425,62.42374446090817 28.91361807880929,64.90242643366409 25.470021489137157,64.9642155066731" fill="hsl(299 50% 50%)" />
  <polygon points="75.207300177457,11.718732035759043 72.25415418499733,9.946416006049839 71.41918131090823,6.605009765934725 73.19149734061745,3.6518637734750525 76.53290358073255,2.816890899385945 79.48604957319222,4.589206929095154 80.32102244728132,7.930613169210263 78.54870641757212,10.883759161669934" fill="hsl(302 50% 50%)" />
  <polygon points="36.08501801204898,82.45311714984936 33.29924984853985,80.42785886974683 32.76148815282366,77.02594944700124 34.78674643292619,74.24018128349212 38.18865585567178,73.70241958777592 40.97442401918091,75.72767786787846 41.5121857148971,79.12958729062404 39.486927434794566,81.91535545413316" fill="hsl(306 50% 50%)" />
  <polygon points="87.28555734627408,84.27304392107449 90.19481775266038,82.42957456961301 93.55550519358165,83.18320265187832 95.39897454504313,86.09246305826463 94.64534646277782,89.4531504991859 91.73608605639151,91.29661985064737 88.37539861547025,90.54299176838207 86.53192926400877,87.63373136199576" fill="hsl(310 50% 50%)" />
  <polygon points="64.05666008623291,75.02871271984411 67.05238092452231,76.72807495932791 67.96904488058725,80.04800004185556 66.26968264110346,83.04372088014497 62.949757558575804,83.96038483620991 59.95403672028639,82.26102259672611 59.03737276422145,78.94109751419846 60.736735003705256,75.94537667590905" fill="hsl(313 50% 50%)" />
  <polygon points="48.43688415811872,84.35352924260371 51.85487372421919,83.92982806491699 54.57135930037271,86.04710968919248 54.99506047805944,89.46509925529296 52.87777885378395,92.18158483144649 49.45978928768347,92.60528600913321 46.743303711529954,90.48800438485772 46.319602533843224,87.07001481875724" fill="hsl(317 50% 50%)" />
  <polygon points="78.44784145409757,77.80415122028846 75.27612501309456,76.46161996187547 73.98269576643919,73.26956480166264 75.32522702485218,70.09784836065963 78.51728218506501,68.80441911400426 81.68899862606803,70.14695037241725 82.98242787272339,73.33900553263008 81.6398966143104,76.5107219736331" fill="hsl(320 50% 50%)" />
  <polygon points="38.95232016050343,10.449488312689793 39.944094358674526,13.747754418052864 38.31315829034718,16.781271008245476 35.014892184984106,17.77304520641657 31.981375594791505,16.14210913808923 30.989601396620408,12.843843032726156 32.62053746494775,9.810326442533546 35.91880357031082,8.81855224436245" fill="hsl(324 50% 50%)" />
  <polygon points="25.33895504253942,77.50310551870642 24.006404925138476,80.67902830532442 20.81843316191086,81.98248961998176 17.64251037529284,80.64993950258082 16.339049060635507,77.4619677393532 17.67159917803645,74.2860449527352 20.859570941264067,72.98258363807786 24.035493727882088,74.3151337554788" fill="hsl(328 50% 50%)" />
  <polygon points="5.680139506375067,99.40426330807891 2.246082297892358,99.14077431245903 0.004152014362540868,96.5262143177875 0.267641009982424,93.0921571093048 2.8822010046539437,90.85022682577498 6.316258213136652,91.11371582139486 8.55818849666647,93.72827581606639 8.294699501046587,97.1623330245491" fill="hsl(331 50% 50%)" />
  <polygon points="99.36755418982769,72.23408475321801 99.5149345177628,75.6750808881886 97.18599644598481,78.21244621855944 93.74500031101422,78.35982654649455 91.20763498064339,76.03088847471656 91.06025465270828,72.58989233974597 93.38919272448625,70.05252700937514 96.83018885945685,69.90514668144003" fill="hsl(335 50% 50%)" />
  <polygon points="45.072974343752755,29.31118662779986 41.817068635498,28.188131250314417 40.30891570335506,25.091738172035516 41.431971080840505,21.835832463780772 44.52836415911939,20.327679531637823 47.78426986737415,21.450734909123266 49.29242279951709,24.547127987402167 48.16936742203165,27.80303369565691" fill="hsl(338 50% 50%)" />
  <polygon points="24.121351552471506,31.409925062111345 27.542768139818435,31.804999609218733 29.682715118661747,34.50366637072972 29.287640571554363,37.92508295807665 26.588973810043374,40.06502993691996 23.167557222696445,39.66995538981258 21.02761024385313,36.971288628301586 21.422684790960517,33.54987204095466" fill="hsl(342 50% 50%)" />
  <polygon points="65.13234481089968,15.663194308710766 65.17473790519307,12.219304329704315 67.63991230745927,9.814082816338793 71.08380228646571,9.856475910632183 73.48902379983123,12.321650312898381 73.44663070553784,15.765540291904827 70.98145630327164,18.170761805270352 67.5375663242652,18.128368710976964" fill="hsl(346 50% 50%)" />
  <polygon points="16.967283109479293,92.18028572168373 14.996511887681752,95.00486288531009 11.605688526196563,95.60859485659459 8.781111362570215,93.63782363479706 8.177379391285701,90.24700027331185 10.148150613083242,87.42242310968551 13.53897397456843,86.81869113840101 16.36355113819478,88.78946236019854" fill="hsl(349 50% 50%)" />
  <polygon points="1.059933764904338,71.89272363482277 0.7790530125079389,68.46004518135847 3.00771053986122,65.83416228455664 6.44038899332552,65.55328153216024 9.066271890127352,67.78193905951352 9.347152642523753,71.21461751297782 7.11849511517047,73.84050040977965 3.6858166617061707,74.12138116217605" fill="hsl(353 50% 50%)" />
  <polygon points="42.133753159634864,73.7355739082268 38.69126585458873,73.62853878996646 36.332744994989,71.11864741447273 36.43978011324934,67.6761601094266 38.949671488743064,65.31763924982687 42.3921587937892,65.42467436808721 44.75067965338893,67.93456574358093 44.64364453512859,71.37705304862706" fill="hsl(356 50% 50%)" />
</svg>
