<svg xmlns="http://www.w3.org/2000/svg" viewBox="0 0 100 100">
  <polygon points="19.385159176410763,23.630727389910806 24.64541878436243,24.19151307514789 25.73758951785382,29.367609559634968 21.15232854471774,32.005827430859746 17.226310682539832,28.460239260516968" fill="hsl(0 50% 50%)" />
  <polygon points="39.259868656463404,19.13652506866695 36.698321433806676,23.76505480865072 31.504766440034317,22.759172979370128 30.856520154097986,17.50897408022503 35.6494369100808,15.270054542136673" fill="hsl(4 50% 50%)" />
  <polygon points="88.25121945564015,13.351604366595412 83.12364162925773,14.652664458292135 80.30175126262567,10.178097832737905 83.68530492990358,6.111603481522739 88.59834646567275,8.072938382966546" fill="hsl(7 50% 50%)" />
  <polygon points="39.971890819985546,10.965921614556118 43.73432194611863,7.247195522341263 48.43369578657678,9.676330602041915 47.57563741968895,14.89634473677646 42.345954344162905,15.693355814096629" fill="hsl(11 50% 50%)" />
  <polygon points="61.901707708685095,95.92264821260164 58.04468206666185,99.543168192465 53.40947647631087,96.99372102435314 54.40178751865369,91.79755604207446 59.65027506058436,91.13559663998612" fill="hsl(14 50% 50%)" />
  <polygon points="86.71005244964422,27.489570380410846 91.70847549559662,25.757352501070457 94.90051026366095,29.97585054744705 91.8748731976437,34.3152436009232 86.81289188515919,32.778637952140066" fill="hsl(18 50% 50%)" />
  <polygon points="16.258900163545558,89.5792163662522 17.507740021876806,84.43867060378128 22.782602306065378,84.03787188789067 24.793806625337577,88.93071042129391 20.761936968779818,92.35544965229289" fill="hsl(22 50% 50%)" />
  <polygon points="85.22173005515866,76.00935047374358 90.48686228545307,76.52237515670687 91.62596215449281,81.68834681905349 87.06483235984551,84.3680682083392 83.1067992506139,80.85825544495124" fill="hsl(25 50% 50%)" />
  <polygon points="86.3867169973052,43.486247465188356 83.87337585147326,48.141129634747834 78.66965470480372,47.18923785753844 77.96691931401732,41.946054216052005 82.73632610408342,39.65748029356535" fill="hsl(29 50% 50%)" />
  <polygon points="6.443392169538008,37.500895567637514 1.2318344123337894,36.59288814963965 0.484940869922311,31.355812461422158 5.234893031938425,29.027129102445873 8.917418455411909,32.82499932577974" fill="hsl(32 50% 50%)" />
  <polygon points="13.659892381809135,23.83048682880508 9.319190552941668,20.806727684845153 10.853605757877355,15.744081962826193 16.142628336249707,15.638953977579163 17.877008852013738,20.636627031546652" fill="hsl(36 50% 50%)" />
  <polygon points="43.427302339547325,78.97015553076986 40.43148200062639,74.61012431245018 43.65235870523894,70.41360611500377 48.63879032118319,72.18004645289413 48.49969783780125,77.46828481825564" fill="hsl(40 50% 50%)" />
  <polygon points="14.230112928345715,95.38069597536 17.80670255186968,91.48289936795277 22.618954390111472,93.67995284321302 22.016499965045096,98.93560317343216 16.831910815439507,99.98672023523196" fill="hsl(43 50% 50%)" />
  <polygon points="59.64812113066154,43.99693240736484 64.75598141017487,42.620496759474 67.64346513362479,47.053018555768574 64.3201679371656,51.168903329644195 59.378773591586686,49.280138217382934" fill="hsl(47 50% 50%)" />
  <polygon points="16.32377441664044,52.847138013267454 21.240033192485722,50.8938814052564 24.616898128012373,54.96593186356671 21.78765665774028,59.43585405871813 16.66222433120475,58.12636744407893" fill="hsl(50 50% 50%)" />
  <polygon points="23.629446822093158,72.616601342772 19.95252512643939,68.81330559147351 22.433443043166545,64.1410622311297 27.643656334656274,65.0567527820247 28.382827320706237,70.29492402599874" fill="hsl(54 50% 50%)" />
  <polygon points="5.043105179252261,74.04556595423173 8.22883033000485,78.26883092243786 5.19670987294162,82.60369623311053 0.13703122174008753,81.05952536355299 0.04209830020854621,75.77030997105629" fill="hsl(58 50% 50%)" />
  <polygon points="7.516316063745668,59.67672370090758 9.572042213835019,54.80242357436085 14.843031427724169,55.25129375033478 16.044955766152402,60.40301090216954 11.516796645317617,63.1380770264553" fill="hsl(61 50% 50%)" />
  <polygon points="53.47305391313013,18.86368829781893 52.56815429911296,24.075786571678144 47.331524913253794,24.82580284014897 45.000009580323514,20.077240112320094 48.79568324514024,16.392450680340104" fill="hsl(65 50% 50%)" />
  <polygon points="86.52607567995078,26.763420374920067 81.25245631487938,27.180254298873756 79.22638568961847,22.29355300359598 83.24782454467086,18.856571586292493 87.75928106603362,21.61910154697492" fill="hsl(68 50% 50%)" />
  <polygon points="2.5051081824918517,58.879328681118984 8.551266539313929e-7,54.220010168053385 3.657155351583286,50.397702917600895 8.42250845986819,52.6947056344417 7.710504152726587,57.93663863615266" fill="hsl(72 50% 50%)" />
  <polygon points="88.48830323342744,39.998138442295954 93.7671936857911,39.65444189043885 95.72533539228701,44.56875697853565 91.65664306932655,47.94966728626302 87.18391121747531,45.1248696812566" fill="hsl(76 50% 50%)" />
  <polygon points="34.001277950863354,50.72279850124672 31.834248631006762,45.89695187555538 35.75425262386702,42.344715900317496 40.34397764734655,44.97515995725169 39.26057971801256,50.15309976518008" fill="hsl(79 50% 50%)" />
  <polygon points="48.21102053056358,50.0755174201182 44.028915764152146,53.315087059834774 39.65556050323015,50.3387511430437 41.13478307351363,45.25970474481317 46.42234815979679,45.09701735706003" fill="hsl(83 50% 50%)" />
  <polygon points="77.73487705869074,96.82239446741525 79.10621883522671,91.71316424557735 84.38915344500373,91.43854881149765 86.28284481765313,96.37805736123902 82.17027584037587,99.70545696677955" fill="hsl(86 50% 50%)" />
  <polygon points="53.068057233574024,6.821344816837742 57.173018076165945,10.158125931715022 55.26805331501591,15.093297761204974 49.98575950266244,14.806620577273486 48.626087149214776,9.69427250431477" fill="hsl(90 50% 50%)" />
  <polygon points="75.51092512870032,12.835893609880369 80.58645244928385,11.34464106727573 83.57314209484436,15.710932020581092 80.3434904890646,19.900700777099626 75.36076637931153,18.1238293203251" fill="hsl(94 50% 50%)" />
  <polygon points="53.626966106190835,5.887688974531829 49.01586972241543,8.480487051387804 45.12506507069655,4.8962924570643676 47.33151193612348,0.08834029862286785 52.58597574504688,0.7010570427460383" fill="hsl(97 50% 50%)" />
  <polygon points="57.413610359260055,60.4802068236022 57.779707655923445,65.75759107123761 52.873747264480095,67.73657170919336 49.475599698443986,63.68226475889254 52.28138939528928,59.197584624825964" fill="hsl(101 50% 50%)" />
  <polygon points="83.82198362233966,33.080298215076674 89.0682259841494,33.759822172687926 90.04313834269351,38.959279607937546 85.39942495451636,41.493197068368914 81.55453988806583,37.8597867483527" fill="hsl(104 50% 50%)" />
  <polygon points="71.11937747576835,22.983441311165734 71.38023626066106,28.26707305667553 66.43581365705388,30.14789650526209 63.119133648388676,26.026677577816574 66.01373527683346,21.5988007569893" fill="hsl(108 50% 50%)" />
  <polygon points="70.40627861065714,45.36618174440671 74.91555123199761,48.132275046203276 73.67828204490749,53.275617994762314 68.40433501271237,53.68828545097234 66.38212567903926,48.799985016402054" fill="hsl(112 50% 50%)" />
  <polygon points="55.20053297460656,28.635697196080336 57.2406273675217,23.754833891724143 62.51302805581537,24.18680924969616 63.73145649057406,29.334648007581464 59.2120859878206,32.08421197058661" fill="hsl(115 50% 50%)" />
  <polygon points="20.448471849982774,45.37348503405061 16.576122304668544,48.97761054889042 11.95177343057232,46.4085233143926 12.966118195857778,41.216614568569675 18.217366611210945,40.57692573166108" fill="hsl(119 50% 50%)" />
  <polygon points="9.950814987647707,35.76667717895865 13.80226162162773,39.3931314463414 11.543461122415012,44.176710862695955 6.295999006116299,43.50667126250471 5.311689562778958,38.30898459942357" fill="hsl(122 50% 50%)" />
  <polygon points="0.6245816360494243,49.56961496152269 0.2626937578852031,44.291940389189485 5.170231046376898,42.31687343086169 8.565143769886479,46.373889492891436 5.755777933363181,50.856330270457875" fill="hsl(126 50% 50%)" />
  <polygon points="49.61807260786998,45.531829647333765 53.486824682699805,41.92384279712012 58.11373422544847,44.488315415620065 57.10456951090856,49.681233507285114 51.85396187432714,50.32616077022842" fill="hsl(130 50% 50%)" />
  <polygon points="76.7506927749421,58.852201039005735 81.92530802092453,57.753033725144526 84.56972230763114,62.33472389451178 81.02944497116921,66.26553145896322 76.19701896092818,64.11321396766215" fill="hsl(133 50% 50%)" />
  <polygon points="99.84202336432509,63.03474005050842 97.30613603033865,67.67737800291671 92.10709267087957,66.70025985536283 91.42979449973586,61.45372967674192 96.21024456890997,59.188313850906006" fill="hsl(137 50% 50%)" />
  <polygon points="93.31954607379132,17.928993476688625 89.65468499281467,21.743912215660302 84.89397731093403,19.43729692578265 85.61655923400573,14.19681153869639 90.82384710400095,13.264628741807584" fill="hsl(140 50% 50%)" />
  <polygon points="14.878731740193947,53.53778054872096 9.744952902757536,54.81415297716992 6.944625681331373,50.326059932150216 10.347707116304852,46.27589345720707 15.2512543310284,48.26084596061655" fill="hsl(144 50% 50%)" />
  <polygon points="81.18938183578973,47.99124870422968 82.97789934965424,52.96980440145901 78.79569381858728,56.209243955413925 74.42243113858561,53.23277200702953 75.90181169168007,48.15377162241244" fill="hsl(148 50% 50%)" />
  <polygon points="11.600054344437215,23.329391539970157 12.110393014462717,28.594784798758262 7.260409766760309,30.70724171543623 3.752616604787111,26.747418630924916 6.43466445288562,22.187656458582502" fill="hsl(151 50% 50%)" />
  <polygon points="21.56600105303134,14.95678740863348 26.31409955617103,17.289247983283616 25.563040856084896,22.52572796098233 20.35076254874566,23.429589993958295 17.880456096072372,18.751727473779304" fill="hsl(155 50% 50%)" />
  <polygon points="24.221298421753097,77.99085976666906 29.511137896050094,77.94176736416226 31.192477840427983,82.95753327967846 26.94176359839938,86.1065394975875 22.633337775984565,83.03696645552385" fill="hsl(158 50% 50%)" />
  <polygon points="71.15170314995127,95.67832389927909 68.94896673767792,90.86867068663895 72.84253578115828,87.2874792883099 77.45163019984692,89.88383449656392 76.40663816447358,95.06966166046178" fill="hsl(162 50% 50%)" />
  <polygon points="94.29815201645786,45.9220970563873 99.30416111434776,47.632267995111924 99.22463378433868,52.921737451644994 94.16947409346865,54.48063841951224 91.12474091596164,50.15462274621624" fill="hsl(166 50% 50%)" />
  <polygon points="48.47441002019147,61.34041666539984 50.383064793448405,66.27416257336249 46.28060035926724,69.61401246431465 41.836483128048734,66.74440730628308 43.19233206334779,61.63104389337539" fill="hsl(169 50% 50%)" />
  <polygon points="74.9172930312467,45.82562434032664 69.73015038889983,44.787181787384284 69.11485271694168,39.53301957988655 73.92172048481973,37.32421130619012 77.50782581675284,41.21325492591149" fill="hsl(173 50% 50%)" />
  <polygon points="1.4471542826181563,59.07915756031139 6.651350242341593,58.12986511821944 9.162365998874858,62.78600210055322 5.5100631229755095,66.61294545400281 0.7418000519274579,64.32198953712138" fill="hsl(176 50% 50%)" />
  <polygon points="98.84874722006845,15.755874682962645 93.69859595118352,16.964491096642995 90.9576491695644,12.439889183971953 94.41380216605408,8.43491500269812 99.29076896982362,10.484306747276149" fill="hsl(180 50% 50%)" />
  <polygon points="22.703046955456387,63.48285048816983 20.067972035135906,68.06991838521611 14.89112828913149,66.98129514585844 14.326737819973914,61.721421085946105 19.154769073112448,59.55926337973405" fill="hsl(184 50% 50%)" />
  <polygon points="41.37783775729419,92.34526817477371 37.19080815966614,89.11206622061103 38.97190264505282,84.13085008778364 44.25970917182484,84.28549116654969 45.74665884591679,89.36228074211144" fill="hsl(187 50% 50%)" />
  <polygon points="91.35600990700469,68.00750725766383 86.6430641187182,70.41020443468953 82.90158296967559,66.67040089183152 85.30216623958673,61.95637801407229 90.52728944225879,62.78275519473051" fill="hsl(191 50% 50%)" />
  <polygon points="76.25054082912305,60.62354040588831 71.76463134379111,63.42736419086903 67.71181419634652,60.027439942125575 69.69294493436931,55.12234741224646 74.97016821406915,55.490757759561404" fill="hsl(194 50% 50%)" />
  <polygon points="30.540409484873344,69.24653963634553 34.66863555194063,72.5544938783206 32.7982761258495,77.50288425752944 27.51410436227914,77.25320345950843 26.118666036091323,72.1505018607844" fill="hsl(198 50% 50%)" />
  <polygon points="70.34436779384079,80.84033222658299 75.41755173560173,79.34112696349402 78.41108072392068,83.70273170531884 75.18799944324894,87.89755694434825 70.20249667497133,86.1284967771095" fill="hsl(202 50% 50%)" />
  <polygon points="9.857351984331041,86.21720211799476 6.960437335679067,90.64356600342491 1.8555192612600049,89.256258113559 1.597421030137332,83.97249079933083 6.542825625286357,82.09425090035798" fill="hsl(205 50% 50%)" />
  <polygon points="53.28922881357111,53.715059500738136 52.24330046963037,58.90069790185675 46.98825564391999,59.50841132740309 44.78638767316746,54.69836047869175 48.680603254213004,51.11787214102652" fill="hsl(209 50% 50%)" />
  <polygon points="28.32125242698488,6.634201469318811 30.472805798607133,1.8014351996885978 35.73390620720637,2.3542771467689962 36.833891706324394,7.5287185301015676 32.25261972331212,10.17385723071472" fill="hsl(212 50% 50%)" />
  <polygon points="46.527664163413185,41.53276342883506 46.90096508210507,36.25588384408818 52.034932124775025,34.980268646392055 54.83459733557496,39.46877468239682 51.43091855030001,43.51843916905294" fill="hsl(216 50% 50%)" />
  <polygon points="93.86130097489452,54.59673217000911 94.47437988220848,59.85115373486488 89.66657981484346,62.05793198381957 86.08211705478388,58.16737438245178 88.67459730502381,53.55609930066253" fill="hsl(220 50% 50%)" />
  <polygon points="64.76433850531761,95.85408666381804 60.739617573199205,92.42094915617542 62.76101820553885,87.53231425352709 68.03503343332369,87.944109232744 69.2731534689396,93.08724742894495" fill="hsl(223 50% 50%)" />
  <polygon points="91.50571870770307,37.014461052074715 93.75613392512405,32.22693109634444 99.00476203306265,32.88777503584264 99.99817738065578,38.08372900744217 95.36351372247553,40.6341612263725" fill="hsl(227 50% 50%)" />
  <polygon points="40.24013609538705,65.39281886462881 35.01255095701218,64.58216150861651 34.16811927063055,59.35992569865452 38.87381692564417,56.943063826843485 42.6265297036049,60.67159685391256" fill="hsl(230 50% 50%)" />
  <polygon points="66.64347621566749,1.571937380554786 71.50341099320646,3.661398001356699 71.01801829206406,8.929149481209588 65.85809432732796,10.095338319244318 63.15447863889834,5.548331178597638" fill="hsl(234 50% 50%)" />
  <polygon points="64.93044467543615,37.47232714569242 62.28122153734139,42.05123842375819 57.107763157236946,40.94663889581071 56.5596131770442,35.6850475655163 61.39429623845694,33.53780481643007" fill="hsl(238 50% 50%)" />
  <polygon points="85.25675457246831,45.934576325348566 90.40247513559225,47.161919640830384 90.82531737998191,52.43506065583976 85.94092769577004,54.466697715104864 82.49936661223809,50.449177455525195" fill="hsl(241 50% 50%)" />
  <polygon points="59.53342470422658,0.12982904509366122 62.62331733970974,4.4237055255017275 59.49442746800944,8.68924885532337 54.470774544760204,7.031623133230483 54.4948761622097,1.741610766529348" fill="hsl(245 50% 50%)" />
  <polygon points="91.58487343299447,0.15067282392147208 93.33900172154075,5.14144888332709 89.13454708034784,8.351958640042678 84.78192291938709,5.345386731500451 86.29630788885225,0.2767133456851245" fill="hsl(248 50% 50%)" />
  <polygon points="29.47617556292129,85.2861800300927 33.114317275522865,89.12658842072553 30.586119467515186,93.77341826174616 25.385465579281885,92.80490865280134 24.699482520637083,87.55950695502194" fill="hsl(252 50% 50%)" />
  <polygon points="38.385153167520855,27.653014087465287 42.82661420639305,24.779299493425906 46.93216613789241,28.115353309774882 45.02807573526459,33.05086255061673 39.74573121728878,32.765121196897205" fill="hsl(256 50% 50%)" />
  <polygon points="72.85387031629685,69.16487879327808 76.24495445545799,65.10466203934186 81.15435268521591,67.07509872938402 80.79744351635374,72.35311233044615 75.66746328934252,73.64466743894461" fill="hsl(259 50% 50%)" />
  <polygon points="30.22715610554788,94.56591945622837 34.346008652259414,91.24630119108664 38.775948669193255,94.13774428652927 37.394949621070126,99.24437266119074 32.11150525396493,99.50899946920353" fill="hsl(263 50% 50%)" />
  <polygon points="19.24050236940535,4.332788760619109 24.514853770511568,4.740255354910561 25.757194228085226,9.882375726439246 21.25065145535862,12.652914295995759 17.22311439248473,9.223080927595513" fill="hsl(266 50% 50%)" />
  <polygon points="28.455051938988948,37.3820198170069 33.71907148730183,37.90633834881214 34.847086430164765,43.07474177893373 30.280218456358945,45.744672234515164 26.32972388355065,42.22637657354141" fill="hsl(270 50% 50%)" />
  <polygon points="14.22843050483931,72.56344392350685 14.376610749090148,77.85143544610108 9.39322216711752,79.62644247957432 6.165138400059454,75.43546563393667 9.1534614954584,71.07029246379555" fill="hsl(274 50% 50%)" />
  <polygon points="59.81738166747097,14.401367592996213 63.03315023863674,18.601801406844146 60.032027427177226,22.95818449357469 54.96146295411683,21.450143495341422 54.82880457907732,16.16173981527439" fill="hsl(277 50% 50%)" />
  <polygon points="60.74384140402448,53.26179118062978 65.53689079361332,51.02315559689209 69.14709346939868,54.889840012197645 66.585272039721,59.51821798836369 61.39177664728699,58.512028475110185" fill="hsl(281 50% 50%)" />
  <polygon points="58.38532410457538,66.59230589045417 57.82550405580857,61.331943427580214 62.655412145338516,59.173981524647765 66.2002795559729,63.10065018508207 63.56122001182683,67.68542678272193" fill="hsl(284 50% 50%)" />
  <polygon points="27.9712678422794,8.208949555909154 32.72381601326718,10.532330198476206 31.982767864740566,15.770236208455758 26.772226750663147,16.684059509933412 24.292983390911182,12.010927359978693" fill="hsl(288 50% 50%)" />
  <polygon points="94.92084448378905,21.402339169465073 99.94655962398714,23.05370195740671 99.9290516709566,28.343740255887667 94.8925160207122,29.96180093819592 91.79727375634116,25.671779137241312" fill="hsl(292 50% 50%)" />
  <polygon points="6.456409229249932,6.641413990252782 6.768107299525459,1.3605375439797638 11.88683925633202,0.025099457739186093 14.738691514663207,4.480629776844414 11.382501184398466,8.569737038197687" fill="hsl(295 50% 50%)" />
  <polygon points="28.649429733843796,64.55234085713853 23.427103719531402,63.70846721253844 22.615887759569148,58.48096872912239 27.336854738408494,56.09407063483283 31.065788751059372,59.84638496829559" fill="hsl(299 50% 50%)" />
  <polygon points="77.63651940194697,1.3005674012533106 82.15726658792154,4.047867277189247 80.94141684643466,9.196315697241731 75.66923319500843,9.630931934223927 73.62669424498236,4.751091120689018" fill="hsl(302 50% 50%)" />
  <polygon points="39.82088898562409,82.31677775174282 34.548366690648685,81.88628921902452 33.32848662251256,76.7387942605832 37.8470815731813,73.98795595206603 41.85960690222436,77.43533933828847" fill="hsl(306 50% 50%)" />
  <polygon points="90.17636266088712,90.87022443513196 87.52133284094717,86.29467764998768 91.05248709163827,82.35567252360859 95.889890258024,84.49678025879052 95.34841558144564,89.75906273908735" fill="hsl(310 50% 50%)" />
  <polygon points="66.98289509674224,75.43499349048844 69.10095902956465,80.28253069037578 65.14519493804339,83.79490057124619 60.582334345184506,81.1181273387982 61.718095504391464,75.951420620099" fill="hsl(313 50% 50%)" />
  <polygon points="45.735764416821326,91.12196667772669 45.84571612681229,85.83304217937311 50.90975918211233,84.30324491768056 53.92955820078966,88.64670271241162 50.73185357822578,92.86090451994865" fill="hsl(317 50% 50%)" />
  <polygon points="80.84760240521116,72.57222265464931 84.38246265374147,76.50790236102468 81.7317407124789,81.08594614826872 76.55864420952321,79.97965310439547 76.01221668487595,74.71788261452018" fill="hsl(320 50% 50%)" />
  <polygon points="37.4307037834934,1.0901445013969782 42.60802877035244,0.003812274009941774 45.2410735204118,4.592045819940166 41.69105968298892,8.514062327034534 36.86398572086978,6.349768286926772" fill="hsl(324 50% 50%)" />
  <polygon points="18.402790440038245,67.82534286140788 22.343527925350504,71.35456371021706 20.204794292977695,76.19301699381629 14.942246729976517,75.65412472724995 13.828547101001671,70.48261770663827" fill="hsl(328 50% 50%)" />
  <polygon points="8.20638213284985,91.10507504641421 8.348252827839035,96.3932396083126 3.362749917759919,98.16229937593134 0.13966897333032247,93.96747387855133 3.1331983112598385,89.60586937667705" fill="hsl(331 50% 50%)" />
  <polygon points="90.42435276154873,71.33920403932727 93.63863912544656,67.13763589175724 98.62783700208328,68.89624792275733 98.49704450254575,74.1846980785099 93.42701241572128,75.69452799157457" fill="hsl(335 50% 50%)" />
  <polygon points="48.816366217442976,34.156712838867996 47.928803225727734,28.941634348226447 52.61436555922479,26.485963900725757 56.39776532944748,30.18335458964321 54.050472646976594,34.92413815258228" fill="hsl(338 50% 50%)" />
  <polygon points="27.483909315548086,30.922051845451644 29.96472575123182,35.59434908987607 26.287721449405037,39.397564978063585 21.534391378412774,37.07578441909266 22.273676136619393,31.83762923104239" fill="hsl(342 50% 50%)" />
  <polygon points="73.66652417036676,11.45731393717341 75.24238731451626,16.507211666704755 70.92661766457272,19.56645079701817 66.68346218914286,16.407266829734183 68.37681753572053,11.39554463092553" fill="hsl(346 50% 50%)" />
  <polygon points="8.235808513345036,91.7165418575812 9.608136498480675,86.60757644088203 14.891124018822254,86.33398077620554 16.78386188339924,91.27385477296004 12.67065069516013,94.60046046777258" fill="hsl(349 50% 50%)" />
  <polygon points="7.193276062833782,73.9287730149963 1.9109702739509826,74.21522943498003 0.00621177084091773,69.27997799532221 4.111312064441322,65.9433684426031 8.553162076223611,68.81648177149292" fill="hsl(353 50% 50%)" />
  <polygon points="40.608569965926385,66.32230250042743 41.37149458568955,71.55706684587545 36.62869451661553,73.90028242123469 32.93455825231928,70.11370494432683 35.39425655098464,65.43025578720369" fill="hsl(356 50% 50%)" />
</svg>
