<svg xmlns="http://www.w3.org/2000/svg" viewBox="0 0 100 100">
  <polygon points="21.051719170196662,21.495964325223063 23.637481551560175,20.471930812617188 26.33131905806168,21.163343291807706 28.10427732238687,23.306105695989665 28.27914654819854,26.081755616580992 26.789132634823016,28.430089124786754 24.2033702534595,29.45412263739263 21.50953274695799,28.762710158202108 19.736574482632804,26.619947754020153 19.561705256821135,23.844297833428822" fill="hsl(0 50% 50%)" />
  <polygon points="30.360785532948988,15.965895652296851 33.138402457591916,16.106095323308598 35.303134454494554,17.85216150458596 36.02812747737454,20.537156261487727 35.036458833098244,23.135502856492682 32.706912238201674,24.654721204861488 29.92929531355875,24.51452153384974 27.764563316656105,22.768455352572378 27.039570293776123,20.083460595670612 28.03123893805242,17.485114000665657" fill="hsl(4 50% 50%)" />
  <polygon points="81.27435418526612,5.980028050133214 83.36774387144403,4.1490361469237635 86.13756174118465,3.898196165500935 88.52583151089388,5.323320453030857 89.62031530284668,7.880059969870077 89.00295750865295,10.591827120965998 86.90956782247504,12.42281902417545 84.13974995273442,12.673659005598278 81.7514801830252,11.248534718068356 80.6569963910724,8.691795201229136" fill="hsl(7 50% 50%)" />
  <polygon points="38.8033446163185,4.443235924891016 41.15058817113433,2.9515055798922365 43.92636519410485,3.1243455248227257 46.07042320764631,4.895736775332694 46.76380492443746,7.589068081101516 45.74166209584183,10.175578426289634 43.394418541026,11.667308771288415 40.61864151805549,11.494468826357927 38.47458350451402,9.723077575847958 37.78120178772287,7.029746270079136" fill="hsl(11 50% 50%)" />
  <polygon points="59.340698908347896,90.60353683419024 60.96240556779386,92.8629348156276 60.94635300262841,95.64404143763372 59.29867274713812,97.88456849693965 56.64872265632817,98.72871080960438 54.00869359639709,97.85403470353194 52.386986936951125,95.59463672209456 52.40303950211658,92.81353010008846 54.05071975760687,90.57300304078252 56.700669848416815,89.7288607281178" fill="hsl(14 50% 50%)" />
  <polygon points="83.63489443434545,31.57415000613659 83.57146245967107,28.793720522692794 85.15444035958015,26.50702143968821 87.77918437974739,25.587494084787366 90.44313151623693,26.386366653977102 92.12874450714273,28.59849697850689 92.19217648181711,31.378926461950687 90.60919858190803,33.665625544955276 87.98445456174079,34.58515289985612 85.32050742525125,33.78628033066638" fill="hsl(18 50% 50%)" />
  <polygon points="18.31936277744611,82.58519176822071 21.05468291169607,82.08236427197433 23.563157972101024,83.28334911748279 24.88663574551773,85.7294109137354 24.519592705856034,88.48623719314631 22.60222681893263,90.50081401805943 19.866906684682668,91.00364151430581 17.358431624277713,89.80265666879735 16.034953850861008,87.35659487254473 16.401996890522703,84.59976859313383" fill="hsl(22 50% 50%)" />
  <polygon points="90.87278171889761,82.21463411529173 89.39501395680988,84.5706931487518 86.81461797014316,85.60817484970319 84.11721732137035,84.93079647108851 82.33312737704664,82.79729353029428 82.14380985691676,80.02259163560605 83.6215776190045,77.66653260214598 86.20197360567121,76.62905090119459 88.89937425444403,77.30642927980927 90.68346419876774,79.4399322206035" fill="hsl(25 50% 50%)" />
  <polygon points="77.5310691776894,40.84895636281077 78.95314198703133,38.45886836176457 81.50848153572362,37.36111997588387 84.22103496896264,37.97501377747973 86.05469907155131,40.06606319982545 86.30907648025132,42.83555843574077 84.8870036709094,45.225646436786974 82.3316641222171,46.32339482266768 79.61911068897808,45.709501021071816 77.78544658638941,43.6184515987261" fill="hsl(29 50% 50%)" />
  <polygon points="8.226830247844322,36.170124899115415 5.951823441321343,37.76986105176333 3.171002954440032,37.72685933603228 0.9465476965770172,36.05754494575697 0.1281239697825587,33.39953924011327 1.0283418204927823,30.76811005636591 3.303348627015761,29.168373903717995 6.084169113897072,29.21137561944904 8.308624371760088,30.880690009724347 9.127048098554546,33.53869571536805" fill="hsl(32 50% 50%)" />
  <polygon points="4.038529801209081,23.139905389125293 4.159615187808541,20.361389588024515 5.890745934486608,18.18469529030596 8.570688934982243,17.441245734580036 11.175797051018492,18.415013382213033 12.711007526637712,20.734052088954176 12.58992214003825,23.512567890054953 10.858791393360184,25.689262187773508 8.178848392864548,26.432711743499432 5.5737402768283,25.458944095866435" fill="hsl(36 50% 50%)" />
  <polygon points="43.14017342540667,73.71386341958524 45.466409571168256,72.18958092543694 48.244324916406605,72.3237377832711 50.41285021711057,74.06509063321892 51.14368251387532,76.74850187300684 50.157668709412874,79.34899961482938 47.83143256365129,80.87328210897768 45.05351721841294,80.73912525114352 42.88499191770898,78.9977724011957 42.15415962094423,76.31436116140777" fill="hsl(40 50% 50%)" />
  <polygon points="19.95636266811516,91.03935359065865 22.677278224378536,91.61505339394034 24.540157295538123,93.68011835515831 24.833443393341785,96.44576384810381 23.445111196856352,98.8556072953046 20.905456417463462,99.98917040749619 18.18454086120008,99.4134706042145 16.321661790040494,97.34840564299652 16.028375692236832,94.58276015005103 17.416707888722264,92.17291670285024" fill="hsl(43 50% 50%)" />
  <polygon points="62.33600439676937,42.811390628193166 64.94269993775791,43.78090085733213 66.48169711494447,46.09742830513551 66.3651513152339,48.87613822241447 64.63757907286963,51.055657865644854 61.95885426641392,51.8034848102607 59.35215872542538,50.83397458112174 57.81316154823883,48.517447133318356 57.92970734794939,45.7387372160394 59.657279590313664,43.55921757280901" fill="hsl(47 50% 50%)" />
  <polygon points="17.65746313633261,53.46757623473765 18.654855575187504,50.87142137596483 20.9877445469363,49.357340541495454 23.765045756350755,49.50366114838202 25.925924538430728,51.25449369804838 26.644998643990156,53.94107966513161 25.64760620513526,56.53723452390443 23.314717233386464,58.051315358373806 20.537416023972014,57.90499475148724 18.376537241892038,56.15416220182088" fill="hsl(50 50% 50%)" />
  <polygon points="15.500356215300066,67.28223344283117 14.721083397739221,64.61248708715888 15.659875980303791,61.994571845074766 17.958147104840403,60.42844235938853 20.73803531713851,60.51230686284892 22.93771780502542,62.214131965583704 23.716990622586266,64.88387832125599 22.778198040021696,67.5017935633401 20.479926915485084,69.06792304902635 17.700038703186976,68.98405854556596" fill="hsl(54 50% 50%)" />
  <polygon points="1.0365374597958539,75.95373350163132 3.2872704373081882,74.32002214654038 6.068423106941002,74.32126954739856 8.317689676797068,75.95699923947562 9.17592676695026,78.60241807680555 8.315316979367864,81.24706597800753 6.064584001855531,82.88077733309846 3.283431332222717,82.87952993224029 1.0341647623666503,81.24380024016322 0.17592767221345795,78.5983814028333" fill="hsl(58 50% 50%)" />
  <polygon points="16.261304789670625,52.12290308923056 17.89211492749094,54.3757390846366 17.88728426965322,57.15688783875952 16.248657963263458,59.4040450552938 13.602135562502841,60.25887305558794 10.958598672473952,59.39485659806469 9.327788534653639,57.142020602658654 9.332619192491356,54.36087184853573 10.97124549888112,52.113714632001454 13.617767899641738,51.25888663170731" fill="hsl(61 50% 50%)" />
  <polygon points="57.87091796663919,20.18858088941122 59.233726767826525,22.6129496524547 58.91125404303533,25.375344097420943 57.02667341269104,27.42062343666675 54.29983062304549,27.96756047908815 51.77228693776568,26.807243864186503 50.40947813657834,24.382875101143025 50.73195086136954,21.62048065617678 52.61653149171383,19.575201316930972 55.34337428135938,19.028264274509574" fill="hsl(65 50% 50%)" />
  <polygon points="85.0692335508656,23.39644313314874 85.10487468543269,26.177367698350285 83.49912252183293,28.448132264946597 80.86531980905278,29.341381948946815 78.20948966371255,28.51592573150295 76.54606893298565,26.287059831453643 76.51042779841856,23.506135266252098 78.11617996201831,21.235370699655785 80.74998267479847,20.342121015655568 83.4058128201387,21.16757723309943" fill="hsl(68 50% 50%)" />
  <polygon points="5.000962073788622,60.96083310779174 2.3246423820900093,60.20444389869311 0.6040486912268515,58.0194109289701 0.49638931028025013,55.2403425265178 2.0427864635640325,52.928748364012094 4.652568998629876,51.96757884333432 7.328888690328492,52.72396805243296 9.04948238119165,54.90900102215596 9.157141762138252,57.688069424608265 7.61074460885447,59.99966358711397" fill="hsl(72 50% 50%)" />
  <polygon points="94.89079847718311,42.71671080843021 93.42099929635518,45.07774915963337 90.84412325781285,46.123943027805524 88.1444494234841,45.45568191412663 86.35316143954378,43.32821885066217 86.15447043221779,40.55417241784558 87.62426961304571,38.193134066642415 90.20114565158805,37.14694019847026 92.9008194859168,37.815201312149156 94.69210746985712,39.94266437561362" fill="hsl(76 50% 50%)" />
  <polygon points="31.855694332267134,46.78290495833513 32.37061030547066,44.04983465767426 34.39364449467445,42.14139435283703 37.15206660000573,41.78654337477106 39.592253132547,43.12082273615639 40.78213577575724,45.634583071431344 40.26721980255371,48.367653372092214 38.24418561334993,50.27609367692944 35.48576350801864,50.63094465499542 33.045576975477374,49.29666529361008" fill="hsl(79 50% 50%)" />
  <polygon points="44.20818511348318,56.43440890920262 41.446413762072375,56.76217518315582 39.01943762217463,55.40401519840378 37.85427908934585,52.87869990696176 38.39598912084469,50.15081391785074 40.43765289668535,48.26231696147653 43.19942424809616,47.93455068752333 45.626400387993904,49.29271067227536 46.79155892082268,51.81802596371739 46.24984888932384,54.545911952828405" fill="hsl(83 50% 50%)" />
  <polygon points="83.06027428480388,85.70645005185534 85.75874272551557,86.37956207989944 87.5462042296108,88.5102411029323 87.73990925610718,91.2846401532718 86.26586906867482,93.64303309204365 83.68711691812959,94.6845939754648 80.9886484774179,94.01148194742069 79.20118697332268,91.88080292438784 79.00748194682629,89.10640387404834 80.48152213425865,86.74801093527648" fill="hsl(86 50% 50%)" />
  <polygon points="50.0414739104862,19.119772894414808 47.380620796856874,18.310654586932053 45.70353321689347,16.092053907010783 45.65080162403169,13.3114009069173 47.24256769446383,11.030810521767949 49.87083089142366,10.121390764273567 52.53168400505298,10.930509071756322 54.208771585016386,13.14910975167759 54.26150317787816,15.929762751771074 52.669737107446025,18.210353136920425" fill="hsl(90 50% 50%)" />
  <polygon points="72.92244286476998,15.498341384472932 72.27431959613808,12.79376231251505 73.33968854952076,10.224754581700887 75.71161499528472,8.772591827840213 78.48410364996285,8.991950865711159 80.59815808089158,10.799043998586496 81.24628134952347,13.503623070544377 80.1809123961408,16.07263080135854 77.80898595037684,17.524793555219215 75.03649729569871,17.30543451734827" fill="hsl(94 50% 50%)" />
  <polygon points="52.83995466841618,8.746010441232261 50.09293648152061,9.180409806654856 47.615218543864415,7.917189497590997 46.353204893096986,5.438856736823933 46.78894184954514,2.69205040353432 48.755992706000114,0.7259571565253173 51.50301089289569,0.29155779110272384 53.98072883055188,1.554778100166582 55.24274248131931,4.033110860933646 54.80700552487116,6.779917194223259" fill="hsl(97 50% 50%)" />
  <polygon points="49.31347038439446,65.0852344577031 49.20090560290285,62.30636042353343 50.74321995697145,59.992040186174606 53.351301784682896,59.02626541544598 56.02895247329237,59.77792924828873 57.7534004697506,61.959921648670964 57.865965251242216,64.73879568284062 56.323650897173614,67.05311592019945 53.71556906946217,68.01889069092807 51.037918380852695,67.26722685808532" fill="hsl(101 50% 50%)" />
  <polygon points="82.2664988353124,29.78286447420436 83.92600099209857,32.01464948164497 83.95675612547942,34.79563237436211 82.34701681983199,37.06357220946982 79.71164877688697,37.952193054396794 77.05727301618404,37.12207194949258 75.39777085939788,34.89028694205197 75.36701572601703,32.10930404933484 76.97675503166445,29.841364214227124 79.61212307460947,28.952743369300144" fill="hsl(104 50% 50%)" />
  <polygon points="67.49664877324804,25.1620644984423 69.79876711624237,23.601595702642907 72.57844052362057,23.692301138693445 74.77392823138838,25.399534412986995 75.54662855706111,28.071190441468186 74.60139623934987,30.686787427505767 72.29927789635553,32.24725622330516 69.51960448897734,32.15655078725462 67.32411678120953,30.449317512961077 66.5514164555368,27.777661484479882" fill="hsl(108 50% 50%)" />
  <polygon points="75.36949739263518,48.31850589302813 74.1830545640121,50.833891577614786 71.7446955435741,52.17150774650004 68.9857906003536,51.820430487071135 66.96014765093072,49.91475937975276 66.44149345291343,47.182396016161874 67.62793628153652,44.66701033157522 70.06629530197452,43.329394162689965 72.82520024519502,43.68047142211887 74.8508431946179,45.58614252943725" fill="hsl(112 50% 50%)" />
  <polygon points="57.79724945255382,29.06425915561125 59.038394616695044,26.575409941748852 61.50541101005961,25.291415454733773 64.25598222118543,25.7027179472383 66.23948353589942,27.652213846783233 66.69828486871093,30.395261980670977 65.4571397045697,32.884111194533375 62.99012331120513,34.168105681548454 60.2395521000793,33.75680318904393 58.25605078536532,31.807307289498993" fill="hsl(115 50% 50%)" />
  <polygon points="26.351145730480674,42.68546160032585 27.07966922720172,45.36950057965159 26.0914185882247,47.96914909481208 23.763871968235023,49.491429771819206 20.98607306566882,49.35488313247345 18.819046647394217,47.61166535195531 18.09052315067317,44.92762637262957 19.078773789650192,42.32797785746908 21.406320409639868,40.805697180461955 24.18411931220607,40.942243819807715" fill="hsl(119 50% 50%)" />
  <polygon points="14.181170482490616,44.01663240003968 11.530018434677647,43.17627262756618 9.8791424542048,40.93809921495659 9.859121054401895,38.157018333111445 11.477601729491292,35.89530835343306 14.116379871723716,35.01686561546374 16.767531919536683,35.857225387937255 18.41840790000953,38.09539880054684 18.438429299812434,40.87647968239198 16.81994862472304,43.13818966207037" fill="hsl(122 50% 50%)" />
  <polygon points="0.06595455473895484,40.866912546100224 1.7157991505800974,38.62797875132459 4.366563732121587,37.786397584080575 7.005746325388966,38.66362444596358 8.625268882271186,40.924588491578696 8.606528831586374,43.70567830284243 6.956684235745232,45.94461209761806 4.305919654203743,46.78619326486208 1.6667370609363599,45.908966402979075 0.04721450405414185,43.64800235736395" fill="hsl(126 50% 50%)" />
  <polygon points="49.33676122753962,45.03770793766762 49.709697521249176,42.281672696846336 51.6313661900325,40.27119980341276 54.36775511753012,39.774221569198176 56.87365673987682,40.980566788003635 58.19190180979967,43.429452588411394 57.81896551609011,46.18548782923268 55.897296847306784,48.19596072266625 53.16090791980917,48.69293895688084 50.655006297462464,47.48659373807538" fill="hsl(130 50% 50%)" />
  <polygon points="78.58070462007528,70.00453360117635 75.91994021301426,69.19512363216691 74.24309583251618,66.97633913352658 74.19066903808701,64.19568037002458 75.78268508327753,61.9152644782034 78.41104794946013,61.006132820253335 81.07181235652115,61.815542789262764 82.74865673701923,64.0343272879031 82.8010835314484,66.8149860514051 81.20906748625788,69.09540194322628" fill="hsl(133 50% 50%)" />
  <polygon points="99.96353683365876,68.53560957978023 98.30999379094266,70.77181331238148 95.65784179331047,71.60901192040123 93.02011276052676,70.72742399091003 91.40432953000253,68.46378614890187 91.42766637734593,65.68273111180342 93.08120942006204,63.44652737920217 95.73336141769423,62.60932877118242 98.37109045047794,63.490916700673615 99.98687368100217,65.75455454268177" fill="hsl(137 50% 50%)" />
  <polygon points="99.9226779890182,14.926364879411363 99.01155590929915,17.554038429086635 96.72993490251804,19.144326864946564 93.94931664381951,19.089794056408564 91.73180279828787,17.411269682832163 90.9244082843927,14.749893003978414 91.83553036411175,12.122219454303142 94.11715137089286,10.531931018443212 96.89776962959138,10.586463826981213 99.11528347512302,12.264988200557616" fill="hsl(140 50% 50%)" />
  <polygon points="15.40783922373552,48.9194739270178 13.784009223653197,51.17734634561174 11.143159048403266,52.04954017710624 8.494003705735086,51.202907022648375 6.848430495069526,48.96083197123853 6.834992451904538,46.179711487187085 8.458822451986862,43.921839068593144 11.09967262723679,43.049645237098645 13.748827969904973,43.89627839155651 15.394401180570533,46.138353442966356" fill="hsl(144 50% 50%)" />
  <polygon points="80.25113954775513,45.97116209771459 82.72056723938807,47.25051295014367 83.9663926447336,49.73702271027137 83.51275280299785,52.48092916308724 81.53292271507273,54.434153305565786 78.78313018259595,54.850629902927075 76.31370249096301,53.571279050497985 75.0678770856175,51.08476929037029 75.52151692735326,48.34086283755442 77.50134701527837,46.38763869507588" fill="hsl(148 50% 50%)" />
  <polygon points="11.500631248679174,30.14825252214537 12.614605754390471,27.599944744729168 15.013687790678794,26.19309823178851 17.781509561481315,26.465080534312452 19.860857225153392,28.312003657075312 20.457490648599972,31.02840574178977 19.343516142888674,33.57671351920597 16.94443410660035,34.98356003214663 14.17661233579783,34.71157772962268 12.097264672125755,32.86465460685983" fill="hsl(151 50% 50%)" />
  <polygon points="21.91269664970362,13.763899231664737 23.63266137326778,15.949427332035329 23.739520878487973,18.72852660589345 22.192458466391088,21.039675588735445 19.582399395680735,22.000093922180422 16.9062975187233,21.24293444627093 15.18633279515914,19.05740634590034 15.079473289938944,16.27830707204222 16.62653570203583,13.967158089200224 19.236594772746184,13.006739755755245" fill="hsl(155 50% 50%)" />
  <polygon points="32.397759196601676,84.5694399125531 30.573876114758022,86.66902611739897 27.86421789866842,87.29557546086104 25.303781888983693,86.20976738936572 23.870567615384253,83.82634368096525 24.11201421722359,81.0556911826763 25.935897299067243,78.95610497783042 28.645555515156843,78.32955563436835 31.205991524841572,79.41536370586367 32.63920579844101,81.79878741426413" fill="hsl(158 50% 50%)" />
  <polygon points="74.92322100992624,99.74814172028408 72.48564840170157,98.40909298799411 71.30068383356591,95.89301057676873 71.82094349508277,93.16095244920025 73.84770587852822,91.25647195077943 76.60681664054582,90.9070159009917 79.04438924877049,92.24606463328166 80.22935381690614,94.76214704450705 79.70909415538928,97.49420517207554 77.68233177194384,99.39868567049635" fill="hsl(162 50% 50%)" />
  <polygon points="95.62245994567536,46.27359934456552 97.28051625559735,48.50645872234607 97.30947017525249,51.28746095146262 95.69826229144006,53.55435770318188 93.06231925283461,54.441271467333806 90.40848170777477,53.60943133110249 88.75042539785278,51.37657195332194 88.72147147819764,48.59556972420539 90.33267936201007,46.32867297248613 92.96862240061552,45.441759208334204" fill="hsl(166 50% 50%)" />
  <polygon points="45.374088001385985,70.00041929565492 42.67351357779378,69.33580699479505 40.87935228347096,67.21076652982302 40.67691275154934,64.4369911308893 42.14352000255636,62.073968723228234 44.718979914754385,61.02429355038876 47.41955433834659,61.68890585124864 49.213715632669405,63.81394631622066 49.41615516459103,66.58772171515439 47.94954791358401,68.95074412281545" fill="hsl(169 50% 50%)" />
  <polygon points="66.49681099564232,40.42817883097422 66.25181238713587,37.65783816426109 67.68196973697601,35.272578915769884 70.24101154678429,34.18348904644421 72.95147082384598,34.806563869563284 74.77804424944598,36.903809980229966 75.02304285795243,39.67415064694309 73.59288550811229,42.0594098954343 71.03384369830401,43.148499764759976 68.32338442124232,42.5254249416409" fill="hsl(173 50% 50%)" />
  <polygon points="32.15059928512838,67.42682595427556 30.26857506639866,69.47445789579469 27.542417632273132,70.02480085448205 25.013426463904548,68.86764252558824 23.647590230361395,66.44497806038565 23.966611949791023,63.68218294124512 25.84863616852074,61.63455099972598 28.57479360264627,61.08420804103863 31.103784771014855,62.24136636993244 32.46962100455801,64.66403083513502" fill="hsl(176 50% 50%)" />
  <polygon points="88.07130275360794,21.716634563740314 85.32141952588935,22.13251190350121 82.8522706950443,20.852622932163804 81.60698719117352,18.365841734952845 82.06122498712611,15.622034206618766 84.04148068382301,13.669241564397346 86.7913639115416,13.253364224636451 89.26051274238665,14.533253195973858 90.50579624625743,17.020034393184815 90.05155845030484,19.763841921518893" fill="hsl(180 50% 50%)" />
  <polygon points="6.1553146741365765,62.35657217357265 7.78385820374851,60.10209713490539 10.426524774674041,59.23542238465169 13.073905577752754,60.08758822021713 14.71479112737257,62.333096256467165 14.722418915227273,65.11423874556532 13.093875385615341,67.36871378423258 10.451208814689808,68.23538853448628 7.803828011611096,67.38322269892085 6.16294246199128,65.1377146626708" fill="hsl(184 50% 50%)" />
  <polygon points="37.66411129119591,91.2280869108789 36.1523407804899,88.89370012827959 36.3014108696922,86.11654513866885 38.0543818514335,83.95740075605161 40.74167839198089,83.24098674796926 43.33684455069529,84.2409489154927 44.8486150614013,86.575335698092 44.699544972199,89.35249068770274 42.9465739904577,91.51163507031998 40.25927744991031,92.22804907840234" fill="hsl(187 50% 50%)" />
  <polygon points="91.39532693107083,67.01154186398544 89.74061747231407,69.24688262881651 87.088029064011,70.08269747909785 84.4507603199694,69.19973355032388 82.83615826294545,66.93525305244616 82.86094600041676,64.15421056879264 84.51565545917352,61.91886980396158 87.16824386747659,61.08305495368023 89.80551261151818,61.966018882454186 91.42011466854214,64.23049938033192" fill="hsl(191 50% 50%)" />
  <polygon points="76.11414591066281,61.75242206097893 73.34812014758737,62.04209982301373 70.94008998193925,60.6506249043956 69.809841091061,58.10949342954367 70.38909013552126,55.38933125196923 72.4565836682871,53.529147868593796 75.22260943136254,53.239470106559 77.63063959701066,54.63094502517713 78.7608884878889,57.17207650002906 78.18163944342865,59.892238677603494" fill="hsl(194 50% 50%)" />
  <polygon points="32.74803781455798,70.7016852477712 34.29797924577546,73.01090444213325 34.194583217159504,75.7901347292957 32.47734349733965,77.97780460212562 29.802187292455745,78.73829852536613 27.190933347558254,77.78113366857713 25.640991916340777,75.47191447421507 25.744387944956735,72.69268418705262 27.461627664776586,70.5050143142227 30.136783869660494,69.74452039098219" fill="hsl(198 50% 50%)" />
  <polygon points="72.31006226537,87.2654858141586 69.83696204503867,85.99324879692799 68.58398409414691,83.51033559216353 69.02972340278119,80.7651346529693 71.00392270516507,78.80621943216937 73.75250496835423,78.3818289630298 76.22560518868555,79.6540659802604 77.47858313957731,82.13697918502487 77.03284383094304,84.88218012421909 75.05864452855916,86.84109534501903" fill="hsl(202 50% 50%)" />
  <polygon points="1.3829811077465406,84.51550582281025 3.633046293725005,82.88087485936244 6.414199240888271,82.88098576341653 8.66413405133191,84.51579617339334 9.523452099938005,87.1608640778439 8.663923099285263,89.80586343981953 6.413857913306798,91.44049440326735 3.6327049661435327,91.44038349921325 1.382770155699892,89.80557308923645 0.5234521070937967,87.16050518478589" fill="hsl(205 50% 50%)" />
  <polygon points="49.35399104106163,59.23257139253445 47.07332268875472,57.64091703476694 46.16377419144811,55.01269838730591 46.97276216069653,52.35180564361519 49.191280688736846,50.674609391366666 51.971931102529034,50.621741593115345 54.25259945483595,52.213395950882855 55.16214795214256,54.84161459834389 54.35315998289414,57.50250734203461 52.13464145485383,59.17970359428313" fill="hsl(209 50% 50%)" />
  <polygon points="37.780369957270544,21.068177446369972 35.78710205261136,19.128668542531116 35.31452917376636,16.387959400357364 36.543158098292935,13.892907758881531 39.003694336583195,12.596538541461152 41.75629667616103,12.994020727181724 43.74956458082023,14.933529631020592 44.22213745966523,17.67423877319433 42.99350853513863,20.16929041467018 40.5329722968484,21.465659632090546" fill="hsl(212 50% 50%)" />
  <polygon points="57.26550977734387,31.790669865203647 56.62208722404027,34.496371095146614 54.51117616378345,36.30713508404745 51.739072874363444,36.53131153375037 49.3646265920133,35.08327265994614 48.29479509212995,32.51612009539685 48.938217645433554,29.810418865453883 51.04912870569037,27.999654876553045 53.82123199511038,27.77547842685013 56.19567827746052,29.223517300654358" fill="hsl(216 50% 50%)" />
  <polygon points="95.27213129788937,62.73458987150191 92.62516245630657,61.881145274879295 90.98536182742856,59.634844844094054 90.97907751671333,56.853698994762624 92.60870991725822,54.600010913658906 95.25179484122316,53.73461284772401 97.89876368280598,54.588057444346624 99.53856431168398,56.834357875131865 99.54484862239921,59.615503724463295 97.91521622185432,61.86919180556701" fill="hsl(220 50% 50%)" />
  <polygon points="66.6646933074296,96.61793509601293 64.06046598464077,95.64181431503613 62.527351222803404,93.32138960071097 62.65094675228518,90.54298432557441 64.3840432816816,88.36785487020659 67.0646568425477,87.62682675662697 69.66888416533654,88.60294753760375 71.2019989271739,90.92337225192892 71.07840339769213,93.70177752706549 69.34530686829571,95.87690698243331" fill="hsl(223 50% 50%)" />
  <polygon points="95.47322899229803,38.638774963123566 92.84702832987782,37.723416121729514 91.26042179086808,35.439233244159034 91.31943914639768,32.65870655312352 93.00153777258046,30.44390273797225 95.66421316664412,29.64080157768008 98.29041382906433,30.556160419074132 99.87702036807407,32.84034329664461 99.81800301254447,35.62086998768012 98.13590438636169,37.835673802831394" fill="hsl(227 50% 50%)" />
  <polygon points="34.1927946959422,62.566693488298874 33.55543493568187,59.859557683834026 34.631014559917894,57.29480814445539 37.00869870979893,55.85209202157496 39.78029285458233,56.0824778380156 41.887142233981024,57.89796604242287 42.52450199424135,60.60510184688772 41.44892237000533,63.16985138626636 39.07123822012429,64.61256750914679 36.29964407534089,64.38218169270615" fill="hsl(230 50% 50%)" />
  <polygon points="71.03232162192155,2.7857231509636655 72.43682782894105,5.186176033704413 72.16214641582694,7.953731245277305 70.31319634631099,10.0312767606034 67.5962137034468,10.625260806003048 65.04899350996497,9.508801664908741 63.64448730294548,7.108348782167994 63.91916871605959,4.340793570595102 65.76811878557554,2.263248055269008 68.48510142843973,1.6692640098693596" fill="hsl(234 50% 50%)" />
  <polygon points="64.35203862113856,41.50684254809854 61.92189594527152,42.85932851946549 59.16089791383733,42.525110629113854 57.12365193197228,40.63184875150966 56.588316721304686,37.902704574293274 57.75937213693498,35.38011841296248 60.18951481280202,34.02763244159553 62.950512844236215,34.36185033194717 64.98775882610126,36.25511220955136 65.52309403676885,38.98425638676775" fill="hsl(238 50% 50%)" />
  <polygon points="88.22732488987987,53.2138751063008 89.83012970378427,55.486720999963524 89.79088073987043,58.26759698544837 88.12456976833025,60.494302954798485 85.46767094446518,61.3163129106744 82.8350293143221,60.41964698902232 81.2322245004177,58.14680109535959 81.27147346433154,55.365925109874745 82.93778443587172,53.13921914052463 85.59468325973678,52.31720918464872" fill="hsl(241 50% 50%)" />
  <polygon points="62.54062755255398,2.2587335761585186 63.84710930558885,4.713915271431102 63.46095565445518,7.46812969400803 61.52966416900615,9.469360546770083 58.790922554500035,9.953205663297094 56.29083702127439,8.734852654366398 54.98435526823952,6.2796709590938145 55.370508919373194,3.5254565365168857 57.30180040482222,1.5242256837548318 60.040542019328335,1.040380567227821" fill="hsl(245 50% 50%)" />
  <polygon points="89.95515599262427,4.3422826503175305 91.17756755441114,1.8441790292832776 93.63486774915948,0.5416862344071163 96.3884514230372,0.9323122432298794 98.38654320348977,2.8668511972709814 98.86593994302612,5.606374968647427 97.64352838123926,8.10447858968166 95.1862281864909,9.406971384557835 92.43264451261321,9.016345375735078 90.43455273216063,7.081806421693955" fill="hsl(248 50% 50%)" />
  <polygon points="28.274814081656846,96.16557772320722 25.674814751892736,95.1782504152486 24.151707539553804,92.85124458209395 24.287267631243413,90.07339735998909 26.029715679454192,87.90575197222357 28.713495753400533,87.1762752813669 31.313495083164643,88.16360258932552 32.836602295503575,90.49060842248016 32.70104220381397,93.26845564458503 30.958594155603187,95.43610103235055" fill="hsl(252 50% 50%)" />
  <polygon points="46.77738210205287,40.65101908289161 44.64949263491182,42.44180051663635 41.87539897700895,42.63983108245297 39.514710617687605,41.16946983501092 38.46913027336233,38.59234479509236 39.13803409759656,35.89283013468774 41.265923564737605,34.102048700943 44.040017222640486,33.90401813512638 46.40070558196182,35.37437938256843 47.446285926287096,37.951504422487" fill="hsl(256 50% 50%)" />
  <polygon points="72.8556936471356,75.64137442594375 70.07465021915912,75.61669286352462 67.83924628222489,73.96206874713033 67.00333016165645,71.30951225061825 67.88619340376701,68.67220979857665 70.15061225748823,67.05752128907197 72.93165568546472,67.08220285149109 75.16705962239895,68.73682696788538 76.0029757429674,71.38938346439745 75.12011250085683,74.02668591643906" fill="hsl(259 50% 50%)" />
  <polygon points="40.88763308190632,96.80289757775742 39.29772015526502,99.08478026832535 36.6701965850585,99.99633477345591 34.008687068864184,99.18937825478731 32.32979778048701,96.9721406750077 32.27480736473894,94.19153142845929 33.864720291380245,91.90964873789136 36.492243861586765,90.99809423276079 39.15375337778108,91.80505075142939 40.83264266615825,94.02228833120901" fill="hsl(263 50% 50%)" />
  <polygon points="26.237755636495713,2.7358072101925153 26.827978821729253,5.453609322088707 25.70799540903538,7.999281901802213 23.305600995227053,9.400464548111099 20.538428591996173,9.121953114571895 18.463444004646206,7.270129502541117 17.873220819412666,4.552327390644925 18.993204232106535,2.00665481093142 21.395598645914863,0.6054721646225323 24.162771049145743,0.8839835981617368" fill="hsl(266 50% 50%)" />
  <polygon points="33.44931375520713,36.729130408633196 34.76067183879861,39.18171103002241 34.37999209482419,41.936687374810546 32.45268124665349,43.94175211749049 29.71490653140133,44.43103867600255 27.21240483675397,43.2176562152336 25.90104675316249,40.76507559384439 26.28172649713691,38.01009924905625 28.209037345307607,36.00503450637631 30.94681206055977,35.51574794786425" fill="hsl(270 50% 50%)" />
  <polygon points="16.09443448009061,71.42633460310596 17.00783606946686,74.05321664544047 16.202750953965175,76.71529284356333 13.98669428387056,78.3957405704337 11.206124386163246,78.4526859107046 8.92312445367261,76.86437767989348 8.009722864296357,74.23749563755896 8.814807979798044,71.5754194394361 11.030864649892658,69.89497171256573 13.811434547599973,69.83802637229483" fill="hsl(274 50% 50%)" />
  <polygon points="56.09185260022356,14.484309917969428 57.24776857558704,11.954750670647057 59.66976186410172,10.587724614492881 62.43271335007914,10.905389239451072 64.48126947514294,12.78640745581109 65.03295142738052,15.512294238381115 63.87703545201705,18.041853485703484 61.45504216350236,19.40887954185766 58.692090677524945,19.091214916899467 56.64353455246115,17.21019670053945" fill="hsl(277 50% 50%)" />
  <polygon points="70.28864791048356,54.87748311037203 69.79562362005083,57.61458719623686 67.78792917479029,59.539158510136296 65.0324356137671,59.9160762239338 62.58164782151063,58.60137058192063 61.37168343544953,56.097214454144556 61.864707725882255,53.36011036827973 63.872402171142795,51.43553905438029 66.62789573216598,51.05862134058279 69.07868352442246,52.37332698259596" fill="hsl(281 50% 50%)" />
  <polygon points="58.319552643266405,63.416277779173434 59.685495629192566,60.99367350133238 62.214537784809714,59.83662661251327 64.9406709656534,60.387089697667676 66.8226049545002,62.43480456781874 67.14150493219431,65.19761374183733 65.77556194626816,67.62021801967839 63.246519790651,68.7772649084975 60.52038660980731,68.2268018233431 58.63845262096051,66.17908695319204" fill="hsl(284 50% 50%)" />
  <polygon points="26.385677538605883,8.216311360008678 29.080350564908578,8.904460333074326 30.85590301972303,11.045073611557156 31.034134214118428,13.820509679846067 29.546965889691222,16.170646293457075 26.962445799380376,17.197811144196347 24.267772773077677,16.509662171130696 22.49222031826323,14.369048892647868 22.31398912386783,11.593612824358955 23.801157448295037,9.24347621074795" fill="hsl(288 50% 50%)" />
  <polygon points="91.33194579408841,22.73925470217648 92.98026567387446,20.499198162328266 95.63045666721152,19.65581246962906 98.2702358913237,20.53124229306458 99.89129740539596,22.79110319484778 99.87445080890707,25.572205120344464 98.22613092912103,27.81226166019268 95.57593993578396,28.655647352891886 92.93616071167179,27.780217529456365 91.31509919759952,25.520356627673166" fill="hsl(292 50% 50%)" />
  <polygon points="15.829100215554124,7.657442747232672 13.487787443217417,9.158464475892067 10.71134718577335,8.996627444720055 8.560285253832056,7.233747898985971 7.85623419348909,4.54318590708826 8.868117579980064,1.95264470109323 11.20943035231677,0.45162297243383787 13.985870609760834,0.6134600036058497 16.13693254170213,2.3763395493399333 16.840983602045096,5.066901541237644" fill="hsl(295 50% 50%)" />
  <polygon points="33.942081323640735,54.4804273624967 34.6257556105893,57.17623915065625 33.59430131531148,59.75905036415358 31.241698920761333,61.24231490595707 28.46656257964262,61.05947613540533 26.328900050847672,59.28037224838788 25.645225763899106,56.584560460228325 26.676680059176924,54.001749246730995 29.029282453727074,52.5184847049275 31.804418794845787,52.70132347547924" fill="hsl(299 50% 50%)" />
  <polygon points="78.75592311942665,0.41159530997040417 80.75176316030073,2.3484572717679937 81.22797277455095,5.088536856581231 80.00265607530322,7.585216794891159 77.54384239468733,8.884850209293376 74.79071498669532,8.491021308401312 72.79487494582125,6.554159346603722 72.31866533157103,3.8140797617904845 73.54398203081875,1.3173998234805562 76.00279571143464,0.01776640907833915" fill="hsl(302 50% 50%)" />
  <polygon points="33.19996265277035,79.9007903621557 33.79077044916345,77.18311527570114 35.86615333319535,75.3317380552293 38.63338558283563,75.05382187296307 41.03547853348654,76.45552126450457 42.154914322135966,79.001434704295 41.56410652574286,81.71910979074954 39.48872364171097,83.57048701122139 36.72149139207069,83.84840319348761 34.31939844141978,82.44670380194611" fill="hsl(306 50% 50%)" />
  <polygon points="94.52767664225092,84.51593360399418 96.35459965722139,86.6128751924 96.60006008316353,89.38317497890522 95.17030038026047,91.76867260409146 92.61144015927623,92.85818905521973 89.90087705216672,92.23556607926118 88.07395403719626,90.13862449085538 87.82849361125412,87.36832470435014 89.25825331415717,84.9828270791639 91.81711353514142,83.89331062803564" fill="hsl(310 50% 50%)" />
  <polygon points="61.639677848650884,83.35783133659754 59.52123730435939,81.55588200653395 58.86654214404433,78.85288626571699 59.925663666676,76.28129661569251 62.29405344882565,74.82337289765243 65.06706709232006,75.03599241888344 67.18550763661155,76.83794174894703 67.8402027969266,79.54093748976399 66.78108127429493,82.11252713978847 64.41269149214529,83.57045085782855" fill="hsl(313 50% 50%)" />
  <polygon points="46.97945320020444,91.24874878863689 45.59112197604167,88.83890478127265 45.88440918972671,86.07325940666232 47.74728909409763,84.00819519707812 50.46820488264389,83.43249649163026 53.007859204667035,84.56606062852053 54.396190428829804,86.97590463588477 54.102903215144764,89.7415500104951 52.24002331077384,91.8066142200793 49.519107522227586,92.38231292552716" fill="hsl(317 50% 50%)" />
  <polygon points="85.2358332408257,75.10604032615726 83.68744766441924,77.41630304597746 81.07683906362995,78.37522664110881 78.40117119263653,77.61653489082535 76.6824582355524,75.43002225675123 76.57719012507884,72.6508622482717 78.1255757014853,70.34059952845149 80.7361843022746,69.38167593332014 83.41185217326802,70.1403676836036 85.13056513035214,72.32688031767772" fill="hsl(320 50% 50%)" />
  <polygon points="33.115501772084926,11.316756037494654 30.444290713629567,10.542518858717752 28.73832076723848,8.346049357489697 28.64921446864723,5.566324228027074 30.211007395305973,3.265103990402405 32.82714773262025,2.3213765597892024 35.49835879107561,3.095613738566103 37.204328737466696,5.2920832397941595 37.29343503605794,8.071808369256782 35.7316421093992,10.373028606881451" fill="hsl(324 50% 50%)" />
  <polygon points="24.511659326654897,73.28914030484363 25.724041666655364,75.79212667905138 25.233661105947487,78.52970565206648 23.227826351299445,80.45621510308422 20.472698103170977,80.8357939014637 18.020641708982215,79.52345584763282 16.808259368981748,77.02046947342508 17.298639929689628,74.28289050040998 19.30447468433767,72.35638104939224 22.059602932466134,71.97680225101276" fill="hsl(328 50% 50%)" />
  <polygon points="6.109230869093546,100.00000000000001 3.3280779197193184,99.99999871824348 1.078078673117151,98.36527699326875 0.2186563668274193,95.72024296186835 1.0780811111629784,93.07520972263706 3.3280818645603327,91.440490071588 6.109234813934564,91.44049135334454 8.359234060536732,93.07521307831925 9.218656366826464,95.72024710971966 8.359231622490906,98.36528034895096" fill="hsl(331 50% 50%)" />
  <polygon points="97.34651363674877,74.01082922882108 97.34917665939989,76.79198090324033 95.7166111513689,79.04354515722069 93.07240164786289,79.90550097359596 90.42654630584569,79.04861052731145 88.78967193665238,76.80017684421279 88.78700891400126,74.01902516979354 90.41957442203226,71.76746091581317 93.06378392553826,70.9055050994379 95.70963926755546,71.76239554572241" fill="hsl(335 50% 50%)" />
  <polygon points="48.22346132223537,27.440536289340738 45.7805166187866,28.76975895831167 43.02283535554432,28.409195817964378 41.00375804492834,26.496569732821133 40.49450359368024,23.762438859637 41.68958989325461,21.25114826227789 44.13253459670339,19.92192559330696 46.89021585994566,20.28248873365425 48.90929317056164,22.195114818797496 49.41854762180974,24.929245691981627" fill="hsl(338 50% 50%)" />
  <polygon points="27.891266696212035,31.751921555054334 28.39090374236615,34.48782625915589 27.18699416697563,36.99489894699277 24.7393905084582,38.315523064077844 21.982994173378927,37.945265084047435 19.970654875272455,36.02555097066727 19.471017829118345,33.28964626656571 20.674927404508868,30.782573578728833 23.122531063026297,29.461949461643762 25.878927398105567,29.832207441674175" fill="hsl(342 50% 50%)" />
  <polygon points="70.38681512984388,23.256051628671695 67.61191979269259,23.44251233678647 65.25738345296352,21.962319662601836 64.22255896468641,19.380856897757717 64.90271410999239,16.684155077732292 67.0380527409977,14.902262640251575 69.81294807814899,14.715801932136799 72.16748441787806,16.195994606321435 73.20230890615517,18.777457371165553 72.52215376084919,21.474159191190978" fill="hsl(346 50% 50%)" />
  <polygon points="16.557132220770185,93.52025580902482 14.32518294168362,95.1795370218997 11.544197017985844,95.21001685145067 9.276416550294385,93.60005303876055 8.388056598244248,90.96459703961959 9.218440469274356,88.31030346984481 11.45038974836092,86.65102225696992 14.231375672058695,86.62054242741895 16.499156139750156,88.23050624010908 17.387516091800293,90.86596223925004" fill="hsl(349 50% 50%)" />
  <polygon points="0.0029872090616507307,71.21555506377167 0.00005002797422903882,68.43440366537894 1.6323935749267888,66.18267848842306 4.276518096300012,65.32046201717732 6.922457895416375,66.17709163799759 8.559553901199497,68.42536395150047 8.562491082286918,71.20651534989321 6.930147535334359,73.45824052684908 4.2860230139611355,74.32045699809483 1.6400832148447724,73.46382737727455" fill="hsl(353 50% 50%)" />
  <polygon points="34.78945500476789,66.61730167579773 37.37724809256433,65.59841077753256 40.069705722212966,66.29517733841324 41.83840059245699,68.44146021440771 42.00775137859078,71.21745229635796 40.51307183633274,73.56281896145958 37.9252787485363,74.58170985972475 35.232821118887664,73.88494329884408 33.46412624864364,71.7386604228496 33.29477546250985,68.96266834089936" fill="hsl(356 50% 50%)" />
</svg>
