<svg xmlns="http://www.w3.org/2000/svg" viewBox="0 0 100 100">
  <polygon points="25.957802202025167,22.755979393774275 28.1844977701443,26.66645594362323 25.91127352113135,30.550069147033103 21.41135370399926,30.52320580059402 19.184658135880124,26.61272925074507 21.457882384893075,22.729116047335193" fill="hsl(0 50% 50%)" />
  <polygon points="37.52738005714953,16.807941941384517 36.79561364374735,21.248045309124564 32.584488125154536,22.834368689352075 29.10512901996391,19.980588701839544 29.836895433366088,15.540485334099493 34.0480209519589,13.954161953871981" fill="hsl(4 50% 50%)" />
  <polygon points="78.56892091750385,7.785964586471765 81.84015404801698,4.695813488898502 86.15191996530436,5.983708932837539 87.1924527520786,10.361755474349842 83.92121962156546,13.451906571923107 79.60945370427808,12.16401112798407" fill="hsl(7 50% 50%)" />
  <polygon points="38.42842167606396,16.35651874341175 36.991556428788066,12.092082290470893 39.9662341062213,8.715502258044538 44.37777703093043,9.603358678559033 45.81464227820633,13.86779513149989 42.839964600773094,17.244375163926247" fill="hsl(11 50% 50%)" />
  <polygon points="53.54127529470756,96.36264553033217 54.71969376166251,92.01968226583872 59.0700195098939,90.8687409622637 62.24192679117034,94.06076292318212 61.0635083242154,98.40372618767557 56.713182575984,99.5546674912506" fill="hsl(14 50% 50%)" />
  <polygon points="92.06450122270499,35.53796249114055 88.18684888912848,37.82133989750787 84.27055988199872,35.604883172770265 84.23192320844545,31.10504904166535 88.10957554202194,28.821671635298035 92.0258645491517,31.038128360035625" fill="hsl(18 50% 50%)" />
  <polygon points="16.132521490476552,87.77805052186481 18.56399627425915,83.99150455280153 23.058978667956815,84.2039504996869 25.122486277871882,88.20294241563555 22.691011494089285,91.98948838469883 18.196029100391623,91.77704243781346" fill="hsl(22 50% 50%)" />
  <polygon points="79.14912230430039,78.021186407809 83.43938579459264,76.66337965283046 86.76041268298029,79.69995344686318 85.79117608107569,84.09433399587442 81.50091259078344,85.45214075085298 78.1798857023958,82.41556695682027" fill="hsl(25 50% 50%)" />
  <polygon points="86.10662450658386,40.42659134627982 89.43920068280237,43.450485529233454 88.48671959011779,47.8485282493623 84.2016623212147,49.22267678653752 80.86908614499619,46.198782603583886 81.82156723768077,41.80073988345504" fill="hsl(29 50% 50%)" />
  <polygon points="7.8141595563916,31.56509925230597 7.903447311330488,36.064213353639474 4.051744082520322,38.39109586833018 0.11075309877127104,36.21886428168739 0.02146534383238219,31.719750180353884 3.8731685726425447,29.392867665663175" fill="hsl(32 50% 50%)" />
  <polygon points="17.661138865614,27.608420992970167 13.236174315681566,26.790075875161502 11.732399701800624,22.548771605170113 14.653589637852122,19.12581245298738 19.078554187784547,19.944157570796047 20.58232880166549,24.185461840787436" fill="hsl(36 50% 50%)" />
  <polygon points="42.0159992639603,71.58102639268888 46.51499749199403,71.48607933296931 48.84672317174268,75.3348525601679 46.679450623457605,79.27857284708607 42.18045239542388,79.37351990680564 39.84872671567523,75.52474667960705" fill="hsl(40 50% 50%)" />
  <polygon points="20.789431962711188,99.78040697877665 16.29145560547631,99.64546740060884 14.159328529528171,95.68263582053774 16.5251778108149,91.85474381863446 21.023154168049775,91.98968339680228 23.155281243997916,95.95251497687337" fill="hsl(43 50% 50%)" />
  <polygon points="65.31230564380905,42.69092151561865 67.49980303962995,46.62345951839456 65.18787392578875,50.48415683527572 60.688447416126635,50.41231614938097 58.50095002030574,46.47977814660506 60.81287913414695,42.61908082972389" fill="hsl(47 50% 50%)" />
  <polygon points="21.105654143887314,44.97192832340247 23.990545320417517,48.4255355534705 22.442079312750096,52.65072821453325 18.00872212855247,53.42231364552797 15.123830952022267,49.96870641545994 16.67229695968969,45.74351375439719" fill="hsl(50 50% 50%)" />
  <polygon points="27.849344329422735,62.149778540580385 28.235158571239026,66.63320885350059 24.545301145061064,69.20904894451543 20.46962947706681,67.30145872261006 20.08381523525052,62.81802840968986 23.773672661428478,60.242188318675026" fill="hsl(54 50% 50%)" />
  <polygon points="7.474918960068772,79.96384788695862 3.099946123371061,81.01722943139406 0.00020452766342771156,77.7550825861647 1.2754357686534936,73.4395541964999 5.65040860535121,72.38617265206445 8.750150201058844,75.6483194972938" fill="hsl(58 50% 50%)" />
  <polygon points="11.874665097004279,58.25523774844157 11.865536348808156,62.75522848909386 7.963865676510459,64.99731813157742 4.0713237524088814,62.73941703340867 4.080452500605002,58.239426292756384 7.9821231729027,55.99733665027283" fill="hsl(61 50% 50%)" />
  <polygon points="57.95025509519386,18.69623623912714 59.396869576885145,22.95737535224713 56.429922096709376,26.34074979943424 52.01636013484232,25.46298513350135 50.56974565315104,21.20184602038136 53.53669313332681,17.81847157319425" fill="hsl(65 50% 50%)" />
  <polygon points="81.15879981509701,22.21589925017896 85.34127819868247,20.555515387682007 88.8704519954313,23.347455987397822 88.21714740859466,27.799780449610587 84.0346690250092,29.460164312107544 80.50549522826037,26.668223712391733" fill="hsl(68 50% 50%)" />
  <polygon points="3.9534573509534123,58.29832320625037 0.039795348725543356,56.077231192776416 0.006486455422777482,51.57735447028425 3.886839564347872,49.29856976126601 7.800501566575749,51.519661774739966 7.833810459878515,56.01953849723213" fill="hsl(72 50% 50%)" />
  <polygon points="95.98798912698899,37.783919029288484 96.03292917141523,42.28369462284945 92.15847921827535,44.572501639750264 88.23908922070923,42.36153306309011 88.19414917628298,37.86175746952914 92.06859912942285,35.572950452628326" fill="hsl(76 50% 50%)" />
  <polygon points="30.557956210021874,49.49828662368529 32.38414071924501,45.38549558373767 36.85901449490825,44.91062224074872 39.50770376134834,48.54853993770739 37.6815192521252,52.661330977655005 33.20664547646196,53.136204320643955" fill="hsl(79 50% 50%)" />
  <polygon points="44.26122186626243,57.03163671147812 39.783811598706755,57.48196691920016 37.1551090649501,53.829580988192674 39.00381679874914,49.726864849463155 43.48122706630482,49.27653464174112 46.10992960006146,52.928920572748595" fill="hsl(83 50% 50%)" />
  <polygon points="82.43121221171647,99.78374793104305 79.07519993038082,96.78588509770256 79.99341916044706,92.38056178998308 84.26765067184895,90.97310131560408 87.6236629531846,93.97096414894457 86.70544372311836,98.37628745666406" fill="hsl(86 50% 50%)" />
  <polygon points="53.242057393120504,9.077402648113598 54.85652192381498,13.277819803483933 52.02608622611953,16.776195678259448 47.58118599772962,16.07415439766461 45.96672146703514,11.873737242294277 48.79715716473059,8.375361367518762" fill="hsl(90 50% 50%)" />
  <polygon points="81.55086566036388,13.355212805704321 82.81988326933505,17.672572451149797 79.71544894359107,20.930253761091357 75.34199700887592,19.87057542558744 74.07297939990475,15.553215780141967 77.17741372564873,12.295534470200405" fill="hsl(94 50% 50%)" />
  <polygon points="53.04362396361203,8.00088577921984 48.55625534662391,8.337817367632258 46.02077972322725,4.620107943381712 47.972672716818714,0.5654669307187454 52.460041333806835,0.2285353423063281 54.99551695720349,3.9462447665568736" fill="hsl(97 50% 50%)" />
  <polygon points="47.25901098467596,59.76621173188519 50.78868770827617,56.974906978391786 54.97086689630583,58.63604431142949 55.623369360735275,63.088486397960594 52.093692637135064,65.879791151454 47.91151344910541,64.2186538184163" fill="hsl(101 50% 50%)" />
  <polygon points="84.31222569303122,38.822598286746974 80.44622834613406,41.12565376019613 76.51872512635371,38.929129583544515 76.45721925347053,34.42954993344376 80.32321660036769,32.1264944599946 84.25071982014803,34.32301863664621" fill="hsl(104 50% 50%)" />
  <polygon points="72.00849255083759,26.397573564726514 68.22791948917427,28.8383249501457 64.22388025424753,26.78462833059175 64.00041408098411,22.290180325618614 67.78098714264743,19.849428940199427 71.78502637757417,21.903125559753374" fill="hsl(108 50% 50%)" />
  <polygon points="65.83507170725873,49.682110864420075 68.031381516015,45.75448776336251 72.5309578023996,45.692736301797595 74.83422428002793,49.55860794129024 72.63791447127167,53.486231042347804 68.13833818488706,53.54798250391272" fill="hsl(112 50% 50%)" />
  <polygon points="58.54133139795344,32.578176850278275 55.92356953025626,28.91794150210317 57.78454539175709,24.820775549531657 62.26328312095511,24.38384494513525 64.88104498865229,28.04408029331036 63.02006912715146,32.141246245881874" fill="hsl(115 50% 50%)" />
  <polygon points="29.386395694989623,42.550259249586965 31.98157660208459,46.22653944285975 30.095415016828284,50.31217213245672 25.614072524477002,50.72152462878092 23.01889161738204,47.045244435508145 24.905053202638342,42.95961174591116" fill="hsl(119 50% 50%)" />
  <polygon points="13.985843329952424,36.89815911276383 14.129109869264894,41.39587794554044 10.30560437065689,43.76880982448563 6.338832332736413,41.644022870654204 6.19556579342394,37.14630403787759 10.019071292031944,34.7733721589324" fill="hsl(122 50% 50%)" />
  <polygon points="8.56968895369512,42.84126562410298 8.770629522769696,47.33677703969298 4.977872718403103,49.75855238495746 0.9841753449619337,47.68481631463195 0.7832347758873568,43.18930489904195 4.575991580253948,40.76752955377747" fill="hsl(126 50% 50%)" />
  <polygon points="50.793641329270045,44.089734616615374 54.84205479266114,42.12495767522133 58.56780826837381,44.64859810884394 58.24514828069539,49.137015483860594 54.196734817304296,51.10179242525464 50.470981341591624,48.578151991632026" fill="hsl(130 50% 50%)" />
  <polygon points="78.52589855441816,58.68032039071494 82.99255188262276,59.22713667214658 84.75232175580231,63.36878006498591 82.04543830077726,66.96360717639358 77.57878497257266,66.41679089496193 75.81901509939311,62.27514750212261" fill="hsl(133 50% 50%)" />
  <polygon points="93.7101308959577,59.44707948997147 98.16436213048242,60.08725455148552 99.83706988160432,64.26481948567105 97.05554639820154,67.80220935834255 92.60131516367683,67.1620342968285 90.92860741255492,62.98446936264296" fill="hsl(137 50% 50%)" />
  <polygon points="99.07492581819459,12.019866246214857 99.9131225417802,16.441113383909194 96.50330856592049,19.377636608750386 92.25529786647515,17.892912695897248 91.41710114288954,13.471665558202913 94.82691511874924,10.53514233336172" fill="hsl(140 50% 50%)" />
  <polygon points="16.75370195987428,57.9247976166928 12.336060534863053,58.781794839573216 9.385058456370281,55.38450375214321 10.851697802888742,51.13021544183279 15.269339227899971,50.27321821895237 18.220341306392744,53.67050930638238" fill="hsl(144 50% 50%)" />
  <polygon points="84.71830386511621,49.69145890655928 83.76585364725395,54.08950831311375 79.48080602514757,55.463686931882236 76.14820862090346,52.43981614409625 77.10065883876572,48.041766737541785 81.3857064608721,46.667588118773295" fill="hsl(148 50% 50%)" />
  <polygon points="8.925306521824535,31.002227314242496 4.713810629708819,29.416887492408556 3.9810072429902537,24.976955150985567 7.459699748387397,22.122362631396527 11.671195640503107,23.70770245323046 12.403999027221678,28.147634794653456" fill="hsl(151 50% 50%)" />
  <polygon points="16.33531970018575,19.399947201326786 13.557655855743114,15.859525818598993 15.23491879106569,11.683787674774234 19.689845570830904,11.048470913677258 22.46750941527354,14.588892296405048 20.790246479950962,18.764630440229812" fill="hsl(155 50% 50%)" />
  <polygon points="30.96361766863965,79.17411697262563 30.20214293026154,83.60922195704391 25.98049197611526,85.16731798147751 22.52031576034708,82.29030902149282 23.281790498725186,77.85520403707453 27.50344145287147,76.29710801264093" fill="hsl(158 50% 50%)" />
  <polygon points="77.00069353737038,96.93602633741722 72.53676745814,96.36737533797466 70.79727062992949,92.21717645302404 73.52169988094931,88.63562856751594 77.98562596017969,89.20427956695849 79.72512278839021,93.35447845190912" fill="hsl(162 50% 50%)" />
  <polygon points="91.88621848090888,44.88259951515712 95.70041253503602,42.494729393592465 99.67546574831242,44.603983278647796 99.83632490746167,49.10110728526778 96.02213085333455,51.48897740683243 92.04707764005815,49.3797235217771" fill="hsl(166 50% 50%)" />
  <polygon points="40.80540479150808,68.04642232519032 42.09513033149936,63.73520346835944 46.47361815278506,62.696529121486044 49.56238043407947,65.96907363144354 48.27265489408819,70.28029248827443 43.8941670728025,71.31896683514782" fill="hsl(169 50% 50%)" />
  <polygon points="79.75846629297645,45.746531197322504 75.74572932046105,47.78318089459692 71.97557045775382,45.32637358633073 72.21814856756198,40.83291658079013 76.23088554007738,38.79626688351572 80.00104440278461,41.2530741917819" fill="hsl(173 50% 50%)" />
  <polygon points="7.167459243364858,69.90175075034476 10.855054726683496,67.3226734829082 14.932398900265817,69.22668621662461 15.322147590529509,73.70977621777759 11.63455210721088,76.28885348521415 7.5572079336285505,74.38484075149773" fill="hsl(176 50% 50%)" />
  <polygon points="90.68186861217133,13.120506519846447 91.6635183436784,17.512130798474125 88.35108502026387,20.558076542891268 84.05700196534225,19.212398008680733 83.07535223383518,14.820773730053055 86.38778555724971,11.774827985635913" fill="hsl(180 50% 50%)" />
  <polygon points="20.17458425953219,64.05943090636144 17.85765838093472,67.91713157814578 13.358328659674452,67.83946524448696 11.175924817011651,63.904098239043805 13.492850695609121,60.04639756725947 17.992180416869388,60.12406390091828" fill="hsl(184 50% 50%)" />
  <polygon points="41.79836180806006,92.32505298360033 37.71582844780764,90.43219235417561 37.313827158586626,85.95018443768723 40.994359229618034,83.36103715062353 45.076892589870454,85.25389778004823 45.478893879091466,89.73590569653663" fill="hsl(187 50% 50%)" />
  <polygon points="85.11204874517944,69.42603674935089 83.35416756077709,65.28359136751128 86.06268990303853,61.689998914064375 90.52909342970233,62.23885184245706 92.28697461410468,66.38129722429665 89.57845227184323,69.97488967774356" fill="hsl(191 50% 50%)" />
  <polygon points="76.02175887639527,61.439821265113885 71.62374957278811,60.4871858860811 70.24975135977074,56.20208041356061 73.27376245036052,52.8696103200729 77.67177175396768,53.82224569910568 79.04576996698505,58.10735117162617" fill="hsl(194 50% 50%)" />
  <polygon points="30.996724916818735,68.32471413370466 32.90028586502882,72.40226924877662 30.32080002415036,76.08957894511452 25.837753235061818,75.69933352638047 23.934192286851733,71.62177841130851 26.51367812773019,67.9344687149706" fill="hsl(198 50% 50%)" />
  <polygon points="69.57525226009314,88.43058793016093 67.51548225148458,84.4296695966234 69.95049416249073,80.64539727644635 74.4452760821054,80.86204328980682 76.50504609071395,84.86296162334435 74.07003417970782,88.6472339435214" fill="hsl(202 50% 50%)" />
  <polygon points="8.867978460122142,83.64405459233754 7.651784909255792,87.97659117577582 3.29160138973962,89.0896049565259 0.1476114210898043,85.8700821538377 1.363804971956153,81.53754557039942 5.7239884914723245,80.42453178964934" fill="hsl(205 50% 50%)" />
  <polygon points="53.749188797818654,55.54234460948618 49.69752059905937,57.500400994568764 45.97595992815588,54.97058159927899 46.30606745601167,50.48270581890661 50.35773565477095,48.524649433824024 54.07929632567444,51.0544688291138" fill="hsl(209 50% 50%)" />
  <polygon points="29.334134128256025,4.76681405616137 32.754286086742994,1.8423379354078246 36.99703267932003,3.342038355883876 37.81962731341008,7.766214897113466 34.39947535492311,10.690691017867012 30.156728762346074,9.190990597390961" fill="hsl(212 50% 50%)" />
  <polygon points="50.55291066616711,29.068480321070663 55.043734770737814,28.781254170090815 57.53789196640294,32.52680885308663 55.54122505749736,36.559589687062285 51.05040095292665,36.84681583804214 48.55624375726153,33.10126115504633" fill="hsl(216 50% 50%)" />
  <polygon points="91.30973980202903,58.582535422399545 89.8686784252545,54.31951511886254 92.84003161657911,50.94000920639472 97.25244618467826,51.82352359746389 98.6935075614528,56.086543901000894 95.7221543701282,59.466049813468715" fill="hsl(220 50% 50%)" />
  <polygon points="70.23475264229629,89.93054325617099 70.23686967703686,94.43054275818918 66.34081430864208,96.6823759150643 62.44264190550672,94.43420956992124 62.44052487076614,89.93421006790305 66.33658023916092,87.68237691102793" fill="hsl(223 50% 50%)" />
  <polygon points="92.18857214233601,31.02338259086476 96.09545229908268,28.790382939987246 99.98272680175772,31.057340579832438 99.9631211476861,35.557297870555146 96.05624099093943,37.790297521432656 92.16896648826439,35.52333988158747" fill="hsl(227 50% 50%)" />
  <polygon points="34.36717174647555,56.647756894563486 38.42585398932955,58.59123276308915 38.7720956369713,63.07789262555236 35.059655041759044,65.6210766194899 31.000972798905043,63.67760075096423 30.65473115126329,59.190940888501025" fill="hsl(230 50% 50%)" />
  <polygon points="63.8874453082919,2.0199626656694085 68.15589792731264,0.5950724105357033 71.52411539537368,3.579215685891027 70.623880244414,7.988249216380062 66.35542762539326,9.41313947151377 62.987210157332214,6.428996196158445" fill="hsl(234 50% 50%)" />
  <polygon points="61.883100823580435,42.59028178117143 58.293920283429195,39.87591573175958 58.85003996731424,35.41041118051393 62.99534019135052,33.659272678680125 66.58452073150177,36.373638728091976 66.02840104761671,40.83914327933762" fill="hsl(238 50% 50%)" />
  <polygon points="83.78275274602333,60.94424748368956 81.90153552681531,56.856335819507564 84.50116226681962,53.18319808554569 88.98200622603196,53.59797201576581 90.86322344523998,57.68588367994781 88.26359670523568,61.35902141390968" fill="hsl(241 50% 50%)" />
  <polygon points="62.11319439614506,8.027758772434769 57.7834341549174,9.25379965816585 54.55677148118209,6.1171377398324065 55.65986904867443,1.7544349357678706 59.98962928990208,0.5283940500367965 63.216291963637396,3.6650559683702397" fill="hsl(245 50% 50%)" />
  <polygon points="92.48626083247866,0.6409740451884676 94.57597434975045,4.626334432371983 92.16940776984922,8.42875961855285 87.67312767267622,8.245824417550185 85.58341415540443,4.26046403036667 87.98998073530566,0.4580388441858032" fill="hsl(248 50% 50%)" />
  <polygon points="33.66566959984982,91.32446037571518 29.259281990837174,92.23755852988033 26.265321988675147,88.878063998637 27.677749595525757,84.60547131322849 32.08413720453841,83.69237315906334 35.078097206700434,87.05186769030666" fill="hsl(252 50% 50%)" />
  <polygon points="44.818082184416525,34.63023734558174 47.2004697271839,38.447858279627816 45.08550678766441,42.41987688034698 40.58815630537754,42.574274547020075 38.20576876261016,38.75665361297399 40.320731702129656,34.78463501225483" fill="hsl(256 50% 50%)" />
  <polygon points="75.44325926818412,66.03993781521126 79.84534356981193,66.97356183019913 81.2378436060631,71.25269067250343 78.22825934068648,74.59819549981984 73.82617503905867,73.66457148483197 72.4336750028075,69.38544264252766" fill="hsl(259 50% 50%)" />
  <polygon points="37.19067968406053,94.88168439469301 35.65955775084356,99.11319306485096 31.229402779544184,99.90295690947251 28.330369741461766,96.4612120839361 29.86149167467873,92.22970341377815 34.291646645978105,91.4399395691566" fill="hsl(263 50% 50%)" />
  <polygon points="23.19367689406846,9.332534474358894 19.197388163914212,7.263796601828369 18.990823350219493,2.7685401043920703 22.78054726667903,0.342021479486295 26.776835996833277,2.4107593520168202 26.983400810527996,6.9060158494531185" fill="hsl(266 50% 50%)" />
  <polygon points="33.41653964860095,35.65762330635728 36.809371053303394,38.613751696543474 35.94570447290496,43.03009407886654 31.68920648780409,44.49030807100338 28.296375083101655,41.53417968081719 29.160041663500078,37.11783729849414" fill="hsl(270 50% 50%)" />
  <polygon points="17.227797647874624,77.42598013065655 17.35822054071561,81.92408971903065 13.527954814597773,84.28609405165304 9.567266195638945,82.14998879590134 9.43684330279796,77.65187920752724 13.267109028915797,75.28987487490485" fill="hsl(274 50% 50%)" />
  <polygon points="59.5818314135149,18.008577331092052 55.53562990897299,16.03924917544028 55.218017367884435,11.550471805850286 58.946606331337776,9.031022591912066 62.99280783587969,11.00035074756384 63.310420376968246,15.48912811715383" fill="hsl(277 50% 50%)" />
  <polygon points="70.91602188346646,58.2799981179123 67.89347744006106,61.61379851500256 63.49504938333155,60.663098441491115 62.11916577000743,56.378597970889416 65.14171021341282,53.04479757379916 69.54013827014234,53.9954976473106" fill="hsl(281 50% 50%)" />
  <polygon points="55.208812523670844,60.256475142060616 58.50874150765885,57.196986835066134 62.8083005960915,58.52506501238708 63.80793070053616,62.912631496702495 60.508001716548165,65.97211980369697 56.208442628115506,64.64404162637604" fill="hsl(284 50% 50%)" />
  <polygon points="23.37175389766987,9.338956809805127 27.414990059248556,7.36354765175649 31.147362653776447,9.877388302159197 30.836499086725656,14.366638110610547 26.793262925146966,16.342047268659183 23.060890330619074,13.828206618256477" fill="hsl(288 50% 50%)" />
  <polygon points="94.81874526241327,20.757960383971568 98.50407568889591,23.340273232493473 98.11039237479831,27.823019427428125 94.03137863421807,29.72345277384088 90.34604820773544,27.141139925318974 90.73973152183304,22.658393730384322" fill="hsl(292 50% 50%)" />
  <polygon points="8.700427715608182,6.092892495954201 9.550469407394822,1.6739074176557391 13.80244359003899,0.20057257786963856 17.204376080896502,3.1462228163820054 16.35433438910985,7.565207894680479 12.102360206465693,9.038542734466569" fill="hsl(295 50% 50%)" />
  <polygon points="21.586261358778422,58.43967289699322 21.789109391178524,53.94424714677207 25.78368630789681,51.87220582082767 29.575415192214997,54.29559024510443 29.3725671598149,58.79101599532557 25.377990243096612,60.86305732126998" fill="hsl(299 50% 50%)" />
  <polygon points="71.4673715809239,4.122095828775912 73.82183271373003,0.28718868855657664 78.32019028471737,0.408758271680115 80.46408672289857,4.365234995022988 78.10962559009243,8.20014213524232 73.6112680191051,8.078572552118786" fill="hsl(302 50% 50%)" />
  <polygon points="32.788498494187856,81.48649833354717 30.631086546167907,77.5373751794102 32.97242154631388,73.69444004892837 37.471168494479805,73.8006280725835 39.628580442499754,77.74975122672048 37.28724544235378,81.59268635720231" fill="hsl(306 50% 50%)" />
  <polygon points="86.16120765307032,83.1595795916539 89.99727064301196,80.8070021248741 93.95269398858491,82.95284139129096 94.07205434421623,87.45125812448761 90.23599135427459,89.8038355912674 86.28056800870164,87.65799632485054" fill="hsl(310 50% 50%)" />
  <polygon points="70.1034092112809,78.5721752437159 67.2365805577084,82.04079074144055 62.799257093932184,81.29235204801195 61.228762283728486,77.07529785685868 64.095590937301,73.60668235913404 68.5329144010772,74.35512105256264" fill="hsl(313 50% 50%)" />
  <polygon points="45.47614503637106,90.48246559138656 45.84262270443562,85.99741329305046 49.91003076612875,84.072266114346 53.610961159757316,86.63217123397763 53.244483491692755,91.11722353231373 49.17707542999963,93.0423707110182" fill="hsl(317 50% 50%)" />
  <polygon points="88.01029486718097,69.7894554098558 91.090370608222,73.07017688987365 89.7892203343058,77.3779614672043 85.40799431934853,78.4050245645171 82.3279185783075,75.12430308449926 83.62906885222371,70.81651850716861" fill="hsl(320 50% 50%)" />
  <polygon points="43.3123072867177,0.20506870894023965 46.31154702445778,3.559850519365588 44.90584062134552,7.834659229500955 40.50089448049317,8.75468612921097 37.50165474275309,5.399904318785623 38.907361145865345,1.1250956086502604" fill="hsl(324 50% 50%)" />
  <polygon points="18.823511583867468,67.45852199130205 22.85823097869523,69.45126868995712 23.14982141176624,73.94181153234729 19.40669245000949,76.43960767608236 15.37197305518173,74.44686097742729 15.080382622110719,69.95631813503712" fill="hsl(328 50% 50%)" />
  <polygon points="0.03954475058645768,95.4611832968937 0.2140682979895172,90.96456884473062 4.195512418288517,88.86740344425871 8.00243299118446,91.26685249594988 7.827909443781403,95.76346694811295 3.8464653234824016,97.86063234858486" fill="hsl(331 50% 50%)" />
  <polygon points="93.47568107929466,67.49706012959835 97.94416449893521,68.02871408509714 99.71798037727106,72.1643612206448 97.02331283596637,75.7683544006937 92.55482941632582,75.23670044519491 90.78101353798996,71.10105330964724" fill="hsl(335 50% 50%)" />
  <polygon points="40.86774387857939,22.886938787592783 43.47140974465642,19.21666304075504 47.951794713350324,19.636365950325292 49.8285138159672,23.726344606733285 47.22484794989017,27.396620353571027 42.744462981196264,26.976917444000776" fill="hsl(338 50% 50%)" />
  <polygon points="28.35543141917258,30.723083470185983 30.501776231368268,34.67823251253074 28.149689091041857,38.51459616634553 23.65125713851976,38.395810777815555 21.504912326324067,34.4406617354708 23.85699946665048,30.60429808165601" fill="hsl(342 50% 50%)" />
  <polygon points="69.3399736986113,8.970478090147394 73.38944520980725,10.933073433057501 73.71452354109604,15.421316305109597 69.99013036118889,17.946963834251598 65.94065884999294,15.984368491341488 65.61558051870415,11.496125619289392" fill="hsl(346 50% 50%)" />
  <polygon points="9.151692927291407,94.06569171957577 7.6856909662935875,89.81118372800371 10.637201987099994,86.41433479199577 15.054714968904221,87.27199384755988 16.52071692990204,91.52650183913194 13.569205909095636,94.92335077513988" fill="hsl(349 50% 50%)" />
  <polygon points="7.810846712130311,64.91105163006539 7.802120884666698,69.41104317005022 3.9006509804929705,71.65348215179012 0.007906903782850971,69.39592959354518 0.016632731246460697,64.89593805356034 3.9181026354201904,62.65349907182045" fill="hsl(353 50% 50%)" />
  <polygon points="41.323716664686074,70.82089037912459 38.01641756703401,73.87241011176108 33.72007440959528,72.53396494159928 32.73103034980862,68.14400003880101 36.03832944746068,65.09248030616452 40.33467260489941,66.43092547632631" fill="hsl(356 50% 50%)" />
</svg>
