<svg xmlns="http://www.w3.org/2000/svg" viewBox="0 0 100 100">
  <polygon points="23.489750689656795,21.745634149783832 27.308147058796564,22.56326009901828 29.049632546415328,26.05838403403611 27.402833060506126,29.599106344233633 23.60782220254618,30.519190912459504 20.522320552693,28.12579529253484 20.469773786049434,24.22119520263618" fill="hsl(0 50% 50%)" />
  <polygon points="36.40995690181274,16.70709335884174 37.19319697266783,20.532691092023864 34.69056642219297,23.530274010401804 30.78659709925552,23.442601036888853 28.42105753048869,20.335691708742996 29.375247259387287,16.54911211945853 32.930641958167364,14.934233931913791" fill="hsl(4 50% 50%)" />
  <polygon points="78.99005411977764,5.828919555407901 82.2911452824556,3.742904176650895 85.980254453416,5.023191858954044 87.2794071828127,8.705699864433784 85.21031496752389,12.017424555490162 81.33104644745141,12.464569692885256 78.56276994086663,9.710425868062007" fill="hsl(7 50% 50%)" />
  <polygon points="52.992668146576534,14.739340347399015 50.04501382480286,17.300589461415505 46.20471622399071,16.5929332158289 44.363597765346505,13.149251197122629 45.908058200201594,9.562706203693924 49.675087319858704,8.534039767779603 52.8280353638258,10.837858696594408" fill="hsl(11 50% 50%)" />
  <polygon points="54.24984658800524,99.01496492344747 52.09921024226463,95.755605119268 53.30658052078695,92.04199231833383 56.962782977979586,90.67055270364426 60.31462259063816,92.67400827733042 60.83809576536302,96.54371612936069 58.13901652467958,99.36570731950162" fill="hsl(14 50% 50%)" />
  <polygon points="90.06146345373416,36.2390738367265 86.25904479391262,35.350099506297184 84.58330365575212,31.82298245938794 86.29610729517721,28.313713772397236 90.10767963687385,27.464844342664698 93.1478289656381,29.91559016455965 93.12726082916582,33.82048964809099" fill="hsl(18 50% 50%)" />
  <polygon points="15.918085080479404,86.68340870531496 17.904265996135937,83.32130394861818 21.771228887835278,82.77792468977447 24.607071826460142,85.46244659361 24.276347238572214,89.35336991226943 21.028097484403233,91.52075002643086 17.308320881062173,90.3325055036336" fill="hsl(22 50% 50%)" />
  <polygon points="88.1886273972714,74.00254820296499 92.03435006711224,74.68010275530273 93.90238545242777,78.10925816501084 92.38606480709788,81.70779046655652 88.6272085043603,82.76593144019436 85.45631200687156,80.48687935063279 85.26112505174153,76.58680690550202" fill="hsl(25 50% 50%)" />
  <polygon points="81.93895543235229,46.58913336796311 80.2228165966663,43.08149448669673 81.89520404054538,39.55278604559864 85.69677590826176,38.66019747335004 88.7648710454911,41.075866170342834 88.78915123616449,44.980744337080196 85.75133300147921,47.43437906901055" fill="hsl(29 50% 50%)" />
  <polygon points="6.65756662653458,37.26166450699784 2.778040996388556,37.70657338504074 0.011352562259463461,34.95083425856713 0.4408741452054903,31.069574896645427 3.7431672326247187,28.985462762065218 7.431537775187653,30.267876800305324 8.728567525296732,33.9511330840919" fill="hsl(32 50% 50%)" />
  <polygon points="13.055796665663868,19.73686728216923 16.22070433334155,17.449505815370358 19.982323194490707,18.497783721351503 21.508077523624948,22.092326355936525 19.649043191189815,25.526369799975747 15.80511096689845,26.21400929838732 12.870840217569931,23.63743828357784" fill="hsl(36 50% 50%)" />
  <polygon points="43.01702711097319,80.47870389933956 40.18950472592924,77.78541962418466 40.53226779187925,73.89553832710862 43.78720872907052,71.73821996392769 47.50329062310305,72.93796926339193 48.88222801351411,76.5913505325791 46.88565292012756,79.94729316039468" fill="hsl(40 50% 50%)" />
  <polygon points="20.056642388756387,99.84470854533355 16.203906580782046,99.20824187796316 14.29937477334575,95.79922125332845 15.777198262815872,92.18470873312721 19.52454581951599,91.08650596768952 22.719588301291388,93.33158203864386 22.95639355237604,97.22934887335576" fill="hsl(43 50% 50%)" />
  <polygon points="64.49670860723202,49.77399884377675 60.73698384637494,50.829049907621304 57.56796166285974,48.54739230291594 57.375980397145156,44.647160743336954 60.30560585801842,42.065309143472156 64.15077031997333,42.74602441819442 66.01598651609712,46.176714081576826" fill="hsl(47 50% 50%)" />
  <polygon points="25.523661334034596,54.054166222927456 22.86335819007294,56.91274107885637 18.96976249260338,56.61512459851995 16.774831216698413,53.38542806188133 17.93139238155292,49.65567883483245 21.568531840483175,48.23445415836014 24.947409396790675,50.19196520154808" fill="hsl(50 50% 50%)" />
  <polygon points="27.479936061468198,68.5309435118245 24.001447844801422,70.30542449262754 20.445300819991356,68.69220368856635 19.48934622889943,64.90606926880633 21.85343737653779,61.7980576744941 25.75736541006377,61.70856502802937 28.26139289461315,64.70498111751738" fill="hsl(54 50% 50%)" />
  <polygon points="2.7015339085249988,81.45436935225118 0.3302511896883553,78.3518411425377 1.2774348267690367,74.56350296038342 4.829836222020218,72.94205072496644 8.31242466903523,74.70847104115362 9.102740035353861,78.53261338244819 6.605658730642677,81.53482056756769" fill="hsl(58 50% 50%)" />
  <polygon points="11.288780765999242,57.508523789130194 12.965835749884832,61.03501632502841 11.25433954224012,64.54492284172355 7.4430836955817785,65.39521214309922 4.402021597894593,62.94559904247868 4.421135035098759,59.04069216763013 7.486031199136473,56.62096604089838" fill="hsl(61 50% 50%)" />
  <polygon points="54.51644531082129,26.787813391422013 50.85256397743168,25.437022290044577 49.62426234013722,21.73028003942328 51.75647658460787,18.458839158038177 55.643605895513076,18.086161354804755 58.35856261875355,20.89288061679955 57.85692896670483,24.765480093101427" fill="hsl(65 50% 50%)" />
  <polygon points="81.49965295310533,25.045830230754422 82.00646936262889,21.17390562511462 85.34965677981329,19.15604514472923 89.01172689092357,20.511738888180922 90.23506620967703,24.220121815537954 88.09847527747795,27.48870594527455 84.21085064478454,27.856180760733665" fill="hsl(68 50% 50%)" />
  <polygon points="3.0813617529443693,48.87613475333683 6.885007489810162,49.75984405686597 8.56563006178045,53.284637780661065 6.8576863937087955,56.79627435801574 3.04729290335476,57.650419821850136 0.0037536068171224457,55.20388521650476 0.018915671276116264,51.29896100001571" fill="hsl(72 50% 50%)" />
  <polygon points="88.98099898526297,44.03344271047691 91.96226335926971,41.5113947813131 95.79286776442125,42.269769962839334 97.58828895354874,45.7374962753319 95.99653815132136,49.30330507675828 92.2162361776154,50.282069610400626 89.09402752273857,47.9367602192683" fill="hsl(76 50% 50%)" />
  <polygon points="38.00515942751541,51.90684946420535 34.25547186642821,52.99703578724797 31.06523792282301,50.74513205711417 30.836768825147388,46.846867713059424 33.74210646387136,44.237715316257905 37.59347233894843,44.88241983851061 39.49070939289905,48.295505624985665" fill="hsl(79 50% 50%)" />
  <polygon points="38.593487847259645,50.542957609493094 40.13332014287818,46.954423155695636 43.89901908766914,45.92089788656981 47.054936569945305,48.220647409840765 47.224602356568106,52.12191342814443 44.280254649659256,54.68696305837421 40.43904732626883,53.984261611490105" fill="hsl(83 50% 50%)" />
  <polygon points="78.39850123295425,92.76741512086934 82.01151712371353,91.28593640085943 85.42246238946568,93.1870190973154 86.06282567449597,97.03910916478611 83.45040036414613,99.94150421414875 79.5523960008743,99.70864157516381 77.30408937502247,96.51587156451913" fill="hsl(86 50% 50%)" />
  <polygon points="49.59289632364683,20.762575944580927 47.89899710148923,24.281008614093757 44.09204678112836,25.150371762050682 41.038756601430286,22.716017206263754 41.03831634347681,18.81106357902383 44.09105753048653,16.376020608180035 47.89820378406938,17.24452531660216" fill="hsl(90 50% 50%)" />
  <polygon points="74.84668957578573,17.243486658849687 75.62266255079216,13.416408273608408 79.09860415468118,11.63694403090088 82.65705946343735,13.245066799941322 83.61843905030742,17.029827335915932 81.25880447780854,20.141223760190623 77.35500870680579,20.236311104366006" fill="hsl(94 50% 50%)" />
  <polygon points="46.63458342763933,2.9924704517777503 49.27298366683436,0.11366736672019506 53.16873819291819,0.38154737198120214 55.3882643888397,3.5943913598429624 54.26021375898662,7.332862277371859 50.63403143567767,8.781815272759559 47.24030666900367,6.850159187224453" fill="hsl(97 50% 50%)" />
  <polygon points="51.091402904462605,67.99826234477226 48.6495993674452,64.95092604706396 49.50966321918818,61.141864063366874 53.02394883722377,59.43937775810933 56.546127472808806,61.125474043541935 57.42392677399717,64.93048802663773 54.99634596315147,67.98916656998533" fill="hsl(101 50% 50%)" />
  <polygon points="85.65491834698233,34.41467108100106 84.09894586034098,37.99623675058419 80.32863208594054,39.012798144346334 77.18310019628953,36.698863798711216 77.0309998614523,32.79687347160074 79.98686573584267,30.245105465426256 83.8248705273692,30.96509313541836" fill="hsl(104 50% 50%)" />
  <polygon points="72.76062210763587,30.133146086620435 69.11759121893597,31.539200484109976 65.74690101795528,29.567624821414256 65.18674997558193,25.703055785357417 67.85894325172198,22.85559268293217 71.75126480663292,23.16943330792667 73.93271712057668,26.408249268538" fill="hsl(108 50% 50%)" />
  <polygon points="73.69806013804613,50.10579965214812 70.72448501994296,52.636908903389354 66.89159036055827,51.89019506611189 65.08562401521114,48.42794888997208 66.66651547694777,44.85731236255438 70.44382123077158,43.86704761671577 73.57315300105788,46.20284420379226" fill="hsl(112 50% 50%)" />
  <polygon points="60.371832019969354,23.284015702177754 64.07769604805438,24.5149644541844 65.42586998901699,28.17980961457394 63.40115136757574,31.51884802835572 59.528194602408945,32.017715665981186 56.72341513160762,29.300755021273076 57.09886910375968,25.41389287559354" fill="hsl(115 50% 50%)" />
  <polygon points="20.039200416629768,40.18979465061012 22.643884784920214,43.09913862585689 21.993262212433546,46.94950916554422 18.57726476653404,48.84149872004217 14.96820819763306,47.35040056526027 13.883785713450502,43.59904202460855 16.140589562763203,40.412272592966424" fill="hsl(119 50% 50%)" />
  <polygon points="10.537434457484716,43.02610963468719 7.222827429929964,40.96163796435457 6.770272697609686,37.08299680552384 9.520553204395233,34.31088206065545 13.402651633178827,34.732752673470856 15.493268686710046,38.03093146792784 14.218127082863793,41.72182254121376" fill="hsl(122 50% 50%)" />
  <polygon points="3.7167929760668827,49.018547976663974 1.9201392809003686,45.551460074062454 3.5106224992301547,41.985085702668925 7.290576327708827,41.004977504922 10.413618436485699,43.34917694428884 10.528034419202573,47.25245402997213 7.547666707212933,49.77556150411011" fill="hsl(126 50% 50%)" />
  <polygon points="57.608252640952486,42.80765758703744 57.07790457138641,46.67642922023432 53.722510497263926,48.67392606180003 50.0687505939648,47.29599224852565 48.86798059179257,43.58024004653416 51.02440479362716,40.324706651456886 54.91419179244983,39.98087511056593" fill="hsl(130 50% 50%)" />
  <polygon points="85.25258220971995,59.172387129624305 86.0687817901477,62.99108864579847 83.59209283733242,66.01014062543116 79.68751264799164,65.9561353504218 77.29526974361968,62.86973989435929 78.21677182407079,59.07507298665243 81.7581090275485,57.42959620590285" fill="hsl(133 50% 50%)" />
  <polygon points="100,63.91959318158308 98.9164838501617,67.67121360184962 95.30778762575396,69.16318363662464 91.89133318774357,67.27201941908021 91.23978041092235,63.421806177746966 93.84376182549119,60.51183301338593 97.7424263147391,60.733369071395785" fill="hsl(137 50% 50%)" />
  <polygon points="92.26214526405333,14.35166593541452 95.87358921844971,12.866359371443567 99.28654712682912,14.763826456889756 99.93099207252811,18.61523577513734 97.32164386715415,21.52039755511328 93.42339493035705,21.291665721995226 91.17170622133173,18.101280011400167" fill="hsl(140 50% 50%)" />
  <polygon points="17.109462999738177,52.29461803652242 15.899160638452207,56.00727627813137 12.241876362090581,57.37582834020257 8.89161982575701,55.36972660662187 8.371202534089544,51.499606599793296 11.072509322291904,48.67974762091986 14.961401082231248,49.033560995733694" fill="hsl(144 50% 50%)" />
  <polygon points="80.36533320675926,43.56574184683216 82.1658175637429,47.03084200483315 80.57927680529826,50.59897196974687 76.80040848206772,51.58325710140642 73.67477751630985,49.242510619914505 73.55604777649258,45.33936236836112 76.53362517834366,42.81296258988047" fill="hsl(148 50% 50%)" />
  <polygon points="6.21998338972861,28.901493940613186 6.862900083800271,25.04982921621086 10.27510482744797,23.15100805239647 13.887137852412978,24.63488151441519 14.97906461885055,28.38406261986455 12.728642000386358,31.575341526984086 8.830484128979487,31.80562012848656" fill="hsl(151 50% 50%)" />
  <polygon points="8.288248684214599,21.450703014592474 5.4789739977492955,18.73839057670731 5.84799113434652,14.850912039452234 9.117422663570785,12.715618031490902 12.825319959667029,13.940428492878075 14.179560731353924,17.603036164608994 12.160374056073842,20.945422766289393" fill="hsl(155 50% 50%)" />
  <polygon points="32.06521688348097,82.852347534376 29.01678843688782,85.29278746002936 25.208111623793197,84.43101953412547 23.507197767305712,80.91597258173206 25.194869693680022,77.39454865189212 29.00027602012284,76.51845178773253 32.05786816668013,78.94740079708461" fill="hsl(158 50% 50%)" />
  <polygon points="74.47442899115048,84.68587617266483 78.31983891713514,85.36520343242984 80.18629335136993,88.79521959414782 78.66831403614404,92.39305252846643 74.90897035695758,93.44946065342671 71.73912478087377,91.16894710413499 71.54573567974967,87.26878509720659" fill="hsl(162 50% 50%)" />
  <polygon points="84.96873254480832,57.66513330183752 87.47424970596377,54.66996272574727 91.3781327560755,54.761396613182896 93.74067813370772,57.87058338199399 92.78284098236034,61.65624197941399 89.2258922133151,63.26769426822334 85.74828679819512,61.4914838073124" fill="hsl(166 50% 50%)" />
  <polygon points="49.21563788954425,70.60433928278376 45.69374181810753,72.29102570494999 42.17917098845948,70.58912826147453 41.318468919504696,66.7802104396755 43.7597618242887,63.73246504713161 47.66470635220932,63.740906527104514 50.09279962739045,66.79917827299981" fill="hsl(169 50% 50%)" />
  <polygon points="77.0752987556192,39.81463467400361 75.61874872172133,43.43777212978325 71.87792170145136,44.55798471190302 68.66973674003741,42.331729497854404 68.41002254847106,38.435422071146355 71.29434921020581,35.80306139427714 75.15075991941387,36.416868747301365" fill="hsl(173 50% 50%)" />
  <polygon points="15.613461571309758,64.98478729574883 17.575588549948723,68.36098645225876 16.15933591944053,72.00006483988659 12.431170796846635,73.1617222090776 9.198477560189417,70.97120686733903 8.895540151596354,67.07802154536986 11.750476618535,64.41381419712064" fill="hsl(176 50% 50%)" />
  <polygon points="83.41723966685468,14.001799956247293 86.03679250674008,11.105836223088748 89.93421260650771,11.34828124912259 92.17466313815105,14.54656898476809 91.0710391544806,18.29232353190391 87.4543920250268,19.764915317068734 84.04813080442504,17.855452690635342" fill="hsl(180 50% 50%)" />
  <polygon points="16.2006940297762,56.237305609441876 19.9900041387792,57.18059343536192 21.61510822848966,60.731325715093476 19.852269773273445,64.2157286202599 16.02894208525956,65.00997569440476 13.024168895194194,62.515982691009256 13.100605701399509,58.61177720981613" fill="hsl(184 50% 50%)" />
  <polygon points="44.95122719916509,88.95477655640934 42.29293068519822,91.8152175483812 38.39912709715759,91.52033343134002 36.20192995595588,88.29217795995758 37.355873523571674,84.56161804655592 40.99201475743123,83.13784139548048 44.37226514467437,85.0929808647419" fill="hsl(187 50% 50%)" />
  <polygon points="86.29759408809781,72.16251089791004 83.56108488331608,69.37680086331093 84.03285510751883,65.50045001744094 87.35765215952257,63.45242961038723 91.03183604566847,64.77494078066408 92.28867135999604,68.47210564274157 90.18173547604846,71.75988364705623" fill="hsl(191 50% 50%)" />
  <polygon points="73.98700558056332,63.625666787308056 70.48079344585021,61.90661487095653 69.63871484490386,58.0935365011155 72.09487213950995,55.05775746289901 75.99972879035194,55.08528129069104 78.41284809478633,58.15538198078043 77.5171019979109,61.95621109488879" fill="hsl(194 50% 50%)" />
  <polygon points="24.78371039550771,73.35065806405599 25.606586688487162,69.53338971729627 29.104102235876606,67.79671242416136 32.642556494176524,69.44837960814257 33.557421235574296,73.24465219183153 31.159784649957658,76.32685948986227 27.25511598916914,76.37403654124674" fill="hsl(198 50% 50%)" />
  <polygon points="71.33058046998198,78.17485653219123 74.46620308043883,80.50220134323945 74.60164035670023,84.4048055723306 71.6349052673244,86.94392863634059 67.80000984497842,86.20755907939848 65.98470856029932,82.75019819708322 67.55596030604836,79.17530925108758" fill="hsl(202 50% 50%)" />
  <polygon points="8.764422102979363,84.50328151289864 8.162766650597941,88.3616067637479 4.771080461090112,90.29684003563612 1.1433724129450558,88.85171120326687 0.011380658174295455,85.11443175267019 2.2275180765438765,81.89924933675293 6.122987991056579,81.62726189246976" fill="hsl(205 50% 50%)" />
  <polygon points="50.12959922391924,53.26900121649873 52.47789659698233,56.38896315094381 51.5027515963678,60.17020041571546 47.938468296871335,61.765364227257045 44.46902472114298,59.97326370006597 43.706982645457586,56.1433870833058 46.226175295631734,53.15970958464247" fill="hsl(209 50% 50%)" />
  <polygon points="30.557086587080683,3.756520755191436 34.24600981228058,2.475697401523167 37.54740384441069,4.561233416397284 37.9752516411116,8.442677643431788 35.20737508496298,11.197223412636605 31.328041677137,10.750641577306752 29.25846859770685,7.4392173680548925" fill="hsl(212 50% 50%)" />
  <polygon points="53.77785777853965,30.374188436227538 57.54274314820115,31.410673447228707 59.0797541686453,35.00041719125202 57.23149019216664,38.44026941162029 53.38973169076785,39.13995122619847 50.44740117359404,36.5725879577012 50.62013353268162,32.671456511973524" fill="hsl(216 50% 50%)" />
  <polygon points="96.94871249912518,57.94760138243952 93.14104625445563,57.0813792435367 91.44424492102743,53.56434522897307 93.13603451135144,50.04489768613447 96.94246295769518,49.173252398424815 99.99721200297179,51.60577604581304 99.9999933105634,55.51072870737622" fill="hsl(220 50% 50%)" />
  <polygon points="63.5400431116303,97.11443368556098 62.56351701312464,93.33355286177685 64.91067460895157,90.2127333788408 68.81405835616391,90.10201596051958 71.33434067859307,93.08477308103282 70.57369758305954,96.9149277914771 67.10490883479157,98.70829547397025" fill="hsl(223 50% 50%)" />
  <polygon points="93.25448543099029,41.250955224036026 91.32830546363977,37.85411937900335 92.78310510187457,34.23027873166341 96.52339054559944,33.108259202340875 99.73265056777088,35.332964381642945 99.99424691471967,39.22914589383977 97.11119220160036,41.862899592628224" fill="hsl(227 50% 50%)" />
  <polygon points="32.23802960428455,56.854252721820245 35.69888328675302,55.04561931140627 39.270736804002524,56.62375918988144 40.263911605010684,60.40030084056712 37.9305268075445,63.531431373086484 34.027668756471606,63.65934563302947 31.494269168045378,60.68772157368361" fill="hsl(230 50% 50%)" />
  <polygon points="68.93695352510825,0.619640188939794 71.150397649912,3.836677355509845 70.01527655161705,7.573007522522253 66.38635956949012,9.015097866970951 62.99629520748887,7.077024946203968 62.39787107491074,3.2181971990417018 65.04171274921477,0.34439062483831684" fill="hsl(234 50% 50%)" />
  <polygon points="61.02646308400076,33.40090078723247 64.93141096561094,33.39418761887039 67.37135471295733,36.44301321809815 66.50896691850608,40.25154972398894 62.99364318098406,41.95189146762037 59.47249397428152,40.26364643538738 58.59701646939953,36.458097570484064" fill="hsl(238 50% 50%)" />
  <polygon points="81.74959759694444,55.438769472504696 79.97088358449484,51.96244389991562 81.57977431326813,48.404335744225484 85.36474224910815,47.44377301884819 88.47562933705197,49.80407904790157 88.5698741493459,53.7078952500398 85.57650842008883,56.21556840171458" fill="hsl(241 50% 50%)" />
  <polygon points="63.09209168785936,7.7024125239399535 60.450648374761705,10.578423693670175 56.55517933043259,10.30642378669437 54.33905219833905,7.091234280752278 55.47105590970264,3.353958451731849 59.09876858119906,1.90884122541918 62.4904485793389,3.8440853482469497" fill="hsl(245 50% 50%)" />
  <polygon points="91.94108136426105,9.174594022628776 88.20219241170683,8.047929731373731 86.75189489258271,4.422284943099 88.68229241946712,1.0278441330509227 92.53975628168273,0.4206904651695025 95.4195375130584,3.0580230350472006 95.15310210953662,6.953876625785882" fill="hsl(248 50% 50%)" />
  <polygon points="29.637204662829397,85.48537870606262 32.70193608505602,87.90531348500565 32.72078367655336,91.81022165204568 29.67955481650311,94.25962771179135 25.868356866286195,93.40907894247611 24.157099616686125,89.89905591542737 25.834394679938107,86.37267756143416" fill="hsl(252 50% 50%)" />
  <polygon points="45.81309845768401,33.31352134864911 45.29817269639614,37.18437583895011 41.950765830948754,39.195228966823194 38.29154350567991,37.831867313051404 37.07597476604944,34.120930010434385 39.219407666082546,30.856828537168436 43.10779351399128,30.49749787815868" fill="hsl(256 50% 50%)" />
  <polygon points="70.53009441234887,67.01368068457607 73.90066767549511,65.04190511355259 77.54378194927205,66.44774344455799 78.71609787953761,70.17257074046942 76.53483765991491,73.41151607483566 72.64253472537955,73.72558754843477 69.97017257414701,70.87828293575612" fill="hsl(259 50% 50%)" />
  <polygon points="39.256623523511045,96.97560994139593 36.70159573446876,99.92865853936091 32.79977560138812,99.77225306053138 30.48931326710468,96.62417002055629 31.510033994176418,92.85498015772801 35.09331425620998,91.30296031621761 38.54087093029747,93.13681309211758" fill="hsl(263 50% 50%)" />
  <polygon points="20.877701711496222,6.285926968292035 21.014528053562216,2.3833711933109605 24.15097884943362,0.057142608283486496 27.925242677882686,1.058938784150758 29.495221895135867,4.634386767566875 27.678690128861835,8.09110130117225 23.843532849560066,8.826105837035772" fill="hsl(266 50% 50%)" />
  <polygon points="27.377109866796097,39.71733389759761 29.764469753346614,36.62715982534686 33.66895967196956,36.56698092461674 36.15041907686233,39.58211313508289 35.340258423593546,43.40210040477587 31.84854520834019,45.15041440607723 28.3046107001573,43.510539036900724" fill="hsl(270 50% 50%)" />
  <polygon points="12.304939366782056,82.76825963767352 9.254677558418123,80.33011158532771 9.259091334146097,76.42516042771958 12.314857030818198,73.99391403301513 16.120920752579828,74.8671505248152 17.811238887393475,78.38730501401612 16.112967403538214,81.90362937218408" fill="hsl(274 50% 50%)" />
  <polygon points="54.041379783473744,17.15712579681236 53.38234803557743,13.308185659581591 55.980671035084775,10.393158967602176 59.87975856723674,10.60712027564262 62.14351819343197,13.788952354733174 61.06729274286454,17.542670751772597 57.46150193081007,19.041648951889226" fill="hsl(277 50% 50%)" />
  <polygon points="69.32518437537362,52.79366889306518 70.64173051822164,56.46999440619283 68.5883165860002,59.791463094541434 64.71120515168276,60.256941290170694 61.92994020397059,57.51591441774699 62.33887097595661,53.63243161896389 65.63006425566779,51.53083464991745" fill="hsl(281 50% 50%)" />
  <polygon points="57.27788163182131,62.74231458720637 59.32021014753998,59.41401813727832 63.19574809667618,58.93561597431662 65.98613635696339,61.6673546846571 65.59015565485798,65.55217930209885 62.305987535579625,67.66473765372773 58.60667757776576,66.4142302124302" fill="hsl(284 50% 50%)" />
  <polygon points="24.371911771656205,16.104980769066966 22.708737389786045,12.571920622365228 24.434022776121832,9.06877155896278 28.248592845344525,8.233476274819711 31.27999853228057,10.695029155814371 31.245529525260256,14.59983067602975 28.171141689609488,17.007485647308624" fill="hsl(288 50% 50%)" />
  <polygon points="99.6467594799853,28.02375252264656 96.49073409928911,30.323353970968146 92.7250836505908,29.289652020239792 91.1854197270307,25.701045323036993 93.03114066646994,22.25982791658955 96.87238095566501,21.55730669599487 99.81660830982982,24.122494469182048" fill="hsl(292 50% 50%)" />
  <polygon points="12.695962123393869,3.0841576905512342 16.546991774808316,2.4374478262009154 19.453687621092527,5.045087042410745 19.227248404204772,8.943469823228522 16.03818747297977,11.197034422181844 12.287932753617728,10.108800731918592 10.800502541053074,6.498230917128805" fill="hsl(295 50% 50%)" />
  <polygon points="29.897769344688875,53.607404704482136 32.2506315791613,56.723925574027966 31.281023055953842,60.506586322290325 27.719078769451098,62.10696625361031 24.24701541781167,60.319946637902724 23.479367522005138,56.491189694352364 25.99418960473719,53.50382749386102" fill="hsl(299 50% 50%)" />
  <polygon points="71.05903971367036,4.217008654477181 74.69676539882768,2.7972851376373864 78.07483480734842,4.75619046866734 78.64949277455841,8.6186289789149 75.98801013026224,11.476105690776532 72.0945375899669,11.176882358318084 69.90093938888077,7.946280253924395" fill="hsl(302 50% 50%)" />
  <polygon points="33.23909453974664,80.55075173699542 31.61911944186841,76.99767649053979 33.38698757633309,73.51582277680258 37.21145817995083,72.72709745909998 40.2126268832145,75.22542678872647 40.130552439881754,79.12951782384245 37.027038579795686,81.49951038606179" fill="hsl(306 50% 50%)" />
  <polygon points="87.89519283443407,90.75365569543146 86.04731779477723,87.31359452409532 87.58473467780833,83.72402458432646 91.34973721301583,82.68796525465349 94.50720169933304,84.98559034207896 94.67949297802534,88.88674129276106 91.73687220213584,91.45377187185917" fill="hsl(310 50% 50%)" />
  <polygon points="62.432348572167655,73.50170596814584 66.24098805199226,74.36363887588439 67.94174964357425,77.87875950444335 66.25392517923845,81.40011032512436 62.44848090597435,82.27604234748839 59.390993978466376,79.8469608929383 59.383814414495255,75.94201384098197" fill="hsl(313 50% 50%)" />
  <polygon points="46.24870977098825,90.76299835407949 46.21375176010732,86.85820118108875 49.24484915932613,84.39626869193103 53.05952380391396,85.23108626521274 54.78524788131437,88.73401924107765 53.12251596288898,92.26728764188881 49.32339909676211,93.17026829629486" fill="hsl(317 50% 50%)" />
  <polygon points="79.6168717087904,69.87615324041813 83.49656421778954,69.43270193493224 86.26221712306865,72.18948031417177 85.8312373779145,76.07057803053864 82.52816152081282,78.15344934364305 78.84027304262958,76.86964967188558 77.54462718665211,73.18590635284045" fill="hsl(320 50% 50%)" />
  <polygon points="41.56085303287671,8.992114932780694 38.24900955925689,6.9232128493163465 37.80164171109866,3.043970006549788 40.55562660270619,0.2755353872172739 44.43715743964507,0.7025967254508552 46.52336233290071,4.003568123096933 45.243286447027195,7.6927507901827505" fill="hsl(324 50% 50%)" />
  <polygon points="15.536402541498434,73.35802838137337 17.336429326664444,69.89269050500313 21.16803791942317,69.13940528901999 24.145948898855885,71.66541186527733 24.027734559136054,75.56857576070959 20.902412709205784,77.90973495202269 17.123414447010028,76.92594881721352" fill="hsl(328 50% 50%)" />
  <polygon points="0.7768988890830948,92.11657239011424 4.176492714831483,90.1952642824296 7.798243961756445,91.65525775163375 8.914900070661789,95.39714793697668 6.6855962159083,98.60321520824571 2.78904366963663,98.85922551832141 0.15942597437598405,95.97239788205815" fill="hsl(331 50% 50%)" />
  <polygon points="96.945372499606,68.79383494373398 99.9981155952284,71.22887552180471 99.9976783980208,75.1338291493885 96.94439012639769,77.56818609837731 93.13743912462154,76.69882593435045 91.44353714467799,73.18039459253566 93.13822692676791,69.6623426362392" fill="hsl(335 50% 50%)" />
  <polygon points="52.41051164928231,27.85804470954875 51.47058642413466,31.648190299872745 47.92129748609265,33.276444290813316 44.43533179780189,31.516698216863787 43.63769262328639,27.694076763986253 46.1290185298303,24.687091853464672 50.03329029601897,24.760064454235604" fill="hsl(338 50% 50%)" />
  <polygon points="30.347481671647422,35.5272651049111 27.843397499858693,38.52363382142755 23.93947116009766,38.43406731852979 21.575438811789,35.32601099972353 22.531465030680817,31.53989466586469 26.08764257456671,29.926741139047426 29.56609722009868,31.70128792730024" fill="hsl(342 50% 50%)" />
  <polygon points="68.24844538536186,10.445230264967572 71.97638516582737,11.607610589106017 73.39193206887825,15.246963552200462 71.42915040462265,18.62278214376952 67.5660547996944,19.193006110211915 64.71163503739388,16.528245174347397 65.01532741828532,12.63511867209888" fill="hsl(346 50% 50%)" />
  <polygon points="12.951860005487003,85.48688188415285 16.032608318518772,87.88639284609347 16.077410261215256,91.7910894810002 13.052529056932922,94.2606555814925 9.235761948828035,93.43545750393174 7.501212417163877,89.93688623169433 9.155031637645873,86.39943729062315" fill="hsl(349 50% 50%)" />
  <polygon points="1.628683671146904,65.672254550617 5.292245501792247,64.32059714662743 8.633207253628587,66.34214051679982 9.135756584323339,70.21462127142463 6.421463597725218,73.0219824180578 2.5342462742292406,72.65022375355345 0.4012585432106759,69.3792871347781" fill="hsl(353 50% 50%)" />
  <polygon points="33.95221984151077,64.99238511193349 37.611326604659006,63.628713333020336 40.958903883901726,65.63928275092641 41.47415770983719,69.51009358582652 38.76909144227337,72.32634632888949 34.88067515398169,71.96734522350225 32.73696561928301,68.70342542430937" fill="hsl(356 50% 50%)" />
</svg>
