<svg xmlns="http://www.w3.org/2000/svg" viewBox="0 0 100 100">
  <polygon points="24.266615710142446,23.046913242091005 26.35660355341756,30.55570481031037 18.80880538197964,28.611291592077585" fill="hsl(0 50% 50%)" />
  <polygon points="37.0513468978273,20.57122658917163 36.50125340865271,12.796434170517117 43.50946789694547,16.20743544376276" fill="hsl(4 50% 50%)" />
  <polygon points="86.54508290553275,6.693846584695881 92.37844673105474,11.863166315481696 84.9850026111491,14.330347712508003" fill="hsl(7 50% 50%)" />
  <polygon points="42.59122492221482,11.260885578227391 49.441894480475085,7.543584594512698 49.23583678675477,15.335088956756138" fill="hsl(11 50% 50%)" />
  <polygon points="62.57764074502583,98.08635287223389 54.78550585385353,98.26700125383523 58.525127211820376,91.42849029756425" fill="hsl(14 50% 50%)" />
  <polygon points="88.39437927218604,30.437569861489937 96.12024302407661,31.467632620365954 91.36525063145243,37.64339551624254" fill="hsl(18 50% 50%)" />
  <polygon points="16.95843386790076,88.59954950416217 18.736301015296842,81.01079542946653 24.4194212533579,86.34485058101312" fill="hsl(22 50% 50%)" />
  <polygon points="78.91442353908371,82.59404161972476 84.8225601884866,77.510349916643 86.27109802366215,85.16879219559665" fill="hsl(25 50% 50%)" />
  <polygon points="90.6441263049156,43.72764491429561 95.36476779520143,49.929704565749475 87.63330583611301,50.9168701927689" fill="hsl(29 50% 50%)" />
  <polygon points="5.349099374282927,36.415104514773496 5.310618206762614,28.620970874672995 12.079776523340684,32.484712026083365" fill="hsl(32 50% 50%)" />
  <polygon points="16.248334830253828,28.487918251909946 8.497323468486211,29.307566267676062 11.66299314555505,22.185169515480435" fill="hsl(36 50% 50%)" />
  <polygon points="39.95462656516617,69.27764501876561 47.74375260237183,68.99565995440068 44.09339581299682,75.88223350808205" fill="hsl(40 50% 50%)" />
  <polygon points="16.775791210015647,91.8972928874759 22.644283627174094,97.02669799428446 15.267842289797022,99.54425895605574" fill="hsl(43 50% 50%)" />
  <polygon points="59.317854683843024,44.125915993300865 65.70593527995932,48.59161037352019 58.64449020309383,51.89100326106968" fill="hsl(47 50% 50%)" />
  <polygon points="12.41397672819975,52.90509387326228 19.808857220130186,50.44222105680044 18.24432739951105,58.077811828993084" fill="hsl(50 50% 50%)" />
  <polygon points="11.22146916906303,65.17900184655808 14.4765371567897,58.09701537415663 18.98218335728376,64.45698017877413" fill="hsl(54 50% 50%)" />
  <polygon points="2.7967224799052657,75.42962424866298 10.070832466468914,72.63010216384654 8.858234717093698,80.32942724454097" fill="hsl(58 50% 50%)" />
  <polygon points="8.951710830008741,57.55806918197299 9.552681293079708,65.32909450058547 2.522290722173752,61.964037529222786" fill="hsl(61 50% 50%)" />
  <polygon points="52.20019196776461,18.25995446337985 47.410396077877714,24.408763724791573 44.48026899941358,17.186274174501364" fill="hsl(65 50% 50%)" />
  <polygon points="83.0115578802417,16.532476462552832 90.04134429807034,19.898795360059708 83.61113340667545,24.303609532324685" fill="hsl(68 50% 50%)" />
  <polygon points="2.5895620664591457,60.33767971906671 0.6152276397820335,52.797652957069275 8.132249574224895,54.85784256899943" fill="hsl(72 50% 50%)" />
  <polygon points="90.98767121685755,44.176825515132116 97.81782200902505,40.4219566550714 97.654558433633,48.21447518279722" fill="hsl(76 50% 50%)" />
  <polygon points="31.08003034126741,55.94964139560301 27.025703146996513,49.29288310032178 34.8177885346983,49.11011190246971" fill="hsl(79 50% 50%)" />
  <polygon points="47.3359733916099,59.824139563410604 40.26171653849782,63.09597237946293 40.96535462941697,55.33356982374555" fill="hsl(83 50% 50%)" />
  <polygon points="83.38718148854579,98.18496262583866 75.60823415216973,98.67279286053892 79.07523444437322,91.69211173518582" fill="hsl(86 50% 50%)" />
  <polygon points="51.224401372257816,9.27184676950883 58.64301158531965,6.881402771701159 57.00389170721421,14.501329675891228" fill="hsl(90 50% 50%)" />
  <polygon points="81.02093073571857,19.34784168203305 76.43830032698223,13.043121344307908 84.18966350757678,12.226807163049742" fill="hsl(94 50% 50%)" />
  <polygon points="49.93892634053195,7.6446769962178305 45.60822243623885,1.1643217827021017 53.38572662883695,0.653999792073686" fill="hsl(97 50% 50%)" />
  <polygon points="53.41630682424136,58.41700996561374 54.180371349486094,66.17369775108394 47.08085041542208,62.95705314734128" fill="hsl(101 50% 50%)" />
  <polygon points="82.38046482506826,41.47583416186945 89.27119057573695,37.833321481167935 88.98033621549708,45.622121372109376" fill="hsl(104 50% 50%)" />
  <polygon points="65.67821456770918,17.940841668890883 68.57030442411805,25.17864632655172 60.85613679474999,24.06436728339868" fill="hsl(108 50% 50%)" />
  <polygon points="68.6926673105189,52.2799237049025 68.79593217075715,44.4863791731352 75.4937072906738,48.47258143130342" fill="hsl(112 50% 50%)" />
  <polygon points="53.83077755037716,28.881249425623732 58.0082173252801,22.301052093699802 61.618115489189336,29.208919727507265" fill="hsl(115 50% 50%)" />
  <polygon points="25.79102305144799,54.838306948504005 19.83170655212915,49.81470795366513 27.16192914974501,47.165587973482694" fill="hsl(119 50% 50%)" />
  <polygon points="8.094290893759416,39.12795106250735 0.7074757916042782,41.614909575746516 2.2471140920587462,33.97426078760204" fill="hsl(122 50% 50%)" />
  <polygon points="4.180240777862046,45.00035106309618 9.754697144086585,50.44786758175483 2.2497812682805707,52.55173014786384" fill="hsl(126 50% 50%)" />
  <polygon points="57.77509703060076,46.286143865956575 57.26174427190573,54.06344860121931 50.7830771775427,49.73021970345522" fill="hsl(130 50% 50%)" />
  <polygon points="80.01868422501188,59.83692944129835 76.99265221866881,52.654093629685555 84.72618650590965,53.62489094533405" fill="hsl(133 50% 50%)" />
  <polygon points="92.49604318247994,59.06118124261586 99.38452544275663,62.70793488796311 92.78210301440406,66.85015869620754" fill="hsl(137 50% 50%)" />
  <polygon points="92.50386655502575,12.803268556289563 93.2410753523887,20.562554811422224 86.15273194152691,17.321353230265583" fill="hsl(140 50% 50%)" />
  <polygon points="9.495283736583183,60.68475478238233 8.792808779670331,52.922246879976676 15.866575298687515,56.1951396729706" fill="hsl(144 50% 50%)" />
  <polygon points="79.63795662087914,60.06475030561866 86.58851236272733,56.53774380158991 86.16771172360507,64.32060489646462" fill="hsl(148 50% 50%)" />
  <polygon points="8.581086983086209,27.53085629572707 0.7942306369107821,27.86977847562605 4.394143592299974,20.95670197426856" fill="hsl(151 50% 50%)" />
  <polygon points="24.432056235771938,11.491874057478952 18.125091418779586,16.071414951195337 17.31257507564768,8.319652752047098" fill="hsl(155 50% 50%)" />
  <polygon points="24.248101830714862,79.134499014201 31.1240776660849,82.80477915492695 24.50753390752569,86.92440883380236" fill="hsl(158 50% 50%)" />
  <polygon points="71.08333394730876,96.47560475518354 70.45283914364337,88.70691913259905 77.49596564864916,92.045237426963" fill="hsl(162 50% 50%)" />
  <polygon points="81.1914174399502,47.24243541008585 88.96213514458765,46.637500409582444 85.60066537034322,53.66960684768768" fill="hsl(166 50% 50%)" />
  <polygon points="50.30026820893196,66.61277751567535 42.802225492065105,68.74100574968594 44.70814713479406,61.18339616121305" fill="hsl(169 50% 50%)" />
  <polygon points="81.69030743301859,43.543688626081185 79.22436480673231,50.93754600662785 74.05406779636297,45.10504835771569" fill="hsl(173 50% 50%)" />
  <polygon points="1.9610603989293218,69.7966297396234 0.1576223959663614,62.21391179884063 7.626167763897751,64.44344764451581" fill="hsl(176 50% 50%)" />
  <polygon points="93.24651105563218,16.475670632940894 99.99782393639384,12.580831177191563 99.9951974083539,20.37505936870292" fill="hsl(180 50% 50%)" />
  <polygon points="24.180721740539592,60.613263543142715 26.40234620509748,68.08416608155653 18.82154258535453,66.27269803632575" fill="hsl(184 50% 50%)" />
  <polygon points="41.37783775729419,92.34526817477371 37.679707234814316,85.48423103461022 45.47060495574436,85.71207462571377" fill="hsl(187 50% 50%)" />
  <polygon points="99.96114939922143,54.590504084908595 99.41899992631592,62.36585449174096 92.95642368712618,58.00866407214026" fill="hsl(191 50% 50%)" />
  <polygon points="77.04899271294833,58.58225784264644 69.45915363813252,56.80902835428374 74.7897349592022,51.12264964903882" fill="hsl(194 50% 50%)" />
  <polygon points="26.62317859848936,71.35444323959824 29.825071308174827,78.46062949353664 22.06998713339766,77.68045679334725" fill="hsl(198 50% 50%)" />
  <polygon points="77.74273138232743,88.45301546488014 70.07701257393265,87.04349244249906 75.13055472273109,81.10954672735153" fill="hsl(202 50% 50%)" />
  <polygon points="8.153299210075884,83.11538128732386 0.40053710169940304,83.91830076704885 3.5815694892524146,76.80275209183492" fill="hsl(205 50% 50%)" />
  <polygon points="47.996510965855435,50.568637686673064 54.80786604982377,54.357495287599576 48.120941574115484,58.361873024049196" fill="hsl(209 50% 50%)" />
  <polygon points="29.558344925709797,1.430286238266227 36.632414789974774,4.702523325565699 30.26153941303535,9.192728992515367" fill="hsl(212 50% 50%)" />
  <polygon points="48.171793353998666,35.151115026709746 46.789940407955136,42.821870037496545 40.83779817542876,37.789772776535074" fill="hsl(216 50% 50%)" />
  <polygon points="87.2208187552983,53.81014726854665 93.49972175279477,58.42808805942192 86.36101621597615,61.556807167714496" fill="hsl(220 50% 50%)" />
  <polygon points="70.25228324393032,97.25612164216024 62.46657747469658,97.62051933002408 66.04385270454304,90.69570150354468" fill="hsl(223 50% 50%)" />
  <polygon points="99.811123441262,40.14595870274582 92.12322670180461,38.8628984066411 97.07833788254717,32.8465146766518" fill="hsl(227 50% 50%)" />
  <polygon points="39.587295994838136,52.57645785607108 43.331083355650684,45.74022671625287 47.37953950846923,52.40055724699274" fill="hsl(230 50% 50%)" />
  <polygon points="68.67312468950146,7.466109378256594 70.92815857559405,0.00522322629219385 76.26195857489245,5.688582934025316" fill="hsl(234 50% 50%)" />
  <polygon points="62.602549590669796,36.26829653845525 67.75724715331725,42.11458536450862 60.116863730770206,43.65553998956035" fill="hsl(238 50% 50%)" />
  <polygon points="90.0906171872125,50.826271380666796 97.86061282089717,50.21213145156169 94.50747578413825,57.24821502217932" fill="hsl(241 50% 50%)" />
  <polygon points="54.519746415600444,2.8753813224931832 62.00206054628553,0.6924989963587018 60.15133502884752,8.263814275694507" fill="hsl(245 50% 50%)" />
  <polygon points="78.54311270546457,7.818024127247074 79.82301452505584,0.12960092530202605 85.84143342319031,5.082240016390518" fill="hsl(248 50% 50%)" />
  <polygon points="31.70516005512278,84.09436868897164 31.09001699012107,91.86428496970339 24.668643638229927,87.44659730808422" fill="hsl(252 50% 50%)" />
  <polygon points="45.623626285705306,34.992772154089074 44.8273336204131,27.239326598002293 51.94016077148992,30.426439699055415" fill="hsl(256 50% 50%)" />
  <polygon points="83.90097030106125,66.05465731258725 76.48804330563897,68.46266756184691 78.10910875491794,60.838879342781944" fill="hsl(259 50% 50%)" />
  <polygon points="29.482932763216926,98.29130424833842 32.17127630338361,90.9753758034967 37.16288441880237,96.96151382580169" fill="hsl(263 50% 50%)" />
  <polygon points="22.990112341217113,9.262320324952686 20.48004628460108,1.8833252449011968 28.125476506634065,3.399041814720419" fill="hsl(266 50% 50%)" />
  <polygon points="29.70860890921339,47.65274826213515 28.927831008867937,39.897724995224074 36.03426711512505,43.09906313226698" fill="hsl(270 50% 50%)" />
  <polygon points="16.708122746861648,78.87299999225361 13.8074218452658,71.63864208850839 21.52291002077583,72.74374037081856" fill="hsl(274 50% 50%)" />
  <polygon points="54.952951138656736,22.61412572648402 51.077983938452626,15.851387435130267 58.8721706980128,15.876936546598925" fill="hsl(277 50% 50%)" />
  <polygon points="68.3154069351689,53.006225257597656 65.85103924191782,60.40060771135675 60.67950003829007,54.569211457856106" fill="hsl(281 50% 50%)" />
  <polygon points="58.66879101127151,53.08361494152285 61.60740444015894,60.30265581379685 53.88622493936777,59.238049258978464" fill="hsl(284 50% 50%)" />
  <polygon points="27.564119231697735,6.167404064935383 31.48349585040051,12.904501876364725 23.68930968857077,12.930232689445413" fill="hsl(288 50% 50%)" />
  <polygon points="98.15685834929837,20.700985490950515 94.87452268333236,27.770375321475314 90.39341933382552,21.39309433573863" fill="hsl(292 50% 50%)" />
  <polygon points="12.433675095409598,7.018219987107829 16.38699257042368,0.3009823895720425 20.22763223563858,7.083274550927071" fill="hsl(295 50% 50%)" />
  <polygon points="25.599957037520973,62.137010421876745 21.94247563558286,55.254218125542586 29.73188931414913,55.52814246576214" fill="hsl(299 50% 50%)" />
  <polygon points="72.3410848523145,6.81460400677029 69.68968790703181,14.144003316300758 64.66794038313964,8.18312655140427" fill="hsl(302 50% 50%)" />
  <polygon points="38.237367479187014,73.76627932399863 35.60647539598843,81.10306382721004 30.56807967571465,75.15625219693901" fill="hsl(306 50% 50%)" />
  <polygon points="89.89939763666095,80.19529070360534 93.30585122444259,87.20571679295894 85.53141734581835,86.65057909211369" fill="hsl(310 50% 50%)" />
  <polygon points="73.32161578913848,80.2666529464846 67.71844153815609,85.68462658181431 65.82792585841742,78.12314852096786" fill="hsl(313 50% 50%)" />
  <polygon points="45.735764416821326,91.12196667772669 49.05327196944206,84.06901384658536 53.502554516593456,90.46853607997232" fill="hsl(317 50% 50%)" />
  <polygon points="87.29558934172515,73.6420689950377 79.681228562021,75.3068542413993 82.0466626366784,67.88023174941482" fill="hsl(320 50% 50%)" />
  <polygon points="44.19900349231627,2.071623632503087 40.18337695742158,8.751799044290536 36.40598861652482,1.9340767470671278" fill="hsl(324 50% 50%)" />
  <polygon points="8.480230812629928,66.80285768669881 16.24942265560451,67.42708369309173 11.824231154878039,73.8432881927861" fill="hsl(328 50% 50%)" />
  <polygon points="0.04097625927236148,89.41499040851674 7.775908658230778,88.45539633624274 4.739475302661811,95.63384132643304" fill="hsl(331 50% 50%)" />
  <polygon points="97.95569594666713,66.07465287923056 95.14372253294592,73.34395859026823 90.25430582617258,67.27406532370037" fill="hsl(335 50% 50%)" />
  <polygon points="55.02308737309036,23.77393217169934 52.82259216240414,31.251085428637904 47.4474350992489,25.606824046808367" fill="hsl(338 50% 50%)" />
  <polygon points="29.13078345079621,30.945459144641575 28.721379574788063,38.7289280670636 22.18539969640797,34.48263944882172" fill="hsl(342 50% 50%)" />
  <polygon points="71.79049536125682,13.287731663385198 74.98509448233482,6.178263578105707 79.54477489104258,12.499601614506442" fill="hsl(346 50% 50%)" />
  <polygon points="6.720931316203901,91.32024588412749 14.151324069080335,88.96668187649962 12.474373912680566,96.57837276440033" fill="hsl(349 50% 50%)" />
  <polygon points="9.477821161988405,72.66037755228743 1.8190927292594798,71.21335343579541 6.901616590394768,65.30421211061199" fill="hsl(353 50% 50%)" />
  <polygon points="31.640612114282046,60.53736201474749 38.26727494815049,64.6406947682817 31.40035312647489,68.32788674795884" fill="hsl(356 50% 50%)" />
</svg>
