<svg xmlns="http://www.w3.org/2000/svg" viewBox="0 0 100 100">
  <polygon points="24.266615710142446,23.046913242091005 27.50173152124853,28.52724404312222 22.021400720217315,31.762359854228304 18.78628490911123,26.28202905319709" fill="hsl(0 50% 50%)" />
  <polygon points="30.703715443740627,14.968881099845163 36.80618042816734,13.163355936950474 38.61170559106203,19.265820921377184 32.509240606635316,21.071346084271877" fill="hsl(4 50% 50%)" />
  <polygon points="82.91003393223998,13.334008597724106 82.0321644495609,7.030886738567268 88.33528630871773,6.153017255888178 89.21315579139682,12.456139115045016" fill="hsl(7 50% 50%)" />
  <polygon points="45.918035734875474,16.01568414320056 39.5588200469272,16.2613990881116 39.313105102016166,9.90218340016333 45.67232078996444,9.656468455252291" fill="hsl(11 50% 50%)" />
  <polygon points="60.98950554675923,92.04138041367582 61.03199309531609,98.4051996135131 54.6681738954788,98.44768716206997 54.625686346921945,92.08386796223269" fill="hsl(14 50% 50%)" />
  <polygon points="90.22471945052588,37.20549950381309 87.22581340789503,31.592428815903286 92.83888409580483,28.59352277327244 95.83779013843568,34.20659346118224" fill="hsl(18 50% 50%)" />
  <polygon points="19.421443590232098,82.93680399682033 22.06437168938739,88.72601215188743 16.27516353432029,91.36894025104273 13.632235435164997,85.57973209597563" fill="hsl(22 50% 50%)" />
  <polygon points="84.28673502571868,77.1165526860474 81.4203875217133,82.79845835107582 75.73848185668487,79.93211084707043 78.60482936069025,74.25020518204201" fill="hsl(25 50% 50%)" />
  <polygon points="88.06723785470882,38.10545668999826 88.75983174694491,44.431617745522956 82.43367069142022,45.12421163775903 81.74107679918413,38.79805058223434" fill="hsl(29 50% 50%)" />
  <polygon points="4.043475884471631,32.939138180758306 8.8395657233008,28.756134205398062 13.022569698661043,33.55222404422723 8.226479859831876,37.735228019587474" fill="hsl(32 50% 50%)" />
  <polygon points="13.567735640568722,18.709691584940728 17.303933860538812,23.86147019636148 12.152155249118067,27.597668416331572 8.415957029147972,22.445889804910816" fill="hsl(36 50% 50%)" />
  <polygon points="46.15615431452177,70.46072437276331 45.11627272369031,76.73915142713368 38.83784566931993,75.69926983630222 39.877727260151396,69.42084278193185" fill="hsl(40 50% 50%)" />
  <polygon points="14.671800064553382,98.02994160907303 16.02287719777054,91.81105179013447 22.241767016709105,93.16212892335162 20.890689883491945,99.38101874229018" fill="hsl(43 50% 50%)" />
  <polygon points="65.80002585021973,47.098492635731596 62.04585329705194,52.23718784376268 56.907158089020854,48.4830152905949 60.66133064218864,43.34432008256381" fill="hsl(47 50% 50%)" />
  <polygon points="26.195801663194125,54.30320908319137 22.784301933231955,59.67551488167939 17.41199613474393,56.264015151717224 20.823495864706096,50.8917093532292" fill="hsl(50 50% 50%)" />
  <polygon points="23.852873046267327,69.83267748038314 19.188981418556153,74.16258681949934 14.859072079439962,69.49869519178817 19.522963707151117,65.16878585267197" fill="hsl(54 50% 50%)" />
  <polygon points="8.901360798357318,78.66948889919279 2.989573554005962,81.02549644958914 0.6335660036096158,75.11370920523778 6.545353247960971,72.75770165484143" fill="hsl(58 50% 50%)" />
  <polygon points="6.357988806606853,61.339516765573116 7.180910471056303,55.02898588979256 13.491441346836861,55.85190755424201 12.668519682387414,62.16243843002257" fill="hsl(61 50% 50%)" />
  <polygon points="56.83427566807189,16.143345178176165 60.414264358023786,21.404873566374448 55.15273596982549,24.984862256326355 51.572747279873596,19.723333868128055" fill="hsl(65 50% 50%)" />
  <polygon points="87.75629789065437,27.033720240743147 81.67430572353777,25.160388641924516 83.5476373223564,19.078396474807924 89.62962948947299,20.95172807362655" fill="hsl(68 50% 50%)" />
  <polygon points="6.413107770085087,58.29139503273739 0.06447489940446793,57.849964774017444 0.5059051581244152,51.501331903336826 6.854538028805036,51.94276216205677" fill="hsl(72 50% 50%)" />
  <polygon points="93.29262993199451,50.4604961200989 92.83478852890273,44.11302565938663 99.18225898961501,43.65518425629484 99.6401003927068,50.002654717007125" fill="hsl(76 50% 50%)" />
  <polygon points="33.87113636053317,44.22628210834439 37.11280351231275,49.70274027736871 31.63634534328843,52.9444074291483 28.394678191508845,47.46794926012397" fill="hsl(79 50% 50%)" />
  <polygon points="52.09964891408992,53.26303990446155 45.778120480925715,53.99671440224408 45.044445983143184,47.67518596907986 51.3659744163074,46.941511471297346" fill="hsl(83 50% 50%)" />
  <polygon points="84.82129035949937,93.53273177707553 84.02666212783303,99.84688777557912 77.71250612932944,99.05225954391278 78.50713436099579,92.73810354540919" fill="hsl(86 50% 50%)" />
  <polygon points="46.729011466404096,13.974473651737506 47.10794083376729,7.621803934638269 53.46061055086653,8.000733302001464 53.081681183503335,14.353403019100703" fill="hsl(90 50% 50%)" />
  <polygon points="77.81285681159167,12.638018290426361 84.1151466588041,13.52184105643955 83.2313238927909,19.824130903651973 76.92903404557848,18.940308137638787" fill="hsl(94 50% 50%)" />
  <polygon points="53.07915911002229,0.4863134738259802 53.83924642398278,6.804720494203531 47.52083940360522,7.564807808164023 46.76075208964473,1.2464007877864716" fill="hsl(97 50% 50%)" />
  <polygon points="48.47068806296971,62.08443012804564 53.216528611334105,57.84450117940743 57.456457559972314,62.59034172777183 52.710617011607916,66.83027067641004" fill="hsl(101 50% 50%)" />
  <polygon points="83.20969947194133,38.43562191955644 80.42171726241575,32.71485665611756 86.14248252585462,29.92687444659198 88.9304647353802,35.64763971003086" fill="hsl(104 50% 50%)" />
  <polygon points="73.34653882328466,23.379779122973176 71.56017319295493,29.48788012367516 65.45207219225294,27.701514493345428 67.23843782258268,21.593413492643435" fill="hsl(108 50% 50%)" />
  <polygon points="68.23291918019541,44.356220316658636 73.45618258334977,47.991810973108876 69.82059192689954,53.215074376263246 64.59732852374518,49.579483719813005" fill="hsl(112 50% 50%)" />
  <polygon points="56.06833749483385,25.037245030775964 62.414314698604684,24.559151599299522 62.89240813008113,30.905128803070355 56.54643092631029,31.383222234546796" fill="hsl(115 50% 50%)" />
  <polygon points="22.255895040440414,50.569776099768255 17.798044472114118,46.0280178157473 22.33980275613505,41.570167247421004 26.79765332446136,46.11192553144195" fill="hsl(119 50% 50%)" />
  <polygon points="4.218619404223218,35.45146025294881 9.381633911820071,39.172116269613674 5.660977895155215,44.33513077721053 0.49796338755836,40.61447476054567" fill="hsl(122 50% 50%)" />
  <polygon points="2.54051000754376,50.734557488952625 3.570026901774775,44.45442254100024 9.850161849727161,45.48393943523126 8.820644955496146,51.76407438318364" fill="hsl(126 50% 50%)" />
  <polygon points="53.66067839642182,49.270340341550906 49.874473062964604,44.15520112810812 54.98961227640739,40.3689957946509 58.77581760986461,45.48413500809369" fill="hsl(130 50% 50%)" />
  <polygon points="86.06440906279052,62.3897501213475 82.82629749603106,67.8683113814977 77.34773623588084,64.63019981473825 80.5858478026403,59.15163855458805" fill="hsl(133 50% 50%)" />
  <polygon points="93.48157118161456,62.508109675791495 99.84321205225821,62.67993933841152 99.67138238963818,69.04158020905518 93.30974151899451,68.86975054643516" fill="hsl(137 50% 50%)" />
  <polygon points="90.36489940250378,12.28340944501485 91.30926531461445,18.576911889921295 85.01576286970801,19.52127780203197 84.07139695759734,13.227775357125529" fill="hsl(140 50% 50%)" />
  <polygon points="10.280493582472559,53.91489967812335 13.036069478481936,48.178454656916216 18.77251449968907,50.93403055292559 16.016938603679694,56.67047557413272" fill="hsl(144 50% 50%)" />
  <polygon points="85.56656308640761,50.682834838622746 81.17970581397014,55.29320177318041 76.56933887941248,50.90634450074296 80.95619615184994,46.29597756618529" fill="hsl(148 50% 50%)" />
  <polygon points="5.354507212605178,29.752505525857792 0.5262339637778837,25.606691078169764 4.672048411465901,20.778417829342477 9.5003216602932,24.924232277030498" fill="hsl(151 50% 50%)" />
  <polygon points="22.48350012986207,20.253967323253548 16.37487220300784,22.038530253288965 14.590309272972423,15.929902326434734 20.698937199826652,14.145339396399319" fill="hsl(155 50% 50%)" />
  <polygon points="27.161232084002158,85.56241864828691 20.799252386448916,85.40362844732871 20.958042587407107,79.04164874977546 27.320022284960345,79.20043895073366" fill="hsl(158 50% 50%)" />
  <polygon points="76.12491040802382,92.75722179556996 75.56097001152584,86.41829671088898 81.89989509620682,85.854356314391 82.4638354927048,92.19328139907198" fill="hsl(162 50% 50%)" />
  <polygon points="89.35756297532951,55.90578555599064 86.18830475106536,61.424463142870856 80.66962716418514,58.2552049186067 83.8388853884493,52.736527331726485" fill="hsl(166 50% 50%)" />
  <polygon points="48.56004677010468,71.5986379070293 42.9520535138657,68.59024769996206 45.96044372093294,62.98225444372308 51.56843697717192,65.99064465079032" fill="hsl(169 50% 50%)" />
  <polygon points="71.91413449790718,45.33528800725085 76.87398122786398,41.347817579105104 80.86145165600973,46.3076643090619 75.90160492605294,50.295134737207654" fill="hsl(173 50% 50%)" />
  <polygon points="1.1412277556609003,64.41253685780683 7.446586140756866,65.27419551150909 6.584927487054596,71.57955389660506 0.27956910195863127,70.7178952429028" fill="hsl(176 50% 50%)" />
  <polygon points="93.54006417599825,24.603879065773437 90.52195768409855,19.001108929175572 96.12472782069642,15.983002437275868 99.14283431259612,21.58577257387373" fill="hsl(180 50% 50%)" />
  <polygon points="19.678590024967775,57.891553789902915 20.207565167060146,64.23349239722548 13.865626559737592,64.76246753931784 13.33665141764522,58.420528931995285" fill="hsl(184 50% 50%)" />
  <polygon points="41.37783775729419,92.34526817477371 37.011306419543146,87.71564571970913 41.640928874607724,83.34911438195809 46.007460212358765,87.97873683702267" fill="hsl(187 50% 50%)" />
  <polygon points="92.66212159371314,50.44259690741991 98.84555181647788,51.947651949669016 97.34049677422878,58.13108217243378 91.15706655146403,56.62602713018466" fill="hsl(191 50% 50%)" />
  <polygon points="74.88136461056244,59.50744092254041 70.54517397793641,54.8493886689127 75.20322623156412,50.51319803628667 79.53941686419016,55.171250289914376" fill="hsl(194 50% 50%)" />
  <polygon points="27.203417380662554,78.7990122008963 21.91983572039958,75.25165193735768 25.467195983938193,69.96807027709471 30.750777644201165,73.51543054063332" fill="hsl(198 50% 50%)" />
  <polygon points="68.32415254370626,83.61424368402866 73.4234466316566,79.80672483251989 77.23096548316538,84.90601892047023 72.13167139521504,88.713537771979" fill="hsl(202 50% 50%)" />
  <polygon points="2.6409414510921247,87.74080932139498 0.940436480775094,81.60825008026839 7.072995721901679,79.90774510995135 8.77350069221871,86.04030435107794" fill="hsl(205 50% 50%)" />
  <polygon points="46.0765613033216,54.0013226929851 50.84325707005197,58.21779176881558 46.62678799422149,62.98448753554595 41.860092227491116,58.76801845971547" fill="hsl(209 50% 50%)" />
  <polygon points="39.164894995395414,3.3927700286730773 36.060071795143514,8.947954354613808 30.504887469202785,5.843131154361911 33.609710669454685,0.28794682842118036" fill="hsl(212 50% 50%)" />
  <polygon points="42.65307155931406,33.834946683361224 48.141888376376855,37.05564380490628 44.9211912548318,42.54446062196908 39.432374437769,39.32376350042402" fill="hsl(216 50% 50%)" />
  <polygon points="94.94726211721189,59.49410773693183 91.62699617141939,64.92327287065272 86.1978310376985,61.60300692486023 89.518096983491,56.17384179113933" fill="hsl(220 50% 50%)" />
  <polygon points="63.300457962417774,95.53588954569977 66.57292861602299,90.07778219779128 72.03103596393149,93.3502528513965 68.75856531032626,98.808360199305" fill="hsl(223 50% 50%)" />
  <polygon points="99.71167302869543,42.33041477876678 93.3617445051046,42.752798189056165 92.93936109481521,36.402869665465346 99.28928961840604,35.98048625517597" fill="hsl(227 50% 50%)" />
  <polygon points="39.13208257912186,60.69573892593307 33.47632866999206,57.77812899323766 36.39393860268747,52.12237508410786 42.04969251181727,55.03998501680327" fill="hsl(230 50% 50%)" />
  <polygon points="60.45335095113223,5.422006119026616 64.71343887972732,0.6942528639763532 69.44119213477758,4.954340792571447 65.1811042061825,9.68209404762171" fill="hsl(234 50% 50%)" />
  <polygon points="67.46448082438707,39.17778962306929 61.80539786305691,42.08893716944731 58.894250316678885,36.42985420811716 64.55333327800903,33.51870666173914" fill="hsl(238 50% 50%)" />
  <polygon points="85.36501983581329,45.949474422970404 91.72158950462952,45.642844278520464 92.02821964907946,51.9994139473367 85.67164998026323,52.306044091786646" fill="hsl(241 50% 50%)" />
  <polygon points="60.48405354154818,6.950551294449442 54.121487866368795,7.083810549396732 53.988228611421505,0.7212448742173487 60.35079428660089,0.5879856192700577" fill="hsl(245 50% 50%)" />
  <polygon points="79.91510728250252,0.5913995360674251 86.25197518158501,0.004794703511611598 86.83858001414082,6.341662602594104 80.50171211505833,6.928267435149917" fill="hsl(248 50% 50%)" />
  <polygon points="36.49913754145824,87.49591577958526 32.37369238234718,92.34160481615861 27.528003345773836,88.21615965704754 31.6534485048849,83.3704706204742" fill="hsl(252 50% 50%)" />
  <polygon points="51.71594117144799,36.47503036456004 45.46787610028837,35.26602959261855 46.676876872229855,29.017964521458932 52.92494194338948,30.226965293400422" fill="hsl(256 50% 50%)" />
  <polygon points="73.96798204188873,74.68420739257532 70.50186701246717,69.34697528193801 75.83909912310448,65.88086025251646 79.30521415252603,71.21809236315376" fill="hsl(259 50% 50%)" />
  <polygon points="34.8947081224655,91.36672448561018 37.22097267487209,97.29027859038685 31.297418570095413,99.61654314279343 28.97115401768883,93.69298903801676" fill="hsl(263 50% 50%)" />
  <polygon points="14.115701752251637,1.344762310607932 20.33784062089874,0.008727917610885871 21.67387501389578,6.230866786257986 15.451736145248683,7.566901179255033" fill="hsl(266 50% 50%)" />
  <polygon points="30.8572055723081,45.95804627701567 25.55112572696688,42.44442753348876 29.064744470493793,37.13834768814753 34.370824315835016,40.65196643167445" fill="hsl(270 50% 50%)" />
  <polygon points="21.97523763197551,77.92457207406095 16.983628066580305,81.87220857539376 13.0359915652475,76.88059900999856 18.027601130642694,72.93296250866575" fill="hsl(274 50% 50%)" />
  <polygon points="61.178120709279455,8.874952424697373 60.93551721947409,15.234287574438596 54.576182069732866,14.99168408463324 54.81878555953823,8.632348934892015" fill="hsl(277 50% 50%)" />
  <polygon points="66.91620784085015,51.77037269133233 70.22466817790912,57.206740062850514 64.78830080639094,60.5152003999095 61.479840469331954,55.078833028391315" fill="hsl(281 50% 50%)" />
  <polygon points="65.3433136572569,61.50823180610781 60.495892162289216,65.63164117823243 56.37248279016459,60.784219683264745 61.21990428513228,56.66081031114012" fill="hsl(284 50% 50%)" />
  <polygon points="22.470452475740437,10.078197961723717 27.48027438562716,6.153699977112312 31.40477237023856,11.163521886999034 26.39495046035184,15.088019871610436" fill="hsl(288 50% 50%)" />
  <polygon points="96.9769330798305,22.764646343390538 99.97998603734624,28.375499481225805 94.36913289951096,31.37855243874155 91.36607994199522,25.76769930090627" fill="hsl(292 50% 50%)" />
  <polygon points="20.742668495162395,13.813213070568372 14.414525891337693,14.487461678767742 13.740277283138333,8.159319074943038 20.068419886963014,7.48507046674367" fill="hsl(295 50% 50%)" />
  <polygon points="31.8119481923014,64.05441431032429 29.96472252666684,70.14438617727252 23.874750659718607,68.29716051163797 25.72197632535316,62.20718864468974" fill="hsl(299 50% 50%)" />
  <polygon points="78.98248041639101,7.711702502307716 72.69442565192693,6.731719196786306 73.67440895744835,0.44366443232223807 79.96246372191243,1.4236477378436447" fill="hsl(302 50% 50%)" />
  <polygon points="31.298877651062572,73.37318815663345 37.426752970108836,71.65588094060492 39.14406018613737,77.78375625965118 33.0161848670911,79.50106347567971" fill="hsl(306 50% 50%)" />
  <polygon points="89.89939763666095,80.19529070360534 94.06746022826128,85.0043710972463 89.25837983462031,89.17243368884664 85.09031724301998,84.36335329520567" fill="hsl(310 50% 50%)" />
  <polygon points="69.79403169975562,79.46669091543073 65.4287832373139,84.09752300709094 60.79795114565367,79.73227454464921 65.16319960809541,75.10144245298899" fill="hsl(313 50% 50%)" />
  <polygon points="45.735764416821326,91.12196667772669 46.861735824653714,84.85840631729717 53.12529618508323,85.98437772512956 51.99932477725084,92.24793808555908" fill="hsl(317 50% 50%)" />
  <polygon points="88.71373126112717,67.96593507097194 89.64485638767219,74.26141011251698 83.34938134612716,75.19253523906201 82.41825621958212,68.89706019751698" fill="hsl(320 50% 50%)" />
  <polygon points="45.25109160972561,0.4722424600219344 47.014324476721974,6.587061333606318 40.89950560313759,8.35029420060268 39.13627273614123,2.235475327018297" fill="hsl(324 50% 50%)" />
  <polygon points="7.7317159742075425,69.40732658956671 14.038302266087744,68.55470161745485 14.890927238199591,74.86128790933506 8.58434094631939,75.71391288144692" fill="hsl(328 50% 50%)" />
  <polygon points="6.310741688509475,95.65528908741553 0.09176698433635133,94.30460273268515 1.442453339066721,88.08562802851202 7.6614280432398445,89.43631438324239" fill="hsl(331 50% 50%)" />
  <polygon points="96.03644021447408,69.21454894275351 97.18216073540601,75.47452693695729 90.92218274120225,76.6202474578892 89.77646222027032,70.36026946368544" fill="hsl(335 50% 50%)" />
  <polygon points="45.153183498664596,27.49383778896367 46.32071148551834,21.237890346736137 52.576658927745875,22.405418333589882 51.40913094089213,28.661365775817416" fill="hsl(338 50% 50%)" />
  <polygon points="22.44655352972788,32.18060831230975 28.275196044458106,29.625823304627247 30.82998105214061,35.45446581935747 25.001338537410383,38.00925082703998" fill="hsl(342 50% 50%)" />
  <polygon points="73.48745491900175,9.822236212064372 77.03705879311171,15.104310836386105 71.75498416878997,18.65391471049606 68.20538029468001,13.371840086174327" fill="hsl(346 50% 50%)" />
  <polygon points="15.412451047190249,90.38319517197986 12.911711874577353,96.23522931324727 7.059677733309946,93.73449014063438 9.560416905922843,87.88245599936697" fill="hsl(349 50% 50%)" />
  <polygon points="13.635073302397391,62.140437755246644 14.137112611685161,68.48456547558219 7.792984891349618,68.98660478486995 7.290945582061848,62.64247706453442" fill="hsl(353 50% 50%)" />
  <polygon points="40.11775047794456,68.18627334709441 33.9629376901234,69.80438321569822 32.34482782151958,63.64957042787706 38.49964060934075,62.03146055927325" fill="hsl(356 50% 50%)" />
</svg>
