<svg xmlns="http://www.w3.org/2000/svg" viewBox="0 0 100 100">
  <polygon points="19.9067727656041,22.657231501221148 22.692825334915618,21.348372786647992 25.66838358843193,22.13656891301017 27.44115074968638,24.653014152958622 27.181629361815624,27.720235811547873 25.011252366463328,29.903046786352373 21.94556328080832,30.180085563019325 19.41903209936756,28.421722619003223 18.613850841203536,25.450715517836553" fill="hsl(0 50% 50%)" />
  <polygon points="36.00827813351944,23.211255257418493 33.05737694089839,24.08725879911744 30.233771257452272,22.861513720362424 28.858657563347183,20.10755976614205 29.575466838741274,17.114002598424957 32.048796057229936,15.281560885667998 35.121346989489936,15.467654470591313 37.355438906716884,17.58520809660946 37.705715371674344,20.64339488812143" fill="hsl(4 50% 50%)" />
  <polygon points="79.02617001153948,7.895087280873771 80.6257868291682,5.265177379291449 83.54163790276142,4.278763383898692 86.40936410890987,5.39739936591019 87.88712448453002,8.097663117088647 87.28345852639205,11.116071218168877 84.88082824530852,13.040276972786053 81.80345105205964,12.969923123189917 79.49126593660439,10.937929017502444" fill="hsl(7 50% 50%)" />
  <polygon points="43.06171241188152,9.394941575235972 40.16115051579646,8.364436485165665 38.60158709699395,5.71057853937911 39.112759211748426,2.6751373650555452 41.45548374652101,0.6784296228318736 44.533573855008605,0.6547370562292718 46.906756966288846,2.6151456804746416 47.464594327601326,5.642358512768619 45.94606763791624,8.319909025157777" fill="hsl(11 50% 50%)" />
  <polygon points="57.293448093542146,89.77607086055484 59.88330460704988,91.43975451231168 60.79785455991061,94.37893780659665 59.60916986509026,97.21834421463006 56.873449302054105,98.62938392160594 53.870766926394126,97.9518157666707 52.00611119277904,95.50268141984982 52.15197524230746,92.42795806111711 54.240107665106706,90.16634292176737" fill="hsl(14 50% 50%)" />
  <polygon points="88.59377880237977,35.05874898728482 85.7462731430864,33.889599050803795 84.31647234907068,31.16363688248352 84.97339610231836,28.156370476575926 87.40966247779058,26.27493320644842 90.48531536231911,26.399670480639784 92.76122258915878,28.47221634225549 93.17246187297994,31.522803548864022 91.52660978246712,34.12402844299294" fill="hsl(18 50% 50%)" />
  <polygon points="18.367476237584114,90.70806126240775 16.290390267123556,88.43629676647132 16.159512171685584,85.36089907221844 18.036081266673634,82.92088094002821 21.04203001680041,82.25795397173333 23.77084159448248,83.68230906341155 24.945674735159855,86.52747463772309 24.016811955493633,89.46216610195441 21.41887847324954,91.11320870452906" fill="hsl(22 50% 50%)" />
  <polygon points="93.81118424267885,75.84704305131378 95.18633794080412,78.60097703022717 94.46957215014721,81.59454461005987 91.99626955012093,83.42702225041039 88.92371591497414,83.24097329763829 86.68959323822197,81.12345212444943 86.3392723498246,78.0652704214053 88.03667228684613,75.497385395264 90.98756075425518,74.62133898862018" fill="hsl(25 50% 50%)" />
  <polygon points="81.4952600470104,46.704666407873546 79.47077727087787,44.38590174908989 79.41040668247663,41.30831252280619 81.34239635106398,38.91193693159493 84.36274683903446,38.31806574733194 87.05820258561005,39.80457789727691 88.16752989031428,42.67591782572827 87.17166217847634,45.588553668774914 84.53657702030199,47.17963074511364" fill="hsl(29 50% 50%)" />
  <polygon points="5.464684741965705,28.873568886675287 8.021708793874588,30.58728649808064 8.878946412647984,33.54369372961034 7.635286589326919,36.35945478082516 4.872651576982651,37.7170437621634 1.8837090011592088,36.98122970133599 0.06701831148093174,34.49630817506647 0.2726292719163155,31.42500158232288 2.4043342289663565,29.204408411620587" fill="hsl(32 50% 50%)" />
  <polygon points="10.48643839087034,24.9716550934414 9.841204644281873,21.96185884353597 11.281586655315163,19.24147289371688 14.133613672944804,18.08339606362661 17.06279055887228,19.0295053726547 18.698522893997225,21.637105760273183 18.275433339574736,24.68607202486517 15.99149020023573,26.749758965742505 12.915375854077503,26.862544527943104" fill="hsl(36 50% 50%)" />
  <polygon points="46.575608319346195,79.69521528414931 43.49938596065739,79.80501534600941 41.07228479767899,77.91176945644558 40.42997243879338,74.90134840826907 41.87299397522984,72.18236166702484 44.72614359269177,71.0270533471127 47.65440087594282,71.97600505124132 49.28760169819516,74.58519173062545 48.861553243711626,77.6337459401014" fill="hsl(40 50% 50%)" />
  <polygon points="19.220349726396144,91.22828223536207 22.10686758071469,92.29749443618174 23.630792188166573,94.9719764130296 23.079062288389597,98.00030832538225 20.709838433284226,99.96550001528962 17.631706795644412,99.94801645037126 15.284959378344396,97.95603838496062 14.76766537913122,94.92163449423359 16.32187240931915,92.2646360823041" fill="hsl(43 50% 50%)" />
  <polygon points="66.78038374330062,48.601539447148006 65.08119731495565,51.16824268971611 62.12969995163375,52.042235463133196 59.306930071872614,50.81456683536968 57.933693074005234,48.059676601373134 58.652541811162976,45.06660851882504 61.127118970115916,43.235852407796116 64.19954239632827,43.424039399224554 66.43219102249243,45.54311470835557" fill="hsl(47 50% 50%)" />
  <polygon points="25.2730272293107,50.557856899052 25.595972270507446,53.61905054762241 23.875665176596854,56.171646002511864 20.91705675590337,57.0212554814391 18.10451276973945,55.77033726685649 16.754053807175787,53.0042098937746 17.497574625475483,50.01717510213987 19.98717357044266,48.206899668152076 23.057939626916912,48.420431586344506" fill="hsl(50 50% 50%)" />
  <polygon points="19.578590146436543,67.63655576743686 19.523947116568607,64.55885951975935 21.46039314156895,62.16608354906302 24.481843605139574,61.577834324779445 27.174528255694316,63.06936019661282 28.278510019382136,65.94275963266867 27.27722355958289,68.8535371025389 24.639181938896083,70.43970747838304 21.598754150207917,69.9590840130235" fill="hsl(54 50% 50%)" />
  <polygon points="8.654462518792698,74.79705881860853 8.888952807991938,77.86629558985193 7.0957154232488,80.36819481556847 4.11382606649818,81.13209004253271 1.3385439077724395,79.8005462042983 0.06845431296487625,76.99660746123651 0.8978463189594765,74.03226791353391 3.4386381884859727,72.29457498052491 6.5019651680366755,72.59661449787016" fill="hsl(58 50% 50%)" />
  <polygon points="5.357798591853953,63.76958428595805 4.2860709200645095,60.88399944901387 5.319898072440434,57.98461995113995 7.975540834676082,56.428097682405294 11.010394444139635,56.94274671116897 13.00441716832226,59.287757037185614 13.02458361348484,62.365872267025274 11.06145767581073,64.73680807520577 8.03360779925218,65.29117724706306" fill="hsl(61 50% 50%)" />
  <polygon points="57.14346101953307,21.641218401560824 56.75883020324077,24.69527458782192 54.501076427952576,26.78758143526407 51.426627777264045,26.939125316568653 48.97405294352306,25.07899716545062 48.290938948770126,22.077571616839748 49.696922423116526,19.339249042060402 52.53412807314981,18.145321006917328 55.474995843190946,19.054439708086058" fill="hsl(65 50% 50%)" />
  <polygon points="79.08719853514366,22.982949875709906 80.73207469292255,20.38110774382489 83.66455481794407,19.44528705051061 86.51249886882432,20.613368698657318 87.94332217278397,23.338794303315687 87.28752660407054,26.346306934334418 84.85196619764096,28.22865800688013 81.77626673590244,28.10507453410678 79.49958217959436,26.03338259640233" fill="hsl(68 50% 50%)" />
  <polygon points="0.0006005322352296005,52.19220260114684 1.93454090705501,49.7974010059571 4.955373977554659,49.20598946239623 7.649618377227472,50.69469600450353 8.756607208275394,53.56693829609672 7.758368093840649,56.478762247522006 5.121988209759236,58.067693070588966 2.081059003891533,57.59025237418551 0.05846504782662887,55.2698399663211" fill="hsl(72 50% 50%)" />
  <polygon points="95.93856151660755,48.83163897556978 92.9053665055884,48.307303130133 90.91884090726225,45.955938398561926 90.90850212685869,42.87777447126676 92.87918779463132,40.51311845981034 95.90879218489772,39.96841919217736 98.57972973314997,41.49854750935131 99.64223907639652,44.38753936624451 98.59916028445626,47.28360336544858" fill="hsl(76 50% 50%)" />
  <polygon points="34.4842383986675,52.21566552175236 31.782142305130666,50.74125826628515 30.65994732334954,47.874922892232306 31.642740957107506,44.95784957688245 34.270663142634625,43.35496934414647 37.31407988322092,43.81628766895102 39.34894266213661,46.125948580137965 39.42311657014632,49.20323606834116 37.50189481134115,51.608253117589456" fill="hsl(79 50% 50%)" />
  <polygon points="44.17413006505053,56.84979217404488 41.10517348847369,57.08792151866071 38.60114976459173,55.297651917757605 37.833719422932845,52.31667041422849 39.16197164939743,49.53981138349371 41.96440246534352,48.266398027384575 44.9297233464407,49.09227460763756 46.67042769655296,51.631004293756526 46.37202060448883,54.69468725076876" fill="hsl(83 50% 50%)" />
  <polygon points="78.33912529144888,89.28431668672025 79.97503558856964,86.67682794207423 82.90427703857569,85.73091854829072 85.75622501211673,86.88919002333293 87.1964213565018,89.60967427127507 86.55098219619363,92.61942647769042 84.12191568755767,94.51015013552741 81.04580904605184,94.39715463223129 78.76200675635397,92.33331181959946" fill="hsl(86 50% 50%)" />
  <polygon points="44.41711114905092,18.38932100467037 43.21509099412958,15.55553420943607 44.11581317440502,12.61208391978597 46.697819771314364,10.936243239053463 49.75296120235683,11.312156646647834 51.85170283783276,13.563930081343516 52.01202014158785,16.63793372737227 50.15889886546672,19.095807115012203 47.15943504971535,19.78748396996662" fill="hsl(90 50% 50%)" />
  <polygon points="82.86074158323697,16.425187135166176 82.07620997541424,19.401713669569737 79.56194952057261,21.177578084129866 76.4944106284249,20.92183368273935 74.30892883850433,18.754146113091235 74.02811536923929,15.688800480187712 75.78336596379297,13.160106073186281 78.75337936153628,12.35126710843083 81.54845328564295,13.640748326774231" fill="hsl(94 50% 50%)" />
  <polygon points="54.810078788315025,1.3053875017739078 56.16269998119773,4.070458199287074 55.421514745381714,7.058073385332584 52.93333189006162,8.870294710715484 49.86239982631391,8.659163676692536 47.645641796374335,6.5234708405431485 47.320303518972885,3.462530615883602 49.03861438983789,0.9085909523933826 51.996557655593485,0.056668602497260245" fill="hsl(97 50% 50%)" />
  <polygon points="50.10228573056085,68.20251412449163 50.44330192315581,65.14328088557875 52.67097270362119,63.01897324600717 55.74294615597427,62.82357835938206 58.221811760677106,64.64852366472758 58.947680751766754,67.6398969716647 57.58091096117713,70.3980014644664 54.76102916387935,71.63228939803378 51.80748939232432,70.76522373066824" fill="hsl(101 50% 50%)" />
  <polygon points="85.05109223349248,36.52598160255769 82.79275338885294,38.617656939810956 79.7182624759638,38.76834098091473 77.26620796212626,36.90752698836997 76.5839334059153,33.905910509932305 77.99068265481912,31.167981255113993 80.8282221009992,29.974846750938767 83.76883550184968,30.88478789212317 85.43657716583502,33.47203310583771" fill="hsl(104 50% 50%)" />
  <polygon points="69.7306269278671,21.726084317448276 72.53043179891972,23.00526090326879 73.85296790224048,25.78484689925714 73.07940589673403,28.764243126233044 70.57170404196091,30.549356977293765 67.50324390577116,30.30491384219744 65.30979208802374,28.145291380538474 65.01768907174424,25.081000943657237 66.76361310461324,22.545858082765207" fill="hsl(108 50% 50%)" />
  <polygon points="67.59183716996986,50.65307301549059 67.19046319873522,47.60117213425333 68.84471697090906,45.005282207671314 71.78055476150845,44.0800489824952 74.62426544010937,45.25839936760678 76.04524517587059,47.98897012190657 75.37860175799882,50.994096842544096 72.93626505063256,52.86764733866976 69.86103154269749,52.73296651095199" fill="hsl(112 50% 50%)" />
  <polygon points="64.1764083726789,29.97120686438892 61.58646384427271,31.634753495373506 58.533144067768056,31.24431989527359 56.44513130046092,28.982594284762055 56.299429921851356,25.907863213277476 58.16421522628122,23.458827520996984 61.166933445027645,22.78141822633853 63.90257935204342,24.192602666838514 65.09111382411821,27.03207195921893" fill="hsl(115 50% 50%)" />
  <polygon points="20.95043262478718,39.43890631388047 23.87159356849312,40.40948284082124 25.485458111105128,43.03067365642035 25.036881097028548,46.07599444676798 22.735756696528,48.12050576908987 19.65880659074672,48.207558053459266 17.245769930671056,46.29641856854136 16.625733387465658,43.28133071927871 18.08881895063493,40.5730876193102" fill="hsl(119 50% 50%)" />
  <polygon points="16.613490302803232,37.28228200369444 17.57739546829816,40.20565110211729 16.436684229012517,43.06466805244283 13.725108051401328,44.5215670491797 10.71144356478127,43.894648860125926 8.805817875591856,41.47725547335936 8.899894422475262,38.40051212088293 10.949653743600392,36.10406121151386 13.995990672075452,35.66243764795488" fill="hsl(122 50% 50%)" />
  <polygon points="1.8955663723287177,42.78189711684019 4.219020441850346,40.762798000772634 7.2967414151868315,40.70956583036691 9.688629443855497,42.64710852976554 10.27549353636789,45.668828336531384 8.782733461569585,48.36082897040381 5.908828248638967,49.46349341653944 2.998510086604946,48.460872725841156 1.4135491880667663,45.82210426237445" fill="hsl(126 50% 50%)" />
  <polygon points="54.31137183112729,50.61796287613165 51.237606114501084,50.45314669678389 48.988906765790574,48.35111166073185 48.61746520176687,45.29542332286148 50.29708305834982,42.715872216655384 53.24184847357108,41.81945897322458 56.073872982226526,43.02562531169381 57.46802084226978,45.76999259724766 56.77195477575903,48.76844087673051" fill="hsl(130 50% 50%)" />
  <polygon points="83.77844212664132,61.950202167390856 84.67624665033946,64.8945437051389 83.47141855757565,67.72713780252887 80.7277103031268,69.12258220061524 77.72893347217018,68.4279329568964 75.87824907160251,65.9682241726748 76.04161290051546,62.89438092470586 78.14258520777393,60.64468863067664 81.19809770110541,60.27180331750827" fill="hsl(133 50% 50%)" />
  <polygon points="99.86998890007669,64.4379482948025 98.0649880877581,66.93137407497134 95.07953404849067,67.68121688056677 92.31055390687342,66.33661692927615 91.05368424495548,63.52672748187227 91.89702834609855,60.56632703923811 94.44597613265216,58.84061986966825 97.50784660688872,59.15708353690328 99.64995654501307,61.367641173942026" fill="hsl(137 50% 50%)" />
  <polygon points="91.2546518160889,13.831773756973975 92.33300568660107,10.948658604290541 95.01230337426718,9.433216769528016 98.03887171395132,9.994540329431729 99.99654574295494,12.369979751906254 99.96930802598393,15.448040531107278 97.96990339352253,17.788463819611575 94.93387549400674,18.296139549820484 92.28181552331164,16.733520605381987" fill="hsl(140 50% 50%)" />
  <polygon points="16.740652098714015,53.082240059515755 14.75171580861704,55.43156602404615 11.717984594755563,55.95279052051955 9.05897500826218,54.40202681427102 8.018867186256962,51.504894478273066 9.084339138166985,48.61699393057852 11.75684469629181,47.089605932893164 14.785888808394002,47.63741230436072 16.754148070345455,50.00408835558186" fill="hsl(144 50% 50%)" />
  <polygon points="83.65561226453698,48.50278044567189 84.42694796997758,51.4827538152163 83.10233544177059,54.26135088996437 80.30157560329253,55.538435217974765 77.33517510994568,54.716444848960094 75.59114572043622,52.17999821198769 75.88553816884325,49.11592687796129 78.08060295674954,46.957943877431546 81.14924487446598,46.71579343965589" fill="hsl(148 50% 50%)" />
  <polygon points="12.640999942369394,27.4813293655893 15.688134527663673,27.045243510756954 18.3026856284098,28.66984272141434 19.26127572706988,31.594958971485823 18.115369862938607,34.451897858517 15.401150125168096,35.90386592592702 12.388630094253482,35.27147117814714 10.487401373090476,32.8506181459483 10.587070010114855,29.774050867880902" fill="hsl(151 50% 50%)" />
  <polygon points="15.251473844471178,9.918749881424562 16.65323628067587,12.659235627807286 15.965498323206011,15.659605030986931 13.510060205717759,17.51595190182415 10.435848712538819,17.359670908456817 8.181321567382618,15.263887664551275 7.801397077745961,12.209242441967202 9.473846134720212,9.62503768895181 12.416111237346268,8.720451529677707" fill="hsl(155 50% 50%)" />
  <polygon points="28.18793780137509,77.16705122180628 31.150397659263177,78.00313234471426 32.88235098486333,80.5478401337588 32.573397568610105,83.61047753316912 30.36810014760313,85.75800246633786 27.29834189428235,85.98556414995427 24.800496811939315,84.18668394318782 24.043334375058194,81.2030778871111 25.381139302778823,78.43080841445015" fill="hsl(158 50% 50%)" />
  <polygon points="78.04614427753549,93.33303522948803 78.38610408258147,96.39238604046648 76.68001560713934,98.95450667924305 73.72617660992981,99.82055242413512 70.90672118601097,98.5852908460813 69.5409038629911,95.82671456585626 70.26780574567992,92.83559208313764 72.7473013645528,91.01150285021299 75.8192071630148,91.20795849166146" fill="hsl(162 50% 50%)" />
  <polygon points="92.69641584839583,48.06247172119059 92.7998608928231,51.1389143383159 90.90160519807505,53.56209930258048 87.88986370048634,54.19819143850385 85.1738637185571,52.749556166310825 84.02445182880952,49.89402602964823 84.97945062874673,46.967735315142946 87.59200556624869,45.33992797021065 90.63967315074433,45.77227314260867" fill="hsl(166 50% 50%)" />
  <polygon points="45.55085241195078,59.51302205727323 48.482580169680986,60.45119709863575 50.12536663492289,63.054359153387516 49.710533763051934,66.10445976518652 47.43218646517037,68.17432295967961 44.35638876296669,68.29543674419646 41.922340584985776,66.41113063293186 41.26896012513713,63.403092397076236 42.701971362098895,60.678816557807636" fill="hsl(169 50% 50%)" />
  <polygon points="72.54754163562276,35.29852511099548 75.29325104850514,36.69002785037134 76.50214576694748,39.52088878185555 75.60857051682235,42.466516614091866 73.03063908864604,44.14861934737012 69.97459424817868,43.78012241829992 67.8703933404301,41.53344963538038 67.70261535572403,38.459844162726256 69.54976547774908,35.99748016031226" fill="hsl(173 50% 50%)" />
  <polygon points="15.823122052767692,65.07244758682005 17.906439399592646,67.33849897328497 18.045763322248614,70.4135256232926 16.175902608911947,72.85868839218989 13.171785868539896,73.52986844545264 10.439072710991143,72.11301317682378 9.256429993406522,69.2710849130871 10.17722938695362,66.33385347335943 12.770618621846403,64.67568209198065" fill="hsl(176 50% 50%)" />
  <polygon points="86.060803317589,12.129249463121548 89.13676305951452,12.246175592514959 91.41792625985155,14.31293501419652 91.83691130485742,17.362468025289008 90.19767043547378,19.967864238118022 87.2672226726182,20.910029808947325 84.41675709282991,19.748114996181926 82.98003822028804,17.025792653959503 83.62932278280658,14.016867661448643" fill="hsl(180 50% 50%)" />
  <polygon points="20.89390410087715,62.824930608252224 18.313775971231127,64.50366194122088 15.258215454156016,64.13117035719107 13.156953274363746,61.88174880811316 12.99319335870699,58.80792663633655 14.843560791710274,56.34797939776369 17.842248086928013,55.65294374459108 20.58613613223079,57.04803458339903 21.79132921630263,59.880473406001705" fill="hsl(184 50% 50%)" />
  <polygon points="37.125119274697944,90.9817220069002 35.99367390921013,88.11902547415393 36.967042335827394,85.19879364093485 39.589774649950435,83.58743543676789 42.63466525337825,84.03892327363442 44.67697599257733,86.3420009749362 44.76108697492087,89.41903288837658 42.847641736980876,91.83024158425633 39.83196257116452,92.44739571617363" fill="hsl(187 50% 50%)" />
  <polygon points="90.09619492336935,71.76830074496644 87.04086868547462,72.14270912322922 84.45968793250958,70.4655967315857 83.56041582541528,67.52170309711391 84.76383177739733,64.68850876911654 87.50684409004481,63.291696861111134 90.50596681708383,63.984851188688594 92.35787710299653,66.44363713842318 92.19604554331407,69.51756143807211" fill="hsl(191 50% 50%)" />
  <polygon points="73.57412562499475,62.45214982474431 70.97910787532548,60.79652820958497 70.05542200894986,57.86020321498043 71.23527090836998,55.01711393952345 73.96659016098724,53.59757345261801 76.97136513326977,54.265800524522355 78.84362822133255,56.70912428177577 78.70732671838458,59.78428638384056 76.62623761247764,62.05238430654075" fill="hsl(194 50% 50%)" />
  <polygon points="32.26994804980042,68.48250311388227 34.23923668642012,70.84832270112089 34.22707978596929,73.92647998486271 32.239165697277755,76.27667096213735 29.20566151564845,76.79921515521472 26.545977561309346,75.2496083287221 25.504609515590296,72.35292873873694 26.568825060599902,69.46456495842094 29.240665915389837,67.93601450117174" fill="hsl(198 50% 50%)" />
  <polygon points="76.25842575746883,85.57288218699864 74.87299822192115,88.32166202493177 72.04481753539125,89.53681389116933 69.09722087283362,88.64975472259007 67.40942147154689,86.07554936273675 67.77115942919406,83.01869710859056 70.0131735351224,80.90953310299506 73.08640047195681,80.73495862491524 75.55284320083955,82.57665901282387" fill="hsl(202 50% 50%)" />
  <polygon points="8.700236966096291,81.98196151514168 10.014645073250627,84.76540028427749 9.232380146605081,87.74252333148627 6.719472639243353,89.52030169594188 3.651739901716077,89.26689312310984 1.4646081759639147,87.10087030054083 1.1814607037278693,84.03573937957715 2.9347853341008094,81.50570918327337 5.904181986498519,80.6946089586336" fill="hsl(205 50% 50%)" />
  <polygon points="50.21708818761787,51.922348517366146 53.11818446485752,52.95134824713657 54.67912487032289,55.60439651361553 54.16952804037649,58.640102547570386 51.82783999528815,60.63802575759918 48.749762596318426,60.66331566928629 46.375562467465,58.70413885188726 45.81615423531369,55.677215912088045 47.33329122881805,52.99887773392198" fill="hsl(209 50% 50%)" />
  <polygon points="42.96861838844344,10.175832590897032 43.93539238308505,13.098254206093253 42.797487824903946,15.958389389987897 40.08734290307354,17.417949103174813 37.07306454642406,16.793989134654506 35.16506709800417,14.378467288240236 35.25612376895917,11.301633081404258 37.30362813096704,9.003171434728348 40.34953013756803,8.558558097247971" fill="hsl(212 50% 50%)" />
  <polygon points="58.517988383659166,32.17899824586755 58.42647004898937,35.25581875543593 56.3786208364921,37.5539731576804 53.33265215200365,37.998129466649615 50.71380659516734,36.38046200912933 49.74747110725323,33.4578953668645 50.88580480267898,30.59793095248104 53.596168694185096,29.138777900432927 56.61035339459649,29.763190140453297" fill="hsl(216 50% 50%)" />
  <polygon points="96.44070807567883,59.031092134772635 93.38912326308743,58.62732216902126 91.31101200584405,56.3564955230177 91.1787456568469,53.281157221854016 93.05421311076846,50.840292235222776 96.05986230241984,50.17600841756137 98.78931657095745,51.599131549845865 99.9654339296273,54.44376650222848 99.03789599521929,57.37887696589343" fill="hsl(220 50% 50%)" />
  <polygon points="68.64574487879197,96.69442012147223 65.92602860868172,98.13606621666307 62.915932825561846,97.49223127653843 61.02391479984239,95.06417282501094 61.135270793195616,91.98800639641419 63.197896098747535,89.70310445047028 66.24666541250356,89.2785980015429 68.85502568926059,90.91311833494882 69.80249616682856,93.84185522101737" fill="hsl(223 50% 50%)" />
  <polygon points="93.8040512309977,39.857404281491974 91.53995396383198,37.7719634123964 91.14605038502738,34.71908935271324 92.80665235685721,32.127255803884104 95.74474576116714,31.209210488427455 98.58556404080957,32.39451701238264 99.99985675056148,35.12855727997638 99.32586061341726,38.13204346452861 96.87894591257943,39.99961100025658" fill="hsl(227 50% 50%)" />
  <polygon points="40.182289424036895,57.73051286820132 40.65517205665889,60.77215421284502 39.062291800179175,63.40614975995562 36.14897502949674,64.40002371944036 33.278395039523254,63.28873141997762 31.79372811051023,60.59225887912421 32.38966639877784,57.572315566699615 34.78736375612934,55.641966521518654 37.86491094162207,55.70444351526146" fill="hsl(230 50% 50%)" />
  <polygon points="71.71498782437726,5.101163372079874 73.27688545628659,7.753648214848523 72.76838406611839,10.789537934498826 70.42741710569581,12.788305991050468 67.34934903275031,12.81470659701038 64.97444210752924,10.856386615439865 64.41394167449396,7.82966573001804 65.93011211553011,5.150780281289484 68.81352043091938,4.073210543209698" fill="hsl(234 50% 50%)" />
  <polygon points="60.917238985467186,41.60144476588967 58.76740544691083,39.398397828082935 58.53662868624895,36.32887960197321 60.332891714593266,33.82915177945239 63.3157030977416,33.06886479005815 66.0893722392629,34.403765365776756 67.35606852194054,37.209238691462104 66.52309067734858,40.172572618663075 63.98019829648914,41.9071902690542" fill="hsl(238 50% 50%)" />
  <polygon points="85.77366906748466,54.61048485238923 88.8518056223499,54.62708013134957 91.19912778567081,56.61838089096973 91.71729742964958,59.65263537498064 90.1638572190544,62.31008218833128 87.26567909298765,63.347272432823345 84.37885280629797,62.278893265973444 82.8541564620279,59.60485117366247 83.40501242477376,56.576360169550235" fill="hsl(241 50% 50%)" />
  <polygon points="57.470747802427496,9.207134530706034 55.85151289484199,6.589257840000772 56.293845692254386,3.5430238125474087 58.59077376277396,1.493799204911495 61.66753893469262,1.4004389856005313 64.08448858963361,3.3066274388133787 64.71070512264673,6.320437802366871 63.25317485831358,9.0316747123831 60.39389240596019,10.17172028662361" fill="hsl(245 50% 50%)" />
  <polygon points="92.03035730707732,0.35431487129258254 94.64849392250292,1.9731294736016993 95.61354895933208,4.896119181002679 94.4739624404404,7.755584623990534 91.76295956311071,9.213550142372748 88.74904870308644,8.587817466616439 86.84247224766106,6.171173869952042 86.93533850956517,3.0943937492607168 88.98419433276027,0.7971367176160489" fill="hsl(248 50% 50%)" />
  <polygon points="23.514919455841206,90.93443818541505 24.51077924882357,88.0217996348217 27.145860081180093,86.43071539423961 30.187178345789814,86.9056714627688 32.21166742615436,89.22443061739571 32.27204638188125,92.30201967953295 30.340063228548537,94.69840052341398 27.319714355201626,95.2922799193804 24.624254567118214,93.80577509782526" fill="hsl(252 50% 50%)" />
  <polygon points="38.27319058779499,35.840637088437695 39.900423777019896,33.227724498708305 42.82650455715643,32.27208266109498 45.68228721141319,33.420867012192964 47.13151929737457,36.1365485868076 46.496089015598685,39.148429794737886 44.073321256949434,41.047217945462194 40.99685598176315,40.94444896057695 38.70620548340249,38.88820959025999" fill="hsl(256 50% 50%)" />
  <polygon points="76.29500102708407,67.06992365002357 78.26518305859227,69.43499929710202 78.25418873384857,72.51316095278304 76.26716241958887,74.86410256841725 73.23385581159289,75.38779243424376 70.57358678318982,73.83919024187776 69.5311247783664,70.94290416792359 70.59424935485417,68.05413865501862 73.26551270800093,66.52457919170361" fill="hsl(259 50% 50%)" />
  <polygon points="30.873743545147132,95.0247553101775 32.31186824249258,92.30317536305736 35.16293354418639,91.14273290469978 38.0928943095047,92.08641185825165 39.73078933346832,94.69265435352268 39.31022933118914,97.74197056181664 37.02799900173736,99.80755153989807 33.95197928042829,99.92288899174719 31.521473981013663,98.03401524181078" fill="hsl(263 50% 50%)" />
  <polygon points="25.876910333157838,8.534550642967634 22.86984608417255,9.192399148442796 20.14344435776538,7.763436699697062 18.97341882230227,4.916290707647192 19.907237429211804,1.983172424476368 22.507956074083207,0.3365204928588774 25.558669599212998,0.7468216520962714 27.63191524128876,3.0220914297919226 27.757598322824524,6.097705810155159" fill="hsl(266 50% 50%)" />
  <polygon points="35.486923226913646,42.5312148314989 32.76732683839168,43.973087064819055 29.757177531108724,43.32950241495134 27.8649576200256,40.9016012922155 27.97605783121992,37.82542561505498 30.038493141132548,35.54035217069767 33.08722714684011,35.11559221952088 35.69572332416776,36.74989566336123 36.64343732153807,39.67855375758626" fill="hsl(270 50% 50%)" />
  <polygon points="17.00237693853307,80.98992509709457 14.486653267725892,82.7637160841677 11.419326260616915,82.5054428080796 9.235632313374904,80.33595420509961 8.957346092969297,77.2703781037422 10.714680814734717,74.74313163191579 13.685360031757188,73.93674150100387 16.479369922969976,75.22852661528817 17.789362208313534,78.01404636320268" fill="hsl(274 50% 50%)" />
  <polygon points="61.69789475761415,10.875811947189057 63.36049179929525,13.4663661602243 62.96893887386078,16.51954259801251 60.70644794674759,18.606726073036175 57.63166366753771,18.751300240871238 55.18331177289427,16.885617241624775 54.507003324721296,13.882650885401112 55.91919056225007,11.1475225045308 58.75909538232798,9.960029065989053" fill="hsl(277 50% 50%)" />
  <polygon points="68.38302571198052,51.52767297676331 70.3908946449997,53.860838723446946 70.429281450337,56.93878065058875 68.48022451515327,59.32129552296491 65.45570924077596,59.89357815308726 62.77093993782928,58.38785113810859 61.68215000104915,55.50866088262916 62.69879634240728,52.603212505823166 65.34517884001666,51.03099759366004" fill="hsl(281 50% 50%)" />
  <polygon points="61.98365278485936,56.307542957018 63.06696574211254,59.18879842821953 62.04479629594522,62.092308317474846 59.3954288903671,63.659488078683374 56.35853197888708,63.1570368843127 54.35510337773629,60.820057232331884 54.32256959502194,57.74204787453849 56.276153549248775,55.36324359770763 59.30175159656689,54.79671336043314" fill="hsl(284 50% 50%)" />
  <polygon points="24.88329330941706,15.885220935605542 23.37579476658197,13.201445945590269 23.94608119560162,10.176553642952474 26.327309238310058,8.225924754029633 29.405275829122154,8.262280214774055 31.739766192408666,10.268608901057487 32.23844634221744,13.306127322708301 30.667978294240434,15.953546851979153 27.763201501934272,16.972110468333522" fill="hsl(288 50% 50%)" />
  <polygon points="97.2242977758687,28.45729958361557 94.15209680621669,28.649083982748056 91.67537768977648,26.821226638221127 90.95302482679737,23.8290023159105 92.3230351499251,21.072506031094427 95.1443656029995,19.84153303048213 98.09688431143174,20.71206926180111 99.79907495795601,23.276781147484698 99.45446362132182,26.335611492623926" fill="hsl(292 50% 50%)" />
  <polygon points="9.55594306773768,2.5092445646593426 11.786464853731628,0.38793067560667893 14.858697957287136,0.19666172595957931 17.335110365182913,2.0249345829755137 18.05696118950631,5.017280057867249 16.686488407078116,7.77354644671737 13.864951463904873,9.00404607369414 10.91257885358752,8.133014487855073 9.210818532460213,5.568017048652045" fill="hsl(295 50% 50%)" />
  <polygon points="30.86857653568554,54.557853509099054 32.33776579861763,57.262790285322566 31.7245302246349,60.279268726234 29.315809554158115,62.19584504490729 26.238670958851728,62.11573188146206 23.932941786045713,60.07641507543296 23.47749834102138,57.032113624842744 25.085447673395677,54.40729001206446 28.00441242018442,53.430128377182115" fill="hsl(299 50% 50%)" />
  <polygon points="74.70229814134548,0.03639281543507078 77.78035017549163,0.06460148023918588 80.12014265165848,2.064744280679785 80.62686066635075,5.100932171319592 79.06340522895046,7.752499094658477 76.16133451448893,8.778747418382363 73.27855966318604,7.699484146341177 71.76396306644016,5.019708558198161 72.32624130473485,1.9933174340336741" fill="hsl(302 50% 50%)" />
  <polygon points="32.74125093754718,76.69622704813243 34.95993452280054,74.56253466116361 38.03105578354922,74.35417378321665 40.51760295017801,76.16863878475614 41.25609296852778,79.1569213260295 39.90097815161034,81.92077079491384 37.086331782684965,83.16695130815283 34.12915817908184,82.31236115384829 32.4131517352506,79.75687256291091" fill="hsl(306 50% 50%)" />
  <polygon points="89.64103232285518,83.30147528675784 92.71478301482122,83.46657143244171 94.96329089508232,85.5688112774844 95.33445413708277,88.62453343459704 93.6546013348706,91.20393154589769 90.70975428408524,92.10007656829195 87.87783964811848,90.89365228625903 86.4839417583646,88.14915802927449 87.18028092888888,85.15077316183753" fill="hsl(310 50% 50%)" />
  <polygon points="63.7937243854919,73.54103698612872 66.8672443901046,73.71037344093648 69.11284993543453,75.81571326824819 69.47979722969609,78.87194456461886 67.79638755573943,81.44902274024925 64.85030700902338,82.34110427572831 62.020059419394556,81.13077430622347 60.629949088738506,78.38435967578532 61.33042409012464,75.38693831299454" fill="hsl(313 50% 50%)" />
  <polygon points="46.77741616666717,84.9814239762257 49.5196696990871,83.58312300089463 52.51916832077619,84.2746489021931 54.37241329093217,86.73242902544924 54.21225069149546,89.80644073580804 52.113622382751515,92.05831979015797 49.058499874017265,92.43438695212072 46.476408941034045,90.75867621709297 45.57553862808891,87.81527126144458" fill="hsl(317 50% 50%)" />
  <polygon points="83.70459572523984,79.07842184125496 80.68519248900509,78.47975319275523 78.75701220791542,76.0803114124033 78.82227186482952,73.00282197605087 80.85043574099696,70.6872763934525 83.89250341822832,70.21714417712859 86.52505762153073,71.81240541603466 87.51629698159803,74.72661964713278 86.40240958545635,77.5961936438086" fill="hsl(320 50% 50%)" />
  <polygon points="34.14289673382341,10.156093476690756 31.12379532766259,9.555904545603937 29.19682348063402,7.155492173855977 29.263632735868935,4.078035987799648 31.292962300340758,1.7635119390064684 34.33526631734724,1.2949115529762834 36.967016925888124,2.8914981582458004 37.95678876757712,5.806211138125798 36.84145659759922,8.675223895903951" fill="hsl(324 50% 50%)" />
  <polygon points="22.793459824053627,78.80670317910712 19.716356608847118,78.8881639466405 17.30679681788861,76.9726426944803 16.692240256641746,73.95643310515966 18.16024477014931,71.25085316695736 21.023914731488286,70.12187380212987 23.94330713960162,71.097757002688 25.552405841300565,73.72187617335692 25.098295670920105,76.76637679034461" fill="hsl(328 50% 50%)" />
  <polygon points="0.25019043967858146,95.7825377657543 0.07844747612349057,92.70915129344876 1.9224194774235541,90.244406415758 4.919291450704432,89.54158465354159 7.666793693146014,90.92954412033443 8.87933937042375,93.7588431561729 7.98956488419526,96.70562129803194 5.413805605308767,98.39104830354464 2.357287926730969,98.02649414539694" fill="hsl(331 50% 50%)" />
  <polygon points="99.98750475975427,70.53542041738241 99.99908558480595,73.6135799223744 98.02935422103582,75.97903091706054 94.9999698646776,76.5249525919677 92.32841512392817,74.99590212816325 91.26474015300786,72.10733923116427 92.30665029224082,69.2108545832773 94.96662420793857,67.66174554208978 98.000030542629,68.1848574444026" fill="hsl(335 50% 50%)" />
  <polygon points="44.064509259926965,22.39336110352063 47.082945657698446,22.996885557283438 49.00726404609779,25.399425628489237 48.93705446477627,28.476806116562173 46.9051687571268,30.78908648985847 43.862348827652845,31.254325063578925 41.232363938531876,29.654831538528946 40.24581324840986,26.73902671146985 41.36431478948448,23.871248066543593" fill="hsl(338 50% 50%)" />
  <polygon points="29.421468647765657,35.96357742262735 27.501964323592798,38.36996542192487 24.48474231247051,38.979531980456876 21.78159432609037,37.50705413090857 20.657353349423143,34.64152062385204 21.638064229998115,31.72374643409656 24.26484144740689,30.118990532476765 27.30858674824698,30.57813604023578 29.3450978787943,32.88634367145926" fill="hsl(342 50% 50%)" />
  <polygon points="73.73976615832265,19.181702982721927 71.65952094440695,21.450574927910157 68.6075578836296,21.851475825055417 66.01192441091952,20.19681968886626 65.08714627541053,17.260838514920156 66.26593744447146,14.417310524302621 68.99672842929411,12.996754066117054 72.00175177871877,13.663863294874924 73.87492367043522,16.1064903883472" fill="hsl(346 50% 50%)" />
  <polygon points="7.931321133904083,91.40465503981866 8.48316230268187,88.37634340160781 10.852458362819863,86.41123876492915 13.930589355986873,86.42883542898996 16.277263580864656,88.42089971911105 16.794446087253966,91.45532261461626 15.240141432571944,94.1122639188447 12.34162603891637,95.14851126693449 9.455147472389067,94.07919300810794" fill="hsl(349 50% 50%)" />
  <polygon points="7.6471296719707835,65.07412906355667 8.774005347285861,67.93862749540553 7.795978096487956,70.85730232319605 5.170677739787543,72.46447315754754 2.1265114910482024,72.00812690335272 0.08787857019438494,69.70179304467301 0.008677977774768308,66.62463082603036 1.9259685511990274,64.21647864837632 4.942628722850751,63.604137679265506" fill="hsl(353 50% 50%)" />
  <polygon points="33.827272899827314,66.76540482676616 35.97380064340495,64.55913677874189 39.03629805829064,64.24879883794205 41.581788568191826,65.9796015758889 42.41920887354994,68.94168315576738 41.156720706597916,71.74905268648247 38.38505631164568,73.08811076417567 35.40110826270992,72.33229723232148 33.60109901477626,69.83526564240623" fill="hsl(356 50% 50%)" />
</svg>
