<svg xmlns="http://www.w3.org/2000/svg" viewBox="0 0 100 100">
  <polygon points="19.628271750156927,23.64958474778667 24.901467573958264,24.07174293100565 26.129478407122143,29.217304233861427 21.61523501676916,31.975277827003502 17.597268334877576,28.534237944784206" fill="hsl(0 50% 50%)" />
  <polygon points="39.34225413975119,18.803139318885968 36.99474251668925,23.543814472005376 31.760671534657654,22.77614743293866 30.873349391294532,17.561027957633026 35.55902512975731,15.105573905569347" fill="hsl(4 50% 50%)" />
  <polygon points="87.75764763258059,13.654344541394408 82.52074154315098,14.40242631386971 80.19098051913731,9.65300263316892 83.98801511006171,5.9696155990469 88.66447256772571,8.442580898939612" fill="hsl(7 50% 50%)" />
  <polygon points="41.43169964472709,14.088510261246883 40.465925413437276,8.88734771216315 45.114084297855726,6.361594218051639 48.952578704825925,10.00175526057065 46.67673982954144,14.777252003482165" fill="hsl(11 50% 50%)" />
  <polygon points="62.042033206008924,95.40681901651365 58.77402094064531,99.56673578986954 53.807833658276564,97.74415640771535 54.00657338863881,92.4578236289934 59.09558857928642,91.01326967805474" fill="hsl(14 50% 50%)" />
  <polygon points="87.1999285259841,27.940860946443085 92.35942149658872,26.772766766123645 95.06471608870288,31.318775223847027 91.5771871256061,35.296457144184004 86.71648109754845,33.20879130966483" fill="hsl(18 50% 50%)" />
  <polygon points="16.032186296512933,88.49686756966108 18.51836464022886,83.82742124583932 23.727543353245178,84.7489790919197 24.460814507645765,89.98797948721828 19.704822291018885,92.30430195250655" fill="hsl(22 50% 50%)" />
  <polygon points="82.96226610853466,79.13135481797856 86.67117983856136,75.35925054171126 91.40478156389902,77.72099278710871 90.62139458933613,82.95273404369813 85.40363308737466,83.82438571521803" fill="hsl(25 50% 50%)" />
  <polygon points="82.3933097974566,48.842427974678664 78.78404127095995,44.97487158446852 81.34698066605817,40.34711258200652 86.54023284983163,41.35455661695183 87.18689981645501,46.60495027477338" fill="hsl(29 50% 50%)" />
  <polygon points="3.947103433851985,37.913395137623084 0.5087856911374598,33.893098776911714 3.269816127870005,29.380724384726253 8.414544524458211,30.61222000110236 8.833131099703927,35.88570054120476" fill="hsl(32 50% 50%)" />
  <polygon points="17.680368857286016,21.853062412415156 13.186161312142227,24.643565999402146 9.143448184295705,21.23163365925353 11.139121609664937,16.33243991873973 16.41522874483458,16.716504009780074" fill="hsl(36 50% 50%)" />
  <polygon points="46.292530226611944,78.61495204663059 41.12195946609908,77.49691370276933 40.58748288287949,72.23391583940243 45.427728948771744,70.09924262098487 48.95364211462571,74.04293988049558" fill="hsl(40 50% 50%)" />
  <polygon points="14.220667060206583,95.11481930005412 18.00151097652466,91.41481510975173 22.688769095252535,93.86724717939897 21.804810010352178,99.0829377438436 16.571235132491626,99.85397971782527" fill="hsl(43 50% 50%)" />
  <polygon points="60.75734637225996,43.25641740961558 66.04739778025068,43.26937227858752 67.6697927538834,48.30451341636567 63.38243658277471,51.40344690869345 59.11030977352019,48.28355199804927" fill="hsl(47 50% 50%)" />
  <polygon points="19.331914099822793,51.122768795648796 23.957941351622114,53.68883262833587 22.94699065956339,58.88140332366979 17.696161519121546,59.52452466968576 15.461921333268815,54.729424825080294" fill="hsl(50 50% 50%)" />
  <polygon points="22.467272434285288,72.18051613567039 19.802352935952992,67.61072228963937 23.324979737720447,63.66408927613479 28.167002329226367,65.79472977869756 27.63691006330442,71.05817104059308" fill="hsl(54 50% 50%)" />
  <polygon points="5.214087508760592,74.18131206090418 8.208467183578314,78.54233282339239 4.9862041768450585,82.73778665382038 0.0003564431747538066,80.96969895676763 0.14119608776813175,75.68150683447048" fill="hsl(58 50% 50%)" />
  <polygon points="9.756212707216987,63.52320824101822 7.318812208470753,58.82811606550918 11.03091204038446,55.05914716596638 15.762516404886135,57.42488845901668 14.974708891551822,62.65596588625368" fill="hsl(61 50% 50%)" />
  <polygon points="54.06004705353964,19.788822666976728 52.245144691894794,24.757820669140802 46.95851108959956,24.56725077934286 45.50609419895867,19.48047410805134 49.895084797003385,16.527243121811065" fill="hsl(65 50% 50%)" />
  <polygon points="79.53965165254425,21.678180015206596 83.60388906060845,18.291915699075005 88.08033623262939,21.110821948654873 86.78269532571747,26.239266138126318 81.50426196803272,26.589912707046707" fill="hsl(68 50% 50%)" />
  <polygon points="5.589593954365397,50.01142595512833 8.335814178651164,54.532829078887424 4.8843329946033,58.54183012203747 0.00498008704522146,56.49812590387889 0.4408553311165697,51.226046190955316" fill="hsl(72 50% 50%)" />
  <polygon points="87.79267892724542,46.293341282786194 87.74399468841243,41.00349803627086 92.75989032103315,39.322545112935096 95.9085685448479,43.57350231934043 92.83866307418134,47.88169128095599" fill="hsl(76 50% 50%)" />
  <polygon points="34.33229273377294,50.99284488016868 31.52058395866993,46.511873390433074 34.91337529857579,42.453083096309165 39.82194443847691,44.425584231068015 39.46281566315879,49.703447269320634" fill="hsl(79 50% 50%)" />
  <polygon points="45.904667172101554,53.11313836420091 40.682858844029795,52.266067226282104 39.87484385477022,47.038073011963725 44.597271456060184,44.65406603244596 48.32390721232759,48.408662904005396" fill="hsl(83 50% 50%)" />
  <polygon points="79.09909113817442,91.39534115977203 84.30651039817917,92.32678969745197 85.02983124500196,97.56717314528919 80.26944885310503,99.87445969245499 76.60404988864342,96.06005775255164" fill="hsl(86 50% 50%)" />
  <polygon points="53.48200496576838,6.3077693213955595 57.37902669065722,9.885203234629882 55.18093079629947,14.69697901567187 49.925411098165945,14.093386081365066 48.87541719053259,8.908569351552194" fill="hsl(90 50% 50%)" />
  <polygon points="75.71246843027956,12.755041612620172 80.88253770399027,11.634686564946886 83.54569794031647,16.20550588794201 80.02155221014254,20.150782633661066 75.18035013126105,18.018278434544897" fill="hsl(94 50% 50%)" />
  <polygon points="53.59560811599994,6.040471565249466 48.91691268858175,8.50920015002155 45.12321588249357,4.822375463208933 47.45727774073735,0.07506391142446267 52.69350410706491,0.8278887040492746" fill="hsl(97 50% 50%)" />
  <polygon points="57.687834343650806,61.321451950815266 56.5760202483202,66.49336466713588 51.31366950771095,67.03417554962986 49.17317198462186,62.196502340176366 53.11262250312709,58.66584498777533" fill="hsl(101 50% 50%)" />
  <polygon points="82.4187790118245,40.41770445163372 81.47124976213796,35.213187178264064 86.12823718832637,32.703749025980244 89.95394295257825,36.357348228572754 87.66137171965387,41.12483486932827" fill="hsl(104 50% 50%)" />
  <polygon points="71.68794294543429,24.960544407892353 69.20696887722602,29.632757951887612 63.996766591006946,28.717004784002174 63.25765855806942,23.47882465694833 68.01106695857503,21.157204467120245" fill="hsl(108 50% 50%)" />
  <polygon points="68.56980389208408,46.139987492175244 73.85776369812498,46.28929528671573 75.34983299283188,51.36458256406344 70.98402272448993,54.35197480959375 66.79373429551441,51.12299747771164" fill="hsl(112 50% 50%)" />
  <polygon points="54.98235885394595,27.87479362348483 57.71991216237037,23.348137726318676 62.870968245706635,24.552892039089166 63.316942674740936,29.824127049640502 58.441513946661196,31.877175136079153" fill="hsl(115 50% 50%)" />
  <polygon points="19.6649697403223,41.98639640486043 19.807576549703015,47.27454116703675 14.822319942135369,49.04429490259369 11.59865510663785,44.84991810070865 14.591577277530192,40.48789693996267" fill="hsl(119 50% 50%)" />
  <polygon points="5.35231678822935,37.330458627072886 10.436416930667237,35.868700278549554 13.397705078396596,40.25225867714906 10.14378166173767,44.42320510767695 5.17145824572391,42.617433368398736" fill="hsl(122 50% 50%)" />
  <polygon points="8.547595785812202,44.802937907565074 7.188110045521684,49.91533560822974 1.9058267010520171,50.20220560762489 0.0006817962528113952,45.26710331693909 4.10552083606288,41.93017236394265" fill="hsl(126 50% 50%)" />
  <polygon points="50.05075391276257,43.86324445136448 54.87678468038342,41.696625251368424 58.428687511441076,45.6169311076173 55.79785341815084,50.20643257307042 50.620005698677794,49.12259461388902" fill="hsl(130 50% 50%)" />
  <polygon points="84.00616214254728,59.129751680884134 83.5550396130919,64.40054860271981 78.40280932636453,65.60027140418009 75.66967842075577,61.07094395072513 79.13274091211416,57.071942836851655" fill="hsl(133 50% 50%)" />
  <polygon points="91.45601497826162,61.35890571317929 96.26787386034023,59.16099174152892 99.8451604344308,63.058148717408386 97.24418624263883,67.66463815964602 92.05940921415954,66.61444822788695" fill="hsl(137 50% 50%)" />
  <polygon points="90.91683612783069,21.2999974799556 86.05840969387097,19.20703204459453 86.54760177553761,13.939632037470599 91.70836554299461,12.777165236087622 94.40870087752538,17.326121249163513" fill="hsl(140 50% 50%)" />
  <polygon points="12.270580854983521,46.6571823712152 15.864856376285516,50.538676311025476 13.284028490416992,55.15648305788464 8.094713616534715,54.12895064111191 7.468368532018622,48.87609393614487" fill="hsl(144 50% 50%)" />
  <polygon points="82.0551122322835,48.91327153917522 83.06659330759989,54.105738945148175 78.44082818726054,56.67227528412069 74.57046704360067,53.06601456899447 76.80421742842134,48.270686535780456" fill="hsl(148 50% 50%)" />
  <polygon points="8.912072944698735,21.733679060411188 12.651370104099646,25.475666297363084 10.248035127776095,30.18828687612757 5.023395266655806,29.358859332934326 4.197725229829486,24.133624341271094" fill="hsl(151 50% 50%)" />
  <polygon points="25.524636773766822,22.163320365186827 20.462662449500073,23.69994903480054 17.437005648849933,19.360569741342292 20.62902123202263,15.142057178293882 25.627452155692815,16.874252325819775" fill="hsl(155 50% 50%)" />
  <polygon points="30.52872417046877,77.90126786413246 31.60766790387932,83.08013763928116 27.015682006778345,85.7066328798328 23.098734913099218,82.15102643463484 25.26991437417137,77.32704556033268" fill="hsl(158 50% 50%)" />
  <polygon points="70.26638733549495,95.45344871793532 69.78143961270658,90.18565625486534 74.64155087347476,88.09660616911607 78.13021254452396,92.07329467499214 75.4262127717132,96.62007342004384" fill="hsl(162 50% 50%)" />
  <polygon points="99.96666320577317,52.37946721908005 94.9271752805424,53.988309405022406 91.83978802406773,49.69263115166446 94.97116568836387,45.4289138004131 99.99385077298581,47.08946981227504" fill="hsl(166 50% 50%)" />
  <polygon points="47.903144209303846,61.025587409211184 50.60502675879437,65.57362461404728 47.11451396337989,69.54868840634828 42.25537586815682,67.45737573260327 42.74277616469401,62.18980962682443" fill="hsl(169 50% 50%)" />
  <polygon points="75.22132929782559,46.39334285969115 69.97316292616284,45.728841946852945 68.98336825125081,40.53219704563731 73.61980787193427,37.984994782060426 77.47507981921535,41.60738210816487" fill="hsl(173 50% 50%)" />
  <polygon points="5.714304847226469,66.66079489586662 0.9717826380829875,64.31701700033226 1.7353279195535243,59.08234314889139 6.949747064595403,58.190914684214974 9.408890046348915,62.87465544594668" fill="hsl(176 50% 50%)" />
  <polygon points="99.52837793452655,16.029119428762243 94.3719142984892,17.210514577744654 91.65490584931803,12.671497413760026 95.13216591604693,8.68483538191596 99.99823927417931,10.759959908562237" fill="hsl(180 50% 50%)" />
  <polygon points="20.515158040839154,59.27061187282113 23.136099337917166,63.86577002516862 19.57575963577651,67.7784152854977 14.75440739127989,65.60140488995475 15.334987534586048,60.34329321131828" fill="hsl(184 50% 50%)" />
  <polygon points="41.37783775729419,92.34526817477371 37.19080815966614,89.11206622061103 38.97190264505282,84.13085008778364 44.25970917182484,84.28549116654969 45.74665884591679,89.36228074211144" fill="hsl(187 50% 50%)" />
  <polygon points="91.92050543902953,67.26554277765807 87.34660177131147,69.92340224840703 83.4054132383001,66.39468510543931 85.54352843654578,61.55595850365187 90.80614483393572,62.09417814444667" fill="hsl(191 50% 50%)" />
  <polygon points="77.49801864844397,58.894579464622105 73.91410760179849,62.785645300295805 69.105994663706,60.57954881501636 69.71832849286223,55.32504036897828 74.90488454983462,54.2836720404328" fill="hsl(194 50% 50%)" />
  <polygon points="31.17512295039788,78.20904087026783 26.63841385882089,75.48818028100249 27.82418584433974,70.33272137551471 33.09374232587483,69.86733313358526 35.16473535158197,74.73516628759609" fill="hsl(198 50% 50%)" />
  <polygon points="69.88921602410993,81.47530023988328 74.64424102016463,79.15699288003867 78.31846587397843,82.96289401530632 75.83423671989027,87.63337763456815 70.6246738130066,86.71399411990393" fill="hsl(202 50% 50%)" />
  <polygon points="9.875136977048328,86.33812191139741 6.885946259166643,90.7027009953349 1.811274149249071,89.20854079487465 1.664145021440559,83.92051992241538 6.647886329637341,82.14650349047692" fill="hsl(205 50% 50%)" />
  <polygon points="53.034214378945585,58.5119751093483 48.02010487673113,60.19824840499683 44.86691862280892,55.95063399501438 47.93225184724048,51.639190622892855 52.97991822070571,53.22218648833375" fill="hsl(209 50% 50%)" />
  <polygon points="37.06782354580596,7.259195435250639 32.50513169211524,9.936256281790959 28.549146206607915,6.424135759048367 30.666904571253827,1.5764650568670429 35.93173670607171,2.0925603193945355" fill="hsl(212 50% 50%)" />
  <polygon points="47.77162027294929,42.69310450802074 45.86602189891276,37.75817729835655 49.97055429707559,34.42086917349808 54.412893201101866,37.293226531068555 53.05387723517323,42.40574913074141" fill="hsl(216 50% 50%)" />
  <polygon points="95.10451367045823,59.69132763309997 90.22662756414135,61.73853032497377 86.77227240038043,57.73200538053466 89.51524960627935,53.208634096223186 94.66485791365203,54.41956184322255" fill="hsl(220 50% 50%)" />
  <polygon points="69.3842775201555,94.06942253639372 64.36395079683713,95.73709496194677 61.226533794649086,91.47781963835051 64.30783017373345,87.17777029537126 69.34959306760761,88.77946897170469" fill="hsl(223 50% 50%)" />
  <polygon points="99.67550946039339,33.57057216699743 99.94911894370163,38.85355897168078 95.00924989777063,40.746309757407005 91.68263344410349,36.63310727053553 94.56654045413356,32.198257545312146" fill="hsl(227 50% 50%)" />
  <polygon points="40.8360252540323,65.19466342128867 35.55513152111341,64.8832583644373 34.21940942067907,59.76460051318117 38.674781496005146,56.91250104117476 42.76407497151815,60.26846447943528" fill="hsl(230 50% 50%)" />
  <polygon points="66.21585295656931,1.4607725691221862 71.31176050421288,2.880821157616164 71.5359360746554,8.16613638392305 66.57857664899267,10.01259224654407 63.29058445904094,5.868449502063482" fill="hsl(234 50% 50%)" />
  <polygon points="64.97206371516552,37.43481638097899 62.46479064231079,42.092969820481834 57.259833470718114,41.14786000162446 56.550266101541055,35.905596570966495 61.31668652167446,33.61080941169662" fill="hsl(238 50% 50%)" />
  <polygon points="87.50381230616215,46.59108474746178 91.02678037201304,50.537413134052215 88.36225604749382,55.10743740662015 83.1925213852392,53.98553934988871 82.6619739756666,48.72214394634829" fill="hsl(241 50% 50%)" />
  <polygon points="61.131981199875426,0.8816227213753778 61.98758662967462,6.102039474500819 57.28707187712571,8.5289660883243 53.526388565630995,4.80847247074346 55.90267321075166,0.08215434632796725" fill="hsl(245 50% 50%)" />
  <polygon points="88.4911921657099,8.233656849543824 84.10084999949503,5.282435510611382 85.55093794443471,0.1949944367752212 90.8374837472988,0.002004276314653719 92.65466079161223,4.970170871491886" fill="hsl(248 50% 50%)" />
  <polygon points="30.822346326984174,85.86451325478738 33.237056465950936,90.57131542532586 29.50680806017836,94.32232309781146 24.78667761996404,91.93377116093072 25.59972498235116,86.70655720755842" fill="hsl(252 50% 50%)" />
  <polygon points="39.60278445652652,26.586989444074668 44.737629132796776,25.314911664065257 47.534201263152234,29.805345501405892 44.12773321543236,33.85266401712444 39.22584804999551,31.863610585794635" fill="hsl(256 50% 50%)" />
  <polygon points="75.92801582716679,64.97067473760616 80.82215788952166,66.9787049169868 80.42478077265729,72.25382606771 75.28504614572878,73.50600005424975 72.5058925699966,69.00476498703657" fill="hsl(259 50% 50%)" />
  <polygon points="30.168389881757292,94.07071615882488 34.706015211852154,91.35138387102036 38.694457245245985,94.82660211942893 36.62182465394725,99.69373740307381 31.352425232940035,99.22657418780165" fill="hsl(263 50% 50%)" />
  <polygon points="19.59047009367293,12.38785613208917 16.63139693412169,8.00280222543784 19.887427132447854,3.8335002364470316 24.85883762296072,5.6417838045395 24.6753080797993,10.92866649990939" fill="hsl(266 50% 50%)" />
  <polygon points="26.796609957535075,38.77996637820113 31.68276293793976,36.75257377194623 35.120832195267944,40.77308263397221 32.35952287156819,45.28528636902933 27.214870598741566,44.05347277943287" fill="hsl(270 50% 50%)" />
  <polygon points="8.452431371409649,70.73534313995279 13.697436134826887,71.42435457639277 14.662942925872237,76.6255667778185 10.014654175689866,79.1510812645603 6.1763469475080415,75.51072285502123" fill="hsl(274 50% 50%)" />
  <polygon points="57.52470926794068,13.686153578131382 61.97268795775273,16.549769701635448 60.623728189095864,21.664954866452046 55.342046512797666,21.962697033553873 53.426747487744734,17.031526647890253" fill="hsl(277 50% 50%)" />
  <polygon points="64.67679830643462,60.189491338485894 60.83857812991515,56.54904114594466 63.1147767450821,51.7737158594195 68.35976503092019,52.46285271755134 69.32514744699623,57.664088005302304" fill="hsl(281 50% 50%)" />
  <polygon points="57.52730837861931,65.20757240418438 57.886844596525926,59.9297371058989 63.01746705031933,58.64073556810093 65.82882989230043,63.12192410447636 62.435725229559836,67.18045246775075" fill="hsl(284 50% 50%)" />
  <polygon points="32.80282696394617,12.11608628690109 29.47278542436663,16.226516321883974 24.534494727116254,14.329651351132231 24.81250476946764,9.046894292155695 29.922615122104972,7.6788358461515065" fill="hsl(288 50% 50%)" />
  <polygon points="94.98534680249358,21.593982391520523 99.98261951725657,23.329516067972797 99.87627109940495,28.618514247385896 94.81327144775987,30.151761212247234 91.79051399586596,25.810361770266056" fill="hsl(292 50% 50%)" />
  <polygon points="9.469450830316497,8.520474800939596 6.791377235302211,3.9583773066392074 10.302619532184163,0.00161230724869732 15.150760209407744,2.1182945464297935 14.6358336332909,7.383241113017455" fill="hsl(295 50% 50%)" />
  <polygon points="22.432190409785512,62.62977506146332 23.507863778814116,57.450225029754264 28.766309939374175,56.87268221376068 30.940535025583074,61.69529115522738 27.025833867492786,65.25337021149653" fill="hsl(299 50% 50%)" />
  <polygon points="79.33443722285767,0.8667369608508864 82.71464371556527,4.936014021272306 79.88907250138429,9.408257199075408 74.76256696067952,8.102978428491145 74.4197835071903,2.824028605673292" fill="hsl(302 50% 50%)" />
  <polygon points="35.706254125785705,82.29139530246039 32.711444676046995,77.93066966472871 35.933294194703095,73.73489829262678 40.91931615360877,75.50249461337569 40.778997674209705,80.79070059008968" fill="hsl(306 50% 50%)" />
  <polygon points="92.86686904107083,90.87824908243212 87.88357081103132,89.10298840346135 88.03202020676822,83.8150044298926 93.10706520898252,82.32211128123315 96.09516611904934,86.68743654735852" fill="hsl(310 50% 50%)" />
  <polygon points="67.46294983825102,75.74051114690981 69.13349921590029,80.75988127718017 64.87602269344552,83.89973881989785 60.57420811861451,80.82090737085974 62.17301702052402,75.77822734700443" fill="hsl(313 50% 50%)" />
  <polygon points="45.735764416821326,91.12196667772669 45.84571612681229,85.83304217937311 50.90975918211233,84.30324491768056 53.92955820078966,88.64670271241162 50.73185357822578,92.86090451994865" fill="hsl(317 50% 50%)" />
  <polygon points="81.78491262787412,80.48131851477274 76.79541163136054,78.7235666740385 76.9252923721472,73.43509404756237 81.99506408095095,71.92439005656092 84.99847457140766,76.27919626965806" fill="hsl(320 50% 50%)" />
  <polygon points="40.695548393724536,8.65651391521872 36.705829547769795,5.182761584086264 38.776673412110775,0.3148649728859061 44.046244151622425,0.7800917445761084 45.23217411042156,5.935514313157398" fill="hsl(324 50% 50%)" />
  <polygon points="13.542040699564765,70.26353272675036 18.204427060625516,67.76413977084901 22.022247638027448,71.42597780202694 19.71940415674984,76.18851112249324 14.478348037147214,75.47008055591739" fill="hsl(328 50% 50%)" />
  <polygon points="2.9768706541245202,89.59183267187804 8.065450518702255,91.0379193531073 8.262598012780217,96.32431175184138 3.2958620003395276,98.14539525089886 0.02910283742510522,93.98449435093389" fill="hsl(331 50% 50%)" />
  <polygon points="90.7726799106961,71.64507037367659 93.2484182489823,66.97008038351035 98.45964316290055,67.87999610728505 99.20461894443605,73.11734494164202 94.45381438430228,75.44428880843955" fill="hsl(335 50% 50%)" />
  <polygon points="48.68340657482021,33.94922707325487 47.92707675289211,28.713505830839757 52.6728247896676,26.376266583510503 56.362188200366035,30.167494531235914 53.89659214825242,34.847841509357984" fill="hsl(338 50% 50%)" />
  <polygon points="28.62059891859221,31.531967662549484 29.852359254254267,36.67663268597952 25.34012693628194,39.437895302331086 21.319653662977267,35.99978442767079 23.347096847186755,31.11365243368852" fill="hsl(342 50% 50%)" />
  <polygon points="74.00373534551605,11.389942737323842 75.33113522159427,16.510765063552526 70.87113289948414,19.355618489405412 66.7872999984384,15.99301227336539 68.72335478332718,11.069953915218099" fill="hsl(346 50% 50%)" />
  <polygon points="9.622936293836311,94.03782013191757 8.06394743611796,88.98268754519695 12.38991017237842,85.93787915511712 16.622491035171233,89.11121666753755 14.912407132249086,94.11725549806825" fill="hsl(349 50% 50%)" />
  <polygon points="0.0010190246344183862,69.00715706599671 4.363067612942259,66.01427486967555 8.557414872333625,69.23797814315634 6.787615450949621,74.22321853213293 1.4994719958730394,74.08056326112842" fill="hsl(353 50% 50%)" />
  <polygon points="40.97228678552087,67.25082068853443 40.25295369824691,72.49175301373837 35.046244710315946,73.4271637485568 32.547654673519,68.76434705091215 36.2101500947576,64.94715711363881" fill="hsl(356 50% 50%)" />
</svg>
