<svg xmlns="http://www.w3.org/2000/svg" viewBox="0 0 100 100">
  <polygon points="28.19345734465425,29.30004950365087 25.36068384145978,31.259021081174186 21.97240840116696,30.64114981411825 20.013436823643644,27.808376310923784 20.631308090699576,24.420100870630964 23.46408159389404,22.461129293107653 26.852357034186866,23.079000560163582 28.81132861171018,25.911774063358052" fill="hsl(0 50% 50%)" />
  <polygon points="29.36665449714717,24.329908359267122 28.142825795537085,21.11052663740496 29.553894868374627,17.968702416728977 32.7732765902368,16.744873715118892 35.915100810912776,18.155942787956434 37.13892951252286,21.375324509818597 35.727860439685315,24.51714873049458 32.508478717823145,25.740977432104664" fill="hsl(4 50% 50%)" />
  <polygon points="92.62453613056273,11.198757577482894 92.00367004996717,14.586485528766872 89.16916602700124,16.542952320137154 85.78143807571726,15.922086239541597 83.82497128434697,13.087582216575656 84.44583736494253,9.699854265291679 87.28034138790846,7.743387473921397 90.66806933919244,8.364253554516951" fill="hsl(7 50% 50%)" />
  <polygon points="44.380059774605,15.336174072131453 41.089368072197395,14.319550502834272 39.481359074394774,11.27381866550344 40.497982643691955,7.98312696309583 43.54371448102279,6.375117965293214 46.834406183430396,7.391741534590395 48.44241518123302,10.437473371921227 47.425791611935836,13.728165074328835" fill="hsl(11 50% 50%)" />
  <polygon points="56.02309306092177,99.46715263650475 52.99048710168904,97.83452394082069 52.00055368512679,94.53570488050256 53.633182380810844,91.50309892126984 56.932001441128975,90.51316550470759 59.9646074003617,92.14579420039165 60.95454081692395,95.44461326070977 59.321912121239905,98.4772192199425" fill="hsl(14 50% 50%)" />
  <polygon points="84.54147419622814,37.659723412105166 82.6769520915466,34.76391045490322 83.40618484673942,31.39784525192531 86.30199780394136,29.53332314724376 89.66806300691927,30.262555902436585 91.53258511160082,33.158368859638536 90.803352356408,36.52443406261644 87.90753939920606,38.388956167298" fill="hsl(18 50% 50%)" />
  <polygon points="15.945579668049774,86.46821553726589 17.429215616111694,83.36000065802037 20.676144474297846,82.21124987920766 23.784359353543366,83.69488582726959 24.933110132356077,86.94181468545572 23.449474184294157,90.05002956470125 20.20254532610801,91.19878034351396 17.094330446862486,89.71514439545203" fill="hsl(22 50% 50%)" />
  <polygon points="82.59112590409795,76.7746954670767 85.68699052642377,75.26545804301904 88.94328941147758,76.38737289412946 90.45252683553524,79.48323751645529 89.3306119844248,82.7395364015091 86.23474736209899,84.24877382556676 82.97844847704518,83.12685897445633 81.46921105298752,80.0309943521305" fill="hsl(25 50% 50%)" />
  <polygon points="86.96063956288265,41.08419021717016 88.47975012296253,44.1752221594507 87.36823385411631,47.43508518510607 84.27720191183577,48.954195745185956 81.0173388861804,47.84267947633974 79.49822832610052,44.7516475340592 80.60974459494672,41.49178450840384 83.70077653722727,39.972673948323944" fill="hsl(29 50% 50%)" />
  <polygon points="3.650777859904504,38.31659829890543 0.7514389049776602,36.45756387577375 0.01583251604620539,33.09288579273103 1.8748669391778878,30.193546837804185 5.23954502222061,29.457940448872733 8.138883977147453,31.316974872004415 8.87449036607891,34.681652955047134 7.015455942947226,37.58099190997398" fill="hsl(32 50% 50%)" />
  <polygon points="21.96424024714947,17.95175660926288 22.3265675008501,21.37679592628839 20.160903032051234,24.054868511288085 16.735863715025722,24.41719576498872 14.057791130026027,22.251531296189853 13.695463876325395,18.826491979164345 15.861128345124259,16.148419394164648 19.28616766214977,15.786092140464014" fill="hsl(36 50% 50%)" />
  <polygon points="43.844587750909795,79.55989050718406 41.36628383788219,77.16819966666623 41.30503914697113,73.72459335209135 43.696729987488965,71.24628943906374 47.14033630206386,71.18504474815268 49.61864021509146,73.57673558867052 49.67988490600252,77.0203419032454 47.28819406548469,79.498645816273" fill="hsl(40 50% 50%)" />
  <polygon points="23.955734786908586,94.05454893360181 23.93234352172216,97.49862039201521 21.480477116353146,99.9174065529165 18.036405657939746,99.89401528773008 15.617619497038444,97.44214888236107 15.641010762224873,93.99807742394766 18.092877167593883,91.57929126304637 21.536948626007284,91.60268252823279" fill="hsl(43 50% 50%)" />
  <polygon points="64.48755229385694,42.06635228438394 67.08487493907059,44.32822992002322 67.32207038005582,47.76420338975791 65.06019274441654,50.361526034971575 61.624219274681856,50.59872147595681 59.0268966294682,48.33684384031753 58.78970118848296,44.90087037058284 61.051578824122245,42.30354772536917" fill="hsl(47 50% 50%)" />
  <polygon points="20.24675640685193,50.17145112437426 23.690219757322858,50.10263603948476 26.173775656381498,52.4888727121968 26.242590741271,55.93233606266773 23.856354068558957,58.41589196172637 20.412890718088033,58.48470704661588 17.92933481902939,56.09847037390383 17.860519734139885,52.655007023432894" fill="hsl(50 50% 50%)" />
  <polygon points="24.969257070404375,64.21299369815235 26.838735155166063,67.10560965132356 26.115267430324934,70.47291863819393 23.22265147715373,72.34239672295563 19.85534249028334,71.6189289981145 17.985864405521653,68.72631304494328 18.709332130362775,65.35900405807291 21.601948083533987,63.48952597331122" fill="hsl(54 50% 50%)" />
  <polygon points="8.519062445073079,80.02259385978526 6.04962646851822,82.42343981895077 2.605817085479999,82.37493935253306 0.20497112631448733,79.9055033759782 0.25347159273219777,76.46169399293997 2.722907569287057,74.06084803377446 6.166716952325277,74.10934850019217 8.56756291149079,76.57878447674703" fill="hsl(58 50% 50%)" />
  <polygon points="2.7367620528907546,48.36661188734568 6.180367030098151,48.305292046369914 8.658723136584488,50.69692880210576 8.720042977560254,54.14053377931315 6.328406221824405,56.6188898857995 2.8848012446170084,56.68020972677526 0.40644513813067196,54.288572971039414 0.3451252971549037,50.84496799383202" fill="hsl(61 50% 50%)" />
  <polygon points="56.30791919540271,26.86369746635395 52.883929431161185,27.235812309264197 50.19967812135068,25.077810857057695 49.82756327844043,21.65382109281618 51.985564730646935,18.969569783005664 55.409554494888454,18.597454940095414 58.09380580469897,20.75545639230192 58.46592064760922,24.179446156543438" fill="hsl(65 50% 50%)" />
  <polygon points="88.23150865896622,27.590692051507492 84.9342820010735,28.585916512835915 81.89906070676045,26.958155149338978 80.90383624543202,23.660928491446256 82.53159760892896,20.625707197133206 85.82882426682167,19.630482735804783 88.86404556113473,21.25824409930172 89.85927002246316,24.555470757194442" fill="hsl(68 50% 50%)" />
  <polygon points="8.722519329083584,58.96006457745382 8.94073706569112,62.397295495122094 6.664551016634194,64.98208802683976 3.227320098965916,65.2003057634473 0.642527567248246,62.92411971439037 0.42430983064070915,59.4868887967221 2.7004958796976335,56.90209626500443 6.137726797365914,56.68387852839689" fill="hsl(72 50% 50%)" />
  <polygon points="92.25224290171887,46.09826621685719 89.01468264805527,44.923370916908084 87.55615827196792,41.80329367326429 88.73105357191703,38.56573341960069 91.85113081556081,37.10720904351334 95.08869106922441,38.28210434346245 96.54721544531176,41.40218158710624 95.37232014536265,44.639741840769844" fill="hsl(76 50% 50%)" />
  <polygon points="30.669179635432414,50.674596302719586 29.917562694469726,47.313458498939035 31.762772592216002,44.40530172957395 35.12391039599655,43.65368478861126 38.03206716536164,45.49889468635754 38.78368410632433,48.86003249013809 36.93847420857805,51.768189259503174 33.57733640479751,52.519806200465865" fill="hsl(79 50% 50%)" />
  <polygon points="37.68445884020581,51.20054880160512 40.24737183217867,48.8997549478404 43.68653192450315,49.08510116794615 45.98732577826787,51.64801415991902 45.80197955816212,55.0871742522435 43.23906656618925,57.38796810600822 39.79990647386477,57.202621885902474 37.49911262010005,54.63970889392961" fill="hsl(83 50% 50%)" />
  <polygon points="79.73301339850246,90.60723670742131 82.11834959473008,88.1228159312823 85.56178777262099,88.05275255291593 88.04620854876,90.43808874914355 88.11627192712638,93.88152692703446 85.73093573089876,96.36594770317348 82.28749755300785,96.43601108153985 79.80307677686883,94.05067488531223" fill="hsl(86 50% 50%)" />
  <polygon points="47.78934058757319,12.58500486616879 50.172108859009754,10.09812112811829 53.61547281693676,10.02450037564917 56.10235655498726,12.407268647085736 56.17597730745638,15.850632605012734 53.79320903601982,18.337516343063236 50.34984507809281,18.411137095532354 47.86296134004231,16.02836882409579" fill="hsl(90 50% 50%)" />
  <polygon points="76.75078150050165,17.922369543032037 78.98527627005623,20.54328703253414 78.7120341443768,23.97658196636942 76.0911166548747,26.21107673592401 72.65782172103941,25.93783461024458 70.42332695148482,23.316917120742477 70.69656907716426,19.883622186907196 73.31748656666636,17.649127417352602" fill="hsl(94 50% 50%)" />
  <polygon points="45.664267704020304,2.441111622208717 48.13567050339171,0.04229033557562634 51.57943898050354,0.09361321542166312 53.978260267136626,2.5650160147930627 53.92693738729059,6.008784491904893 51.45553458791919,8.407605778537985 48.01176611080736,8.356282898691948 45.61294482417427,5.884880099320547" fill="hsl(97 50% 50%)" />
  <polygon points="50.382711671501156,60.94447597460768 53.531345190034614,59.548667130993195 56.74475120102085,60.788101344859506 58.140560044635336,63.936734863392964 56.90112583076902,67.15014087437919 53.75249231223556,68.54594971799368 50.53908630124933,67.30651550412738 49.14327745763484,64.1578819855939" fill="hsl(101 50% 50%)" />
  <polygon points="76.6909744462747,37.01832796368405 74.26814045293463,34.57046138180899 74.2858411660384,31.126355975945163 76.73370774791346,28.703521982605107 80.17781315377728,28.721222695708864 82.60064714711734,31.16908927758393 82.58294643401358,34.61319468344776 80.13507985213852,37.03602867678781" fill="hsl(104 50% 50%)" />
  <polygon points="71.74545257395893,24.961276830034198 74.08826677328642,27.48583560126023 73.95975395405311,30.92758803530274 71.43519518282707,33.27040223463023 67.99344274878457,33.141889415396925 65.65062854945708,30.617330644170895 65.77914136869039,27.175578210128386 68.30370013991643,24.83276401080089" fill="hsl(108 50% 50%)" />
  <polygon points="68.86889651597699,53.115155919584275 66.9711748519402,50.240990328009865 67.66162497455049,46.86675649050952 70.5357905661249,44.969034826472736 73.91002440362523,45.659484949083016 75.80774606766202,48.53365054065743 75.11729594505174,51.90788437815777 72.24313035347733,53.805606042194555" fill="hsl(112 50% 50%)" />
  <polygon points="63.63172949992254,24.34315636967227 65.79038544549532,27.026881368733864 65.41910555718216,30.450961771773343 62.73538055812057,32.60961771734611 59.31130015508109,32.238337829032965 57.15264420950832,29.554612829971365 57.52392409782147,26.130532426931882 60.20764909688306,23.971876481359118" fill="hsl(115 50% 50%)" />
  <polygon points="25.225152875476613,41.57648105450685 27.186806865200545,44.40739768813367 26.57214535506467,47.79625687522043 23.74122872143785,49.75791086494436 20.352369534351094,49.14324935480848 18.390715544627163,46.31233272118166 19.005377054763038,42.92347353409491 21.83629368838986,40.961819544370975" fill="hsl(119 50% 50%)" />
  <polygon points="13.769940018232905,43.52810648178819 10.340658783252302,43.20841041776061 8.141850022194287,40.5574831471175 8.461546086221865,37.128201912136895 11.112473356864978,34.92939315107888 14.541754591845582,35.24908921510646 16.740563352903596,37.90001648574957 16.420867288876018,41.329297720730175" fill="hsl(122 50% 50%)" />
  <polygon points="8.63440424789028,45.955498305363776 5.748240919175685,47.8349228454632 2.378461420796952,47.12305102114988 0.49903688069753116,44.236887692435275 1.2109087050108562,40.867108194056534 4.09707203372545,38.98768365395712 7.466851532104183,39.69955547827044 9.346276072203604,42.58571880698504" fill="hsl(126 50% 50%)" />
  <polygon points="50.32862990788031,43.49212917059704 53.155423933541414,41.52453904599498 56.545565477805795,42.13208795085576 58.513155602407856,44.958881976516864 57.90560669754707,48.349023520781245 55.07881267188597,50.316613645383306 51.68867112762159,49.70906474052252 49.72108100301953,46.88227071486142" fill="hsl(130 50% 50%)" />
  <polygon points="79.24860136122366,67.26098986973308 76.17712203571269,65.70272477197102 75.10711799388346,62.42900109511404 76.66538309164552,59.35752176960305 79.9391067685025,58.28751772777383 83.01058609401348,59.8457828255359 84.0805901358427,63.11950650239287 82.52232503808064,66.19098582790386" fill="hsl(133 50% 50%)" />
  <polygon points="93.34309762063918,70.4758510990103 91.03499143439507,67.91952146553842 91.21051191717932,64.47984591077049 93.7668415506512,62.17173972452638 97.20651710541912,62.34726020731063 99.51462329166324,64.9035898407825 99.33910280887899,68.34326539555043 96.78277317540712,70.65137158179455" fill="hsl(137 50% 50%)" />
  <polygon points="94.14768521783022,20.80568928808533 91.68480618995632,18.398117429136196 91.6456981157614,14.9541885796276 94.05326997471055,12.49130955175371 97.49719882421913,12.452201477558791 99.96007785209302,14.859773336507923 99.99918592628794,18.30370218601652 97.5916140673388,20.76658121389041" fill="hsl(140 50% 50%)" />
  <polygon points="18.072827952384074,47.207477924998955 18.369309610448195,50.638844123523434 16.152611493651797,53.274830622148976 12.721245295127307,53.57131228021309 10.085258796501773,51.3546141634167 9.788777138437652,47.92324796489222 12.00547525523405,45.28726146626668 15.43684145375854,44.99077980820256" fill="hsl(144 50% 50%)" />
  <polygon points="83.11385951356488,55.07707432590301 79.95166935798312,56.441892548922745 76.7505910349857,55.17095866709377 75.38577281196598,52.00876851151203 76.65670669379494,48.80769018851461 79.8188968493767,47.44287196549488 83.01997517237412,48.713805847323854 84.38479339539384,51.875996002905595" fill="hsl(148 50% 50%)" />
  <polygon points="8.089340032627941,29.59617946593321 8.984396676790597,26.270363932009975 11.969004016436768,24.55155783763078 15.294819550360009,25.446614481793443 17.013625644739196,28.431221821439607 16.118569000576542,31.757037355362844 13.133961660930371,33.47584344974204 9.80814612700713,32.58078680557938" fill="hsl(151 50% 50%)" />
  <polygon points="13.767934048864554,16.666413101140293 13.057556889271602,20.03650800382085 10.172227423595748,21.917212456000275 6.80213252091519,21.206835296407323 4.921428068735764,18.32150583073147 5.631805228328716,14.951410928050912 8.517134694004572,13.070706475871486 11.887229596685128,13.781083635464437" fill="hsl(155 50% 50%)" />
  <polygon points="27.140290494153284,86.49354973126185 24.301359910621223,84.5435116537282 23.672817991883853,81.15719943859877 25.62285606941751,78.31826885506672 29.009168284546938,77.68972693632935 31.848098868079,79.639765013863 32.47664078681637,83.02607722899243 30.526602709282713,85.86500781252448" fill="hsl(158 50% 50%)" />
  <polygon points="72.40066313998656,98.55349813004456 70.82663863842454,95.49006505089508 71.87980954359405,92.21088734810903 74.94324262274353,90.636862846547 78.22242032552958,91.69003375171651 79.7964448270916,94.75346683086599 78.7432739219221,98.03264453365205 75.67984084277262,99.60666903521407" fill="hsl(162 50% 50%)" />
  <polygon points="97.34322240768145,45.31709577097606 99.86154309671187,47.66661407674559 99.98090440659611,51.108696039692944 97.63138610082659,53.627016728723376 94.18930413787923,53.74637803860761 91.6709834488488,51.39685973283809 91.55162213896456,47.954777769890725 93.90114044473408,45.43645708086029" fill="hsl(166 50% 50%)" />
  <polygon points="43.03112546269231,66.08677924546767 40.81777892972925,63.447977910208564 41.11862090552117,60.01699124926882 43.75742224078027,57.80364471630576 47.18840890172002,58.10448669209768 49.401755434683075,60.74328802735678 49.100913458891156,64.17427468829652 46.46211212363205,66.38762122125958" fill="hsl(169 50% 50%)" />
  <polygon points="66.35310251994852,42.290295829360744 66.06794380829572,38.85797010601902 68.29332694378758,36.229311653078945 71.72565266712931,35.944152941426154 74.35431112006938,38.16953607691801 74.63946983172218,41.601861800259734 72.41408669623033,44.230520253199806 68.9817609728886,44.5156789648526" fill="hsl(173 50% 50%)" />
  <polygon points="18.277146121399362,66.33475672228708 17.58582755628759,69.7088127389348 14.711173621462038,71.60579458305898 11.337117604814324,70.91447601794721 9.440135760690143,68.03982208312165 10.131454325801911,64.66576606647394 13.006108260627467,62.76878422234976 16.380164277275178,63.46010278746152" fill="hsl(176 50% 50%)" />
  <polygon points="81.7850684013381,20.31164340256667 78.37577568919387,19.82287089427147 76.31065604845992,17.066522543391333 76.79942855675512,13.657229831247124 79.55577690763525,11.59211019051316 82.96506961977947,12.080882698808358 85.03018926051342,14.837231049688489 84.54141675221823,18.246523761832705" fill="hsl(180 50% 50%)" />
  <polygon points="13.83095076596813,62.67118924955317 10.670913753793968,61.30139311741006 9.405022287566641,58.09831738341973 10.774818419709753,54.938280371245575 13.977894153700078,53.672388905018245 17.13793116587424,55.04218503716136 18.403822632101566,58.245260771151685 17.034026499958454,61.40529778332584" fill="hsl(184 50% 50%)" />
  <polygon points="35.988788262929845,89.21352671494597 36.47874866090822,85.80440451555832 39.23581640591219,83.74024541040109 42.64493860529984,84.23020580837945 44.70909771045709,86.98727355338343 44.219137312478715,90.39639575277107 41.46206956747474,92.46055485792832 38.05294736808709,91.97059445994995" fill="hsl(187 50% 50%)" />
  <polygon points="90.8123470010044,69.83637575023778 88.44278933337418,72.33585005931151 84.99986380483266,72.42771499746519 82.50038949575892,70.05815732983497 82.40852455760525,66.61523180129346 84.77808222523547,64.11575749221971 88.22100775377699,64.02389255406604 90.72048206285072,66.39345022169626" fill="hsl(191 50% 50%)" />
  <polygon points="76.90453277419556,58.61700647123039 75.41962391402747,61.72461343462507 72.17222483247971,62.872034267235136 69.06461786908503,61.387125407067046 67.91719703647496,58.139726325519284 69.40210589664305,55.032119362124604 72.6495049781908,53.88469852951454 75.75711194158549,55.36960738968263" fill="hsl(194 50% 50%)" />
  <polygon points="33.77675445903203,73.73409622366725 30.60416203712155,75.07455610235853 27.412952151516496,73.77904275701567 26.072492272825215,70.60645033510521 27.368005618168063,67.41524044950015 30.54059804007854,66.07478057080887 33.73180792568359,67.37029391615171 35.072267804374874,70.54288633806219" fill="hsl(198 50% 50%)" />
  <polygon points="73.22873851469795,87.64255535822154 70.01138102231144,86.41341495609933 68.60549923531457,83.2692661423605 69.83463963743678,80.05190864997398 72.9787884511756,78.64602686297711 76.19614594356213,79.87516726509932 77.602027730559,83.01931607883816 76.37288732843679,86.23667357122467" fill="hsl(202 50% 50%)" />
  <polygon points="6.829567567592951,90.86206630173115 3.3858172044347397,90.91459056462494 0.9135777074629141,88.51663159259117 0.861053444569122,85.07288122943295 3.2590124166029035,82.60064173246113 6.702762779761115,82.54811746956733 9.17500227673294,84.94607644160111 9.227526539626734,88.38982680475932" fill="hsl(205 50% 50%)" />
  <polygon points="51.05677343808727,59.184892856496454 47.70460257685175,58.39424383257477 45.89333311552971,55.464827798545635 46.68398213945139,52.11265693731011 49.613398173480526,50.30138747598807 52.96556903471605,51.09203649990975 54.77683849603809,54.02145253393889 53.98618947211641,57.37362339517441" fill="hsl(209 50% 50%)" />
  <polygon points="34.858907912501756,0.15509803855165405 37.29608806456625,2.5886814598314256 37.298631337294225,6.032831412099573 34.86504791601446,8.470011564164054 31.420897963746317,8.472554836892034 28.983717811681828,6.038971415612263 28.981174538953844,2.594821463344131 31.41475796023361,0.15764131127963577" fill="hsl(212 50% 50%)" />
  <polygon points="52.24834312315251,37.04014570547032 50.10251034448126,34.34615664685764 50.490115367177836,30.923885805979438 53.18410442579051,28.77805302730819 56.60637526666872,29.165658050004765 58.75220804533997,31.859647108617448 58.364603022643394,35.28191794949565 55.67061396403072,37.4277507281669" fill="hsl(216 50% 50%)" />
  <polygon points="99.91478026738338,56.33493008405433 99.84712546167209,59.77841642629659 97.36437374625103,62.16548979792105 93.92088740400877,62.09783499220977 91.5338140323843,59.6150832767887 91.60146883809558,56.17159693454644 94.08422055351664,53.78452356292198 97.52770689575891,53.85217836863326" fill="hsl(220 50% 50%)" />
  <polygon points="70.75652833555573,89.57807106252321 71.28454985843858,92.98150589123924 69.2513256111699,95.76146533739372 65.84789078245387,96.28948686027657 63.067931336299395,94.25626261300789 62.53990981341654,90.85282778429186 64.57313406068522,88.07286833813738 67.97656888940124,87.54484681525453" fill="hsl(223 50% 50%)" />
  <polygon points="97.48183601269284,29.362222723500725 99.92921930027323,31.78554490711912 99.94623307004758,35.2296537749662 97.52291088642919,37.67703706254659 94.07880201858211,37.69405083232095 91.63141873100172,35.27072864870255 91.61440496122736,31.826619780855477 94.03772714484576,29.379236493275087" fill="hsl(227 50% 50%)" />
  <polygon points="40.23145314930397,62.181049474109315 37.71727205331676,64.53499696259018 34.27498531955133,64.42169469214848 31.92103783107045,61.90751359616127 32.03434010151216,58.465226862395824 34.54852119749937,56.111279373914954 37.99080793126482,56.22458164435667 40.34475541974568,58.738762740343866" fill="hsl(230 50% 50%)" />
  <polygon points="68.14961981609649,0.45551705733000336 70.92343768973461,2.497111964707693 71.44119751451788,5.902122996376348 69.3996026071402,8.675940870014468 65.99459157547155,9.193700694797743 63.22077370183342,7.152105787420052 62.70301387705015,3.747094755751397 64.74460878442784,0.9732768821132765" fill="hsl(234 50% 50%)" />
  <polygon points="66.3067908926018,37.907308205959566 64.87873014732247,41.04144570609212 61.65276883087438,42.24782414867357 58.518631330741826,40.819763403394255 57.31225288816037,37.593802086946155 58.74031363343969,34.4596645868136 61.96627494988779,33.25328614423215 65.10041245002034,34.68134688951147" fill="hsl(238 50% 50%)" />
  <polygon points="82.58062411498176,56.48549903934541 83.86805338749355,53.29101923345767 87.03724168949141,51.94253086924211 90.23172149537915,53.22996014175389 91.5802098595947,56.399148443751756 90.29278058708292,59.5936282496395 87.12359228508507,60.942116613855056 83.92911247919731,59.654687341343276" fill="hsl(241 50% 50%)" />
  <polygon points="55.51956112216075,9.41570245490288 53.974464799726434,6.337577584735208 55.058479681581254,3.0684665285209762 58.13660455174893,1.5233702060866552 61.40571560796316,2.6073850879414753 62.95081193039748,5.6855099581091455 61.86679704854266,8.954621014323378 58.78867217837498,10.4997173367577" fill="hsl(245 50% 50%)" />
  <polygon points="89.6621370237242,8.1671700346437 87.73463843022928,5.312888245117672 88.38997311283262,1.9316589101387462 91.24425490235866,0.004160316643825546 94.62548423733759,0.6594949992471721 96.5529828308325,3.513776788773196 95.89764814822917,6.895006123752122 93.04336635870312,8.822504717247043" fill="hsl(248 50% 50%)" />
  <polygon points="26.338121297989726,86.58696866522695 29.781221801758495,86.50191407750773 32.276004192027486,88.87641111628217 32.3610587797467,92.31951162005093 29.986561740972267,94.81429401031994 26.5434612372035,94.89934859803915 24.048678846934507,92.52485155926472 23.96362425921529,89.08175105549596" fill="hsl(252 50% 50%)" />
  <polygon points="38.674738908740196,39.0708033713221 37.4709156475313,35.84388767398552 38.9014580280844,32.7108821107306 42.12837372542098,31.507058849521705 45.2613792886759,32.937601230074804 46.46520254988479,36.164516927411384 45.034660169331694,39.2975224906663 41.807744471995115,40.5013457518752" fill="hsl(256 50% 50%)" />
  <polygon points="69.11224835968805,71.32575413148113 67.36816150678852,68.35584901321761 68.23494591472972,65.02255332394928 71.20485103299323,63.278466471049754 74.53814672226157,64.14525087899095 76.2822335751611,67.11515599725448 75.4154491672199,70.4484516865228 72.44554404895639,72.19253853942233" fill="hsl(259 50% 50%)" />
  <polygon points="36.37286631421315,91.15586785925571 39.13504408608325,93.21318390656869 39.633456591316424,96.6210806679997 37.57614054400343,99.3832584398698 34.16824378257241,99.88167094510298 31.406066010702315,97.82435489779 30.907653505469135,94.41645813635898 32.96496955278213,91.65428036448888" fill="hsl(263 50% 50%)" />
  <polygon points="22.97972453272329,8.881410955208416 20.266422466148278,6.760051189052619 19.847856051450687,3.341429022384876 21.96921581760649,0.6281269558098614 25.387837984274228,0.20956054111227385 28.10114005084924,2.330920307268073 28.51970646554683,5.749542473935813 26.39834669939103,8.462844540510826" fill="hsl(266 50% 50%)" />
  <polygon points="30.42403436819606,41.97310744016259 29.45212815121192,38.66893225301945 31.10129135556231,35.64528609525536 34.40546654270545,34.67337987827121 37.429112700469545,36.32254308262161 38.40101891745368,39.62671826976475 36.751855713103296,42.65036442752884 33.44768052596016,43.62227064451299" fill="hsl(270 50% 50%)" />
  <polygon points="14.967220845231582,72.22302932495634 17.27285504681958,74.78158874197455 17.094009911855814,78.22109303469531 14.535450494837617,80.5267272362833 11.095946202116842,80.34788210131956 8.790312000528843,77.78932268430135 8.969157135492608,74.34981839158058 11.527716552510805,72.04418418999259" fill="hsl(274 50% 50%)" />
  <polygon points="64.60698318911535,12.18208183905417 65.30625956194791,15.554497578007918 63.416064589106924,18.433618681155796 60.043648850153176,19.132895053988364 57.164527747005295,17.242700081147365 56.46525137417273,13.870284342193617 58.355446347013725,10.99116323904574 61.72786208596747,10.291886866213174" fill="hsl(277 50% 50%)" />
  <polygon points="69.04480991855168,54.78859734699022 67.95666614615769,58.05633639601862 64.87659186507592,59.59754299636898 61.60885281604753,58.509399223974995 60.067646215697174,55.42932494289324 61.15578998809116,52.16158589386484 64.23586426917292,50.62037929351448 67.50360331820131,51.708523065908466" fill="hsl(281 50% 50%)" />
  <polygon points="66.80611170431841,64.08324345038021 65.09638331436679,67.07306019970419 61.77330307789273,67.97821935913434 58.78348632856874,66.26849096918272 57.87832716913858,62.945410732708666 59.58805555909021,59.955593983384674 62.91113579556428,59.05043482395452 65.90095254488826,60.76016321390614" fill="hsl(284 50% 50%)" />
  <polygon points="23.091142023540904,15.45984170757843 22.37947965771806,12.090017967526697 24.259083590923463,9.203971464744107 27.628907330975196,8.492309098921265 30.514953833757787,10.371913032126669 31.22661619958063,13.741736772178399 29.347012266375227,16.62778327496099 25.977188526323495,17.339445640783833" fill="hsl(288 50% 50%)" />
  <polygon points="99.5593254866499,26.983485738817535 97.01194244567118,29.30146222801644 93.571613728972,29.139247299604314 91.25363723977308,26.591864258625602 91.41585216818521,23.151535541926414 93.96323520916393,20.83355905272751 97.40356392586311,20.995773981139635 99.72154041506202,23.543157022118347" fill="hsl(292 50% 50%)" />
  <polygon points="15.120815190621082,1.1147207385204538 18.14995276374017,2.7537756262722484 19.132889656973386,6.054686171237968 17.4938347692216,9.083823744357044 14.192924224255881,10.066760637590265 11.163786651136792,8.427705749838472 10.180849757903573,5.126795204872767 11.819904645655363,2.0976576317536764" fill="hsl(295 50% 50%)" />
  <polygon points="26.276044878879233,65.33737617246682 23.665707333487696,63.09053099287297 23.408679416722606,59.65598415057365 25.655524596316457,57.045646605182114 29.090071438615773,56.78861868841703 31.70040898400731,59.03546386801088 31.9574369007724,62.47001071031019 29.71059172117855,65.08034825570174" fill="hsl(299 50% 50%)" />
  <polygon points="73.28811151839975,10.689016898721224 71.35001859915396,7.841918165218258 71.9927827745532,4.45827669828236 74.83988150805617,2.5201837790365724 78.22352297499208,3.162947954435817 80.16161589423785,6.010046687938778 79.51885171883862,9.393688154874681 76.67175298533566,11.331781074120471" fill="hsl(302 50% 50%)" />
  <polygon points="35.978194434542694,82.32260355697014 33.2182984657784,80.26222747393494 32.72366321100452,76.85378041894353 34.784039294039715,74.09388445017925 38.19248634903112,73.59924919540535 40.95238231779541,75.65962527844054 41.447017572569294,79.06807233343196 39.3866414895341,81.82796830219624" fill="hsl(306 50% 50%)" />
  <polygon points="87.41008847745965,84.2946873402167 90.41805072120911,82.6170883112105 93.73124287083971,83.55779716179659 95.40884189984591,86.56575940554605 94.46813304925982,89.87895155517664 91.46017080551036,91.55655058418284 88.14697865587976,90.61584173359675 86.46937962687356,87.60787948984729" fill="hsl(310 50% 50%)" />
  <polygon points="63.34882819200918,75.2264047599958 66.67799925390338,76.10889861413362 68.4080612988825,79.08699543634533 67.52556744474468,82.41616649823955 64.54747062253296,84.14622854321865 61.21829956063875,83.26373468908083 59.48823751565964,80.28563786686912 60.37073136979746,76.95646680497491" fill="hsl(313 50% 50%)" />
  <polygon points="47.885652529139335,84.70395806587504 51.22078157417303,83.84425485259882 54.18697590996405,85.59464524455889 55.04667912324027,88.92977428959259 53.2962887312802,91.8959686253836 49.9611596862465,92.75567183865982 46.99496535045548,91.00528144669975 46.13526213717927,87.67015240166606" fill="hsl(317 50% 50%)" />
  <polygon points="83.59097270712637,72.25371942846463 82.69706941052307,75.57984514140253 79.71305828107255,77.29968610534665 76.38693256813465,76.40578280874335 74.66709160419053,73.42177167929282 75.56099490079383,70.09564596635494 78.54500603024435,68.37580500241081 81.87113174318225,69.26970829901411" fill="hsl(320 50% 50%)" />
  <polygon points="31.064094778118477,12.142803284119816 32.8072644052559,9.17235971236653 36.14029226208193,8.304545983755093 39.110735833835214,10.047715610892514 39.97854956244666,13.380743467718547 38.23537993530923,16.35118703947183 34.902352078483204,17.21900076808327 31.93190850672992,15.47583114094585" fill="hsl(324 50% 50%)" />
  <polygon points="19.164913839118846,72.99018746487485 22.550070190295713,72.35544984976782 25.392564473505935,74.30028958914534 26.027302088612963,77.6854459403222 24.082462349235442,80.52794022353243 20.697305998058575,81.16267783863945 17.854811714848353,79.21783809926194 17.220074099741325,75.83268174808508" fill="hsl(328 50% 50%)" />
  <polygon points="6.542923369694067,99.17202811961033 3.123514343441413,99.58411703371345 0.41423616771354554,97.45762058921385 0.002147253610409905,94.0382115629612 2.128643698110022,91.32893338723332 5.548052724362676,90.9168444731302 8.257330900090544,93.0433409176298 8.669419814193681,96.46274994388246" fill="hsl(331 50% 50%)" />
  <polygon points="99.91920660988501,73.26286914181352 99.74455327271221,76.70258883588153 97.18880559258407,79.01133939786618 93.74908589851609,78.83668606069338 91.44033533653143,76.28093838056523 91.61498867370423,72.84121868649723 94.17073635383237,70.53246812451258 97.61045604790036,70.70712146168538" fill="hsl(335 50% 50%)" />
  <polygon points="47.653446970813384,29.022163912611287 44.22794677775586,29.380107748020826 41.55264784898705,27.211017845856034 41.19470401357751,23.785517652798504 43.3637939157423,21.110218724029696 46.78929410879982,20.752274888620157 49.46459303756863,22.92136479078495 49.822536872978176,26.34686498384248" fill="hsl(338 50% 50%)" />
  <polygon points="21.41793621539211,36.140521069127374 22.677932674479884,32.93512182955813 25.835444253681505,31.559514331340516 29.04084349325075,32.81951079042829 30.416450991468366,35.97702236962991 29.156454532380593,39.18242160919915 25.99894295317897,40.558029107416765 22.79354371360973,39.29803264832899" fill="hsl(342 50% 50%)" />
  <polygon points="67.65742889179985,17.58728448836358 65.33700734361074,15.042128461585575 65.49591861738735,11.601645563937119 68.04107464416536,9.281224015747991 71.48155754181381,9.440135289524612 73.80197909000294,11.985291316302622 73.64306781622632,15.425774213951074 71.0979117894483,17.746195762140204" fill="hsl(346 50% 50%)" />
  <polygon points="16.73543232781042,88.70209729200651 17.074958488867907,92.12947199400546 14.891519846291208,94.79307313833013 11.464145144292255,95.1325992993876 8.800543999967594,92.94916065681092 8.461017838910106,89.52178595481197 10.644456481486804,86.8581848104873 14.071831183485758,86.51865864942982" fill="hsl(349 50% 50%)" />
  <polygon points="9.453071976943018,68.42304251529279 9.104815058464045,71.8495410897382 6.435659852096051,74.02618663880295 3.0091612776506516,73.67792972032399 0.8325157285858849,71.00877451395598 1.1807726470648596,67.5822759395106 3.849927853432853,65.40563039044582 7.276426427878253,65.75388730892479" fill="hsl(353 50% 50%)" />
  <polygon points="41.88589031458039,65.31994390474269 43.623295593488905,68.29376270533656 42.74901920795445,71.62510119964206 39.775200407360565,73.36250647855059 36.443861913055066,72.48823009301613 34.70645663414655,69.51441129242225 35.580733019681,66.18307279811675 38.55455182027488,64.44566751920823" fill="hsl(356 50% 50%)" />
</svg>
